<?xml version="1.0" encoding="UTF-8"?>
<svg version="1.1" xmlns="http://www.w3.org/2000/svg" width="486" height="165">
<path d="M0 0 C160.38 0 320.76 0 486 0 C486 54.45 486 108.9 486 165 C325.62 165 165.24 165 0 165 C0 110.55 0 56.1 0 0 Z " fill="#FDFDFD" transform="translate(0,0)"/>
<path d="M0 0 C1.07754044 0.00448654 1.07754044 0.00448654 2.17684937 0.00906372 C19.00331655 0.09023928 36.3899121 0.87656297 52.875 4.375 C52.875 5.035 52.875 5.695 52.875 6.375 C54.12603516 6.43107422 54.12603516 6.43107422 55.40234375 6.48828125 C61.44769269 6.84144596 66.75476419 7.39435717 72.4140625 9.55078125 C76.75109093 11.00334156 81.25485805 11.75589645 85.73828125 12.62890625 C88.875 13.375 88.875 13.375 90.75 14.3359375 C94.17023315 16.00833091 97.85802907 16.62492631 101.5625 17.4375 C109.74643987 19.24643987 109.74643987 19.24643987 110.875 20.375 C113.09355264 20.46283542 115.31488496 20.48194609 117.53515625 20.47265625 C118.19962265 20.4712413 118.86408905 20.46982635 119.5486908 20.46836853 C121.67833899 20.46275518 123.80788339 20.45020054 125.9375 20.4375 C127.37825369 20.43248671 128.81900903 20.42792351 130.25976562 20.42382812 C133.79821102 20.41278145 137.33659539 20.39550792 140.875 20.375 C140.51730429 28.74116566 140.51730429 28.74116566 138.09765625 31.12890625 C137.38480469 31.39574219 136.67195313 31.66257812 135.9375 31.9375 C134.87208984 32.37255859 134.87208984 32.37255859 133.78515625 32.81640625 C131.875 33.375 131.875 33.375 129.875 33.375 C130.21727572 36.34565509 130.21727572 36.34565509 130.875 39.375 C133.86696987 40.87098493 136.9568186 40.60289164 140.26953125 40.703125 C144.05398571 41.6790263 145.53727914 43.27596827 147.875 46.375 C148.46875 49.94140625 148.46875 49.94140625 148.375 53.9375 C148.35872559 54.63842773 148.34245117 55.33935547 148.32568359 56.06152344 C148.022776 63.84500865 146.58707093 71.46732018 142.875 78.375 C142.215 78.375 141.555 78.375 140.875 78.375 C140.50459595 79.31230957 140.50459595 79.31230957 140.12670898 80.26855469 C138.59489889 82.84636969 137.66303165 83.18276487 134.84765625 84.078125 C133.65946289 84.46484375 133.65946289 84.46484375 132.44726562 84.859375 C131.61904297 85.11203125 130.79082031 85.3646875 129.9375 85.625 C128.7009668 86.0271875 128.7009668 86.0271875 127.43945312 86.4375 C121.35511001 88.375 121.35511001 88.375 117.875 88.375 C117.77703125 87.3128125 117.6790625 86.250625 117.578125 85.15625 C116.78426675 77.39917317 115.95485975 71.17476625 111.875 64.375 C111.875 63.715 111.875 63.055 111.875 62.375 C111.215 62.375 110.555 62.375 109.875 62.375 C109.50568359 61.48167969 109.50568359 61.48167969 109.12890625 60.5703125 C107.67324025 58.0217633 106.21172028 56.91334328 103.8125 55.25 C99.97222222 52.56944444 99.97222222 52.56944444 98.875 50.375 C87.92627412 46.38365846 76.68138976 45.77811379 65.875 50.375 C57.04226997 55.08578935 51.677209 62.49871174 48.6015625 71.859375 C47.56618668 75.44422461 46.75670989 78.74847069 46.55859375 82.484375 C46.51669922 83.23847656 46.47480469 83.99257812 46.43164062 84.76953125 C46.37266602 85.93548828 46.37266602 85.93548828 46.3125 87.125 C46.26931641 87.91777344 46.22613281 88.71054688 46.18164062 89.52734375 C46.07597009 91.47637815 45.97502034 93.42566748 45.875 95.375 C45.10470553 95.37923194 44.33441107 95.38346388 43.54077435 95.38782406 C24.81305535 95.49104946 6.08537484 95.59967501 -12.64227772 95.71433926 C-21.69876115 95.76965886 -30.75524853 95.8231388 -39.81176758 95.87231445 C-47.70379995 95.91517174 -55.59580346 95.96145366 -63.48779124 96.01187855 C-67.66799206 96.03846702 -71.8481872 96.06331981 -76.0284214 96.08407402 C-79.96080238 96.10365172 -83.89312848 96.12779894 -87.82546043 96.15549088 C-89.27065408 96.16485529 -90.71585978 96.17253277 -92.16107178 96.17841911 C-94.13062412 96.1866905 -96.10014551 96.20155616 -98.06965637 96.21678162 C-99.17304257 96.22323417 -100.27642878 96.22968672 -101.41325092 96.2363348 C-104.22203319 96.25880687 -104.22203319 96.25880687 -107.125 97.375 C-26.935 97.87 -26.935 97.87 54.875 98.375 C53.885 95.075 52.895 91.775 51.875 88.375 C50.91709522 78.28882613 51.18852802 69.79628233 57 61.25 C63.39466281 54.24267489 70.80423872 50.93967885 80.125 50.1953125 C86.71353515 49.98942078 93.32243943 50.67329295 98.875 54.375 C98.875 55.035 98.875 55.695 98.875 56.375 C99.63425781 56.61863281 100.39351563 56.86226562 101.17578125 57.11328125 C106.56961658 59.63456752 109.08178349 65.42801402 111.25 70.75 C112.09919073 75.67530624 112.08936582 80.39284275 111.875 85.375 C111.83375 86.57125 111.7925 87.7675 111.75 89 C109.78664666 96.57293431 104.91251714 101.70964585 98.875 106.375 C98.215 107.365 97.555 108.355 96.875 109.375 C92.44647954 111.84038714 87.84209583 111.81101355 82.89613342 111.99191284 C82.01537268 112.0295285 81.13461193 112.06714416 80.22716147 112.10589969 C70.33177821 112.4937744 60.43833292 112.51562034 50.53686523 112.50439453 C48.48595143 112.50575397 46.43503787 112.50753692 44.38412476 112.50970459 C38.87800443 112.51421417 33.3719031 112.51251644 27.8657825 112.5093255 C22.06514868 112.50676842 16.26451634 112.50914864 10.46388245 112.51071167 C0.72958081 112.51252353 -9.0047132 112.51015281 -18.73901367 112.50537109 C-29.94643374 112.49992885 -41.1538356 112.50169485 -52.36125523 112.5071975 C-62.03576231 112.51175492 -71.71026396 112.51236641 -81.38477176 112.50975883 C-87.14021568 112.50821066 -92.89565109 112.50796183 -98.65109444 112.51129532 C-104.06444387 112.51421251 -109.47777013 112.51212864 -114.8911171 112.50640106 C-116.8617607 112.50509396 -118.83240631 112.50543204 -120.80304909 112.50766373 C-130.42022933 112.51753958 -140.02175367 112.42485548 -149.63023376 111.98800659 C-150.41205664 111.95712609 -151.19387952 111.9262456 -151.999394 111.89442933 C-161.36129669 111.40394923 -165.82197073 107.96274555 -172.125 101.375 C-175.09922916 98.07030093 -176.61619412 95.82705147 -177.125 91.375 C-177.785 91.375 -178.445 91.375 -179.125 91.375 C-180.7748007 88.07539859 -180.50758361 84.38372116 -180.6875 80.75 C-180.73068359 79.94820313 -180.77386719 79.14640625 -180.81835938 78.3203125 C-180.92451457 76.3387489 -181.02526855 74.35689729 -181.125 72.375 C-182.8023613 75.34769013 -183.45353897 77.75014854 -183.7578125 81.140625 C-183.84160156 82.03007813 -183.92539063 82.91953125 -184.01171875 83.8359375 C-184.09035156 84.75632812 -184.16898438 85.67671875 -184.25 86.625 C-184.33636719 87.56085938 -184.42273438 88.49671875 -184.51171875 89.4609375 C-184.72332308 91.76507353 -184.92748677 94.06962044 -185.125 96.375 C-188.68734428 96.46241124 -192.24941108 96.51552896 -195.8125 96.5625 C-196.81990234 96.58763672 -197.82730469 96.61277344 -198.86523438 96.63867188 C-208.08322299 96.72993909 -208.08322299 96.72993909 -212.125 93.375 C-211.465 92.055 -210.805 90.735 -210.125 89.375 C-209.465 89.375 -208.805 89.375 -208.125 89.375 C-208.45242187 88.47652344 -208.77984375 87.57804687 -209.1171875 86.65234375 C-210.68301831 81.17193591 -210.33718206 75.58756838 -210.25 69.9375 C-210.24097656 68.82439453 -210.23195312 67.71128906 -210.22265625 66.56445312 C-210.1992224 63.83440977 -210.166414 61.1048199 -210.125 58.375 C-208.64 57.88 -208.64 57.88 -207.125 57.375 C-207.125 58.035 -207.125 58.695 -207.125 59.375 C-192.06288387 54.93989838 -192.06288387 54.93989838 -179.125 46.375 C-178.795 45.385 -178.465 44.395 -178.125 43.375 C-179.115 42.88 -179.115 42.88 -180.125 42.375 C-177.47761084 40.9143715 -176.23051666 40.375 -173.125 40.375 C-173.125 39.715 -173.125 39.055 -173.125 38.375 C-166.19235566 36.67224525 -159.26636094 35.68958797 -152.1875 34.83984375 C-149.25701987 34.7046819 -149.25701987 34.7046819 -148.125 33.375 C-146.78006565 33.17597616 -145.42601855 33.03785279 -144.07104492 32.92602539 C-142.77785591 32.81569725 -142.77785591 32.81569725 -141.45854187 32.70314026 C-140.04627068 32.58905067 -140.04627068 32.58905067 -138.60546875 32.47265625 C-137.63652176 32.39003036 -136.66757477 32.30740448 -135.66926575 32.22227478 C-131.51387922 31.8679912 -127.35765666 31.5240291 -123.20141602 31.17993164 C-102.70621511 30.41070887 -102.70621511 30.41070887 -83.96484375 23.3984375 C-82.125 22.375 -82.125 22.375 -79.125 22.375 C-79.125 21.715 -79.125 21.055 -79.125 20.375 C-78.26777344 20.04886719 -77.41054687 19.72273438 -76.52734375 19.38671875 C-69.54884378 16.74138217 -69.54884378 16.74138217 -62.6875 13.8125 C-58.1510619 11.98200743 -53.50984972 10.77802825 -48.796875 9.48046875 C-45.33861015 8.43931029 -42.08432368 7.19350719 -38.75 5.8125 C-26.17383011 0.86509364 -13.36952211 -0.14647321 0 0 Z " fill="#040404" transform="translate(274.125,24.625)"/>
<path d="M0 0 C9.02096306 7.84924579 13.12586351 16.08726994 15.3125 27.875 C15.59126927 32.23639013 15.57329012 36.51400969 15.3125 40.875 C16.33190454 40.71248025 17.35130907 40.5499605 18.40160465 40.38251591 C21.95806782 39.92099457 25.30557702 39.75176359 28.88682556 39.75474548 C30.80706543 39.75268349 30.80706543 39.75268349 32.76609802 39.75057983 C34.16690087 39.75411805 35.56770348 39.75775285 36.96850586 39.76147461 C38.45720416 39.76175696 39.94590261 39.76159781 41.43460083 39.7610321 C45.4609297 39.76074601 49.48722859 39.76661242 53.51355052 39.77360606 C57.72693271 39.77987082 61.94031565 39.78044587 66.15370178 39.78163147 C74.12560951 39.78473559 82.09750347 39.79293657 90.06940514 39.80298096 C99.14799018 39.81417067 108.2265759 39.81965974 117.30516613 39.82467639 C135.97428521 39.83511996 154.6433915 39.85270158 173.3125 39.875 C173.28929687 38.68261719 173.26609375 37.49023438 173.2421875 36.26171875 C173.22342822 34.69531876 173.20522819 33.128912 173.1875 31.5625 C173.17074219 30.77681641 173.15398437 29.99113281 173.13671875 29.18164062 C173.13027344 28.42431641 173.12382812 27.66699219 173.1171875 26.88671875 C173.10671387 26.19022217 173.09624023 25.49372559 173.08544922 24.77612305 C173.3125 22.875 173.3125 22.875 175.3125 19.875 C174.9825 26.805 174.6525 33.735 174.3125 40.875 C171.50367561 40.8904612 171.50367561 40.8904612 168.6381073 40.90623474 C151.02378039 41.00383003 133.40948951 41.10649196 115.79522228 41.21433926 C106.73873885 41.26965886 97.68225147 41.3231388 88.62573242 41.37231445 C80.73370005 41.41517174 72.84169654 41.46145366 64.94970876 41.51187855 C60.76950794 41.53846702 56.5893128 41.56331981 52.4090786 41.58407402 C48.47669762 41.60365172 44.54437152 41.62779894 40.61203957 41.65549088 C39.16684592 41.66485529 37.72164022 41.67253277 36.27642822 41.67841911 C34.30687588 41.6866905 32.33735449 41.70155616 30.36784363 41.71678162 C28.71276433 41.72646044 28.71276433 41.72646044 27.02424908 41.7363348 C24.21546681 41.75880687 24.21546681 41.75880687 21.3125 42.875 C101.5025 43.37 101.5025 43.37 183.3125 43.875 C182.3225 40.575 181.3325 37.275 180.3125 33.875 C179.35459522 23.78882613 179.62602802 15.29628233 185.4375 6.75 C191.83216281 -0.25732511 199.24173872 -3.56032115 208.5625 -4.3046875 C215.15103515 -4.51057922 221.75993943 -3.82670705 227.3125 -0.125 C227.3125 0.535 227.3125 1.195 227.3125 1.875 C228.07175781 2.11863281 228.83101563 2.36226562 229.61328125 2.61328125 C235.00711658 5.13456752 237.51928349 10.92801402 239.6875 16.25 C240.53669073 21.17530624 240.52686582 25.89284275 240.3125 30.875 C240.27125 32.07125 240.23 33.2675 240.1875 34.5 C238.22414666 42.07293431 233.35001714 47.20964585 227.3125 51.875 C226.6525 52.865 225.9925 53.855 225.3125 54.875 C220.88397954 57.34038714 216.27959583 57.31101355 211.33363342 57.49191284 C210.45287268 57.5295285 209.57211193 57.56714416 208.66466147 57.60589969 C198.76927821 57.9937744 188.87583292 58.01562034 178.97436523 58.00439453 C176.92345143 58.00575397 174.87253787 58.00753692 172.82162476 58.00970459 C167.31550443 58.01421417 161.8094031 58.01251644 156.3032825 58.0093255 C150.50264868 58.00676842 144.70201634 58.00914864 138.90138245 58.01071167 C129.16708081 58.01252353 119.4327868 58.01015281 109.69848633 58.00537109 C98.49106626 57.99992885 87.2836644 58.00169485 76.07624477 58.0071975 C66.40173769 58.01175492 56.72723604 58.01236641 47.05272824 58.00975883 C41.29728432 58.00821066 35.54184891 58.00796183 29.78640556 58.01129532 C24.37305613 58.01421251 18.95972987 58.01212864 13.5463829 58.00640106 C11.5757393 58.00509396 9.60509369 58.00543204 7.63445091 58.00766373 C-1.98272933 58.01753958 -11.58425367 57.92485548 -21.19273376 57.48800659 C-21.97455664 57.45712609 -22.75637952 57.4262456 -23.561894 57.39442933 C-32.92379669 56.90394923 -37.38447073 53.46274555 -43.6875 46.875 C-46.66172916 43.57030093 -48.17869412 41.32705147 -48.6875 36.875 C-49.3475 36.875 -50.0075 36.875 -50.6875 36.875 C-52.3373007 33.57539859 -52.07008361 29.88372116 -52.25 26.25 C-52.29318359 25.44820312 -52.33636719 24.64640625 -52.38085938 23.8203125 C-52.48701457 21.8387489 -52.58776855 19.85689729 -52.6875 17.875 C-53.3475 18.205 -54.0075 18.535 -54.6875 18.875 C-52.3770297 9.32505611 -46.81173401 2.88302198 -39.125 -3.125 C-26.54258536 -10.44567761 -11.23829698 -8.66695043 0 0 Z " fill="#C6C5C5" transform="translate(145.6875,79.125)"/>
<path d="M0 0 C6.20121567 4.54365802 6.20121567 4.54365802 7.234375 7.60546875 C7.316875 8.19199219 7.399375 8.77851562 7.484375 9.3828125 C8.144375 9.3828125 8.804375 9.3828125 9.484375 9.3828125 C9.95875 10.5171875 10.433125 11.6515625 10.921875 12.8203125 C12.12059583 16.14021416 12.12059583 16.14021416 13.484375 17.3828125 C14.47912369 32.72489802 14.47912369 32.72489802 10.484375 39.3828125 C10.0821875 40.09695312 9.68 40.81109375 9.265625 41.546875 C5.30935249 48.11868323 -0.08909906 53.90730385 -7.515625 56.3828125 C-15.96527729 57.22204123 -26.38545877 58.22847019 -33.59375 53.125 C-41.551582 45.91119295 -46.82383932 39.93037161 -47.8203125 29.05859375 C-48.20351477 18.63323798 -46.51628632 11.26406331 -39.390625 3.5078125 C-28.50921434 -6.50521197 -12.5715609 -8.08171772 0 0 Z " fill="#040404" transform="translate(142.515625,79.6171875)"/>
<path d="M0 0 C0 0.66 0 1.32 0 2 C0.75925781 2.24363281 1.51851563 2.48726563 2.30078125 2.73828125 C7.69461658 5.25956752 10.20678349 11.05301402 12.375 16.375 C13.22419073 21.30030624 13.21436582 26.01784275 13 31 C12.95875 32.19625 12.9175 33.3925 12.875 34.625 C10.91164666 42.19793431 6.03751714 47.33464585 0 52 C-0.66 52.99 -1.32 53.98 -2 55 C-8.577175 58.63896037 -17.74953897 57.96862741 -25 57 C-33.24006337 54.32566963 -39.51410743 50.18852133 -43.6875 42.5 C-44.10386719 41.7471875 -44.52023437 40.994375 -44.94921875 40.21875 C-48.43498216 32.85847633 -48.44799695 21.02836403 -45.8125 13.375 C-41.72739635 5.76825528 -35.98150477 0.16571725 -27.734375 -2.8203125 C-18.76339877 -5.04737303 -7.90474613 -5.26983075 0 0 Z " fill="#030303" transform="translate(373,79)"/>
<path d="M0 0 C1.66095703 0.0009668 1.66095703 0.0009668 3.35546875 0.00195312 C22.4985194 0.1031796 22.4985194 0.1031796 27.125 3.1875 C26.59911131 7.85822188 25.37408049 11.02863513 22.875 15 C22.29234375 15.95519531 21.7096875 16.91039063 21.109375 17.89453125 C18.69269099 20.68703817 17.70843407 20.69737623 14.125 21.1875 C12.11956356 21.33123377 10.11090103 21.43324239 8.1015625 21.50390625 C6.92553467 21.54588135 5.74950684 21.58785645 4.5378418 21.63110352 C3.287854 21.67033936 2.03786621 21.7095752 0.75 21.75 C-1.17042114 21.81368774 -1.17042114 21.81368774 -3.12963867 21.87866211 C-14.71307431 22.23568335 -26.2873354 22.29887043 -37.875 22.1875 C-38.37 19.7125 -38.37 19.7125 -38.875 17.1875 C-48.29369642 16.68116649 -48.29369642 16.68116649 -56.875 20.1875 C-57.535 20.1875 -58.195 20.1875 -58.875 20.1875 C-58.875 19.1975 -58.875 18.2075 -58.875 17.1875 C-58.22273437 16.93355469 -57.57046875 16.67960937 -56.8984375 16.41796875 C-51.32392267 14.22984679 -51.32392267 14.22984679 -45.9375 11.625 C-43.11662935 10.30091786 -40.63330097 9.5656271 -37.625 8.8125 C-32.8441466 7.5881351 -28.83205552 5.81421677 -24.5546875 3.37109375 C-16.62025152 -0.13347491 -8.54721303 -0.09387113 0 0 Z " fill="#F7F7F7" transform="translate(268.875,31.8125)"/>
<path d="M0 0 C2.9375 2.4375 2.9375 2.4375 5 5 C5.9075 5.680625 6.815 6.36125 7.75 7.0625 C10.10171348 9.08758661 10.67587628 9.97484531 11 13 C11.66 13 12.32 13 13 13 C14.06775224 14.96466413 15.06553465 16.96855359 16 19 C15.67 19.66 15.34 20.32 15 21 C14.34 20.67 13.68 20.34 13 20 C13.16113281 20.51433594 13.32226562 21.02867188 13.48828125 21.55859375 C14.15835146 24.75549359 14.17033436 27.79759487 14.1875 31.0625 C14.20167969 32.29097656 14.21585938 33.51945312 14.23046875 34.78515625 C14 38 14 38 12 41 C12.04640625 39.97261719 12.0928125 38.94523437 12.140625 37.88671875 C12.45826205 27.78708233 11.68210006 19.63821571 6 10.9375 C4.07295242 9.07067266 2.48656252 7.97686385 0 7 C0 6.34 0 5.68 0 5 C-12.08384992 1.56499698 -22.35988384 0.29975216 -34.04296875 5.99609375 C-39.35854918 9.38726978 -43.50515401 14.87350898 -45.65234375 20.80078125 C-46.1693286 24.07114611 -46.18439085 27.3230777 -46.1875 30.625 C-46.19974609 31.28628906 -46.21199219 31.94757813 -46.22460938 32.62890625 C-46.2415444 38.51100413 -45.20822511 42.95887447 -44 49 C-97.79 49 -151.58 49 -207 49 C-206 47 -206 47 -203 46 C-200.9832293 45.90848738 -198.96350153 45.8780589 -196.94465637 45.87974548 C-195.67840927 45.87837082 -194.41216217 45.87699615 -193.10754395 45.87557983 C-191.70165992 45.87911898 -190.29577613 45.88275379 -188.88989258 45.88647461 C-187.41163637 45.88675664 -185.93338003 45.88659844 -184.4551239 45.8860321 C-180.43888848 45.88574474 -176.42268282 45.89163166 -172.40645432 45.89860606 C-168.21039877 45.9048497 -164.01434256 45.9054442 -159.81828308 45.90663147 C-151.87103333 45.9097418 -143.92379732 45.91795118 -135.97655362 45.92798096 C-126.92949966 45.93915134 -117.88244505 45.94465488 -108.83538592 45.94967639 C-90.22358282 45.96013403 -71.61179252 45.97772771 -53 46 C-53.02827881 44.2821228 -53.02827881 44.2821228 -53.05712891 42.52954102 C-53.07238158 41.0001671 -53.08716794 39.47078848 -53.1015625 37.94140625 C-53.11517822 37.18976196 -53.12879395 36.43811768 -53.14282227 35.66369629 C-53.21283039 25.71446468 -50.59740871 17.12109643 -44.3671875 9.29296875 C-43 8 -43 8 -41 8 C-40.74476563 7.39414063 -40.48953125 6.78828125 -40.2265625 6.1640625 C-37.61623214 1.55857517 -32.14273255 -0.87190662 -27.1875 -2.3125 C-18.04398505 -4.16615605 -8.71501605 -3.3025324 0 0 Z " fill="#FCFCFC" transform="translate(373,74)"/>
<path d="M0 0 C2.9375 2.4375 2.9375 2.4375 5 5 C5.9075 5.680625 6.815 6.36125 7.75 7.0625 C10.10171348 9.08758661 10.67587628 9.97484531 11 13 C11.66 13 12.32 13 13 13 C14.06775224 14.96466413 15.06553465 16.96855359 16 19 C15.67 19.66 15.34 20.32 15 21 C14.34 20.67 13.68 20.34 13 20 C13.16113281 20.51433594 13.32226562 21.02867188 13.48828125 21.55859375 C14.15835146 24.75549359 14.17033436 27.79759487 14.1875 31.0625 C14.20167969 32.29097656 14.21585937 33.51945312 14.23046875 34.78515625 C14 38 14 38 12 41 C12.04640625 39.97261719 12.0928125 38.94523437 12.140625 37.88671875 C12.45826205 27.78708233 11.68210006 19.63821571 6 10.9375 C4.07295242 9.07067266 2.48656252 7.97686385 0 7 C0 6.34 0 5.68 0 5 C-12.08384992 1.56499698 -22.35988384 0.29975216 -34.04296875 5.99609375 C-39.26488524 9.32751509 -43.73067683 14.88139906 -45.56665039 20.83862305 C-46.04104732 23.20472784 -46.11312077 25.35316046 -46.09765625 27.765625 C-46.09443359 28.65507813 -46.09121094 29.54453125 -46.08789062 30.4609375 C-46.07532227 31.84152344 -46.07532227 31.84152344 -46.0625 33.25 C-46.05798828 34.18585938 -46.05347656 35.12171875 -46.04882812 36.0859375 C-46.03706918 38.39069041 -46.02063426 40.69531227 -46 43 C-49.02093215 39.97906785 -48.46676834 36.43627928 -48.625 32.375 C-48.68300781 31.17230469 -48.68300781 31.17230469 -48.7421875 29.9453125 C-48.83653931 27.96392444 -48.91936215 25.98199355 -49 24 C-49.66 24.33 -50.32 24.66 -51 25 C-50.07887435 18.13920202 -47.9701144 12.95660865 -43 8 C-42.34 8 -41.68 8 -41 8 C-40.74476563 7.39414063 -40.48953125 6.78828125 -40.2265625 6.1640625 C-37.61623214 1.55857517 -32.14273255 -0.87190662 -27.1875 -2.3125 C-18.04398505 -4.16615605 -8.71501605 -3.3025324 0 0 Z " fill="#9D9D9D" transform="translate(373,74)"/>
<path d="M0 0 C1.0209375 1.051875 1.0209375 1.051875 2.0625 2.125 C6.95611863 6.99097107 11.60698597 11.19331092 18 14 C18 14.33 18 14.66 18 15 C3.650006 15.26223339 -10.13514955 15.18229963 -24 11 C-24 10.01 -24 9.02 -24 8 C-15.59186659 5.48877082 -7.8795045 3.24785374 1 4 C0.67 2.68 0.34 1.36 0 0 Z " fill="#CCCACB" transform="translate(98,121)"/>
<path d="M0 0 C2.03600033 0.45064339 4.05927129 0.95835141 6.078125 1.48046875 C6.078125 2.80046875 6.078125 4.12046875 6.078125 5.48046875 C5.418125 5.48046875 4.758125 5.48046875 4.078125 5.48046875 C3.90539062 6.1146875 3.73265625 6.74890625 3.5546875 7.40234375 C2.078125 9.48046875 2.078125 9.48046875 -1.3359375 10.30859375 C-2.73755521 10.46817072 -4.14152492 10.60804261 -5.546875 10.73046875 C-6.23394531 10.8078125 -6.92101562 10.88515625 -7.62890625 10.96484375 C-12.40861734 11.46702728 -17.1181269 11.54523839 -21.921875 11.48046875 C-22.2193798 3.74534399 -22.2193798 3.74534399 -19.921875 0.48046875 C-14.33079797 -3.24691593 -6.39929793 -1.13784308 0 0 Z " fill="#EBEBEB" transform="translate(324.921875,37.51953125)"/>
<path d="M0 0 C4.77776664 4.08660096 8.24693959 8.40355674 11.3125 13.875 C10.3125 15.875 10.3125 15.875 8.3125 16.875 C6.3125 13.875 6.3125 13.875 6.3125 9.875 C5.6525 9.875 4.9925 9.875 4.3125 9.875 C3.77625 8.988125 3.24 8.10125 2.6875 7.1875 C-0.52423195 2.13708136 -5.47254667 -0.21296039 -10.875 -2.4375 C-20.26363707 -4.13053291 -29.34305387 -4.17445971 -37.6875 0.875 C-43.92750502 5.56852198 -48.18715859 11.1424712 -49.6875 18.875 C-50.10727051 24.87399887 -49.92292108 30.87176239 -49.6875 36.875 C-52.70843215 33.85406785 -52.15426834 30.31127928 -52.3125 26.25 C-52.37050781 25.04730469 -52.37050781 25.04730469 -52.4296875 23.8203125 C-52.52403931 21.83892444 -52.60686215 19.85699355 -52.6875 17.875 C-53.3475 18.205 -54.0075 18.535 -54.6875 18.875 C-52.3770297 9.32505611 -46.81173401 2.88302198 -39.125 -3.125 C-26.54258536 -10.44567761 -11.23829698 -8.66695043 0 0 Z " fill="#B5B5B5" transform="translate(145.6875,79.125)"/>
<path d="M0 0 C0.33 0.66 0.66 1.32 1 2 C0.67 2.66 0.34 3.32 0 4 C0.87140625 4.04898438 1.7428125 4.09796875 2.640625 4.1484375 C10.53903157 4.64422493 18.22342213 5.53298989 26 7 C26 7.99 26 8.98 26 10 C21.32798795 11.20568053 16.78503708 11.09382426 12 11 C12 11.66 12 12.32 12 13 C2.97746114 13.83930594 -5.9401941 14.12224626 -15 14 C-13 12 -13 12 -10 11 C-6.31456212 7.60551775 -3.15547714 3.87672906 0 0 Z " fill="#C7C6C6" transform="translate(381,122)"/>
<path d="M0 0 C-0.56512533 3.33352411 -1.39756049 4.80161849 -4.0625 6.875 C-8.12886131 9.75533926 -12.44683044 11.63245395 -17.0625 13.4375 C-17.73482666 13.70868652 -18.40715332 13.97987305 -19.09985352 14.25927734 C-19.75912842 14.50242676 -20.41840332 14.74557617 -21.09765625 14.99609375 C-21.68039307 15.21450928 -22.26312988 15.4329248 -22.86352539 15.65795898 C-25 16 -25 16 -32 15 C-32 22.26 -32 29.52 -32 37 C-32.33 37 -32.66 37 -33 37 C-33.88690392 32.31626772 -34.30865267 27.69596531 -34.4375 22.9375 C-34.48326172 22.24333984 -34.52902344 21.54917969 -34.57617188 20.83398438 C-34.63801988 18.00242158 -34.56336708 15.71549855 -32.76953125 13.43725586 C-29.01932096 10.17761171 -25.70357579 9.03478667 -21 8 C-21 7.34 -21 6.68 -21 6 C-18.44424962 4.79570399 -15.88208536 3.61159253 -13.3125 2.4375 C-12.59126953 2.09525391 -11.87003906 1.75300781 -11.12695312 1.40039062 C-7.06518276 -0.43575214 -4.42150761 -1.59592878 0 0 Z " fill="#535353" transform="translate(96,68)"/>
<path d="M0 0 C0 0.66 0 1.32 0 2 C-0.94359375 2.29390625 -0.94359375 2.29390625 -1.90625 2.59375 C-10.40708739 5.5639221 -16.45873375 10.17942508 -20.5 18.375 C-23.17761408 25.84413401 -22.3061835 34.19232067 -22 42 C-25.02093215 38.97906785 -24.46676834 35.43627928 -24.625 31.375 C-24.68300781 30.17230469 -24.68300781 30.17230469 -24.7421875 28.9453125 C-24.83653931 26.96392444 -24.91936215 24.98199355 -25 23 C-25.66 23.33 -26.32 23.66 -27 24 C-24.88623588 15.26310831 -20.36315362 8.51985903 -12.73828125 3.515625 C-8.43064546 1.31801414 -4.83667072 0 0 0 Z " fill="#C1C1C1" transform="translate(118,74)"/>
<path d="M0 0 C7.35497107 0 12.74011017 4.09501623 18 9 C18.8203125 11.26171875 18.8203125 11.26171875 19 13 C19.66 13 20.32 13 21 13 C22.06775224 14.96466413 23.06553465 16.96855359 24 19 C23.67 19.66 23.34 20.32 23 21 C22.34 20.67 21.68 20.34 21 20 C21.16113281 20.51433594 21.32226562 21.02867188 21.48828125 21.55859375 C22.15835146 24.75549359 22.17033436 27.79759487 22.1875 31.0625 C22.20167969 32.29097656 22.21585937 33.51945312 22.23046875 34.78515625 C22 38 22 38 20 41 C20.06960938 39.45892578 20.06960938 39.45892578 20.140625 37.88671875 C20.45826205 27.78708233 19.68210006 19.63821571 14 10.9375 C12.07295242 9.07067266 10.48656252 7.97686385 8 7 C8 6.34 8 5.68 8 5 C6.865625 4.731875 5.73125 4.46375 4.5625 4.1875 C3.386875 3.795625 2.21125 3.40375 1 3 C0.67 2.01 0.34 1.02 0 0 Z " fill="#A9A9A9" transform="translate(365,74)"/>
<path d="M0 0 C2.77322262 2.53207282 3.92016394 4.40482408 4.11352539 8.26831055 C4.10828857 9.13238525 4.10305176 9.99645996 4.09765625 10.88671875 C4.09282227 12.2934082 4.09282227 12.2934082 4.08789062 13.72851562 C4.07951172 14.70498047 4.07113281 15.68144531 4.0625 16.6875 C4.05798828 17.67556641 4.05347656 18.66363281 4.04882812 19.68164062 C4.03704303 22.12115474 4.02059011 24.56054689 4 27 C6.64 27 9.28 27 12 27 C11.67 27.66 11.34 28.32 11 29 C6.38 29 1.76 29 -3 29 C-2 23 -2 23 -0.9453125 20.70703125 C0.45009254 16.71109865 0.21112581 12.88447704 0.125 8.6875 C0.11597656 7.85154297 0.10695312 7.01558594 0.09765625 6.15429688 C0.07420989 4.10274031 0.03834266 2.05133223 0 0 Z " fill="#EFEFEF" transform="translate(155,94)"/>
<path d="M0 0 C-1.87050329 4.76128111 -4.91668095 7.05976945 -9.52734375 9.140625 C-14.87528231 11.22404688 -19.26421739 12.50984734 -25 12 C-21.81799783 8.39638254 -18.27572821 6.36538624 -14 4.3125 C-13.38382813 4.00505859 -12.76765625 3.69761719 -12.1328125 3.38085938 C-7.93625036 1.32310305 -4.66319087 0 0 0 Z " fill="#F0F0F0" transform="translate(94,70)"/>
<path d="M0 0 C0.99 1.32 1.98 2.64 3 4 C2.071875 5.051875 2.071875 5.051875 1.125 6.125 C-3.38089249 12.22120749 -3.26002304 18.09414205 -3.125 25.375 C-3.11597656 26.30183594 -3.10695313 27.22867188 -3.09765625 28.18359375 C-3.07422937 30.45600077 -3.04142748 32.7278618 -3 35 C-6.02093215 31.97906785 -5.46676834 28.43627928 -5.625 24.375 C-5.68300781 23.17230469 -5.68300781 23.17230469 -5.7421875 21.9453125 C-5.83653931 19.96392444 -5.91936215 17.98199355 -6 16 C-6.66 16.33 -7.32 16.66 -8 17 C-7.04687483 9.90086082 -4.67368728 5.39384664 0 0 Z " fill="#B6B6B6" transform="translate(330,82)"/>
<path d="M0 0 C-0.33 1.32 -0.66 2.64 -1 4 C-1.33 3.34 -1.66 2.68 -2 2 C-6.40282724 3.40770667 -10.70211969 4.81094713 -14.875 6.8125 C-15.90625 7.204375 -16.9375 7.59625 -18 8 C-18.99 7.34 -19.98 6.68 -21 6 C-18.44424962 4.79570399 -15.88208536 3.61159253 -13.3125 2.4375 C-12.2306543 1.92413086 -12.2306543 1.92413086 -11.12695312 1.40039062 C-7.06518276 -0.43575214 -4.42150761 -1.59592878 0 0 Z " fill="#636363" transform="translate(96,68)"/>
<path d="M0 0 C0.66 0.33 1.32 0.66 2 1 C1.01 1.66 0.02 2.32 -1 3 C0.32 3.33 1.64 3.66 3 4 C3 4.66 3 5.32 3 6 C2.27554688 6.03738281 1.55109375 6.07476562 0.8046875 6.11328125 C-4.84607022 6.49753278 -9.02913036 7.06846149 -14 10 C-14.66 10 -15.32 10 -16 10 C-16 9.01 -16 8.02 -16 7 C-15.34773437 6.74605469 -14.69546875 6.49210937 -14.0234375 6.23046875 C-10.08546683 4.67967499 -6.26231386 3.1358411 -2.5 1.1875 C-1.675 0.795625 -0.85 0.40375 0 0 Z " fill="#ABABAB" transform="translate(226,42)"/>
<path d="M0 0 C0 0.99 0 1.98 0 3 C-2.75 5 -2.75 5 -6 7 C-6.721875 7.598125 -7.44375 8.19625 -8.1875 8.8125 C-8.785625 9.204375 -9.38375 9.59625 -10 10 C-10.99 9.67 -11.98 9.34 -13 9 C-7.03521127 -0.58626761 -7.03521127 -0.58626761 0 0 Z " fill="#D6D6D6" transform="translate(343,75)"/>
<path d="M0 0 C1.43859375 -0.00386719 1.43859375 -0.00386719 2.90625 -0.0078125 C5.5 0.125 5.5 0.125 8.5 1.125 C8.5 1.785 8.5 2.445 8.5 3.125 C-0.905 3.62 -0.905 3.62 -10.5 4.125 C-7.57249457 -0.26625814 -4.95529191 -0.01332068 0 0 Z " fill="#F8F8F8" transform="translate(355.5,70.875)"/>
<path d="M0 0 C0 0.66 0 1.32 0 2 C-1.04800781 2.39832031 -1.04800781 2.39832031 -2.1171875 2.8046875 C-3.48230469 3.33449219 -3.48230469 3.33449219 -4.875 3.875 C-6.23238281 4.39707031 -6.23238281 4.39707031 -7.6171875 4.9296875 C-10.12217007 5.88530895 -10.12217007 5.88530895 -12 8 C-12.99 7.67 -13.98 7.34 -15 7 C-10.40630772 1.86587333 -6.91151486 0 0 0 Z " fill="#D4D4D4" transform="translate(118,74)"/>
<path d="M0 0 C-1.39750048 3.15835107 -3.05198234 5.32272825 -5.5 7.75 C-6.41265625 8.67039062 -6.41265625 8.67039062 -7.34375 9.609375 C-9 11 -9 11 -11 11 C-9.60249952 7.84164893 -7.94801766 5.67727175 -5.5 3.25 C-4.8915625 2.63640625 -4.283125 2.0228125 -3.65625 1.390625 C-2 0 -2 0 0 0 Z " fill="#292929" transform="translate(110,79)"/>
<path d="M0 0 C0 4.62 0 9.24 0 14 C-0.33 14 -0.66 14 -1 14 C-1 11.69 -1 9.38 -1 7 C-1.99 6.67 -2.98 6.34 -4 6 C-4 4.68 -4 3.36 -4 2 C-1 0 -1 0 0 0 Z " fill="#EBEBEB" transform="translate(325,97)"/>
<path d="M0 0 C1.8125 0.1875 1.8125 0.1875 4 1 C5.8125 3.4375 5.8125 3.4375 7 6 C6 8 6 8 4 9 C2 6 2 6 2 2 C1.34 2 0.68 2 0 2 C0 1.34 0 0.68 0 0 Z " fill="#ADADAD" transform="translate(150,87)"/>
<path d="M0 0 C6.52307692 0.61538462 6.52307692 0.61538462 8.9375 2.5625 C9.288125 3.036875 9.63875 3.51125 10 4 C8.375 4.6875 8.375 4.6875 6 5 C2.75 3.5625 2.75 3.5625 0 2 C0 1.34 0 0.68 0 0 Z " fill="#E5E5E5" transform="translate(365,74)"/>
<path d="M0 0 C0.99386719 0.00902344 1.98773438 0.01804687 3.01171875 0.02734375 C4.15060547 0.04474609 4.15060547 0.04474609 5.3125 0.0625 C5.3125 0.3925 5.3125 0.7225 5.3125 1.0625 C2.0125 1.3925 -1.2875 1.7225 -4.6875 2.0625 C-4.6875 2.7225 -4.6875 3.3825 -4.6875 4.0625 C-6.6675 4.0625 -8.6475 4.0625 -10.6875 4.0625 C-7.70956006 -0.4044099 -5.03135189 -0.05919238 0 0 Z " fill="#D1D1D1" transform="translate(355.6875,70.9375)"/>
<path d="M0 0 C0.66 0.33 1.32 0.66 2 1 C1.67 1.99 1.34 2.98 1 4 C-1.875 5.3125 -1.875 5.3125 -5 6 C-5.99 5.34 -6.98 4.68 -8 4 C-6.71349294 3.30289269 -5.42059335 2.61757124 -4.125 1.9375 C-3.40570313 1.55464844 -2.68640625 1.17179687 -1.9453125 0.77734375 C-1.30335937 0.52082031 -0.66140625 0.26429687 0 0 Z " fill="#7D7D7D" transform="translate(83,70)"/>
<path d="M0 0 C2.31 0.66 4.62 1.32 7 2 C3.36576791 4.32590854 0.22911669 4.16265833 -4 4 C-2.68 2.68 -1.36 1.36 0 0 Z " fill="#C6C6C6" transform="translate(73,78)"/>
<path d="M0 0 C2.15377564 2.62198774 3.40072174 4.64404172 4 8 C2.35 7.67 0.7 7.34 -1 7 C-0.67 4.69 -0.34 2.38 0 0 Z " fill="#C1C1C1" transform="translate(385,87)"/>
<path d="M0 0 C0.99 0 1.98 0 3 0 C3.33 2.31 3.66 4.62 4 7 C3.34 7 2.68 7 2 7 C0.5393715 4.35261084 0 3.10551666 0 0 Z " fill="#E0E0E0" transform="translate(381,85)"/>
<path d="M0 0 C0.66 0.33 1.32 0.66 2 1 C1.67 1.33 1.34 1.66 1 2 C1.66 2.66 2.32 3.32 3 4 C1.35 4.33 -0.3 4.66 -2 5 C-2 4.34 -2 3.68 -2 3 C-2.99 2.67 -3.98 2.34 -5 2 C-2.625 0.9375 -2.625 0.9375 0 0 Z " fill="#B5B5B5" transform="translate(345,72)"/>
<path d="M0 0 C0 0.66 0 1.32 0 2 C-2.97 2.66 -5.94 3.32 -9 4 C-6.25137935 -0.12293098 -4.89482776 0 0 0 Z " fill="#E1E1E1" transform="translate(118,74)"/>
<path d="M0 0 C0.66 0 1.32 0 2 0 C1.67 1.98 1.34 3.96 1 6 C0.01 6.33 -0.98 6.66 -2 7 C-1.34 4.69 -0.68 2.38 0 0 Z " fill="#F4F4F4" transform="translate(326,89)"/>
<path d="M0 0 C0.99 0.66 1.98 1.32 3 2 C-2.75 5 -2.75 5 -5 5 C-5 4.01 -5 3.02 -5 2 C-2.6875 0.875 -2.6875 0.875 0 0 Z " fill="#616161" transform="translate(215,47)"/>
<path d="M0 0 C2.99324263 1.0975223 3.84610901 1.67682892 5.25 4.625 C5.4975 5.40875 5.745 6.1925 6 7 C2.58841744 5.86280581 1.88145399 4.95657056 0 2 C0 1.34 0 0.68 0 0 Z " fill="#CCCCCC" transform="translate(146,81)"/>
<path d="M0 0 C1.875 0.25 1.875 0.25 4 1 C5.25 3.0625 5.25 3.0625 6 5 C3.5625 4.1875 3.5625 4.1875 1 3 C0.67 2.01 0.34 1.02 0 0 Z " fill="#BABABA" transform="translate(140,77)"/>
</svg>
