<?xml version="1.0" encoding="UTF-8"?>
<svg version="1.1" xmlns="http://www.w3.org/2000/svg" width="1536" height="1024">
<path d="M0 0 C506.88 0 1013.76 0 1536 0 C1536 337.92 1536 675.84 1536 1024 C1029.12 1024 522.24 1024 0 1024 C0 686.08 0 348.16 0 0 Z " fill="#FEFEFE" transform="translate(0,0)"/>
<path d="M0 0 C1.21186855 -0.00088371 1.21186855 -0.00088371 2.4482193 -0.00178528 C27.25554428 -0.01452875 51.88325093 0.38943538 76.5748291 3.0189209 C78.78591607 3.25381554 80.99777793 3.47978213 83.20996094 3.70410156 C92.67708619 4.67256 102.12330901 5.7782834 111.56427002 6.97393799 C113.78058056 7.25386238 115.99741026 7.52935036 118.21435547 7.80419922 C181.43065783 15.68227317 243.94934578 28.96595571 305.75 44.25 C306.93980469 44.54368469 308.12960937 44.83736938 309.35546875 45.13995361 C351.71675075 55.60793668 393.79590978 66.97782641 435.69323921 79.16528893 C438.25606623 79.91078456 440.81905626 80.65571775 443.38206482 81.40058899 C450.96837563 83.6062207 458.55348459 85.81562164 466.13324642 88.04366779 C498.09253112 98.1842869 498.09253112 98.1842869 531.109375 102.4609375 C532.48568979 102.48896612 533.86199176 102.5176302 535.23828125 102.546875 C537.38004733 102.58831899 539.5215627 102.62526278 541.66357422 102.65136719 C543.75015616 102.67891596 545.8356943 102.72472615 547.921875 102.7734375 C549.1603418 102.79325684 550.39880859 102.81307617 551.67480469 102.83349609 C554.75 103.25 554.75 103.25 556.64941406 104.63134766 C558.27823689 107.02688789 558.22363043 108.40821743 557.75 111.25 C557.05519531 111.98089844 556.36039063 112.71179688 555.64453125 113.46484375 C553.3901728 116.15419793 553.3901728 116.15419793 554.015625 119.60546875 C554.34046875 120.87003906 554.6653125 122.13460937 555 123.4375 C559.44466418 143.08723529 555.70667908 163.60920327 552.75 183.25 C560.01 183.25 567.27 183.25 574.75 183.25 C574.75 196.38490589 572.5629536 208.94357696 567.5 221.125 C567.12379517 222.07741577 567.12379517 222.07741577 566.73999023 223.04907227 C562.63027886 232.18217302 552.66663795 236.09908673 544.25 240.5 C536.82727765 244.44797822 529.49444634 248.46194195 522.375 252.9375 C521.72208984 253.34709961 521.06917969 253.75669922 520.39648438 254.17871094 C517.96316957 255.73163709 515.79743454 257.20256546 513.75 259.25 C526.34757903 252.79467048 538.83718253 246.23196191 551.00854492 238.99707031 C551.82299072 238.51979492 552.63743652 238.04251953 553.4765625 237.55078125 C554.53738037 236.91910034 554.53738037 236.91910034 555.61962891 236.2746582 C558.00296066 235.12833189 560.13062444 234.58515303 562.75 234.25 C563.75 235.25 563.75 235.25 563.9453125 239.21875 C563.88322861 244.28159089 562.9455838 248.87840341 561.625 253.75 C561.39981689 254.58370117 561.17463379 255.41740234 560.94262695 256.27636719 C555.50204796 275.29321445 537.57366165 285.2436796 521.203125 294.41015625 C496.37076285 307.90904527 467.48627879 319.68805303 438.75 319.25 C439.37692339 315.6417076 440.35525593 312.22285198 441.46411133 308.73510742 C452.09085953 274.80567089 450.41170067 239.34261344 434.0625 207.625 C419.40471861 180.49319099 393.77286188 160.70231672 364.4375 151.875 C361.2187443 150.95737228 357.98967018 150.0904351 354.75 149.25 C353.25919922 148.8478125 353.25919922 148.8478125 351.73828125 148.4375 C325.43784435 142.49203232 293.80932909 149.60708636 271.13574219 163.49511719 C241.87138471 182.27429722 222.58587182 209.8207168 215 243.6875 C209.73991761 269.10103759 213.86656301 295.19937562 220.77734375 319.92578125 C221.07769531 321.00214844 221.37804688 322.07851563 221.6875 323.1875 C221.96464844 324.10402344 222.24179688 325.02054688 222.52734375 325.96484375 C222.75 328.25 222.75 328.25 221.51167202 329.86832237 C218.39537441 332.31243151 214.39780353 331.67920811 210.59204102 331.66650391 C209.62784492 331.67510909 208.66364883 331.68371428 207.67023468 331.69258022 C204.36472002 331.7182375 201.05951327 331.72216758 197.75390625 331.7265625 C195.31903847 331.7407356 192.88417791 331.75619658 190.44932556 331.77281189 C184.29255728 331.81114578 178.13586092 331.83497849 171.97900432 331.85314423 C164.39159263 331.87623677 156.80429041 331.91610959 149.21695161 331.95598042 C134.09406212 332.03475964 118.97113341 332.09680665 103.84814453 332.15283203 C85.98448456 332.21910774 68.12090405 332.29719111 50.25732422 332.38232422 C-25.488634 332.74233801 -101.23497908 333.08417215 -410.25 333.25 C-411.3744414 328.56474485 -410.77818233 326.16325648 -409.0625 321.625 C-405.85676796 312.6801 -403.98258742 303.57643699 -402.25 294.25 C-401.90775391 292.49429688 -401.90775391 292.49429688 -401.55859375 290.703125 C-396.0288745 258.37553554 -403.47474269 225.66393553 -421.5625 198.5 C-432.72826805 183.03235214 -446.30003995 171.04032812 -463.25 162.25 C-464.15234375 161.77820313 -465.0546875 161.30640625 -465.984375 160.8203125 C-471.46721688 158.14535025 -477.1075798 156.24891295 -482.9375 154.5 C-483.6385083 154.28899658 -484.3395166 154.07799316 -485.06176758 153.8605957 C-503.67464954 148.52354507 -527.94629393 148.75541441 -546.25 155.25 C-547.05083008 155.52908203 -547.85166016 155.80816406 -548.67675781 156.09570312 C-563.36991544 161.33253797 -576.2596282 168.15738489 -588.25 178.25 C-589.04921875 178.91515625 -589.8484375 179.5803125 -590.671875 180.265625 C-612.16937987 198.82558262 -626.4513072 225.90390643 -629.25 254.25 C-630.54254571 275.62882791 -628.5933363 294.9241868 -622.14404297 315.26171875 C-619.70861649 323.14237692 -619.70861649 323.14237692 -621.25 327.25 C-622.92055579 328.92055579 -624.94084021 328.37963997 -627.2358551 328.38371277 C-628.31636139 328.38797775 -629.39686768 328.39224274 -630.51011658 328.39663696 C-632.30443871 328.39595718 -632.30443871 328.39595718 -634.13500977 328.39526367 C-636.01325439 328.40030159 -636.01325439 328.40030159 -637.92944336 328.40544128 C-641.37871399 328.413343 -644.82792441 328.41662093 -648.27719998 328.41725707 C-650.43737054 328.41796742 -652.59753479 328.42010174 -654.75770378 328.42275429 C-662.31039708 328.43202586 -669.86307269 328.43608802 -677.41577148 328.43530273 C-684.42451789 328.43470548 -691.43318643 328.44518273 -698.44191319 328.4610464 C-704.47525819 328.47420886 -710.50857808 328.47948282 -716.54193729 328.47884732 C-720.13739208 328.47859433 -723.73277812 328.48133227 -727.32821846 328.49202538 C-765.58223047 328.5977277 -765.58223047 328.5977277 -777.25 323.25 C-776.40192685 318.96499881 -774.89837482 317.73399988 -771.25 315.25 C-764.09931507 311.25 -764.09931507 311.25 -761.25 311.25 C-761.1675 310.26 -761.085 309.27 -761 308.25 C-760.1535458 302.30063618 -757.52837927 297.40413525 -753.25 293.25 C-753.6123877 292.51064209 -753.97477539 291.77128418 -754.34814453 291.00952148 C-781.34412549 235.80218213 -781.34412549 235.80218213 -779.25 217.25 C-777.5 214.4375 -777.5 214.4375 -774.25 212.25 C-772.63053567 211.04688388 -771.01218137 209.84227307 -769.39453125 208.63671875 C-763.04562165 204.01224952 -756.41607084 199.91282822 -749.6875 195.875 C-749.07339264 195.50460602 -748.45928528 195.13421204 -747.8265686 194.75259399 C-737.76095306 188.68237545 -727.62465136 182.7781631 -717.25 177.25 C-716.38665039 176.78819336 -715.52330078 176.32638672 -714.63378906 175.85058594 C-692.66062366 164.1351636 -670.35521373 153.54161949 -647.25 144.25 C-645.88681641 143.69940918 -645.88681641 143.69940918 -644.49609375 143.13769531 C-641.97980041 142.12506327 -639.45997979 141.12210926 -636.9375 140.125 C-636.19653076 139.82948242 -635.45556152 139.53396484 -634.69213867 139.22949219 C-631.72831825 138.07621084 -629.46012874 137.25 -626.25 137.25 C-625.92 138.57 -625.59 139.89 -625.25 141.25 C-626.18457031 141.61649658 -627.11914062 141.98299316 -628.08203125 142.3605957 C-646.18697932 149.47330604 -664.14806397 156.71141422 -681.72802734 165.05664062 C-684.10993815 166.18372485 -686.49983634 167.29101493 -688.89453125 168.390625 C-705.10115335 174.83705797 -705.10115335 174.83705797 -719.25 184.25 C-718.115625 184.085 -716.98125 183.92 -715.8125 183.75 C-711.27939706 183.17423916 -706.81252762 183.15494734 -702.25 183.25 C-702.58 184.57 -702.91 185.89 -703.25 187.25 C-711.28537555 188.4908451 -719.17854984 189.4826889 -727.3125 189.7109375 C-731.01795048 190.19082304 -731.01795048 190.19082304 -736.25 194.25 C-729.98 193.92 -723.71 193.59 -717.25 193.25 C-717.91 194.9 -718.57 196.55 -719.25 198.25 C-720.44206055 198.30776611 -720.44206055 198.30776611 -721.65820312 198.36669922 C-743.58460106 199.53611905 -743.58460106 199.53611905 -762.54122925 209.87817383 C-764.30107746 211.29100573 -766.10639403 212.60620047 -767.94775391 213.91064453 C-768.56889069 214.35151398 -769.19002747 214.79238342 -769.82998657 215.24661255 C-770.298591 215.57773041 -770.76719543 215.90884827 -771.25 216.25 C-727.19712721 212.04708768 -686.28500371 203.76417892 -644.04296875 190.51123047 C-642.80675781 190.12596191 -641.57054687 189.74069336 -640.296875 189.34375 C-638.52860352 188.79158813 -638.52860352 188.79158813 -636.72460938 188.22827148 C-633.27459377 187.25692434 -629.85051676 186.59312965 -626.328125 185.94140625 C-619.79857838 184.48873646 -616.54568917 181.65609076 -612.25 176.6875 C-610.88429696 175.22800988 -609.51316156 173.77358461 -608.13671875 172.32421875 C-607.47591309 171.62087402 -606.81510742 170.9175293 -606.13427734 170.19287109 C-583.44739296 146.8005122 -546.84700466 133.73278337 -514.75366211 132.96459961 C-493.27369308 132.74829946 -472.25955615 136.73997933 -453.37109375 147.21533203 C-443.00261321 152.61865719 -430.3324556 151.39798748 -418.91064453 151.45532227 C-417.66014313 151.46522186 -416.40964172 151.47512146 -415.12124634 151.48532104 C-411.74202331 151.51121264 -408.36282018 151.53319327 -404.98356104 151.55332303 C-401.43350544 151.57543237 -397.88348922 151.60269707 -394.33346558 151.62937927 C-387.63325251 151.67897338 -380.9330172 151.72403334 -374.23276126 151.76740164 C-366.59531283 151.8170615 -358.95790395 151.87187148 -351.32049394 151.92708123 C-335.63036598 152.04038925 -319.94020143 152.14733644 -304.25 152.25 C-303.92 150.6 -303.59 148.95 -303.25 147.25 C-302.26 147.25 -301.27 147.25 -300.25 147.25 C-300.25 148.9 -300.25 150.55 -300.25 152.25 C-279.90327477 152.14099175 -259.55657512 152.02798141 -239.20989609 151.91066074 C-229.75484846 151.85622786 -220.29979733 151.80295218 -210.84472656 151.75268555 C-156.71523388 151.46635879 -156.71523388 151.46635879 -102.58984375 150.76953125 C-100.82869106 150.74069446 -100.82869106 150.74069446 -99.03195953 150.7112751 C-48.40843473 149.86348425 2.09628686 147.21251445 52.5625 143.1875 C53.59096039 143.10550354 54.61942078 143.02350708 55.67904663 142.93902588 C69.05295432 141.86501667 82.40471568 140.63477575 95.75 139.25 C94.50593027 136.08097231 93.25365162 132.91524805 92 129.75 C91.65195312 128.863125 91.30390625 127.97625 90.9453125 127.0625 C88.7922364 121.63993798 86.43660259 116.42957616 83.75 111.25 C82.33460938 111.4665625 82.33460938 111.4665625 80.890625 111.6875 C72.77292676 112.86114312 64.9747311 113.52568931 56.75 113.25 C57.08 111.93 57.41 110.61 57.75 109.25 C66.33 107.93 74.91 106.61 83.75 105.25 C88.39635884 81.3475973 91.87256132 57.4262784 94.75 33.25 C93.75625366 33.17543579 93.75625366 33.17543579 92.74243164 33.09936523 C86.62652342 32.6170869 80.52988136 32.0292876 74.43359375 31.34765625 C73.68703522 31.26454193 72.94047668 31.18142761 72.17129517 31.09579468 C69.09242342 30.75204367 66.01372278 30.40700992 62.93579102 30.05493164 C38.34045162 27.25083306 13.83031852 25.93137649 -10.91766357 25.64910889 C-14.35860496 25.60803761 -17.79940758 25.55743547 -21.24023438 25.5078125 C-27.91006449 25.41344146 -34.57995908 25.3279781 -41.25 25.25 C-40.59 23.93 -39.93 22.61 -39.25 21.25 C-31.64981719 21.20276263 -24.04965033 21.16768338 -16.44935226 21.14637566 C-12.91670138 21.136127 -9.38415387 21.12233568 -5.8515625 21.09912109 C13.10085861 20.97815492 31.85826568 21.52785075 50.75 23.25 C52.18874481 23.38045715 52.18874481 23.38045715 53.65655518 23.5135498 C59.84139257 24.08734309 66.01536807 24.74104144 72.1875 25.4375 C73.59193863 25.59464981 73.59193863 25.59464981 75.02474976 25.75497437 C119.57602708 30.7837187 163.40828942 38.98059862 207 49.375 C208.04368744 49.62285248 209.08737488 49.87070496 210.16268921 50.12606812 C220.83372347 52.67097129 231.45523861 55.34480902 241.984375 58.4296875 C242.81342346 58.668013 243.64247192 58.9063385 244.49664307 59.15188599 C248.44615921 60.34078842 251.63605644 61.41143208 254.75 64.25 C254.47460938 66.13378906 254.47460938 66.13378906 253.75 68.25 C252.19726563 69.31152344 252.19726563 69.31152344 250.15625 70.109375 C249.38724365 70.41601074 248.6182373 70.72264648 247.82592773 71.03857422 C246.97587158 71.35584473 246.12581543 71.67311523 245.25 72 C244.35418213 72.34434082 243.45836426 72.68868164 242.53540039 73.04345703 C231.42160317 77.2393949 220.12151838 80.82540269 208.75 84.25 C207.49396973 84.62882324 206.23793945 85.00764648 204.94384766 85.39794922 C173.67781631 94.77294336 141.94477147 103.12295791 109.8125 108.9375 C109.12540955 109.06241821 108.43831909 109.18733643 107.73040771 109.31604004 C101.67710334 110.40332779 95.91539346 111.38662443 89.75 111.25 C90.0173999 111.85473145 90.2847998 112.45946289 90.56030273 113.08251953 C91.77644682 115.84362388 92.98204194 118.60921458 94.1875 121.375 C94.81881836 122.80199219 94.81881836 122.80199219 95.46289062 124.2578125 C97.48230067 128.91053323 99.27695587 133.14112341 99.75 138.25 C113.20888093 135.61120351 126.64190547 132.86332648 140.06176758 130.03369141 C148.40548433 128.27461934 156.75292854 126.53350226 165.10198975 124.79998779 C166.82057872 124.44303942 168.53905104 124.08552873 170.25738525 123.72735596 C192.3343468 119.12917177 214.3025124 115.5013044 236.75 113.25 C237.710271 113.146875 238.67054199 113.04375 239.65991211 112.9375 C248.32863236 112.0924337 256.99884629 112.02933479 265.70141602 112.00976562 C268.28369977 112.00010771 270.86516895 111.96900399 273.44726562 111.9375 C282.05706444 111.88048622 290.49742297 112.22733982 299.02734375 113.453125 C299.78753311 113.55308777 300.54772247 113.65305054 301.33094788 113.75604248 C307.74117515 114.7997612 313.09583223 117.49077142 317.625 122.19921875 C320.75 127.02777778 320.75 127.02777778 320.75 129.25 C321.90278442 129.22643433 321.90278442 129.22643433 323.07885742 129.20239258 C358.90935452 128.56966567 391.12003195 133.48596809 420.75 155.25 C422.16646429 156.25028664 423.58310056 157.25032984 425 158.25 C425.9075 158.91 426.815 159.57 427.75 160.25 C427.11384766 159.44949219 427.11384766 159.44949219 426.46484375 158.6328125 C424.53953516 156.18703587 422.64200045 153.72163065 420.75 151.25 C420.07066406 150.37601563 419.39132812 149.50203125 418.69140625 148.6015625 C418.05074219 147.74304688 417.41007812 146.88453125 416.75 146 C415.8528125 144.81664062 415.8528125 144.81664062 414.9375 143.609375 C413.75 141.25 413.75 141.25 413.9453125 138.5625 C414.95940169 135.64822428 416.11978812 134.79718346 418.75 133.25 C421.88386736 132.20537755 424.21814941 132.06356526 427.51171875 131.96875 C428.74905762 131.93209229 429.98639648 131.89543457 431.26123047 131.85766602 C432.65331781 131.82168056 434.04540776 131.78579552 435.4375 131.75 C436.89990659 131.70840095 438.3623088 131.66664779 439.82470703 131.62475586 C449.89638678 131.3479856 459.96859398 131.17874967 470.04296875 131.03515625 C472.55444405 130.99744154 475.06591865 130.95968089 477.57739258 130.921875 C482.55242229 130.84739863 487.52740834 130.78562178 492.50268555 130.73046875 C494.84294208 130.69702383 497.18319305 130.66318623 499.5234375 130.62890625 C501.10628792 130.61634544 501.10628792 130.61634544 502.72111511 130.60353088 C518.73231039 130.33949492 536.04806009 126.72550325 547.92578125 115.125 C551.12583158 112.06721483 551.12583158 112.06721483 552.75 108.25 C552.15799805 108.26571045 551.56599609 108.2814209 550.95605469 108.29760742 C516.40278799 109.08654039 484.96968534 99.16064559 452.16098022 89.42086792 C407.89320842 76.28874431 363.3512826 64.05675179 318.53405762 52.94146729 C315.68506622 52.23387261 312.83706574 51.52240036 309.98925781 50.81005859 C285.47781632 44.6843827 260.92506595 38.8719311 236.18261719 33.75396729 C233.66542848 33.23247925 231.14909028 32.70701693 228.6328125 32.18115234 C169.85968896 19.92989644 110.69403618 10.28327157 50.75 6.25 C49.44482422 6.1557373 48.13964844 6.06147461 46.79492188 5.96435547 C32.25540186 4.9824342 17.69165285 5.00717386 3.125 5 C2.43900852 4.99926357 1.75301704 4.99852715 1.04623795 4.9977684 C-34.14794352 4.96709968 -69.35967273 6.35927354 -104.25 11.25 C-104.58 10.26 -104.91 9.27 -105.25 8.25 C-104.92 7.59 -104.59 6.93 -104.25 6.25 C-102.31420898 5.77929688 -102.31420898 5.77929688 -99.74609375 5.46875 C-98.79001221 5.34999512 -97.83393066 5.23124023 -96.84887695 5.10888672 C-95.80562256 4.9904541 -94.76236816 4.87202148 -93.6875 4.75 C-92.07331177 4.55881592 -92.07331177 4.55881592 -90.42651367 4.36376953 C-82.98198851 3.50489 -75.52898419 2.764082 -68.0625 2.125 C-67.18843506 2.04958984 -66.31437012 1.97417969 -65.41381836 1.89648438 C-62.36056497 1.6519377 -59.30683747 1.44507137 -56.25 1.25 C-55.26051361 1.18534546 -55.26051361 1.18534546 -54.2510376 1.11938477 C-36.18541644 -0.0185592 -18.09370503 0.00605536 0 0 Z " fill="#010101" transform="translate(902.25,321.75)"/>
<path d="M0 0 C2.03011212 0.26127583 4.06071418 0.51873792 6.09136963 0.77575684 C99.37601292 12.73498803 191.80045534 35.77725638 282.17578125 61.42071533 C286.62814321 62.68102852 291.08336017 63.93111813 295.53846741 65.1816864 C301.44036974 66.83884144 307.34086943 68.50096638 313.24127197 70.16345215 C314.33321869 70.47074249 315.42516541 70.77803284 316.55020142 71.09463501 C327.84291204 74.27620648 339.10782758 77.52329331 350.32330322 80.96813965 C378.62272961 89.65542486 405.48205963 96.07819717 435.24127197 95.28845215 C435.57127197 95.94845215 435.90127197 96.60845215 436.24127197 97.28845215 C426.43381218 109.7133369 412.38809281 117.18441374 396.63525391 119.07434082 C391.90128903 119.49773395 387.15533147 119.50998815 382.40533447 119.56970215 C381.26437317 119.58765839 380.12341187 119.60561462 378.94787598 119.62411499 C376.51215188 119.66227573 374.07639966 119.69867587 371.640625 119.73345947 C365.31459717 119.82563029 358.9889086 119.93757494 352.66314697 120.04626465 C350.17291491 120.0883935 347.68268057 120.13038867 345.19244385 120.17224121 C343.42211792 120.20203064 343.42211792 120.20203064 341.61602783 120.23242188 C338.53865684 120.28351474 335.46126049 120.33257878 332.3838501 120.38122559 C328.33716454 120.44657619 324.29102537 120.52571065 320.24487305 120.61828613 C318.83941628 120.64810801 317.43383984 120.67278769 316.02819824 120.6920166 C314.11722046 120.71869571 312.20654223 120.7647581 310.29595947 120.81188965 C309.25939209 120.83170898 308.22282471 120.85152832 307.15484619 120.87194824 C303.67959134 121.36874603 301.24060392 122.48515111 298.24127197 124.28845215 C296.94133462 126.61088308 296.94133462 126.61088308 297.24127197 129.28845215 C298.65167804 132.01162778 298.65167804 132.01162778 300.80377197 134.60095215 C301.53724854 135.55228027 302.2707251 136.5036084 303.02642822 137.48376465 C303.75732666 138.40931152 304.4882251 139.3348584 305.24127197 140.28845215 C306.41205665 141.8478689 307.57930985 143.40995043 308.74127197 144.97595215 C309.57375339 146.08076126 310.40672314 147.18520389 311.24127197 148.28845215 C307.29234534 148.28845215 306.38941494 146.97771249 303.36627197 144.47595215 C285.42845169 130.42494351 263.6044504 122.52983046 241.24127197 119.28845215 C240.59843262 119.19128906 239.95559326 119.09412598 239.29327393 118.99401855 C234.58338119 118.36617895 229.98108996 118.25405502 225.22955322 118.28845215 C223.977229 118.28716309 222.72490479 118.28587402 221.43463135 118.2845459 C218.83545385 118.28716208 216.23612734 118.32131112 213.63775635 118.3861084 C204.27984373 118.29914793 204.27984373 118.29914793 201.25836182 115.35876465 C199.78424072 112.97595215 199.78424072 112.97595215 198.73419189 110.6126709 C196.23524905 106.72224802 192.52877817 104.94396643 188.19645691 103.70248413 C185.96412091 103.2358713 183.74232164 102.87952431 181.48345947 102.5657959 C180.65595184 102.44437729 179.82844421 102.32295868 178.9758606 102.19786072 C170.10791489 100.99004523 161.30375957 100.78306437 152.36627197 100.85095215 C151.51631653 100.85366119 150.66636108 100.85637024 149.79064941 100.85916138 C137.16227924 100.91927697 124.66913986 101.60366815 112.11627197 102.97595215 C111.42857727 103.05000275 110.74088257 103.12405334 110.03234863 103.2003479 C84.57525558 106.02436134 59.4481825 111.10412709 34.43139648 116.48321533 C-11.20906673 126.28845215 -11.20906673 126.28845215 -17.75872803 126.28845215 C-18.14544678 125.23786621 -18.53216553 124.18728027 -18.93060303 123.1048584 C-22.30931631 113.9193196 -22.30931631 113.9193196 -26.13372803 104.91345215 C-27.75872803 101.28845215 -27.75872803 101.28845215 -27.75872803 99.28845215 C-26.72844482 99.11418701 -25.69816162 98.93992187 -24.63665771 98.76037598 C29.36244165 89.53586559 85.86977921 77.50514713 136.24127197 55.28845215 C136.21773132 53.33682849 136.21773132 53.33682849 135.24127197 51.28845215 C132.56785168 49.87664717 132.56785168 49.87664717 129.10845947 48.90563965 C128.11953201 48.59649124 128.11953201 48.59649124 127.11062622 48.28109741 C117.30009688 45.28921206 107.32103297 42.86909818 97.36627197 40.41345215 C96.30681366 40.15077545 95.24735535 39.88809875 94.15579224 39.61746216 C52.63596907 29.33764459 10.73940032 21.29719286 -31.75872803 16.28845215 C-32.6130542 16.1874823 -33.46738037 16.08651245 -34.34759521 15.98248291 C-41.23269603 15.1713055 -48.12014806 14.38197316 -55.00872803 13.60095215 C-55.95872681 13.49208679 -56.90872559 13.38322144 -57.88751221 13.27105713 C-80.22757829 10.72420242 -102.26437099 10.14830132 -124.73553467 10.2197876 C-128.356541 10.2301786 -131.97755471 10.23461836 -135.59857178 10.23962402 C-142.65197473 10.25021898 -149.70534845 10.26719338 -156.75872803 10.28845215 C-156.75872803 10.94845215 -156.75872803 11.60845215 -156.75872803 12.28845215 C-155.79536026 12.29725151 -155.79536026 12.29725151 -154.81253052 12.30622864 C-60.89231494 13.20018061 -60.89231494 13.20018061 -22.75872803 21.28845215 C-23.88892545 45.60718298 -28.22424836 69.42138012 -32.75872803 93.28845215 C-37.090293 94.7809963 -41.15251675 95.78084704 -45.69622803 96.41345215 C-46.86025146 96.58103027 -48.0242749 96.7486084 -49.22357178 96.92126465 C-52.76320681 97.28891735 -56.20286452 97.35203081 -59.75872803 97.28845215 C-59.75872803 98.27845215 -59.75872803 99.26845215 -59.75872803 100.28845215 C-50.89614603 100.62010802 -42.50071393 99.60977795 -33.75872803 98.28845215 C-21.75872803 121.50204438 -21.75872803 121.50204438 -21.75872803 127.28845215 C-37.75940041 130.03648353 -53.79344753 131.44009845 -69.97539139 132.63334656 C-72.09943893 132.79053994 -74.22327592 132.95034531 -76.34707642 133.11083984 C-115.43022253 136.05889509 -154.56943374 138.4403702 -193.75872803 139.28845215 C-195.09806271 139.31809052 -195.09806271 139.31809052 -196.46445465 139.34832764 C-241.35232169 140.33569927 -286.22635111 140.41579821 -331.1230076 140.36047912 C-340.60413441 140.34901069 -350.08526223 140.34373166 -359.56639433 140.33877575 C-378.96384678 140.32850779 -398.36128624 140.31108833 -417.75872803 140.28845215 C-417.75872803 138.63845215 -417.75872803 136.98845215 -417.75872803 135.28845215 C-418.74872803 135.61845215 -419.73872803 135.94845215 -420.75872803 136.28845215 C-421.49196599 138.30353573 -421.49196599 138.30353573 -421.75872803 140.28845215 C-438.20606309 140.31189321 -454.65339267 140.32948608 -471.10074043 140.34026432 C-478.73885789 140.34540359 -486.37696492 140.35240073 -494.01507568 140.3638916 C-500.67847415 140.37391126 -507.34186505 140.38032278 -514.00527084 140.38254064 C-517.52799979 140.38383547 -521.05070713 140.38684251 -524.57342911 140.39418221 C-528.5220808 140.40234133 -532.47071206 140.40243864 -536.41937256 140.40197754 C-537.56593323 140.40557281 -538.7124939 140.40916809 -539.89379883 140.41287231 C-563.43365447 140.38335424 -563.43365447 140.38335424 -573.07122803 135.03845215 C-601.77557888 120.40270552 -636.12809831 118.08453484 -666.88372803 127.53845215 C-669.52793622 128.40514654 -672.14570618 129.33215651 -674.75872803 130.28845215 C-675.44144775 130.53579102 -676.12416748 130.78312988 -676.82757568 131.03796387 C-696.03749028 138.12982805 -714.16491802 148.7924829 -728.19232178 163.9017334 C-728.74307373 164.4897876 -729.29382568 165.0778418 -729.86126709 165.68371582 C-730.8710425 166.78572734 -731.85678671 167.91061075 -732.80853271 169.06311035 C-736.83222355 173.50728109 -740.93901327 174.28356687 -746.7008667 175.41149902 C-751.62183654 176.40967553 -756.3863579 177.89601587 -761.18450928 179.3626709 C-762.12973953 179.64961823 -763.07496979 179.93656555 -764.04884338 180.23220825 C-766.03178809 180.83451575 -768.01444274 181.43777888 -769.99682617 182.04193115 C-799.37034217 190.96577454 -828.16021938 198.82753467 -858.75872803 202.28845215 C-861.30434285 202.5888785 -863.84991546 202.88966275 -866.39544678 203.1907959 C-871.05678393 203.73141255 -875.71859663 204.26591073 -880.38372803 204.77282715 C-881.30411865 204.87305176 -882.22450928 204.97327637 -883.17279053 205.07653809 C-885.71467794 205.2848423 -888.20962703 205.32641259 -890.75872803 205.28845215 C-886.76283605 201.97647246 -882.58278636 199.08154315 -878.25872803 196.22595215 C-877.28226318 195.57529785 -877.28226318 195.57529785 -876.28607178 194.91149902 C-874.44988552 193.69293905 -872.61429531 192.47732674 -870.75872803 191.28845215 C-870.00051758 190.76477051 -869.24230713 190.24108887 -868.46112061 189.70153809 C-865.19717466 187.99481488 -862.58883594 187.6780216 -858.92669678 187.3392334 C-857.63441162 187.2135498 -856.34212646 187.08786621 -855.01068115 186.95837402 C-853.65588721 186.83896346 -852.30106915 186.71982624 -850.94622803 186.60095215 C-849.57177113 186.4712314 -848.19742013 186.34038341 -846.82318115 186.20837402 C-843.4692387 185.89063211 -840.11465012 185.58442297 -836.75872803 185.28845215 C-836.42872803 184.29845215 -836.09872803 183.30845215 -835.75872803 182.28845215 C-836.44837646 182.36063965 -837.1380249 182.43282715 -837.84857178 182.50720215 C-843.85461462 183.10039156 -849.72442802 183.3873751 -855.75872803 183.28845215 C-850.85853722 179.31532447 -847.93641797 177.07477919 -841.55950928 176.65563965 C-840.35101318 176.57185059 -839.14251709 176.48806152 -837.8973999 176.4017334 C-836.63476318 176.32310059 -835.37212646 176.24446777 -834.07122803 176.16345215 C-832.79698975 176.07708496 -831.52275146 175.99071777 -830.2098999 175.9017334 C-827.059949 175.68937716 -823.90968067 175.4852878 -820.75872803 175.28845215 C-821.08872803 174.29845215 -821.41872803 173.30845215 -821.75872803 172.28845215 C-827.03872803 172.61845215 -832.31872803 172.94845215 -837.75872803 173.28845215 C-837.75872803 172.62845215 -837.75872803 171.96845215 -837.75872803 171.28845215 C-814.53668059 158.97229425 -791.0452382 147.45289907 -766.63372803 137.66345215 C-766.00606537 137.41101746 -765.37840271 137.15858276 -764.73171997 136.89849854 C-757.49799311 134.00138252 -750.27512112 131.35486645 -742.75872803 129.28845215 C-743.08872803 127.63845215 -743.41872803 125.98845215 -743.75872803 124.28845215 C-682.65684627 103.46422774 -619.54697027 93.31834806 -554.91628265 94.51713562 C-548.03867941 94.62886848 -541.16004775 94.65581116 -534.28171921 94.69597626 C-528.31376203 94.735337 -522.34930317 94.80526873 -516.38275146 94.9432373 C-487.29789772 95.58829675 -464.601375 94.73535677 -439.95028687 78.36627197 C-435.57157024 75.51556964 -431.0067457 73.14990718 -426.34857178 70.79626465 C-424.88894667 70.02789775 -423.43040759 69.25746343 -421.9730835 68.48474121 C-414.4954583 64.56508322 -406.91313614 60.85551673 -399.32122803 57.16345215 C-398.49267303 56.76003601 -397.66411804 56.35661987 -396.81045532 55.940979 C-267.26016964 -7.01628402 -267.26016964 -7.01628402 -220.75872803 -4.71154785 C-220.75872803 -3.72154785 -220.75872803 -2.73154785 -220.75872803 -1.71154785 C-218.88700928 -1.98418457 -218.88700928 -1.98418457 -216.97747803 -2.2623291 C-145.11379246 -12.10151691 -71.72106168 -9.23415755 0 0 Z " fill="#060606" transform="translate(1019.7587280273438,333.7115478515625)"/>
<path d="M0 0 C1.70754482 1.47714147 3.39606621 2.97663048 5.0625 4.5 C5.86300781 5.23089844 6.66351562 5.96179688 7.48828125 6.71484375 C24.78877101 23.25934572 36.50875697 48.53643338 37.3984375 72.53125 C37.58254054 85.6996751 37.00131026 97.89278892 33.0625 110.5 C32.74901611 111.52311279 32.74901611 111.52311279 32.42919922 112.56689453 C27.14381744 129.28612094 18.30334646 142.12064326 6.0625 154.5 C5.47082031 155.16386719 4.87914062 155.82773437 4.26953125 156.51171875 C-9.71304112 171.93208777 -32.6238923 181.27669779 -53.09570312 182.72314453 C-74.0749569 183.6874647 -91.2156742 180.85839042 -109.9375 171.5 C-111.00871094 170.96503906 -112.07992188 170.43007813 -113.18359375 169.87890625 C-121.2266546 165.51745453 -127.44276962 159.83354729 -133.9375 153.5 C-134.58332031 152.92765625 -135.22914062 152.3553125 -135.89453125 151.765625 C-152.40709011 136.76123896 -162.01147998 111.4689414 -163.078125 89.61938477 C-163.51602988 75.77173768 -163.40997891 62.70446156 -158.9375 49.5 C-158.71787598 48.84999023 -158.49825195 48.19998047 -158.27197266 47.53027344 C-149.23813796 21.66269015 -131.66256652 0.72307323 -107.046875 -11.48046875 C-72.05305575 -27.965374 -30.49187407 -24.32545602 0 0 Z " fill="#030303" transform="translate(1296.9375,506.5)"/>
<path d="M0 0 C20.44182377 16.09433731 34.91260593 39.82253233 38.0859375 65.87109375 C38.37044318 70.45861877 38.42032077 75.02560665 38.3984375 79.62109375 C38.39279785 80.85956055 38.3871582 82.09802734 38.38134766 83.37402344 C37.98521517 113.22123323 25.18578147 137.60435962 4.01953125 158.2421875 C-18.32786534 178.26854956 -44.06339821 184.01638971 -73.4375 183.08886719 C-98.40468947 181.52491122 -122.02478324 166.88646367 -138.42089844 148.62597656 C-158.18961577 125.3922388 -163.53405354 96.68254907 -161.9140625 66.87109375 C-159.17538852 40.91486405 -144.93610821 17.12679669 -125.12890625 0.51953125 C-87.69064325 -27.34457278 -37.54930299 -27.43213154 0 0 Z " fill="#040404" transform="translate(449.9140625,506.12890625)"/>
<path d="M0 0 C2.03011212 0.26127583 4.06071418 0.51873792 6.09136963 0.77575684 C99.37601292 12.73498803 191.80045534 35.77725638 282.17578125 61.42071533 C286.62814321 62.68102852 291.08336017 63.93111813 295.53846741 65.1816864 C301.44036974 66.83884144 307.34086943 68.50096638 313.24127197 70.16345215 C314.33321869 70.47074249 315.42516541 70.77803284 316.55020142 71.09463501 C327.84291204 74.27620648 339.10782758 77.52329331 350.32330322 80.96813965 C378.62272961 89.65542486 405.48205963 96.07819717 435.24127197 95.28845215 C435.57127197 95.94845215 435.90127197 96.60845215 436.24127197 97.28845215 C426.43381218 109.7133369 412.38809281 117.18441374 396.63525391 119.07434082 C391.90128903 119.49773395 387.15533147 119.50998815 382.40533447 119.56970215 C381.26437317 119.58765839 380.12341187 119.60561462 378.94787598 119.62411499 C376.51215188 119.66227573 374.07639966 119.69867587 371.640625 119.73345947 C365.31459717 119.82563029 358.9889086 119.93757494 352.66314697 120.04626465 C350.17291491 120.0883935 347.68268057 120.13038867 345.19244385 120.17224121 C343.42211792 120.20203064 343.42211792 120.20203064 341.61602783 120.23242188 C338.53865684 120.28351474 335.46126049 120.33257878 332.3838501 120.38122559 C328.33716454 120.44657619 324.29102537 120.52571065 320.24487305 120.61828613 C318.83941628 120.64810801 317.43383984 120.67278769 316.02819824 120.6920166 C314.11722046 120.71869571 312.20654223 120.7647581 310.29595947 120.81188965 C309.25939209 120.83170898 308.22282471 120.85152832 307.15484619 120.87194824 C303.67959134 121.36874603 301.24060392 122.48515111 298.24127197 124.28845215 C296.94133462 126.61088308 296.94133462 126.61088308 297.24127197 129.28845215 C298.65167804 132.01162778 298.65167804 132.01162778 300.80377197 134.60095215 C301.53724854 135.55228027 302.2707251 136.5036084 303.02642822 137.48376465 C303.75732666 138.40931152 304.4882251 139.3348584 305.24127197 140.28845215 C306.41205665 141.8478689 307.57930985 143.40995043 308.74127197 144.97595215 C309.57375339 146.08076126 310.40672314 147.18520389 311.24127197 148.28845215 C307.29234534 148.28845215 306.38941494 146.97771249 303.36627197 144.47595215 C285.42845169 130.42494351 263.6044504 122.52983046 241.24127197 119.28845215 C240.59843262 119.19128906 239.95559326 119.09412598 239.29327393 118.99401855 C234.58338119 118.36617895 229.98108996 118.25405502 225.22955322 118.28845215 C223.977229 118.28716309 222.72490479 118.28587402 221.43463135 118.2845459 C218.83545385 118.28716208 216.23612734 118.32131112 213.63775635 118.3861084 C204.27984373 118.29914793 204.27984373 118.29914793 201.25836182 115.35876465 C199.78424072 112.97595215 199.78424072 112.97595215 198.73419189 110.6126709 C196.23524905 106.72224802 192.52877817 104.94396643 188.19645691 103.70248413 C185.96412091 103.2358713 183.74232164 102.87952431 181.48345947 102.5657959 C180.24219803 102.38366798 180.24219803 102.38366798 178.9758606 102.19786072 C170.10791489 100.99004523 161.30375957 100.78306437 152.36627197 100.85095215 C151.51631653 100.85366119 150.66636108 100.85637024 149.79064941 100.85916138 C137.16227924 100.91927697 124.66913986 101.60366815 112.11627197 102.97595215 C111.42857727 103.05000275 110.74088257 103.12405334 110.03234863 103.2003479 C84.57525558 106.02436134 59.4481825 111.10412709 34.43139648 116.48321533 C-11.20906673 126.28845215 -11.20906673 126.28845215 -17.75872803 126.28845215 C-18.14544678 125.23786621 -18.53216553 124.18728027 -18.93060303 123.1048584 C-22.30931631 113.9193196 -22.30931631 113.9193196 -26.13372803 104.91345215 C-27.75872803 101.28845215 -27.75872803 101.28845215 -27.75872803 99.28845215 C-26.72844482 99.11418701 -25.69816162 98.93992187 -24.63665771 98.76037598 C29.36244165 89.53586559 85.86977921 77.50514713 136.24127197 55.28845215 C136.21773132 53.33682849 136.21773132 53.33682849 135.24127197 51.28845215 C132.56785168 49.87664717 132.56785168 49.87664717 129.10845947 48.90563965 C128.11953201 48.59649124 128.11953201 48.59649124 127.11062622 48.28109741 C117.30009688 45.28921206 107.32103297 42.86909818 97.36627197 40.41345215 C96.30681366 40.15077545 95.24735535 39.88809875 94.15579224 39.61746216 C52.63596907 29.33764459 10.73940032 21.29719286 -31.75872803 16.28845215 C-32.6130542 16.1874823 -33.46738037 16.08651245 -34.34759521 15.98248291 C-41.23269603 15.1713055 -48.12014806 14.38197316 -55.00872803 13.60095215 C-55.95872681 13.49208679 -56.90872559 13.38322144 -57.88751221 13.27105713 C-80.07967726 10.74106372 -102.01093887 10.1002528 -124.33319092 10.10314941 C-127.39965732 10.10323055 -130.46597393 10.09629309 -133.53240967 10.0826416 C-155.24757505 9.98755561 -176.94424871 10.10105976 -198.38372803 14.03845215 C-199.79126343 14.29223633 -199.79126343 14.29223633 -201.22723389 14.55114746 C-239.57998473 21.79637814 -272.00794865 39.45556876 -304.99763489 59.46504211 C-306.70272056 60.49847077 -308.40906169 61.52982709 -310.11541748 62.56115723 C-312.23050301 63.84076264 -314.34253774 65.12543022 -316.4508667 66.4161377 C-322.08217313 69.82837767 -327.69795073 72.72945729 -333.75872803 75.28845215 C-338.24128951 77.36924612 -342.16388093 79.86936226 -346.13372803 82.78845215 C-347.36932455 83.6713774 -348.60500498 84.55418524 -349.84075928 85.43688965 C-352.52572758 87.37103999 -355.15536167 89.36261048 -357.77044678 91.39001465 C-365.04587786 96.89859294 -370.2950803 100.6450447 -379.82904053 99.74157715 C-380.7958374 99.5920459 -381.76263428 99.44251465 -382.75872803 99.28845215 C-384.52946361 99.12075017 -386.30028608 98.95396074 -388.07122803 98.78845215 C-389.28810303 98.62345215 -390.50497803 98.45845215 -391.75872803 98.28845215 C-389.48393776 95.80744343 -387.14841724 94.20436124 -384.23529053 92.53063965 C-383.31199951 91.99648438 -382.3887085 91.4623291 -381.43743896 90.9119873 C-380.42971436 90.3349707 -379.42198975 89.7579541 -378.38372803 89.16345215 C-376.19333438 87.89832822 -374.00324313 86.63268061 -371.81341553 85.36657715 C-371.24046753 85.03610382 -370.66751953 84.70563049 -370.07720947 84.36514282 C-365.94145378 81.97851791 -361.81908608 79.56996816 -357.70404053 77.14782715 C-356.8210302 76.6280983 -356.8210302 76.6280983 -355.92018127 76.09786987 C-355.32815414 75.74938995 -354.73612701 75.40091003 -354.12615967 75.04187012 C-333.76619321 63.05771488 -313.33642173 51.21058458 -292.52142334 40.02990723 C-279.47301963 33.01084916 -266.6190184 25.64474994 -253.75872803 18.28845215 C-253.75872803 16.96845215 -253.75872803 15.64845215 -253.75872803 14.28845215 C-255.50350436 12.71326763 -255.50350436 12.71326763 -257.75872803 11.53845215 C-258.87247803 10.89649902 -258.87247803 10.89649902 -260.00872803 10.24157715 C-260.58622803 9.9270459 -261.16372803 9.61251465 -261.75872803 9.28845215 C-201.10496318 -31.14739108 -67.90230329 -8.74248863 0 0 Z " fill="#FCFCFC" transform="translate(1019.7587280273438,333.7115478515625)"/>
<path d="M0 0 C2.04953064 0.00543655 4.09904971 0.00780714 6.14858627 0.00987244 C28.2229713 0.0444883 50.07650935 0.84724419 72.01910019 3.31785583 C72.78198349 3.40224915 73.54486679 3.48664246 74.33086777 3.57359314 C102.19782445 6.658935 102.19782445 6.658935 110.01910019 8.31785583 C108.88890276 32.63658666 104.55357986 56.45078381 100.01910019 80.31785583 C96.40011344 81.5964357 93.00509391 82.60223466 89.19488144 83.06394958 C88.2697374 83.17738708 87.34459335 83.29082458 86.39141464 83.40769958 C84.87680649 83.57978943 84.87680649 83.57978943 83.33160019 83.75535583 C82.22969345 83.88168396 81.12778671 84.00801208 79.99248886 84.13816833 C76.33611936 84.54614273 72.67822644 84.93542367 69.01910019 85.31785583 C67.83316269 85.44305603 66.64722519 85.56825623 65.42535019 85.69725037 C44.58391445 87.83205021 23.69028218 88.9355518 2.76910019 89.94285583 C0.83292328 90.03651428 0.83292328 90.03651428 -1.14236832 90.13206482 C-10.08726858 90.55994376 -19.0334136 90.94837493 -27.98089981 91.31785583 C-29.16797531 91.36904572 -30.35505081 91.4202356 -31.5780983 91.47297668 C-55.48188034 92.48292055 -79.37318936 92.43888648 -103.29364395 92.38652039 C-108.57806358 92.37609523 -113.86248838 92.37168266 -119.14691544 92.36668396 C-129.4249233 92.35611577 -139.70290897 92.33916193 -149.98089981 92.31785583 C-149.98089981 91.65785583 -149.98089981 90.99785583 -149.98089981 90.31785583 C-149.36214981 89.71973083 -148.74339981 89.12160583 -148.10589981 88.50535583 C-143.98667566 84.26497803 -143.72469544 80.13278566 -143.79339981 74.38035583 C-143.80306778 72.60338318 -143.80306778 72.60338318 -143.81293106 70.79051208 C-143.96953663 67.55278297 -144.37388142 64.49863223 -144.98089981 61.31785583 C-150.14810382 60.46110199 -155.08870603 60.18318003 -160.32074356 60.22019958 C-161.47117897 60.22232201 -161.47117897 60.22232201 -162.6448555 60.2244873 C-165.06941171 60.23003818 -167.493872 60.24258121 -169.91839981 60.25535583 C-171.57269534 60.2603772 -173.22699234 60.26493899 -174.88129044 60.26902771 C-178.91452993 60.27999146 -182.94769867 60.29722159 -186.98089981 60.31785583 C-183.22373628 57.16329395 -179.27433876 54.56716425 -175.05511856 52.08738708 C-174.38986664 51.69266708 -173.72461472 51.29794708 -173.03920364 50.89126587 C-171.63078408 50.05663735 -170.22127068 49.22385222 -168.8107338 48.39280701 C-166.71063137 47.15524237 -164.61403852 45.911913 -162.51800919 44.66746521 C-155.52904087 40.52740874 -148.50706891 36.45034417 -141.43011856 32.46238708 C-140.79756653 32.10562393 -140.1650145 31.74886078 -139.51329422 31.38128662 C-111.56863141 15.72007819 -81.86405351 6.05031949 -49.98089981 2.31785583 C-49.25384842 2.23172028 -48.52679703 2.14558472 -47.77771378 2.05683899 C-31.8597312 0.23060515 -16.01085718 -0.04420986 0 0 Z " fill="#FDFDFD" transform="translate(886.980899810791,346.68214416503906)"/>
<path d="M0 0 C1.70754482 1.47714147 3.39606621 2.97663048 5.0625 4.5 C5.86300781 5.23089844 6.66351562 5.96179688 7.48828125 6.71484375 C24.78877101 23.25934572 36.50875697 48.53643338 37.3984375 72.53125 C37.58254054 85.6996751 37.00131026 97.89278892 33.0625 110.5 C32.74901611 111.52311279 32.74901611 111.52311279 32.42919922 112.56689453 C27.14381744 129.28612094 18.30334646 142.12064326 6.0625 154.5 C5.47082031 155.16386719 4.87914062 155.82773437 4.26953125 156.51171875 C-9.71304112 171.93208777 -32.6238923 181.27669779 -53.09570312 182.72314453 C-74.0749569 183.6874647 -91.2156742 180.85839042 -109.9375 171.5 C-111.00871094 170.96503906 -112.07992188 170.43007813 -113.18359375 169.87890625 C-121.2266546 165.51745453 -127.44276962 159.83354729 -133.9375 153.5 C-134.58332031 152.92765625 -135.22914062 152.3553125 -135.89453125 151.765625 C-152.40709011 136.76123896 -162.01147998 111.4689414 -163.078125 89.61938477 C-163.51602988 75.77173768 -163.40997891 62.70446156 -158.9375 49.5 C-158.71787598 48.84999023 -158.49825195 48.19998047 -158.27197266 47.53027344 C-149.23813796 21.66269015 -131.66256652 0.72307323 -107.046875 -11.48046875 C-72.05305575 -27.965374 -30.49187407 -24.32545602 0 0 Z M-120.9375 35.5 C-126.2681703 42.55925659 -129.98235163 50.18661557 -132.9375 58.5 C-133.25847656 59.386875 -133.57945313 60.27375 -133.91015625 61.1875 C-139.65506812 79.9987463 -136.09034561 100.54796625 -127.35351562 117.76269531 C-123.57544166 124.67087955 -118.57611072 130.06991778 -112.9375 135.5 C-112.29296875 136.16386719 -111.6484375 136.82773437 -110.984375 137.51171875 C-103.08638398 145.15216658 -91.55345419 150.85099079 -80.9375 153.5 C-80.19886719 153.70238281 -79.46023438 153.90476562 -78.69921875 154.11328125 C-59.89597474 158.63713865 -40.60047859 154.11873317 -24.3125 144.25 C-6.72274603 132.53193369 4.39022887 116.50597232 8.97949219 95.98046875 C12.22558505 79.42764418 10.02711608 62.46706377 2.0625 47.5 C1.61648438 46.5925 1.17046875 45.685 0.7109375 44.75 C-8.29588994 27.71245449 -23.45265651 16.40903916 -41.60546875 10.46484375 C-72.01726594 1.65861408 -100.32936877 12.19196435 -120.9375 35.5 Z " fill="#010101" transform="translate(1296.9375,506.5)"/>
<path d="M0 0 C20.44182377 16.09433731 34.91260593 39.82253233 38.0859375 65.87109375 C38.37044318 70.45861877 38.42032077 75.02560665 38.3984375 79.62109375 C38.39279785 80.85956055 38.3871582 82.09802734 38.38134766 83.37402344 C37.98521517 113.22123323 25.18578147 137.60435962 4.01953125 158.2421875 C-18.32786534 178.26854956 -44.06339821 184.01638971 -73.4375 183.08886719 C-98.40468947 181.52491122 -122.02478324 166.88646367 -138.42089844 148.62597656 C-158.18961577 125.3922388 -163.53405354 96.68254907 -161.9140625 66.87109375 C-159.17538852 40.91486405 -144.93610821 17.12679669 -125.12890625 0.51953125 C-87.69064325 -27.34457278 -37.54930299 -27.43213154 0 0 Z M-118.1015625 33.05859375 C-132.7556396 50.41526703 -136.48109837 69.5307105 -135.20068359 91.77832031 C-133.69811777 107.99169673 -125.33825482 122.57908217 -113.9140625 133.87109375 C-113.16511719 134.64195312 -112.41617188 135.4128125 -111.64453125 136.20703125 C-100.46624335 147.0701767 -84.5447966 154.75461274 -68.9140625 155.87109375 C-68.03105469 155.93425781 -67.14804687 155.99742187 -66.23828125 156.0625 C-45.96396408 156.84519469 -26.84430842 149.49215766 -11.9140625 135.87109375 C-11.305625 135.35417969 -10.6971875 134.83726562 -10.0703125 134.3046875 C2.29042321 123.09574762 9.9188884 105.68782283 11.30737305 89.24951172 C12.23848242 67.78039272 7.87668742 48.96114786 -6.61328125 32.328125 C-20.44218512 17.56007655 -38.0364963 9.06544588 -58.28125 7.6328125 C-81.77800857 7.13566505 -101.85933729 16.09379373 -118.1015625 33.05859375 Z " fill="#010101" transform="translate(449.9140625,506.12890625)"/>
<path d="M0 0 C25.51527469 -0.38541427 51.01331192 0.16366331 76.51831436 0.84508896 C78.84184266 0.90685762 81.16540717 0.96706343 83.48898315 1.02700806 C105.98414113 1.61350081 128.43112577 2.67124925 150.89245605 4.03320312 C150.34323486 5.10119141 149.79401367 6.16917969 149.22814941 7.26953125 C148.50008129 8.701027 147.77231412 10.13267584 147.0447998 11.56445312 C146.68366089 12.26473633 146.32252197 12.96501953 145.95043945 13.68652344 C142.00701853 21.47888515 139.39683688 29.53502269 138.34924316 38.23828125 C138.19850342 39.49060547 138.04776367 40.74292969 137.89245605 42.03320312 C121.44512099 42.05664419 104.99779142 42.07423706 88.55044365 42.0850153 C80.91232619 42.09015456 73.27421916 42.09715171 65.6361084 42.10864258 C58.97270994 42.11866223 52.30931903 42.12507375 45.64591324 42.12729162 C42.12318429 42.12858645 38.60047695 42.13159348 35.07775497 42.13893318 C31.12910328 42.1470923 27.18047203 42.14718962 23.23181152 42.14672852 C22.08525085 42.15032379 20.93869019 42.15391907 19.75738525 42.15762329 C-3.78247039 42.12810521 -3.78247039 42.12810521 -13.42004395 36.78320312 C-42.1243948 22.14745649 -76.47691423 19.82928581 -107.23254395 29.28320312 C-109.87675214 30.14989752 -112.4945221 31.07690749 -115.10754395 32.03320312 C-115.79026367 32.28054199 -116.4729834 32.52788086 -117.1763916 32.78271484 C-136.3863062 39.87457903 -154.51373394 50.53723388 -168.5411377 65.64648438 C-169.09188965 66.23453857 -169.6426416 66.82259277 -170.21008301 67.4284668 C-171.21985842 68.53047832 -172.20560263 69.65536173 -173.15734863 70.80786133 C-177.18103947 75.25203207 -181.28782919 76.02831784 -187.04968262 77.15625 C-191.97065246 78.15442651 -196.73517382 79.64076685 -201.5333252 81.10742188 C-202.47855545 81.3943692 -203.42378571 81.68131653 -204.3976593 81.97695923 C-206.38060401 82.57926673 -208.36325866 83.18252986 -210.34564209 83.78668213 C-239.71915809 92.71052552 -268.5090353 100.57228565 -299.10754395 104.03320312 C-301.65315877 104.33362948 -304.19873138 104.63441373 -306.7442627 104.93554688 C-311.40559985 105.47616353 -316.06741254 106.01066171 -320.73254395 106.51757812 C-321.65293457 106.61780273 -322.5733252 106.71802734 -323.52160645 106.82128906 C-326.06349386 107.02959328 -328.55844295 107.07116356 -331.10754395 107.03320312 C-327.11165197 103.72122343 -322.93160228 100.82629412 -318.60754395 97.97070312 C-317.95656738 97.53693359 -317.30559082 97.10316406 -316.6348877 96.65625 C-314.79870144 95.43769003 -312.96311123 94.22207771 -311.10754395 93.03320312 C-309.99911133 92.2511853 -309.99911133 92.2511853 -308.86828613 91.45336914 C-305.41039678 89.67458046 -302.15313799 89.30753222 -298.34191895 88.97070312 C-297.59025452 88.89327881 -296.83859009 88.81585449 -296.06414795 88.73608398 C-293.66294037 88.49021343 -291.26057094 88.26054264 -288.85754395 88.03320312 C-252.61866371 84.51122758 -223.54746023 74.9130118 -194.1505127 52.97851562 C-191.03501916 50.66332574 -187.83405132 48.68130928 -184.48254395 46.72070312 C-180.50770848 44.07747083 -179.32083045 41.48984081 -177.65368652 37.20019531 C-175.43723433 31.60644222 -173.5609008 27.31429363 -167.88879395 24.68554688 C-163.41871692 23.03111273 -158.84040557 21.86172532 -154.20422363 20.77197266 C-150.99372306 20.00604907 -147.82440277 19.13951885 -144.64660645 18.24804688 C-97.7228433 5.26540483 -48.56726739 0.76514896 0 0 Z " fill="#FCFCFC" transform="translate(460.1075439453125,431.966796875)"/>
<path d="M0 0 C1.47584915 2.61249103 2.76428439 5.15162396 4 7.875 C4.35449219 8.64062256 4.70898438 9.40624512 5.07421875 10.19506836 C7.69828997 15.99985044 9.6240258 21.77596018 11 28 C-5.00067239 30.74803138 -21.0347195 32.1516463 -37.21666336 33.34489441 C-39.3407109 33.50208779 -41.46454789 33.66189316 -43.58834839 33.8223877 C-82.6714945 36.77044294 -121.81070571 39.15191805 -161 40 C-162.33933468 40.02963837 -162.33933468 40.02963837 -163.70572662 40.05987549 C-208.59359366 41.04724712 -253.46762309 41.12734607 -298.36427957 41.07202697 C-307.84540638 41.06055854 -317.32653421 41.05527952 -326.8076663 41.05032361 C-346.20511876 41.04005564 -365.60255821 41.02263619 -385 41 C-384.85206316 39.23543491 -384.70058531 37.47116645 -384.54760742 35.70703125 C-384.46363205 34.72452393 -384.37965668 33.7420166 -384.2931366 32.72973633 C-383.25056875 23.02117264 -378.54077911 13.20794312 -372.8137207 5.37817383 C-370.09545056 3.31266906 -367.89383701 3.64508579 -364.515625 3.671875 C-362.53852539 3.67864258 -362.53852539 3.67864258 -360.52148438 3.68554688 C-359.09764723 3.70642522 -357.67381904 3.72792154 -356.25 3.75 C-354.80534528 3.76191501 -353.36068329 3.77297797 -351.91601562 3.78320312 C-339.932204 3.89178128 -327.96533305 4.32994135 -316 5 C-316.20894897 5.96208374 -316.20894897 5.96208374 -316.42211914 6.94360352 C-317.47563678 11.96264562 -318.33146766 16.79181301 -318.4375 21.9375 C-318.47746094 23.01902344 -318.51742187 24.10054688 -318.55859375 25.21484375 C-318.26577708 28.12109782 -318.26577708 28.12109782 -316.0078125 29.77734375 C-312.17852702 31.33392343 -308.51581004 32.03389813 -304.4375 32.625 C-303.61918701 32.74979736 -302.80087402 32.87459473 -301.95776367 33.00317383 C-292.67813172 34.32908692 -283.36048684 34.71395773 -274 35 C-273.58655811 30.86002664 -273.58655811 30.86002664 -275.3203125 27.27734375 C-276.21363281 26.61412109 -276.21363281 26.61412109 -277.125 25.9375 C-277.75792969 25.43734375 -278.39085937 24.9371875 -279.04296875 24.421875 C-280.27430003 23.52725507 -281.52510247 22.65828473 -282.80078125 21.828125 C-284.4375 20.6875 -284.4375 20.6875 -287 18 C-287.25024414 15.76879883 -287.25024414 15.76879883 -287.16015625 13.33203125 C-287.13703369 12.52096924 -287.11391113 11.70990723 -287.09008789 10.87426758 C-287.06035889 10.25575928 -287.03062988 9.63725098 -287 9 C-286.32293283 9.00276538 -285.64586565 9.00553076 -284.94828129 9.00837994 C-268.10992009 9.07601151 -251.27160432 9.12492179 -234.43313694 9.15543652 C-226.28862533 9.17060287 -218.1442077 9.19116484 -209.99975586 9.22631836 C-109.59568546 9.7593604 -109.59568546 9.7593604 -9.8474884 -0.12280273 C-8.56209419 -0.31531616 -8.56209419 -0.31531616 -7.25073242 -0.51171875 C-6.49950607 -0.62990967 -5.74827972 -0.74810059 -4.97428894 -0.86987305 C-3 -1 -3 -1 0 0 Z " fill="#FBFBFB" transform="translate(987,433)"/>
<path d="M0 0 C20.10416856 -0.39027505 39.73903 -0.73468092 59 6 C57.05809876 12.97035439 54.68390929 19.61036959 51.8125 26.25 C51.41667725 27.16531494 51.02085449 28.08062988 50.61303711 29.02368164 C37.91256327 57.87686516 16.40314638 85.88762117 -13.0625 98.8125 C-25.47007618 103.62063745 -37.84317862 104.89493101 -51 106 C-47.96527268 102.9152497 -44.87369415 99.94706452 -41.6496582 97.05737305 C-12.75849215 71.09927333 -4.51539497 37.37495245 0 0 Z " fill="#FDFDFD" transform="translate(1022,482)"/>
<path d="M0 0 C0.79019531 0.45503906 1.58039063 0.91007812 2.39453125 1.37890625 C2.98621094 1.72824219 3.57789063 2.07757813 4.1875 2.4375 C4.1875 3.0975 4.1875 3.7575 4.1875 4.4375 C0.18883433 6.66906447 -3.81137494 8.89784882 -7.8125 11.125 C-8.42106842 11.46385223 -9.02963684 11.80270447 -9.65664673 12.15182495 C-18.06988493 16.83383478 -26.51620292 21.44673371 -35 26 C-44.07743171 30.8831201 -53.00686773 35.98456743 -61.89013672 41.21166992 C-68.59394717 45.15486323 -75.34077562 49.00955196 -82.125 52.8125 C-90.79427056 57.68298673 -99.38469223 62.67869862 -107.9375 67.75 C-109.57199097 68.71848877 -109.57199097 68.71848877 -111.23950195 69.70654297 C-124.16216086 77.35393299 -124.16216086 77.35393299 -136.8125 85.4375 C-139.80508874 85.60975941 -142.69330473 85.6647108 -145.68359375 85.6171875 C-146.56889267 85.60960419 -147.45419159 85.60202087 -148.36631775 85.59420776 C-157.33377695 85.48854284 -166.29028013 85.14466285 -175.24633789 84.69287109 C-177.93271908 84.55963737 -180.61953345 84.44179632 -183.30664062 84.32421875 C-185.02869082 84.24050361 -186.75069829 84.15590384 -188.47265625 84.0703125 C-189.66774559 84.02017502 -189.66774559 84.02017502 -190.88697815 83.96902466 C-194.6544304 83.7648464 -196.60773798 83.57400802 -199.8125 81.4375 C-185.71531039 74.21285307 -171.61079366 67.00266431 -157.49853516 59.80749512 C-155.15340401 58.61137592 -152.8089698 57.41390753 -150.46484375 56.21582031 C-133.77660662 47.69363517 -116.86944484 39.75199735 -99.76637268 32.10604858 C-95.47218399 30.18601812 -91.1899193 28.24189892 -86.9140625 26.28125 C-69.81010158 18.48469554 -52.39272882 11.66660735 -34.76641846 5.15930176 C-32.89130712 4.46661233 -31.01764175 3.77001245 -29.14404297 3.07324219 C-25.9351436 1.88618245 -22.72001326 0.71902056 -19.5 -0.4375 C-18.57606445 -0.77749023 -17.65212891 -1.11748047 -16.70019531 -1.46777344 C-9.87657786 -3.86188836 -6.33483089 -3.68743888 0 0 Z " fill="#FCFCFC" transform="translate(756.8125,346.5625)"/>
<path d="M0 0 C3.69411636 2.31308516 6.81747897 5.03027755 10 8 C10.5067627 8.47115234 11.01352539 8.94230469 11.53564453 9.42773438 C32.02978493 28.67140573 32.02978493 28.67140573 34 38 C24.65149342 43.61630434 15.77281818 48.6330146 5 51 C4.29101562 51.18046875 3.58203125 51.3609375 2.8515625 51.546875 C1.0625 51.8125 1.0625 51.8125 -2 51 C-4.65101719 48.37013454 -6.25812842 45.27931813 -8 42 C-8.3108252 41.42088867 -8.62165039 40.84177734 -8.94189453 40.24511719 C-24.35987357 11.27709209 -24.35987357 11.27709209 -23.875 0.125 C-23 -2 -23 -2 -21.375 -3.3125 C-13.85999983 -5.48789478 -6.93807164 -3.13015829 0 0 Z " fill="#FCFCFC" transform="translate(162,562)"/>
<path d="M0 0 C14.70823726 11.53930055 25.39347695 28.28743808 28 47 C29.86172266 67.93838726 26.12746197 87.57023782 13 104.4375 C11.68415345 105.97348817 10.35211489 107.49584006 9 109 C8.48179687 109.61101562 7.96359375 110.22203125 7.4296875 110.8515625 C-5.09584885 124.63594673 -24.22025045 131.74251548 -42.3515625 133.28515625 C-62.32667583 133.84407061 -81.20138402 125.92178193 -95.625 112.33203125 C-96.40875 111.56246094 -97.1925 110.79289063 -98 110 C-98.70125 109.32324219 -99.4025 108.64648438 -100.125 107.94921875 C-114.29837898 93.24987454 -118.64924077 74.91002402 -118.54345703 55.04980469 C-117.99234615 34.51878264 -109.14708366 17.51745387 -94.375 3.375 C-67.3920708 -19.90600294 -28.73301295 -20.92742206 0 0 Z M-99.75 14.1875 C-111.22331813 28.96529795 -116.6011581 46.3718924 -115 65 C-112.53096272 83.72669815 -104.7400237 100.76091125 -90 113 C-81.67805893 119.29239047 -72.97868713 123.84604577 -63 127 C-62.24589844 127.24492188 -61.49179687 127.48984375 -60.71484375 127.7421875 C-44.96796267 132.0394672 -26.20496189 128.55126408 -12 121 C-8.15012478 118.54208235 -4.56438741 115.85261345 -1 113 C-0.29101562 112.46761719 0.41796875 111.93523437 1.1484375 111.38671875 C13.39954259 101.62941568 20.89228895 86.0813959 24 71 C24.41588335 66.88529565 24.4779677 62.82094116 24.4375 58.6875 C24.42505249 57.04056152 24.42505249 57.04056152 24.41235352 55.36035156 C24.00754075 35.87747675 15.75342125 19.29523703 1.6953125 5.78515625 C-14.11237397 -7.71616285 -33.21554034 -12.44190176 -53.57910156 -11.22314453 C-71.60483818 -9.56163553 -88.06919297 0.77328484 -99.75 14.1875 Z " fill="#F2F3F3" transform="translate(433,529)"/>
<path d="M0 0 C16.81550087 13.05674185 26.60098691 28.66018165 30.953125 49.359375 C33.50048391 70.29202 28.46723774 90.44732544 15.75 107.375 C14.62401512 108.70456697 13.47937606 110.01867214 12.3125 111.3125 C11.57 112.19228516 11.57 112.19228516 10.8125 113.08984375 C-1.48004136 126.6423706 -20.49801266 134.07073056 -38.34765625 135.6328125 C-57.44924788 136.23538637 -76.5096509 129.19393099 -90.6875 116.3125 C-91.43257812 115.65894531 -92.17765625 115.00539063 -92.9453125 114.33203125 C-106.15866508 102.0368947 -114.20111742 84.29583719 -115.0234375 66.26953125 C-115.37196324 46.56077929 -110.90589816 27.57342575 -97.1875 12.75 C-95.39048758 10.89302598 -93.55258625 9.10342229 -91.6875 7.3125 C-91.00816406 6.63703125 -90.32882812 5.9615625 -89.62890625 5.265625 C-65.5621196 -17.35014957 -26.71839757 -18.4944369 0 0 Z M-96.6875 17.3125 C-109.14454034 34.39323459 -112.29730995 52.57956302 -110.6875 73.3125 C-107.86073244 91.23341212 -97.27946507 107.53567352 -82.75 118.1875 C-66.71489563 128.60650601 -48.83537126 134.13314941 -29.6484375 130.6640625 C-10.85046778 126.67012084 5.77439269 116.3783915 16.375 100.15625 C26.33194568 83.9362851 30.00913326 65.04356686 26.69921875 46.1953125 C21.96920559 26.48345149 10.4385377 11.06955735 -6.6875 0.3125 C-36.90669715 -18.13555325 -74.4067642 -8.6882876 -96.6875 17.3125 Z " fill="#F3F3F3" transform="translate(1275.6875,526.6875)"/>
<path d="M0 0 C0.33 0 0.66 0 1 0 C0.92998779 1.13735596 0.85997559 2.27471191 0.7878418 3.4465332 C-1.51431763 42.62516286 0.90445991 79.98697702 7.87060547 118.5684967 C8.00426514 119.31232101 8.1379248 120.05614532 8.27563477 120.82250977 C8.39173599 121.46293716 8.50783722 122.10336456 8.62745667 122.76319885 C9.13901001 125.83463514 9.56710887 128.91662575 10 132 C25.2963688 131.6473989 40.59264222 131.29084628 55.88882256 130.93017006 C62.99875962 130.76260381 70.10871843 130.59612804 77.21875 130.43261719 C109.14347121 129.69778475 141.05766192 128.84785224 172.9710083 127.70561218 C186.59673268 127.21799801 200.22191263 126.76506662 213.8515625 126.40234375 C214.61729458 126.38185974 215.38302666 126.36137573 216.17196274 126.340271 C222.08308972 126.18273198 227.99434451 126.03029227 233.90563965 125.87921143 C238.46493062 125.76256272 243.02414798 125.64355482 247.58329391 125.52136421 C249.62127687 125.46762025 251.65934626 125.41718405 253.69741821 125.3669281 C300.10030651 124.12599478 337.11188171 116.21942143 370 82 C370 86.26518651 367.95541673 87.48920639 365.07397461 90.44555664 C364.36893799 91.14414795 363.66390137 91.84273926 362.9375 92.5625 C362.21377197 93.27978271 361.49004395 93.99706543 360.74438477 94.73608398 C345.499126 109.47720279 326.59781036 118.93570845 305.79418945 123.05151367 C304.89577835 123.22970139 303.99736725 123.4078891 303.07173157 123.59147644 C302.04622444 123.7936956 302.04622444 123.7936956 301 124 C319.07709148 124.21638842 337.09166818 123.57967124 355.14639735 122.78842545 C359.09553199 122.6165137 363.04491618 122.45053261 366.99427795 122.28393555 C374.44274711 121.96892881 381.89101028 121.64931971 389.33919674 121.32770443 C402.70653404 120.75064456 416.07420755 120.181451 429.44196421 119.61419773 C434.12054982 119.41547792 438.79903981 119.21467244 443.47745883 119.0120697 C446.38295611 118.88651377 449.28851027 118.76231195 452.19407845 118.63840866 C454.17000415 118.55369792 456.14585573 118.46726359 458.1217041 118.38076782 C464.08747674 118.12754571 470.02882641 117.93453545 476 118 C476 118.66 476 119.32 476 120 C464.90936747 120.53087832 453.81863883 121.05969683 442.72777367 121.58569431 C438.16479038 121.80211337 433.60182282 122.01882869 429.03894043 122.23736572 C342.83636207 126.36285427 256.56697803 128.89558317 32.59231186 134.91020584 C29.16369965 134.99590813 25.73511922 135.08276842 22.30654907 135.1701355 C1.63903908 135.69605313 -19.01156039 136.15838107 -39.6875 136.0625 C-41.70768109 136.05743934 -43.72786352 136.05288504 -45.74804688 136.04882812 C-50.49873367 136.0382637 -55.24934972 136.02129455 -60 136 C-60 135.67 -60 135.34 -60 135 C-52.80448492 133.93763487 -45.63998036 133.66638119 -38.375 133.4375 C-37.07933105 133.3950415 -35.78366211 133.35258301 -34.44873047 133.30883789 C-20.30014752 132.87262153 -6.15386504 132.90139322 8 133 C7.7417041 132.03352539 7.4834082 131.06705078 7.21728516 130.07128906 C4.85044845 121.03225281 3.01247956 112.03780105 1.671875 102.79248047 C1.37680694 100.76243166 1.06826682 98.73477783 0.7578125 96.70703125 C-1.90376273 79.03745239 -3.33754531 61.59420085 -3.26074219 43.71679688 C-3.24995683 40.7380768 -3.26074971 37.75995281 -3.2734375 34.78125 C-3.29326092 6.58652183 -3.29326092 6.58652183 0 0 Z " fill="#E2E2E2" transform="translate(600,476)"/>
<path d="M0 0 C1.04792725 0.27473145 2.09585449 0.54946289 3.17553711 0.83251953 C4.5562439 1.21126221 4.5562439 1.21126221 5.96484375 1.59765625 C6.74335693 1.81043213 7.52187012 2.02320801 8.32397461 2.24243164 C10.0625 2.9375 10.0625 2.9375 11.0625 4.9375 C2.35272029 4.37492542 -6.0763856 2.89656646 -14.625 1.1875 C-16.0138468 0.91419881 -17.40276404 0.64125536 -18.79174805 0.36865234 C-26.62366644 -1.17444002 -34.44070365 -2.7837998 -42.25 -4.4375 C-60.41865556 -8.27890929 -78.68058463 -11.67028784 -96.9375 -15.0625 C-97.65669617 -15.1963208 -98.37589233 -15.3301416 -99.11688232 -15.46801758 C-177.60724737 -30.0356184 -250.39810778 -25.8293064 -328.56912231 -11.90002441 C-332.06778889 -11.29334382 -335.38547257 -10.92926694 -338.9375 -11.0625 C-335.52322596 -13.33868269 -332.30886934 -14.10545456 -328.37890625 -15.015625 C-327.23363716 -15.28682663 -327.23363716 -15.28682663 -326.06523132 -15.56350708 C-323.54548013 -16.15548299 -321.02321372 -16.73546949 -318.5 -17.3125 C-317.63314575 -17.511922 -316.7662915 -17.71134399 -315.87316895 -17.91680908 C-288.81785677 -24.10884065 -261.57457764 -28.47120135 -233.9375 -31.0625 C-232.67679688 -31.19398438 -231.41609375 -31.32546875 -230.1171875 -31.4609375 C-154.16023735 -38.36611479 -72.84710533 -19.23242632 0 0 Z " fill="#0B0B0B" transform="translate(1419.9375,432.0625)"/>
<path d="M0 0 C-3.58815202 9.66184683 -9.3890719 13.96086742 -17.75390625 19.23046875 C-20.51122349 20.96949024 -23.01201367 22.77946583 -25.46484375 24.92578125 C-36.52928807 34.45229819 -48.90300253 36.4952896 -63 39 C-65.08737548 39.39120268 -67.17461974 39.78310626 -69.26171875 40.17578125 C-79.79544514 42.11163067 -90.36638069 43.72329373 -101 45 C-101 44.34 -101 43.68 -101 43 C-73.3511635 28.33602874 -45.27172114 15.11233722 -16 4 C-15.35945679 3.75620605 -14.71891357 3.51241211 -14.05895996 3.26123047 C-12.12342792 2.52922143 -10.18379146 1.80947876 -8.2421875 1.09375 C-6.51911377 0.45469727 -6.51911377 0.45469727 -4.76123047 -0.19726562 C-2 -1 -2 -1 0 0 Z " fill="#FAFAFA" transform="translate(283,462)"/>
<path d="M0 0 C-0.33 0.99 -0.66 1.98 -1 3 C-3.64408037 4.05431537 -6.17827836 4.90895291 -8.90234375 5.69921875 C-9.69524307 5.9391304 -10.4881424 6.17904205 -11.30506897 6.42622375 C-13.84591066 7.1915394 -16.39157488 7.93929116 -18.9375 8.6875 C-20.65071184 9.20270911 -22.36360714 9.71897209 -24.07617188 10.23632812 C-25.70544889 10.72489397 -27.33499763 11.21255479 -28.96484375 11.69921875 C-29.73884018 11.93041916 -30.51283661 12.16161957 -31.31028748 12.39982605 C-36.76239045 14 -36.76239045 14 -39 14 C-39.23783203 14.8353125 -39.23783203 14.8353125 -39.48046875 15.6875 C-39.71378906 16.450625 -39.94710937 17.21375 -40.1875 18 C-40.51814453 19.11375 -40.51814453 19.11375 -40.85546875 20.25 C-44.00166397 27.80945882 -48.00017341 32.35532975 -54.8125 36.8125 C-55.55733643 37.31749023 -56.30217285 37.82248047 -57.06958008 38.34277344 C-58.61437425 39.38948358 -60.16315663 40.43033123 -61.71582031 41.46533203 C-63.89142761 42.92705365 -66.03912864 44.42114272 -68.1796875 45.93359375 C-90.66149525 61.78517345 -114.99491132 73.48997355 -143 74 C-143 73.01 -143 72.02 -143 71 C-144.03447266 71.10828125 -144.03447266 71.10828125 -145.08984375 71.21875 C-151.09588659 71.81193942 -156.9657 72.09892295 -163 72 C-158.0998092 68.02687232 -155.17768995 65.78632704 -148.80078125 65.3671875 C-147.59228516 65.28339844 -146.38378906 65.19960938 -145.13867188 65.11328125 C-143.87603516 65.03464844 -142.61339844 64.95601563 -141.3125 64.875 C-140.03826172 64.78863281 -138.76402344 64.70226562 -137.45117188 64.61328125 C-134.30122097 64.40092501 -131.15095265 64.19683565 -128 64 C-128.66 62.35 -129.32 60.7 -130 59 C-129.43941895 58.91024902 -128.87883789 58.82049805 -128.30126953 58.72802734 C-122.32285963 57.75878382 -116.36191735 56.71019298 -110.40527344 55.61523438 C-108.16137521 55.20982689 -105.91457832 54.82010288 -103.66503906 54.44726562 C-87.47354687 51.72720946 -76.51380938 47.25451957 -63.9921875 36.61230469 C-61.19090172 34.34518565 -58.22158645 32.5914167 -55.125 30.75 C-49.61191559 27.1981529 -47.15743707 23.12110053 -45 17 C-46.65 17.33 -48.3 17.66 -50 18 C-50.33 16.35 -50.66 14.7 -51 13 C-46.86146871 11.64386672 -42.72117663 10.29327774 -38.5793457 8.94726562 C-37.17783789 8.49101277 -35.77677679 8.03338483 -34.3762207 7.57421875 C-26.88556003 5.11949991 -19.37586081 2.73771871 -11.78515625 0.609375 C-10.00637085 0.10615723 -10.00637085 0.10615723 -8.19165039 -0.40722656 C-5.0266324 -0.99505366 -3.06267483 -0.8860614 0 0 Z " fill="#0A0A0A" transform="translate(327,445)"/>
<path d="M0 0 C-0.56184263 5.1641706 -1.1340228 10.32702871 -1.71777344 15.48876953 C-1.90076941 17.1170538 -2.08126253 18.74562206 -2.25878906 20.37451172 C-2.49806005 22.56313748 -2.74775264 24.75033704 -3 26.9375 C-3.144375 28.22527344 -3.28875 29.51304687 -3.4375 30.83984375 C-4 34 -4 34 -6 37 C-6.4846875 36.50371094 -6.969375 36.00742187 -7.46875 35.49609375 C-10.84008203 32.0793784 -14.22584268 28.74540187 -17.875 25.625 C-22.82248013 21.357552 -27.64850815 16.87759435 -32 12 C-32 11.34 -32 10.68 -32 10 C-22.71418479 2.66357715 -11.63700059 -0.381541 0 0 Z " fill="#FBFBFB" transform="translate(384,524)"/>
<path d="M0 0 C11.38492749 0.6364335 21.6231068 3.38101657 31 10 C29.44660754 13.70654622 27.17437584 16.08370297 24.3515625 18.9140625 C22.96710938 20.30238281 22.96710938 20.30238281 21.5546875 21.71875 C21.07354492 22.19570313 20.59240234 22.67265625 20.09667969 23.1640625 C18.62979473 24.62024027 17.1738811 26.08677484 15.71875 27.5546875 C14.79320312 28.47765625 13.86765625 29.400625 12.9140625 30.3515625 C12.0679541 31.19541504 11.2218457 32.03926758 10.35009766 32.90869141 C8.26736875 34.76207347 6.55117394 35.9308175 4 37 C3.32099863 32.71019217 2.65907752 28.4179103 2 24.125 C1.80921875 22.92101562 1.6184375 21.71703125 1.421875 20.4765625 C0.37387493 13.58970487 -0.28971051 6.96713537 0 0 Z " fill="#FAFAFA" transform="translate(1238,524)"/>
<path d="M0 0 C11.61426356 0.45725447 21.42226822 3.36926261 31 10 C29.41568547 13.90851199 26.73364905 16.52367356 23.7734375 19.421875 C23.26575836 19.92672424 22.75807922 20.43157349 22.23501587 20.95172119 C20.61966158 22.55592096 18.99747791 24.15300856 17.375 25.75 C16.27558302 26.83938107 15.17661941 27.9292199 14.078125 29.01953125 C11.3906398 31.68501885 8.69700979 34.34415143 6 37 C5.34 36.67 4.68 36.34 4 36 C3.40576172 33.55078125 3.40576172 33.55078125 2.9296875 30.3125 C2.66865234 28.55099609 2.66865234 28.55099609 2.40234375 26.75390625 C2.14130859 24.89572266 2.14130859 24.89572266 1.875 23 C1.69324219 21.79214844 1.51148438 20.58429687 1.32421875 19.33984375 C0.3809903 12.82234793 -0.21284079 6.58387518 0 0 Z " fill="#FCFDFC" transform="translate(392,524)"/>
<path d="M0 0 C5.53426611 2.76713306 9.41867268 7.00899833 13.75610352 11.33056641 C15.31281353 12.87531112 16.88721009 14.40042234 18.46289062 15.92578125 C19.45166381 16.90509733 20.43933375 17.88552883 21.42578125 18.8671875 C22.32723877 19.75519043 23.22869629 20.64319336 24.1574707 21.55810547 C26 24 26 24 25.96582031 26.20507812 C24.35314676 29.20213979 21.40495892 30.24483082 18.4375 31.625 C17.79925293 31.93058838 17.16100586 32.23617676 16.50341797 32.55102539 C8.82962201 36.13830561 3.6721423 37 -5 37 C-3.35 24.79 -1.7 12.58 0 0 Z " fill="#FBFBFB" transform="translate(396,615)"/>
<path d="M0 0 C1.26497314 0.00805664 2.52994629 0.01611328 3.83325195 0.02441406 C3.30984442 4.65203758 2.77654279 9.27837403 2.23413086 13.90380859 C2.05108144 15.47673767 1.87071648 17.04998161 1.69311523 18.62353516 C1.43702861 20.8882565 1.171237 23.15166149 0.90356445 25.41503906 C0.82639191 26.11622864 0.74921936 26.81741821 0.66970825 27.53985596 C0.24219362 31.07190138 -0.29593515 33.96806772 -2.16674805 37.02441406 C-2.60954102 36.57638428 -3.05233398 36.12835449 -3.50854492 35.66674805 C-5.55851488 33.5957131 -7.61260237 31.52880709 -9.66674805 29.46191406 C-10.3628418 28.75744141 -11.05893555 28.05296875 -11.77612305 27.32714844 C-15.8673085 23.21702231 -20.03521349 19.32890636 -24.52026367 15.6496582 C-26.28922168 13.90352038 -27.1882308 12.2941674 -28.16674805 10.02441406 C-19.85699225 4.21472806 -10.27484633 -0.06544071 0 0 Z " fill="#FBFBFB" transform="translate(1226.166748046875,523.9755859375)"/>
<path d="M0 0 C8.29925838 0.63046998 16.46983217 1.75671673 24.6875 3.0625 C25.87794922 3.24876953 27.06839844 3.43503906 28.29492188 3.62695312 C31.19712036 4.08151433 34.0987788 4.53924983 37 5 C33.43161359 16.6953147 27.49465014 24.29232483 18 32 C15.00829411 29.3824719 13.34546348 26.32601692 11.42578125 22.87109375 C11.09708542 22.28078873 10.76838959 21.6904837 10.42973328 21.08229065 C9.73900845 19.83886673 9.05080854 18.59403725 8.36499023 17.34790039 C7.31218936 15.43693616 6.24948536 13.53173435 5.18554688 11.62695312 C4.51502812 10.41699725 3.84508599 9.2067216 3.17578125 7.99609375 C2.56645752 6.89450928 1.95713379 5.7929248 1.3293457 4.65795898 C0 2 0 2 0 0 Z " fill="#FAFAFA" transform="translate(411,605)"/>
<path d="M0 0 C9.17591753 4.44892971 14.42241593 13.82670752 18 23 C18 24.32 18 25.64 18 27 C10.36379692 28.89463507 2.75585082 29.81032868 -5.0625 30.625 C-6.30966797 30.7590625 -7.55683594 30.893125 -8.84179688 31.03125 C-11.8940782 31.35869781 -14.94677457 31.68149692 -18 32 C-16.782937 28.84113705 -15.46408612 25.85357983 -13.828125 22.890625 C-13.41353027 22.13958496 -12.99893555 21.38854492 -12.57177734 20.61474609 C-12.13559082 19.83437988 -11.6994043 19.05401367 -11.25 18.25 C-10.80479004 17.45029785 -10.35958008 16.6505957 -9.90087891 15.82666016 C-6.84217355 10.38045609 -3.65056502 5.07517577 0 0 Z " fill="#FBFBFB" transform="translate(429,539)"/>
<path d="M0 0 C5.99500997 4.96194855 11.46427037 10.3476624 16.9375 15.875 C17.81212891 16.75414062 18.68675781 17.63328125 19.58789062 18.5390625 C21.72757048 20.6904346 23.86486597 22.84411792 26 25 C24.80940036 28.57179891 23.58701492 29.01451442 20.34033203 30.65209961 C19.71239746 30.95253174 19.08446289 31.25296387 18.4375 31.5625 C17.79925293 31.8726001 17.16100586 32.1827002 16.50341797 32.50219727 C9.18166171 35.97700789 3.08052434 37.28859015 -5 37 C-4.3001362 28.90775173 -3.1538652 20.90386994 -1.9375 12.875 C-1.75123047 11.63234375 -1.56496094 10.3896875 -1.37304688 9.109375 C-0.91752829 6.0725844 -0.45979925 3.03614489 0 0 Z " fill="#FBFBFB" transform="translate(1242,615)"/>
<path d="M0 0 C12.41007605 1.26028251 24.69538581 2.95377813 37 5 C35.70581138 15.78490515 29.12333024 23.55504095 21.13671875 30.453125 C19 32 19 32 17 32 C14.73933349 27.76433682 12.47900587 23.52849305 10.21899414 19.29248047 C9.44988197 17.8510243 8.68067669 16.4096178 7.91137695 14.96826172 C6.80655922 12.89824216 5.7020748 10.82804506 4.59765625 8.7578125 C4.25283707 8.11192169 3.90801788 7.46603088 3.55274963 6.80056763 C1.11387171 2.22774341 1.11387171 2.22774341 0 0 Z " fill="#FBFBFB" transform="translate(1256,605)"/>
<path d="M0 0 C-0.33733154 0.589021 -0.67466309 1.17804199 -1.0222168 1.78491211 C-2.57790157 4.50210388 -4.1327052 7.21979889 -5.6875 9.9375 C-6.48317383 11.32678711 -6.48317383 11.32678711 -7.29492188 12.74414062 C-10.57166689 18.47341873 -13.81107786 24.22136231 -17 30 C-21.2717917 30 -22.79095463 27.99557255 -25.8671875 25.203125 C-31.0615655 19.83750377 -37 12.78757032 -37 5 C-29.41499202 2.78574301 -21.8081826 1.39690022 -14 0.25 C-13.08001221 0.11037842 -12.16002441 -0.02924316 -11.2121582 -0.1730957 C-10.337771 -0.29644287 -9.46338379 -0.41979004 -8.5625 -0.546875 C-7.38880859 -0.71461426 -7.38880859 -0.71461426 -6.19140625 -0.88574219 C-3.90560678 -1.00492157 -2.17696152 -0.67069259 0 0 Z " fill="#FAFAFA" transform="translate(366,606)"/>
<path d="M0 0 C8.81456126 4.03280581 14.01523222 12.45638772 18 21 C18.6953125 24.37109375 18.6953125 24.37109375 19 27 C16.20376957 28.39811521 13.51769246 28.55833166 10.41796875 28.97265625 C9.76677567 29.06002548 9.11558258 29.14739471 8.44465637 29.2374115 C7.06547033 29.42150994 5.68604187 29.60379994 4.30639648 29.78442383 C2.20549906 30.06013787 0.10567274 30.34311458 -1.99414062 30.62695312 C-3.33587923 30.80512687 -4.67767444 30.98287491 -6.01953125 31.16015625 C-7.23745361 31.32136963 -8.45537598 31.48258301 -9.71020508 31.64868164 C-12.51178208 31.94786304 -15.18725248 32.07154155 -18 32 C-12.33385731 21.12670383 -6.28707753 10.52570152 0 0 Z " fill="#FAFAFA" transform="translate(1274,539)"/>
<path d="M0 0 C-1.32095412 4.34837687 -3.01802143 8.10451052 -5.2578125 12.0546875 C-5.88300781 13.16328125 -6.50820312 14.271875 -7.15234375 15.4140625 C-7.80332031 16.55617188 -8.45429687 17.69828125 -9.125 18.875 C-9.79084477 20.05181177 -10.45621396 21.22889276 -11.12109375 22.40625 C-12.74274265 25.27351326 -14.36917199 28.13795084 -16 31 C-20.78896764 31 -23.09063022 27.79515688 -26.484375 24.64453125 C-31.76342369 19.0949723 -35.01771451 13.62650868 -36 6 C-24.59562291 2.67077191 -11.91375415 0 0 0 Z " fill="#FAFAFA" transform="translate(1211,605)"/>
<path d="M0 0 C11.10661859 4.78346965 22.08315259 9.79828434 33 15 C33 15.66 33 16.32 33 17 C28.94601164 19.12335448 24.88916418 21.24110448 20.82958984 23.35375977 C19.44956146 24.07293633 18.0703206 24.79362621 16.69189453 25.51586914 C14.70811794 26.55495616 12.72155399 27.58853166 10.734375 28.62109375 C10.12068054 28.94403915 9.50698608 29.26698456 8.87469482 29.59971619 C5.95863472 31.10842887 3.24365402 32.40673428 0 33 C-1.98463781 27.21147306 -2.30429166 22.0317392 -2.25 15.9375 C-2.25773437 15.06544922 -2.26546875 14.19339844 -2.2734375 13.29492188 C-2.25881054 8.46436825 -1.87600946 4.53368953 0 0 Z " fill="#FAFAFA" transform="translate(1172,572)"/>
<path d="M0 0 C11.05949643 4.8773266 22.06897977 9.84081641 33 15 C33 15.66 33 16.32 33 17 C28.94601164 19.12335448 24.88916418 21.24110448 20.82958984 23.35375977 C19.44956146 24.07293633 18.0703206 24.79362621 16.69189453 25.51586914 C14.70811794 26.55495616 12.72155399 27.58853166 10.734375 28.62109375 C10.12068054 28.94403915 9.50698608 29.26698456 8.87469482 29.59971619 C5.95863472 31.10842887 3.24365402 32.40673428 0 33 C-2.06667215 27.04601594 -2.30271401 21.64796762 -2.25 15.375 C-2.25773437 14.446875 -2.26546875 13.51875 -2.2734375 12.5625 C-2.26024117 7.95698194 -2.21549423 4.16723915 0 0 Z " fill="#FAFAFB" transform="translate(326,572)"/>
<path d="M0 0 C0.66 0 1.32 0 2 0 C2.67948508 4.12299261 3.34120912 8.24865441 4 12.375 C4.19078125 13.53128906 4.3815625 14.68757812 4.578125 15.87890625 C5.64947702 22.65138151 6.282195 29.14305337 6 36 C-4.66437935 36.61525265 -14.04063419 33.72403927 -23 28 C-23 24 -23 24 -20.99633789 21.55810547 C-20.08102295 20.67010254 -19.16570801 19.78209961 -18.22265625 18.8671875 C-17.49374428 18.15032272 -17.49374428 18.15032272 -16.75010681 17.41897583 C-15.19673464 15.89459338 -13.63035709 14.38446793 -12.0625 12.875 C-10.50088131 11.35588577 -8.94209253 9.83397137 -7.38560486 8.30960083 C-5.97321741 6.92883672 -4.55330463 5.55578295 -3.13305664 4.18310547 C-0.96704711 2.18843307 -0.96704711 2.18843307 0 0 Z " fill="#FBFBFB" transform="translate(378,615)"/>
<path d="M0 0 C2.99170589 2.6175281 4.65453652 5.67398308 6.57421875 9.12890625 C6.90291458 9.71921127 7.23161041 10.3095163 7.57026672 10.91770935 C8.26099155 12.16113327 8.94919146 13.40596275 9.63500977 14.65209961 C10.68781064 16.56306384 11.75051464 18.46826565 12.81445312 20.37304688 C13.48497188 21.58300275 14.15491401 22.7932784 14.82421875 24.00390625 C15.43354248 25.10549072 16.04286621 26.2070752 16.6706543 27.34204102 C18 30 18 30 18 32 C13.68658425 31.55003774 9.37447929 31.08850992 5.0625 30.625 C3.24395508 30.43550781 3.24395508 30.43550781 1.38867188 30.2421875 C-5.20485528 29.52744201 -11.56150091 28.59747011 -18 27 C-16.63908764 15.50785116 -8.13306745 7.5439519 0 0 Z " fill="#FAFAFA" transform="translate(346,539)"/>
<path d="M0 0 C0.37286133 0.66008057 0.74572266 1.32016113 1.12988281 2.00024414 C2.83641134 5.02109624 4.54320357 8.04179926 6.25 11.0625 C6.83652344 12.10083984 7.42304687 13.13917969 8.02734375 14.20898438 C8.60097656 15.22412109 9.17460938 16.23925781 9.765625 17.28515625 C10.32056641 18.2714502 10.87550781 19.25774414 11.44726562 20.27392578 C12.39590008 21.93940571 13.35973971 23.59648593 14.34960938 25.23779297 C15.28719294 26.7938428 16.15370442 28.39247463 17 30 C16.67 30.66 16.34 31.32 16 32 C11.33633898 31.45341194 6.67328952 30.90195555 2.01074219 30.34594727 C0.42398746 30.15742678 -1.162927 29.9702458 -2.75 29.78442383 C-5.02907786 29.51734439 -7.30754086 29.2454783 -9.5859375 28.97265625 C-10.29744965 28.89032242 -11.00896179 28.80798859 -11.74203491 28.72315979 C-16.77225659 28.11387171 -16.77225659 28.11387171 -19 27 C-17.10517423 19.9691991 -8.82269075 0 0 0 Z " fill="#F9F9F9" transform="translate(1193,539)"/>
<path d="M0 0 C0.67948508 4.12299261 1.34120912 8.24865441 2 12.375 C2.19078125 13.53128906 2.3815625 14.68757812 2.578125 15.87890625 C3.64947702 22.65138151 4.282195 29.14305337 4 36 C-7.42117401 36.73256592 -16.64569947 33.47605421 -26 27 C-24.41576811 23.10440412 -21.75252743 20.47885592 -18.80859375 17.578125 C-18.30328629 17.07327576 -17.79797882 16.56842651 -17.27735901 16.04827881 C-16.21307011 14.98700128 -15.14636151 13.92814545 -14.07739258 12.87158203 C-12.4344325 11.24696675 -10.79970383 9.61440222 -9.16601562 7.98046875 C-8.13068068 6.95004601 -7.0948893 5.92008165 -6.05859375 4.890625 C-5.56693222 4.40007629 -5.07527069 3.90952759 -4.56871033 3.40411377 C-1.1160725 0 -1.1160725 0 0 0 Z " fill="#FCFCFC" transform="translate(1226,615)"/>
<path d="M0 0 C2.92697773 10.42735816 3.38560652 21.63158004 0 32 C-4.26058762 31.37812835 -7.54653683 29.88340346 -11.359375 27.91015625 C-11.9492218 27.60556992 -12.5390686 27.30098358 -13.14678955 26.98716736 C-14.38542429 26.34550645 -15.62244388 25.70071906 -16.85791016 25.05297852 C-18.75352805 24.06065312 -20.6555525 23.08151505 -22.55859375 22.10351562 C-23.76342418 21.47733798 -24.96786551 20.85041095 -26.171875 20.22265625 C-27.2659668 19.65297119 -28.36005859 19.08328613 -29.48730469 18.49633789 C-32 17 -32 17 -33 15 C-28.62416305 12.85877838 -24.24588255 10.72266985 -19.86523438 8.59130859 C-18.3746381 7.86517898 -16.88472523 7.13764474 -15.39550781 6.40869141 C-13.25763236 5.36252732 -11.11736833 4.32140168 -8.9765625 3.28125 C-8.30879791 2.95314331 -7.64103333 2.62503662 -6.95303345 2.2869873 C-2.22774341 0 -2.22774341 0 0 0 Z " fill="#FAFBFA" transform="translate(450,572)"/>
<path d="M0 0 C0.66 0.33 1.32 0.66 2 1 C3.38920353 6.09981747 3.18389304 11.25547883 3.1875 16.5 C3.19974609 17.43714844 3.21199219 18.37429688 3.22460938 19.33984375 C3.24264395 27.81609508 3.24264395 27.81609508 1 32 C-5.07446277 30.27032246 -10.52004028 27.35035402 -16.125 24.5 C-17.11371094 24.00113281 -18.10242187 23.50226562 -19.12109375 22.98828125 C-20.95551702 22.06238155 -22.78911098 21.13483553 -24.62158203 20.20507812 C-26.74423557 19.12958871 -28.8705493 18.06195343 -31 17 C-31 16.34 -31 15.68 -31 15 C-26.6266565 12.83533536 -22.24841225 10.68105854 -17.86523438 8.53637695 C-16.37392044 7.80485951 -14.88400198 7.07049014 -13.39550781 6.33325195 C-11.25944054 5.27588443 -9.11861406 4.22877375 -6.9765625 3.18359375 C-6.30879791 2.85032578 -5.64103333 2.5170578 -4.95303345 2.1736908 C-3.33019346 1.38805692 -1.66754832 0.68564775 0 0 Z " fill="#FAFAFA" transform="translate(1294,572)"/>
<path d="M0 0 C-0.66 0.33 -1.32 0.66 -2 1 C-2 1.66 -2 2.32 -2 3 C0.64 3.33 3.28 3.66 6 4 C6 4.33 6 4.66 6 5 C5.39269043 5.0093457 4.78538086 5.01869141 4.15966797 5.02832031 C-37.03122251 5.79739789 -78.27530175 9.94274057 -118.58178711 18.4909668 C-121.05133532 19.01080607 -123.5245931 19.50889385 -126 20 C-126 18.35 -126 16.7 -126 15 C-100.83189262 9.31596036 -75.87430882 5.22844461 -50.1875 2.8125 C-49.29223602 2.72764343 -48.39697205 2.64278687 -47.47457886 2.55535889 C-31.69229651 1.07697497 -15.86044199 -0.112906 0 0 Z " fill="#0D0D0D" transform="translate(452,428)"/>
<path d="M0 0 C0.72815918 -0.0033284 1.45631836 -0.0066568 2.20654297 -0.01008606 C3.73599624 -0.01511662 5.26546034 -0.01749559 6.79492188 -0.01733398 C9.11867467 -0.01952529 11.44195561 -0.03773503 13.765625 -0.05664062 C15.26041506 -0.05957453 16.75520735 -0.06155935 18.25 -0.0625 C18.93562012 -0.06968552 19.62124023 -0.07687103 20.32763672 -0.08427429 C24.89896565 -0.06288644 28.83523168 0.57587236 33.125 2.16796875 C34.5625 4.79296875 34.5625 4.79296875 35.125 7.16796875 C34.55281738 7.1522583 33.98063477 7.13654785 33.39111328 7.12036133 C15.94416164 6.70761152 0.16889174 8.39050624 -16.54296875 13.3984375 C-20.09056807 14.21775411 -23.24657919 14.30167168 -26.875 14.16796875 C-27.25 11.48046875 -27.25 11.48046875 -26.875 8.16796875 C-19.5770014 0.52244641 -10.13777314 0.01645452 0 0 Z " fill="#FAFAFA" transform="translate(704.875,410.83203125)"/>
<path d="M0 0 C3.26469584 2.38812846 5.51582597 5.06330389 6.5078125 9.03125 C6.7998012 14.09238749 5.16410904 17.20306915 2 21 C-2.02181615 23.68121076 -5.27236391 23.81344335 -10 23 C-13.0717718 21.28922026 -15.40485654 19.19028693 -17 16 C-17.51816286 11.20062265 -17.71207367 7.26590874 -15.3125 3 C-10.65598143 -1.0272593 -5.93044188 -2.15021869 0 0 Z " fill="#FBFBFB" transform="translate(393,576)"/>
<path d="M0 0 C3.13921957 2.60488433 5.69148327 4.79630908 6.2734375 8.953125 C6.46329043 13.24672199 6.4342668 16.09582964 3.625 19.5 C0.00181163 22.95065559 -1.95141015 23.2966482 -6.96875 23.21484375 C-11.06450627 22.78163876 -13.25871126 20.89465883 -15.8125 17.8125 C-17.37546015 14.11075227 -17.92904786 10.90052635 -17 7 C-12.80671814 0.12987469 -8.03157206 -2.3327568 0 0 Z " fill="#FBFBFB" transform="translate(1239,576)"/>
<path d="M0 0 C1.10302963 -0.00043808 2.20605927 -0.00087616 3.34251404 -0.00132751 C6.97868717 0.00075804 10.61439595 0.02407887 14.25048828 0.04760742 C16.77539824 0.05320419 19.30031145 0.0574739 21.82522583 0.06047058 C27.78560813 0.07074418 33.7458421 0.09437461 39.70614827 0.12451905 C46.49452655 0.15810297 53.28291294 0.17455906 60.07135367 0.18960536 C74.02959443 0.22092543 87.98768851 0.2736609 101.94580078 0.34057617 C101.94580078 0.67057617 101.94580078 1.00057617 101.94580078 1.34057617 C84.69475151 2.98638258 67.43955319 4.09369804 50.13330078 4.96557617 C48.84762207 5.03127808 47.56194336 5.09697998 46.23730469 5.16467285 C30.64147473 5.95221865 15.06383677 6.62734586 -0.55419922 6.59057617 C-1.25211578 6.58971008 -1.95003235 6.58884399 -2.6690979 6.58795166 C-13.41780891 6.55270627 -13.41780891 6.55270627 -17.05419922 5.34057617 C-17.05419922 4.68057617 -17.05419922 4.02057617 -17.05419922 3.34057617 C-11.43024924 -0.26089987 -6.44656181 -0.06717619 0 0 Z " fill="#F7F7F7" transform="translate(149.05419921875,637.659423828125)"/>
<path d="M0 0 C-1.58854182 4.38118384 -3.03430986 6.41769014 -7 9 C-10.4157947 9.87473336 -13.61538197 10.12823847 -17.1328125 10.1328125 C-18.10476563 10.13410156 -19.07671875 10.13539063 -20.078125 10.13671875 C-21.08359375 10.13285156 -22.0890625 10.12898438 -23.125 10.125 C-24.10726562 10.12886719 -25.08953125 10.13273437 -26.1015625 10.13671875 C-43.9307352 10.11325931 -43.9307352 10.11325931 -51 7 C-50.625 4.5625 -50.625 4.5625 -50 2 C-47.12959444 0.56479722 -44.57262743 0.77925656 -41.3671875 0.68359375 C-40.69769073 0.66281265 -40.02819397 0.64203156 -39.33840942 0.62062073 C-37.91105608 0.57729778 -36.48363175 0.5362632 -35.05615234 0.49731445 C-32.93177035 0.43905683 -30.8077193 0.37353243 -28.68359375 0.30664062 C-19.12046196 0.01868512 -9.56701818 -0.0506234 0 0 Z " fill="#F4F4F4" transform="translate(976,481)"/>
<path d="M0 0 C0 0.33 0 0.66 0 1 C-2.64 1.33 -5.28 1.66 -8 2 C-8.33 2.99 -8.66 3.98 -9 5 C-9.54361176 5.03092239 -10.08722351 5.06184479 -10.64730835 5.09370422 C-46.91195796 7.0555206 -46.91195796 7.0555206 -83 11 C-83.33 10.01 -83.66 9.02 -84 8 C-83.67 7.34 -83.34 6.68 -83 6 C-81.06420898 5.52929688 -81.06420898 5.52929688 -78.49609375 5.21875 C-77.54001221 5.09999512 -76.58393066 4.98124023 -75.59887695 4.85888672 C-74.55562256 4.7404541 -73.51236816 4.62202148 -72.4375 4.5 C-71.36137451 4.37254395 -70.28524902 4.24508789 -69.17651367 4.11376953 C-46.23385245 1.46686034 -23.10841591 -0.34953906 0 0 Z " fill="#0E0E0E" transform="translate(881,322)"/>
<path d="M0 0 C0 3 0 3 -1.75 5 C-10.40630973 10.32695984 -21.28151562 10.62379063 -31.1875 11.25 C-32.41275391 11.34023438 -33.63800781 11.43046875 -34.90039062 11.5234375 C-41.47973163 11.97642933 -41.47973163 11.97642933 -44 12 C-45 11 -45 11 -45.0625 7.4375 C-45.041875 6.303125 -45.02125 5.16875 -45 4 C-41.00254149 3.58764693 -37.00472791 3.17892488 -33.0065918 2.77319336 C-30.99835086 2.56869638 -28.99038147 2.36153814 -26.98242188 2.15429688 C-17.99391146 1.24434891 -9.0177279 0.54292467 0 0 Z " fill="#F5F5F5" transform="translate(1419,535)"/>
<path d="M0 0 C1.15133926 -0.00191345 2.30267853 -0.0038269 3.48890686 -0.00579834 C5.90154237 -0.00715003 8.3141854 -0.00352522 10.72680664 0.00488281 C14.42415504 0.01566583 18.12102519 0.00491751 21.81835938 -0.0078125 C24.17057399 -0.00649207 26.5227883 -0.0039321 28.875 0 C29.97915756 -0.00404846 31.08331512 -0.00809692 32.22093201 -0.01226807 C33.24622513 -0.00596375 34.27151825 0.00034058 35.32788086 0.00683594 C36.67709877 0.00922272 36.67709877 0.00922272 38.05357361 0.01165771 C40.62020771 0.28111568 42.26109263 0.96931525 44.47265625 2.265625 C44.14265625 2.925625 43.81265625 3.585625 43.47265625 4.265625 C35.0322643 4.31191024 26.59192514 4.34747469 18.15143776 4.36924934 C14.23242341 4.37969865 10.31349572 4.39387862 6.39453125 4.41650391 C2.61442586 4.43819161 -1.16559603 4.45018498 -4.94575882 4.45537949 C-6.38990214 4.45908259 -7.83404075 4.4663136 -9.27814865 4.47708511 C-11.29655269 4.49154517 -13.31504027 4.49244145 -15.33349609 4.49267578 C-17.05891129 4.49933762 -17.05891129 4.49933762 -18.81918335 4.50613403 C-21.52734375 4.265625 -21.52734375 4.265625 -23.52734375 2.265625 C-15.61618211 0.5425634 -8.0840241 -0.0300259 0 0 Z " fill="#010101" transform="translate(893.52734375,321.734375)"/>
<path d="M0 0 C7.5276878 -0.0462929 15.05536088 -0.08185365 22.58315849 -0.10362434 C26.07843927 -0.11407198 29.57362283 -0.12824883 33.06884766 -0.15087891 C37.08497056 -0.17671953 41.10099097 -0.18646466 45.1171875 -0.1953125 C47.00472244 -0.21079636 47.00472244 -0.21079636 48.9303894 -0.22659302 C50.09144196 -0.22674408 51.25249451 -0.22689514 52.44873047 -0.22705078 C53.47465302 -0.231492 54.50057556 -0.23593323 55.55758667 -0.24050903 C58 0 58 0 60 2 C59.67 2.66 59.34 3.32 59 4 C38.87 4 18.74 4 -2 4 C-1.34 2.68 -0.68 1.36 0 0 Z " fill="#010101" transform="translate(863,343)"/>
<path d="M0 0 C-0.375 2.9375 -0.375 2.9375 -1 6 C-8.9923503 9.99617515 -23.03579068 8.15452942 -31.8125 8.25 C-32.86840332 8.2713501 -33.92430664 8.2927002 -35.01220703 8.31469727 C-36.50083252 8.32134399 -36.50083252 8.32134399 -38.01953125 8.328125 C-39.35141479 8.34214355 -39.35141479 8.34214355 -40.71020508 8.35644531 C-43.43554023 7.9322008 -44.30066704 7.11500468 -46 5 C-38.53586628 3.09461625 -31.06158855 2.26948211 -23.40600586 1.56738281 C-21.30580436 1.3743847 -19.20663039 1.17223846 -17.10742188 0.96875 C-11.39137454 0.42706365 -5.74889042 -0.08226019 0 0 Z " fill="#F2F2F2" transform="translate(257,550)"/>
<path d="M0 0 C-2.60565504 2.60565504 -5.43682449 3.31630362 -8.875 4.375 C-9.57753906 4.59196533 -10.28007812 4.80893066 -11.00390625 5.0324707 C-27.51122642 9.94973634 -45.73323918 13.61667003 -63 13 C-55.35077302 6.79792407 -55.35077302 6.79792407 -50.87890625 6.54296875 C-49.61904907 6.45571533 -49.61904907 6.45571533 -48.33374023 6.36669922 C-46.96197632 6.27799561 -46.96197632 6.27799561 -45.5625 6.1875 C-34.9906069 5.38701957 -24.68968581 3.66501693 -14.28149414 1.67651367 C-13.14574951 1.46099854 -12.01000488 1.2454834 -10.83984375 1.0234375 C-9.83300537 0.82669434 -8.82616699 0.62995117 -7.78881836 0.42724609 C-5.13990199 0.02143294 -2.67429077 -0.08012169 0 0 Z " fill="#F4F5F4" transform="translate(227,504)"/>
<path d="M0 0 C0.33 0 0.66 0 1 0 C0.92998779 1.13735596 0.85997559 2.27471191 0.7878418 3.4465332 C0.08740224 15.36675983 -0.19885788 27.24784028 -0.1875 39.1875 C-0.18789276 40.07410309 -0.18828552 40.96070618 -0.18869019 41.87417603 C-0.18068099 57.03421081 -0.00899849 72.29479351 2.5625 87.27734375 C3.00463062 90.02881732 3.10011362 92.5915923 3.0625 95.375 C3.05347656 96.24898437 3.04445313 97.12296875 3.03515625 98.0234375 C3.02355469 98.67570313 3.01195312 99.32796875 3 100 C0.56933697 97.56933697 0.59699598 96.51419167 0.18359375 93.16015625 C0.05919922 92.17853516 -0.06519531 91.19691406 -0.19335938 90.18554688 C-0.37608398 88.63963867 -0.37608398 88.63963867 -0.5625 87.0625 C-0.75102539 85.56879883 -0.75102539 85.56879883 -0.94335938 84.04492188 C-2.20927137 73.83146433 -3.15522605 63.72263534 -3.16796875 53.42578125 C-3.17129715 52.45827438 -3.17462555 51.49076752 -3.17805481 50.49394226 C-3.18307924 48.46121693 -3.18546454 46.42848348 -3.18530273 44.39575195 C-3.18748236 41.33725923 -3.20566793 38.27913201 -3.22460938 35.22070312 C-3.30611335 6.61222671 -3.30611335 6.61222671 0 0 Z " fill="#EAEBEA" transform="translate(600,476)"/>
<path d="M0 0 C11.71811669 -0.10902914 23.3222103 -0.09908609 35 1 C36.51659564 5.00962957 35.62200862 8.79129208 34.875 12.875 C34.74101807 13.62007812 34.60703613 14.36515625 34.46899414 15.1328125 C33.08625173 22.32399028 31.07731198 29.33756877 28 36 C27.01 36.495 27.01 36.495 26 37 C26.87872411 32.51333806 27.76947689 28.03264945 28.765625 23.5703125 C29.02859375 22.39210938 29.2915625 21.21390625 29.5625 20 C29.81128906 18.906875 30.06007813 17.81375 30.31640625 16.6875 C31.1589654 12.14249522 31.60124135 7.60221881 32 3 C31.24380371 3.00523682 30.48760742 3.01047363 29.70849609 3.01586914 C26.26400593 3.03672724 22.8195291 3.04968826 19.375 3.0625 C17.59029297 3.07506836 17.59029297 3.07506836 15.76953125 3.08789062 C14.61582031 3.09111328 13.46210937 3.09433594 12.2734375 3.09765625 C10.68668213 3.10551147 10.68668213 3.10551147 9.06787109 3.11352539 C5.96637654 2.99875578 3.04652343 2.57696282 0 2 C0 1.34 0 0.68 0 0 Z " fill="#EEEEEE" transform="translate(1436,509)"/>
<path d="M0 0 C0.66 0.33 1.32 0.66 2 1 C0.75250054 4.88110942 -1.62457031 6.26862692 -5.140625 8.12109375 C-13.30232898 11.97904206 -21.58805581 12.14532417 -30.4375 12.0625 C-31.35982422 12.05798828 -32.28214844 12.05347656 -33.23242188 12.04882812 C-35.48835048 12.03713938 -37.74413967 12.02075455 -40 12 C-40 11.67 -40 11.34 -40 11 C-39.12859375 10.91363281 -38.2571875 10.82726562 -37.359375 10.73828125 C-25.97444535 9.39525384 -16.66410181 6.01697496 -7.03515625 -0.1796875 C-4.33669491 -1.26735906 -2.75131235 -0.80680988 0 0 Z " fill="#F6F6F6" transform="translate(200,606)"/>
<path d="M0 0 C0.66 0.33 1.32 0.66 2 1 C0.69169793 4.92490621 -0.67761061 5.18500456 -4.29296875 7.07421875 C-5.39253906 7.6561499 -6.49210937 8.23808105 -7.625 8.83764648 C-8.81239204 9.45447219 -9.99989394 10.07108647 -11.1875 10.6875 C-13.56837948 11.93897857 -15.94621396 13.19619483 -18.32421875 14.453125 C-19.4745459 15.05962891 -20.62487305 15.66613281 -21.81005859 16.29101562 C-26.84968172 18.99095148 -31.76053896 21.88908722 -36.65625 24.83984375 C-37.4296875 25.22269531 -38.203125 25.60554687 -39 26 C-39.66 25.67 -40.32 25.34 -41 25 C-33.38226481 19.17864901 -25.53783666 14.27128839 -17.125 9.6875 C-14.93981347 8.4836004 -12.75490701 7.2791923 -10.5703125 6.07421875 C-9.61914551 5.55432373 -8.66797852 5.03442871 -7.68798828 4.4987793 C-5.84979857 3.4738341 -4.04602567 2.38531347 -2.27685547 1.24536133 C-1.52549316 0.83439209 -0.77413086 0.42342285 0 0 Z " fill="#F1F1F1" transform="translate(1454,557)"/>
<path d="M0 0 C0 0.99 0 1.98 0 3 C0.66 3.66 1.32 4.32 2 5 C-10.87 5.99 -10.87 5.99 -24 7 C-24.66 6.01 -25.32 5.02 -26 4 C-26.99 3.34 -27.98 2.68 -29 2 C-24.91687687 1.66405814 -20.83346991 1.33169789 -16.75 1 C-15.59113281 0.90460938 -14.43226563 0.80921875 -13.23828125 0.7109375 C-12.12324219 0.62070312 -11.00820313 0.53046875 -9.859375 0.4375 C-8.31975098 0.31181641 -8.31975098 0.31181641 -6.74902344 0.18359375 C-4.50351891 0.03362755 -2.25050671 0 0 0 Z " fill="#0F0F0F" transform="translate(960,431)"/>
<path d="M0 0 C0.7110791 0.15750732 1.4221582 0.31501465 2.15478516 0.47729492 C4.1640625 0.96484375 4.1640625 0.96484375 7.375 2.0625 C7.705 3.0525 8.035 4.0425 8.375 5.0625 C4.29234093 6.16760531 1.49882873 5.87310312 -2.58203125 4.84765625 C-3.69384766 4.57373047 -4.80566406 4.29980469 -5.95117188 4.01757812 C-7.10166016 3.72302734 -8.25214844 3.42847656 -9.4375 3.125 C-11.19223633 2.68897461 -11.19223633 2.68897461 -12.98242188 2.24414062 C-15.86575622 1.52624922 -18.7463082 0.79874724 -21.625 0.0625 C-21.625 -0.9275 -21.625 -1.9175 -21.625 -2.9375 C-16.04278369 -5.72860816 -5.98639378 -1.40048662 0 0 Z " fill="#F2F2F1" transform="translate(1404.625,423.9375)"/>
<path d="M0 0 C0 0.33 0 0.66 0 1 C-2.64 1.33 -5.28 1.66 -8 2 C-8.33 2.99 -8.66 3.98 -9 5 C-16.92 5.33 -24.84 5.66 -33 6 C-33.66 4.35 -34.32 2.7 -35 1 C-23.32446893 0.37160039 -11.69591188 -0.17691295 0 0 Z " fill="#131313" transform="translate(881,322)"/>
<path d="M0 0 C8.25 0.33 16.5 0.66 25 1 C24.01 2.485 24.01 2.485 23 4 C25.31 4.33 27.62 4.66 30 5 C30 5.33 30 5.66 30 6 C19.7468639 6.22102569 10.10341946 5.9679704 0 4 C0 2.68 0 1.36 0 0 Z " fill="#131313" transform="translate(1419,424)"/>
<path d="M0 0 C1.61655235 0.03541649 1.61655235 0.03541649 3.26576233 0.07154846 C6.68904131 0.14778 10.1120706 0.23197767 13.53515625 0.31640625 C15.8639203 0.36966752 18.19269633 0.42240761 20.52148438 0.47460938 C26.21369428 0.60333997 31.90572049 0.73860177 37.59765625 0.87890625 C37.59765625 1.20890625 37.59765625 1.53890625 37.59765625 1.87890625 C18.61677582 3.22951528 -0.38644383 2.97691081 -19.40234375 2.87890625 C-19.07234375 2.21890625 -18.74234375 1.55890625 -18.40234375 0.87890625 C-12.30798128 -0.47383025 -6.20861892 -0.16206687 0 0 Z " fill="#F7F8F8" transform="translate(892.40234375,600.12109375)"/>
<path d="M0 0 C-0.33 0.99 -0.66 1.98 -1 3 C-21.35856211 3.10343989 -41.66798583 3.20358646 -62 2 C-62 1.67 -62 1.34 -62 1 C-55.90264494 0.85503601 -49.80523481 0.71275051 -43.70776367 0.57275391 C-41.64134103 0.52495495 -39.57493404 0.47647337 -37.50854492 0.42724609 C-25.00313759 0.12985956 -12.50909768 -0.07607526 0 0 Z " fill="#CECECE" transform="translate(672,607)"/>
<path d="M0 0 C-0.77904328 19.96810934 -0.77904328 19.96810934 -3 29 C-3.99 29.33 -4.98 29.66 -6 30 C-5.52703876 22.73133248 -4.89750686 15.48563675 -4.0625 8.25 C-3.98789551 7.54681641 -3.91329102 6.84363281 -3.83642578 6.11914062 C-3.6292702 4.40258762 -3.32322704 2.6985264 -3 1 C-1 0 -1 0 0 0 Z " fill="#EAEAEA" transform="translate(1453,457)"/>
<path d="M0 0 C1.47436523 0.07734375 1.47436523 0.07734375 2.97851562 0.15625 C4.00267578 0.22070312 5.02683594 0.28515625 6.08203125 0.3515625 C7.63567383 0.43664062 7.63567383 0.43664062 9.22070312 0.5234375 C11.77934396 0.66492916 14.33700609 0.81634116 16.89453125 0.9765625 C15.57453125 1.9665625 14.25453125 2.9565625 12.89453125 3.9765625 C13.22453125 4.6365625 13.55453125 5.2965625 13.89453125 5.9765625 C10.78929771 5.89568075 7.68602792 5.7828436 4.58203125 5.6640625 C3.26041992 5.63022461 3.26041992 5.63022461 1.91210938 5.59570312 C1.06455078 5.56025391 0.21699219 5.52480469 -0.65625 5.48828125 C-1.82667847 5.44900513 -1.82667847 5.44900513 -3.02075195 5.40893555 C-5.55468041 4.8833954 -6.47474652 3.9357099 -8.10546875 1.9765625 C-4.7389507 -0.26778287 -3.88949887 -0.22482652 0 0 Z " fill="#101010" transform="translate(926.10546875,343.0234375)"/>
<path d="M0 0 C5.77759884 -0.12036664 11.27959989 0.1679418 17 1 C17.33 1.99 17.66 2.98 18 4 C16.46690622 5.53309378 15.06818186 5.16922657 12.9375 5.1875 C8.34009357 5.15066181 4.40382344 4.28111227 0 3 C0 2.01 0 1.02 0 0 Z " fill="#040404" transform="translate(1007,329)"/>
<path d="M0 0 C0.75410156 0.00451172 1.50820313 0.00902344 2.28515625 0.01367188 C4.14847127 0.02546501 6.01174555 0.04340058 7.875 0.0625 C7.215 0.7225 6.555 1.3825 5.875 2.0625 C6.205 2.7225 6.535 3.3825 6.875 4.0625 C4.60423158 4.08949725 2.33337179 4.10889453 0.0625 4.125 C-1.83435547 4.14240234 -1.83435547 4.14240234 -3.76953125 4.16015625 C-7.125 4.0625 -7.125 4.0625 -10.125 3.0625 C-10.125 2.4025 -10.125 1.7425 -10.125 1.0625 C-6.93675432 -0.53162284 -3.49603338 -0.03924735 0 0 Z " fill="#030303" transform="translate(929.125,433.9375)"/>
<path d="M0 0 C0.33 1.32 0.66 2.64 1 4 C-7.40371809 6.21462689 -15.3725342 6.20705918 -24 6 C-24 5.67 -24 5.34 -24 5 C-22.77023437 4.94392578 -22.77023437 4.94392578 -21.515625 4.88671875 C-20.43796875 4.82097656 -19.3603125 4.75523437 -18.25 4.6875 C-17.18265625 4.62949219 -16.1153125 4.57148437 -15.015625 4.51171875 C-11.77170849 3.96126141 -10.4643353 3.08897297 -8 1 C-5.19426957 0.24724305 -2.91160772 0 0 0 Z " fill="#DCDCDC" transform="translate(1250,656)"/>
<path d="M0 0 C0.74958984 0.00451172 1.49917969 0.00902344 2.27148438 0.01367188 C4.11852383 0.02543646 5.96552213 0.04337135 7.8125 0.0625 C7.8125 0.3925 7.8125 0.7225 7.8125 1.0625 C6.1625 1.3925 4.5125 1.7225 2.8125 2.0625 C2.8125 2.7225 2.8125 3.3825 2.8125 4.0625 C-1.4775 4.0625 -5.7675 4.0625 -10.1875 4.0625 C-10.5175 3.0725 -10.8475 2.0825 -11.1875 1.0625 C-7.42449626 -0.19183458 -3.91539091 -0.04445422 0 0 Z " fill="#010101" transform="translate(845.1875,323.9375)"/>
<path d="M0 0 C1.32 0.33 2.64 0.66 4 1 C4.08950818 6.10196601 4.10279554 10.98729298 3 16 C2.01 16.66 1.02 17.32 0 18 C0 12.06 0 6.12 0 0 Z " fill="#E0E1E0" transform="translate(457,575)"/>
<path d="M0 0 C-0.33 3.3 -0.66 6.6 -1 10 C-2.65 10.66 -4.3 11.32 -6 12 C-5.65078061 3.6711175 -5.65078061 3.6711175 -3 0.9375 C-1 0 -1 0 0 0 Z " fill="#0D0D0D" transform="translate(604,458)"/>
<path d="M0 0 C3 3 3 3 3.29296875 5.91796875 C3.25816406 6.99691406 3.22335937 8.07585938 3.1875 9.1875 C3.16042969 10.27417969 3.13335937 11.36085938 3.10546875 12.48046875 C3.07066406 13.31191406 3.03585937 14.14335938 3 15 C2.01 15.33 1.02 15.66 0 16 C0 10.72 0 5.44 0 0 Z " fill="#FCFDFC" transform="translate(315,580)"/>
<path d="M0 0 C0 1.33333333 0 2.66666667 0 4 C-4.455 4.495 -4.455 4.495 -9 5 C-9.66 3.35 -10.32 1.7 -11 0 C-3.57142857 -1.28571429 -3.57142857 -1.28571429 0 0 Z " fill="#151515" transform="translate(837,346)"/>
<path d="M0 0 C-0.33 1.32 -0.66 2.64 -1 4 C-5.455 4.495 -5.455 4.495 -10 5 C-10.33 4.01 -10.66 3.02 -11 2 C-10.67 1.34 -10.34 0.68 -10 0 C-6.35526801 -0.89093449 -3.57257469 -1.23666047 0 0 Z " fill="#171717" transform="translate(808,328)"/>
<path d="M0 0 C3.3 0 6.6 0 10 0 C9.67 0.99 9.34 1.98 9 3 C9.33 3.66 9.66 4.32 10 5 C6.37 4.67 2.74 4.34 -1 4 C-0.34 3.34 0.32 2.68 1 2 C0.67 1.34 0.34 0.68 0 0 Z " fill="#151515" transform="translate(1023,331)"/>
<path d="M0 0 C4.95 0 9.9 0 15 0 C14.67 0.99 14.34 1.98 14 3 C9.71 3 5.42 3 1 3 C0.67 2.01 0.34 1.02 0 0 Z " fill="#FDFDFE" transform="translate(1225,658)"/>
<path d="M0 0 C2.97 0.33 5.94 0.66 9 1 C8.67 2.32 8.34 3.64 8 5 C5.36 4.67 2.72 4.34 0 4 C0 2.68 0 1.36 0 0 Z " fill="#050505" transform="translate(1152,354)"/>
<path d="M0 0 C0.66 0.33 1.32 0.66 2 1 C-1.95944788 5.47034438 -6.44586447 8.7085099 -12 11 C-12.66 10.67 -13.32 10.34 -14 10 C-12.22970554 8.70759488 -10.45874502 7.41610207 -8.6875 6.125 C-7.70136719 5.40570312 -6.71523437 4.68640625 -5.69921875 3.9453125 C-3.82476885 2.5944065 -1.92247007 1.28164671 0 0 Z " fill="#DEDEDE" transform="translate(1427,572)"/>
<path d="M0 0 C0.33 0.99 0.66 1.98 1 3 C1.66 3.66 2.32 4.32 3 5 C-1.455 5.495 -1.455 5.495 -6 6 C-5.67 4.68 -5.34 3.36 -5 2 C-5.66 1.67 -6.32 1.34 -7 1 C-2.25 0 -2.25 0 0 0 Z " fill="#181918" transform="translate(1141,407)"/>
<path d="M0 0 C1.65 0 3.3 0 5 0 C5 1.32 5 2.64 5 4 C2.69 4.33 0.38 4.66 -2 5 C-1.34 3.35 -0.68 1.7 0 0 Z " fill="#030203" transform="translate(823,347)"/>
<path d="M0 0 C1.65 0 3.3 0 5 0 C5 1.32 5 2.64 5 4 C3.35 4 1.7 4 0 4 C0 2.68 0 1.36 0 0 Z " fill="#030302" transform="translate(1174,359)"/>
<path d="M0 0 C1.65 0 3.3 0 5 0 C4.67 1.32 4.34 2.64 4 4 C2.35 3.67 0.7 3.34 -1 3 C-0.67 2.01 -0.34 1.02 0 0 Z " fill="#030304" transform="translate(1123,348)"/>
</svg>
