<?xml version="1.0" encoding="UTF-8"?>
<svg xmlns="http://www.w3.org/2000/svg" xmlns:xlink="http://www.w3.org/1999/xlink" width="2095" height="2095" viewBox="0 0 2095 2095">
<path fill-rule="nonzero" fill="rgb(99.609375%, 99.609375%, 99.609375%)" fill-opacity="1" d="M 1.453125 0 C 1.066406 0 0.699219 0.148438 0.425781 0.429688 C 0.152344 0.699219 0 1.070312 0 1.449219 L 0 2092.835938 C 0 2093.640625 0.652344 2094.289062 1.453125 2094.289062 L 2092.839844 2094.289062 C 2093.21875 2094.289062 2093.589844 2094.136719 2093.871094 2093.863281 C 2094.140625 2093.59375 2094.289062 2093.222656 2094.289062 2092.839844 L 2094.289062 1.449219 C 2094.289062 0.648438 2093.640625 0 2092.839844 0 Z M 1.453125 0 "/>
<path fill-rule="nonzero" fill="rgb(0%, 0%, 0%)" fill-opacity="1" d="M 580.851562 1247.59375 C 580.21875 1247.59375 579.757812 1247.753906 579.453125 1248.058594 C 577.140625 1250.367188 583.425781 1260.757812 594.128906 1271.480469 C 594.144531 1271.496094 594.230469 1271.582031 594.246094 1271.601562 L 594.246094 1271.605469 C 603.414062 1280.765625 612.503906 1286.863281 616.398438 1286.863281 C 617.027344 1286.863281 617.488281 1286.699219 617.792969 1286.394531 C 620.105469 1284.070312 613.761719 1273.613281 603 1262.847656 C 593.839844 1253.695312 584.75 1247.59375 580.851562 1247.59375 Z M 531.648438 1247.585938 C 527.75 1247.585938 518.664062 1253.691406 509.503906 1262.851562 C 498.734375 1273.613281 492.398438 1284.082031 494.707031 1286.390625 L 494.714844 1286.398438 C 495.019531 1286.699219 495.480469 1286.863281 496.109375 1286.863281 C 500.011719 1286.863281 509.097656 1280.765625 518.253906 1271.597656 C 529.023438 1260.832031 535.363281 1250.367188 533.050781 1248.054688 L 533.046875 1248.054688 C 532.742188 1247.75 532.28125 1247.585938 531.648438 1247.585938 Z M 558.722656 1288.011719 C 568.265625 1288.011719 576 1295.75 576 1305.292969 C 576 1314.835938 568.265625 1322.570312 558.722656 1322.570312 C 549.179688 1322.570312 541.445312 1314.832031 541.445312 1305.289062 C 541.445312 1295.75 549.179688 1288.011719 558.722656 1288.011719 Z M 617.792969 1328.496094 L 617.792969 1328.5 Z M 558.300781 1279.78125 C 543.976562 1279.78125 532.371094 1291.390625 532.371094 1305.714844 C 532.371094 1320.035156 543.980469 1331.648438 558.300781 1331.648438 C 572.621094 1331.648438 584.230469 1320.03125 584.230469 1305.714844 C 584.230469 1291.394531 572.621094 1279.78125 558.300781 1279.78125 Z M 496.105469 1328.019531 C 495.476562 1328.019531 495.015625 1328.183594 494.707031 1328.488281 C 492.394531 1330.804688 498.730469 1341.265625 509.503906 1352.035156 C 518.664062 1361.191406 527.757812 1367.296875 531.652344 1367.296875 C 532.285156 1367.296875 532.746094 1367.132812 533.050781 1366.828125 C 535.363281 1364.511719 529.023438 1354.050781 518.257812 1343.28125 C 509.097656 1334.121094 500.003906 1328.019531 496.105469 1328.019531 Z M 616.394531 1328.03125 C 612.5 1328.03125 603.410156 1334.125 594.246094 1343.289062 C 583.480469 1354.054688 577.136719 1364.519531 579.449219 1366.828125 L 579.453125 1366.832031 L 579.453125 1366.835938 C 579.757812 1367.136719 580.21875 1367.300781 580.851562 1367.300781 C 584.75 1367.300781 593.835938 1361.199219 603 1352.039062 C 613.757812 1341.273438 620.101562 1330.816406 617.796875 1328.5 L 617.792969 1328.5 C 617.488281 1328.191406 617.027344 1328.03125 616.394531 1328.03125 Z M 558.300781 1220.769531 C 605.21875 1220.769531 643.246094 1258.804688 643.246094 1305.714844 C 643.246094 1352.625 605.214844 1390.660156 558.300781 1390.660156 C 511.382812 1390.660156 473.351562 1352.628906 473.351562 1305.714844 C 473.351562 1258.804688 511.386719 1220.769531 558.300781 1220.769531 Z M 558.296875 1162.894531 C 479.421875 1162.894531 415.476562 1226.835938 415.476562 1305.714844 C 415.476562 1384.585938 479.410156 1448.535156 558.296875 1448.535156 C 637.171875 1448.535156 701.121094 1384.59375 701.121094 1305.714844 C 701.121094 1226.835938 637.175781 1162.894531 558.296875 1162.894531 Z M 558.296875 1162.894531 "/>
<path fill-rule="nonzero" fill="rgb(0%, 0%, 0%)" fill-opacity="1" d="M 1646.058594 1247.59375 C 1645.429688 1247.59375 1644.96875 1247.753906 1644.660156 1248.058594 L 1644.660156 1248.0625 C 1642.351562 1250.367188 1648.628906 1260.757812 1659.328125 1271.480469 C 1659.351562 1271.496094 1659.441406 1271.582031 1659.460938 1271.601562 L 1659.460938 1271.605469 C 1668.621094 1280.765625 1677.710938 1286.863281 1681.609375 1286.863281 C 1682.230469 1286.863281 1682.691406 1286.699219 1683 1286.394531 C 1685.320312 1284.070312 1678.96875 1273.617188 1668.210938 1262.847656 C 1659.050781 1253.695312 1649.960938 1247.59375 1646.058594 1247.59375 Z M 1596.859375 1247.585938 C 1592.960938 1247.589844 1583.871094 1253.691406 1574.710938 1262.851562 C 1563.941406 1273.613281 1557.609375 1284.082031 1559.910156 1286.390625 L 1559.921875 1286.398438 C 1560.230469 1286.703125 1560.691406 1286.863281 1561.320312 1286.863281 C 1565.210938 1286.863281 1574.308594 1280.765625 1583.460938 1271.597656 C 1594.230469 1260.832031 1600.570312 1250.371094 1598.261719 1248.054688 C 1597.949219 1247.75 1597.488281 1247.585938 1596.859375 1247.585938 Z M 1623.929688 1288.011719 C 1633.46875 1288.011719 1641.210938 1295.75 1641.210938 1305.292969 C 1641.210938 1314.835938 1633.46875 1322.570312 1623.929688 1322.570312 C 1614.390625 1322.570312 1606.648438 1314.832031 1606.648438 1305.292969 C 1606.648438 1295.75 1614.390625 1288.011719 1623.929688 1288.011719 Z M 1683 1328.496094 L 1683 1328.5 Z M 1623.511719 1279.78125 C 1609.191406 1279.78125 1597.578125 1291.390625 1597.578125 1305.714844 C 1597.578125 1320.039062 1609.191406 1331.648438 1623.511719 1331.648438 C 1637.828125 1331.648438 1649.429688 1320.03125 1649.429688 1305.714844 C 1649.429688 1291.394531 1637.828125 1279.78125 1623.511719 1279.78125 Z M 1561.308594 1328.019531 C 1560.679688 1328.019531 1560.21875 1328.183594 1559.910156 1328.488281 C 1557.601562 1330.804688 1563.941406 1341.265625 1574.710938 1352.035156 C 1583.871094 1361.195312 1592.960938 1367.296875 1596.859375 1367.296875 C 1597.488281 1367.296875 1597.949219 1367.132812 1598.261719 1366.828125 C 1600.570312 1364.511719 1594.230469 1354.050781 1583.460938 1343.28125 C 1574.308594 1334.121094 1565.210938 1328.023438 1561.308594 1328.019531 Z M 1681.601562 1328.03125 C 1677.710938 1328.03125 1668.621094 1334.125 1659.460938 1343.289062 C 1648.691406 1354.054688 1642.339844 1364.519531 1644.660156 1366.828125 L 1644.660156 1366.835938 C 1644.96875 1367.136719 1645.429688 1367.300781 1646.058594 1367.300781 C 1649.949219 1367.300781 1659.039062 1361.199219 1668.210938 1352.042969 C 1678.96875 1341.273438 1685.308594 1330.816406 1683 1328.5 C 1682.691406 1328.191406 1682.230469 1328.03125 1681.601562 1328.03125 Z M 1623.511719 1220.769531 C 1670.429688 1220.769531 1708.449219 1258.804688 1708.449219 1305.714844 C 1708.449219 1352.628906 1670.421875 1390.660156 1623.511719 1390.660156 C 1576.589844 1390.660156 1538.558594 1352.628906 1538.558594 1305.714844 C 1538.558594 1258.804688 1576.589844 1220.769531 1623.511719 1220.769531 Z M 1623.5 1162.894531 C 1544.628906 1162.894531 1480.679688 1226.835938 1480.679688 1305.714844 C 1480.679688 1384.585938 1544.621094 1448.535156 1623.5 1448.535156 C 1702.378906 1448.535156 1766.328125 1384.59375 1766.328125 1305.714844 C 1766.328125 1226.835938 1702.378906 1162.894531 1623.5 1162.894531 Z M 1623.5 1162.894531 "/>
<path fill-rule="nonzero" fill="rgb(0%, 0%, 0%)" fill-opacity="1" d="M 1437.71875 805.839844 C 1442.941406 805.839844 1447.960938 805.839844 1452.78125 805.859375 L 1452.808594 805.859375 C 1453.238281 805.859375 1453.671875 805.859375 1454.089844 805.859375 C 1481.769531 805.859375 1500.859375 808.230469 1511.359375 812.988281 L 1511.371094 812.988281 C 1511.691406 813.140625 1512.03125 813.25 1512.378906 813.320312 C 1513.828125 813.621094 1515.160156 814.179688 1516.351562 814.929688 L 1516.421875 814.941406 C 1523.871094 818.988281 1534.75 831.5 1549.058594 852.460938 C 1549.089844 852.5 1549.128906 852.558594 1549.140625 852.578125 C 1560.46875 868.308594 1582.878906 904.699219 1616.371094 961.75 C 1618.550781 965.46875 1618.570312 970.070312 1616.429688 973.820312 C 1614.421875 977.339844 1610.769531 979.589844 1606.761719 979.839844 L 1606.691406 979.839844 L 1292.808594 999.710938 C 1292.558594 999.71875 1292.300781 999.730469 1292.050781 999.730469 C 1289 999.730469 1286.058594 998.570312 1283.820312 996.46875 C 1281.398438 994.199219 1280.03125 991.03125 1280.03125 987.710938 L 1280.03125 820.980469 L 1280.101562 820.980469 C 1280.011719 820.410156 1279.960938 819.828125 1279.960938 819.230469 C 1279.910156 812.628906 1285.199219 807.21875 1291.808594 807.121094 C 1351.25 806.269531 1399.890625 805.839844 1437.71875 805.839844 Z M 1196.820312 808.78125 C 1203.460938 808.78125 1208.839844 814.171875 1208.839844 820.808594 L 1208.839844 993.730469 C 1208.839844 1000.078125 1203.910156 1005.328125 1197.578125 1005.730469 L 817.207031 1029.808594 L 816.644531 979.839844 L 815.648438 979.609375 C 811.1875 978.640625 807.597656 978.148438 804.886719 978.148438 C 803.511719 978.148438 802.363281 978.28125 801.4375 978.53125 C 797.59375 979.039062 793.320312 980.898438 788.617188 984.109375 C 784.066406 987.609375 781.074219 990.199219 779.648438 991.871094 C 777.414062 994.140625 775.246094 996.601562 773.144531 999.25 C 770.355469 1002.730469 767.96875 1006.28125 765.980469 1009.898438 C 764.921875 1008.71875 764.085938 1007.328125 763.550781 1005.769531 C 761.882812 1000.910156 763.484375 995.53125 767.539062 992.371094 C 868.691406 913.628906 933.09375 862.398438 960.746094 838.691406 L 960.820312 838.699219 C 961.210938 838.28125 961.632812 837.898438 962.089844 837.53125 C 970.636719 830.769531 980.644531 825.699219 992.113281 822.308594 C 992.167969 822.289062 992.222656 822.269531 992.277344 822.261719 L 992.347656 822.261719 C 992.867188 821.960938 993.414062 821.710938 993.988281 821.488281 C 994.0625 821.460938 994.128906 821.441406 994.183594 821.421875 L 994.1875 821.421875 C 1001.441406 818.738281 1024.839844 816.058594 1064.378906 813.390625 L 1064.449219 813.390625 C 1064.648438 813.359375 1064.859375 813.351562 1065.058594 813.339844 C 1102.179688 811.441406 1145.980469 809.921875 1196.480469 808.789062 L 1196.75 808.78125 Z M 1587.050781 1012.480469 C 1587.328125 1012.480469 1587.609375 1012.480469 1587.890625 1012.480469 C 1590.578125 1012.488281 1593.140625 1012.539062 1595.558594 1012.648438 C 1601.390625 1013 1604.730469 1013.269531 1605.570312 1013.460938 C 1609.671875 1013.980469 1612.898438 1014.671875 1615.269531 1015.519531 C 1617.878906 1016.398438 1619.308594 1017.558594 1619.558594 1018.980469 L 1619.199219 1020.339844 C 1618.320312 1021.589844 1616.578125 1022.800781 1614.011719 1023.980469 C 1612.71875 1024.570312 1611.21875 1025.140625 1609.511719 1025.710938 C 1608.910156 1026.011719 1605.878906 1026.839844 1600.378906 1028.199219 C 1594.308594 1029.480469 1590.539062 1030.191406 1589.089844 1030.359375 C 1586.441406 1030.78125 1583.679688 1031.160156 1580.828125 1031.5 C 1577.171875 1031.941406 1573.339844 1032.320312 1569.359375 1032.628906 C 1567.140625 1032.808594 1564.871094 1032.960938 1562.550781 1033.089844 C 1558.03125 1033.308594 1553.789062 1033.410156 1549.839844 1033.410156 C 1548.378906 1033.410156 1546.960938 1033.398438 1545.578125 1033.371094 C 1543.019531 1033.320312 1540.601562 1033.210938 1538.308594 1033.058594 C 1532.808594 1032.578125 1529.679688 1032.230469 1528.898438 1032.011719 C 1521.359375 1030.769531 1517.699219 1028.929688 1517.929688 1026.5 C 1518.160156 1025.238281 1519.390625 1024.011719 1521.628906 1022.808594 C 1521.898438 1022.5 1523.988281 1021.628906 1527.898438 1020.191406 C 1529.609375 1019.621094 1531.539062 1019.070312 1533.671875 1018.519531 C 1534.570312 1018.199219 1538.140625 1017.429688 1544.410156 1016.199219 C 1546.960938 1015.738281 1549.621094 1015.320312 1552.371094 1014.941406 C 1557.289062 1014.261719 1562.511719 1013.699219 1568.050781 1013.269531 C 1568.710938 1013.210938 1569.390625 1013.171875 1570.070312 1013.121094 C 1576.230469 1012.691406 1581.890625 1012.480469 1587.050781 1012.480469 Z M 1170.839844 1045.03125 C 1179.058594 1045.03125 1186.039062 1045.5 1191.769531 1046.429688 C 1194.5 1046.878906 1196.75 1047.429688 1198.539062 1048.070312 L 1200.820312 1049.089844 C 1202.078125 1049.820312 1202.75 1050.628906 1202.839844 1051.53125 L 1202.46875 1052.878906 C 1200.480469 1055.699219 1194.210938 1058.320312 1183.648438 1060.738281 C 1174.710938 1062.78125 1164.378906 1064.261719 1152.628906 1065.179688 C 1150.410156 1065.351562 1148.140625 1065.5 1145.820312 1065.640625 C 1141.300781 1065.851562 1137.058594 1065.960938 1133.109375 1065.960938 C 1124.890625 1065.960938 1117.910156 1065.488281 1112.179688 1064.558594 C 1103.691406 1063.160156 1100.121094 1061.011719 1101.480469 1058.109375 C 1103.46875 1055.289062 1109.75 1052.671875 1120.300781 1050.25 C 1129.238281 1048.210938 1139.578125 1046.730469 1151.320312 1045.808594 C 1153.539062 1045.640625 1155.808594 1045.480469 1158.128906 1045.351562 C 1162.648438 1045.140625 1166.890625 1045.03125 1170.839844 1045.03125 Z M 386.242188 1075.359375 L 386.160156 1075.410156 L 386.265625 1075.410156 Z M 1785.71875 1000.171875 C 1790.660156 1000.171875 1795.890625 1000.28125 1801.398438 1000.5 L 1801.339844 1000.5 C 1813.011719 1026.75 1821.71875 1065.339844 1827.449219 1116.277344 L 1827.390625 1116.277344 L 1827.449219 1116.28125 L 1827.390625 1116.277344 L 1804.660156 1120.941406 C 1804.199219 1121.035156 1803.738281 1121.082031 1803.289062 1121.082031 C 1801.75 1121.082031 1800.238281 1120.558594 1799.019531 1119.582031 C 1770.25 1096.441406 1749.800781 1078.28125 1737.691406 1065.078125 L 1737.75 1065.078125 C 1737.46875 1064.839844 1737.210938 1064.570312 1736.96875 1064.289062 C 1731.410156 1057.691406 1727.71875 1053.078125 1725.898438 1050.441406 L 1725.96875 1050.429688 C 1725.28125 1049.710938 1724.75 1048.839844 1724.429688 1047.851562 C 1724.410156 1047.789062 1724.390625 1047.75 1724.359375 1047.691406 C 1720.449219 1040.871094 1718.570312 1034.730469 1718.71875 1029.269531 L 1718.71875 1029.128906 C 1718.71875 1029.019531 1718.71875 1028.921875 1718.730469 1028.808594 C 1718.980469 1023.511719 1720.839844 1018.929688 1724.308594 1015.078125 C 1724.339844 1015.050781 1724.351562 1015.039062 1724.359375 1015.011719 C 1724.550781 1014.75 1724.738281 1014.5 1724.949219 1014.25 C 1727.578125 1011.089844 1732.929688 1008.039062 1741.011719 1005.089844 L 1741.070312 1005.089844 C 1741.421875 1004.921875 1741.78125 1004.78125 1742.148438 1004.679688 C 1752.578125 1001.679688 1767.101562 1000.171875 1785.71875 1000.171875 Z M 335.113281 1066.691406 C 359.109375 1067.191406 374.769531 1069.128906 382.097656 1072.5 C 382.164062 1072.53125 382.226562 1072.558594 382.285156 1072.589844 C 382.910156 1072.910156 383.476562 1073.230469 383.984375 1073.558594 C 384.125 1073.648438 384.265625 1073.75 384.402344 1073.839844 L 384.480469 1073.839844 C 386.621094 1074.859375 388.183594 1076.949219 388.417969 1079.488281 L 388.382812 1079.488281 C 388.390625 1079.539062 388.398438 1079.578125 388.429688 1079.628906 L 388.449219 1079.828125 C 388.453125 1079.878906 388.457031 1079.941406 388.464844 1079.988281 L 388.476562 1080.128906 C 388.480469 1080.171875 388.484375 1080.199219 388.457031 1080.230469 C 388.601562 1081.011719 388.65625 1081.839844 388.628906 1082.71875 C 388.539062 1085.300781 387.589844 1088.941406 385.773438 1093.660156 C 385.207031 1095.132812 384.183594 1096.324219 382.898438 1097.113281 L 382.96875 1097.113281 L 329.726562 1143.667969 C 328.617188 1144.640625 327.226562 1145.230469 325.765625 1145.363281 L 325.8125 1145.367188 C 302.832031 1149.484375 286.765625 1151.546875 277.613281 1151.546875 C 277.109375 1151.546875 276.625 1151.539062 276.164062 1151.527344 C 274.292969 1151.480469 272.664062 1151.332031 271.273438 1151.082031 L 271.351562 1151.082031 C 269.433594 1150.890625 267.667969 1149.910156 266.496094 1148.355469 C 265.933594 1147.613281 265.535156 1146.777344 265.308594 1145.902344 L 265.230469 1145.902344 C 288.652344 1111.871094 311.917969 1085.460938 335.035156 1066.691406 Z M 1854.839844 1188.101562 C 1857.648438 1188.191406 1860 1189.40625 1861.871094 1191.75 C 1863.738281 1194.09375 1864.710938 1197.03125 1864.78125 1200.5625 L 1864.691406 1202.253906 C 1864.261719 1205.660156 1863 1208.382812 1860.910156 1210.425781 C 1859.140625 1212.144531 1857.109375 1213 1854.820312 1213 C 1854.378906 1213 1853.941406 1212.96875 1853.480469 1212.910156 C 1850.769531 1212.371094 1848.589844 1210.792969 1846.960938 1208.175781 C 1846.441406 1207.332031 1846.011719 1206.410156 1845.671875 1205.414062 L 1845.25 1203.875 C 1845.011719 1202.816406 1844.890625 1201.710938 1844.890625 1200.5625 C 1844.960938 1197.03125 1845.929688 1194.09375 1847.800781 1191.75 C 1849.671875 1189.40625 1852.019531 1188.191406 1854.839844 1188.101562 Z M 257.265625 1238.175781 C 257.527344 1238.175781 257.796875 1238.226562 258.070312 1238.324219 C 259.71875 1239.195312 261.039062 1241.738281 262.027344 1245.957031 C 262.34375 1247.320312 262.605469 1248.804688 262.8125 1250.414062 L 263.070312 1252.894531 C 263.210938 1254.601562 263.285156 1256.378906 263.285156 1258.234375 L 263.230469 1260.960938 C 262.96875 1266.457031 262.207031 1270.847656 260.9375 1274.144531 C 259.867188 1276.910156 258.636719 1278.292969 257.242188 1278.292969 C 256.980469 1278.292969 256.710938 1278.246094 256.433594 1278.148438 C 254.785156 1277.277344 253.46875 1274.734375 252.476562 1270.515625 C 251.492188 1266.265625 251.089844 1261.265625 251.277344 1255.507812 C 251.539062 1250.015625 252.300781 1245.621094 253.566406 1242.328125 C 254.640625 1239.5625 255.871094 1238.175781 257.265625 1238.175781 Z M 1464.859375 765.320312 C 1390.449219 765.320312 1281.539062 766.648438 1138.109375 769.320312 L 1138.019531 769.320312 C 1038.398438 769.53125 982.925781 772.921875 971.605469 779.5 L 971.53125 779.5 C 963.292969 780.898438 945.46875 790.820312 918.0625 809.261719 L 918.054688 809.269531 C 918.027344 809.28125 918.023438 809.289062 918.023438 809.289062 C 918.019531 809.289062 918.007812 809.300781 917.972656 809.320312 L 654.289062 993.859375 L 654.214844 993.859375 C 559.65625 996.101562 487.941406 1002.800781 439.074219 1013.960938 C 438.984375 1013.980469 438.898438 1014 438.8125 1014.03125 L 438.734375 1014.03125 C 396.628906 1023.410156 361.863281 1039.078125 334.4375 1061.050781 L 334.4375 1061.058594 L 334.429688 1061.058594 C 302.175781 1086.390625 269.644531 1126.535156 236.828125 1181.484375 C 236.25 1182.453125 235.96875 1183.535156 235.980469 1184.621094 L 235.902344 1184.621094 L 231.425781 1204.871094 C 230.953125 1207.019531 231.6875 1209.246094 233.351562 1210.691406 L 247.101562 1222.617188 L 245.164062 1287.257812 L 245.082031 1287.261719 C 229.1875 1301.820312 220.882812 1314.027344 220.164062 1323.886719 C 220.039062 1325.546875 220.617188 1327.183594 221.75 1328.402344 C 222.882812 1329.621094 224.472656 1330.3125 226.136719 1330.3125 L 226.078125 1330.316406 L 400.496094 1338.425781 C 398.265625 1327.730469 397.097656 1316.648438 397.097656 1305.292969 C 397.097656 1216.03125 469.441406 1143.65625 558.722656 1143.65625 C 647.992188 1143.65625 720.351562 1216.03125 720.351562 1305.292969 C 720.351562 1315.867188 719.335938 1326.199219 717.398438 1336.207031 L 1463.140625 1322.546875 L 1463.210938 1322.546875 C 1462.609375 1316.875 1462.308594 1311.121094 1462.308594 1305.292969 C 1462.308594 1216.03125 1534.648438 1143.65625 1623.929688 1143.65625 C 1705.808594 1143.65625 1773.46875 1204.546875 1784.101562 1283.507812 L 1869.96875 1254.257812 C 1872.578125 1253.367188 1874.25 1250.800781 1874 1248.046875 L 1866.699219 1167.378906 C 1866.550781 1165.753906 1865.738281 1164.257812 1864.46875 1163.238281 L 1840.039062 1143.730469 L 1839.980469 1143.734375 C 1833.96875 1073.140625 1823.109375 1022.648438 1807.390625 992.269531 C 1807.328125 992.121094 1807.261719 991.988281 1807.179688 991.871094 L 1807.21875 991.871094 C 1791.339844 954.878906 1758.21875 911.238281 1707.839844 860.949219 C 1707.789062 860.898438 1707.789062 860.898438 1707.78125 860.890625 L 1707.730469 860.851562 L 1630.570312 787.578125 L 1630.5 787.589844 C 1630.121094 787.058594 1629.640625 786.589844 1629.089844 786.210938 C 1629.011719 786.160156 1628.929688 786.101562 1628.851562 786.050781 L 1628.78125 786.050781 C 1637.828125 783.121094 1646.859375 780.199219 1655.859375 777.28125 L 1655.800781 777.289062 C 1656.570312 777.191406 1657.25 776.710938 1657.621094 776.011719 C 1658.03125 775.210938 1657.960938 774.25 1657.441406 773.519531 C 1657.378906 773.449219 1657.050781 772.980469 1656.429688 772.121094 C 1655.929688 771.410156 1655.269531 770.488281 1654.449219 769.351562 L 1654.390625 769.351562 C 1654.070312 768.398438 1653.179688 767.71875 1652.128906 767.710938 L 1569.179688 767.199219 L 1569.121094 767.210938 C 1550.410156 765.941406 1515.660156 765.320312 1464.859375 765.320312 Z M 1464.859375 765.320312 "/>
</svg>
