<?xml version="1.0" encoding="UTF-8"?>
<svg version="1.1" xmlns="http://www.w3.org/2000/svg" width="2048" height="2048">
<path d="M0 0 C675.84 0 1351.68 0 2048 0 C2048 675.84 2048 1351.68 2048 2048 C1372.16 2048 696.32 2048 0 2048 C0 1372.16 0 696.32 0 0 Z " fill="#F9F9F7" transform="translate(0,0)"/>
<path d="M0 0 C4.33098616 0.48620743 6.04036383 1.61677267 8.8125 4.9375 C9.48925781 5.741875 10.16601562 6.54625 10.86328125 7.375 C11.56839844 8.24125 12.27351562 9.1075 13 10 C13.75667969 10.9075 14.51335937 11.815 15.29296875 12.75 C21 19.6994469 21 19.6994469 21 22 C21.66 22 22.32 22 23 22 C24.45659977 23.61382948 25.84048951 25.29363216 27.1875 27 C28.0021875 27.99644531 28.816875 28.99289062 29.65625 30.01953125 C32 33 32 33 33.65625 35.51171875 C35.31311459 37.86598808 36.63302489 39.3502727 39 41 C41.98082401 41.43331706 41.98082401 41.43331706 45.30004883 41.25732422 C47.17558945 41.2119754 47.17558945 41.2119754 49.08901978 41.16571045 C55.40130997 40.89825514 61.70583837 40.58773164 68.01171875 40.1953125 C69.42028615 40.11069199 70.8288765 40.02645265 72.23748779 39.94256592 C75.19630421 39.76563215 78.15495441 39.58621299 81.11349487 39.40472412 C85.74798287 39.12058038 90.38286341 38.84323625 95.01782227 38.56689453 C106.40004748 37.88721465 117.78182098 37.20029075 129.16259766 36.49673462 C148.90759873 35.27943994 168.65507854 34.46363484 188.42553711 33.78466797 C198.23199263 33.44160246 208.03316943 33.06653563 217.83105469 32.52954102 C243.77060723 31.11641569 269.69000585 30.44737384 295.66290283 29.99383545 C304.23810025 29.84343913 312.8131333 29.68455431 321.38809586 29.52136421 C324.32451186 29.46679818 327.26097681 29.41658933 330.19747925 29.3669281 C338.33869977 29.22058303 346.45204507 29.00879872 354.578125 28.48364258 C367.14434615 27.69894941 379.73467476 27.81631507 392.3203125 27.796875 C393.68500877 27.79363978 395.04970465 27.79023619 396.4144001 27.78667068 C405.89571442 27.76220683 415.37699329 27.75289641 424.85833693 27.75068569 C427.12705624 27.74999938 429.39577459 27.74873303 431.66449356 27.74732208 C503.63926589 27.706298 503.63926589 27.706298 539.1875 29.375 C539.86664711 29.40673813 540.54579422 29.43847626 541.24552155 29.47117615 C549.25224027 29.84982038 557.25420317 30.2937917 565.25527954 30.77618408 C569.33338887 31.01992612 573.41208046 31.25166184 577.4909668 31.48193359 C594.48608708 32.44659987 611.46772445 33.52839786 628.4375 34.875 C629.51864075 34.96059174 630.59978149 35.04618347 631.71368408 35.1343689 C688.12255423 39.63490682 744.88970855 46.89891819 799 64 C799.91201172 64.28713867 800.82402344 64.57427734 801.76367188 64.87011719 C830.34015958 73.94123974 857.18847055 85.58534023 883.94918823 98.97546387 C886.01371949 100.00685393 888.08086855 101.03282471 890.14868164 102.05761719 C898.48577649 106.19580548 906.74790633 110.44994179 914.9375 114.875 C916.05793701 115.47940918 917.17837402 116.08381836 918.33276367 116.70654297 C925.91464361 120.81791704 933.38652228 125.07586803 940.7890625 129.5 C945.71688845 132.44198564 950.70152905 135.28302758 955.6875 138.125 C956.58041748 138.63458252 957.47333496 139.14416504 958.39331055 139.66918945 C962.27767167 141.88436296 966.16457651 144.09481217 970.05859375 146.29296875 C970.66936768 146.6389209 971.2801416 146.98487305 971.90942383 147.34130859 C973.4721489 148.22597066 975.03675539 149.10730717 976.6015625 149.98828125 C980.46350743 152.27437509 984.23503725 154.68345231 988.01513672 157.10180664 C993.05978163 160.30989712 998.15580673 163.43390811 1003.25 166.5625 C1004.37245117 167.25287354 1005.49490234 167.94324707 1006.65136719 168.65454102 C1014.16828067 173.27524597 1021.70582847 177.86144463 1029.25 182.4375 C1036.46781145 186.81815399 1043.62269339 191.27220097 1050.703125 195.87109375 C1054.34261689 198.22123958 1058.01025157 200.52209441 1061.6875 202.8125 C1066.87967111 206.04648812 1072.06060753 209.29721749 1077.22900391 212.5690918 C1080.44162261 214.60226151 1083.65769864 216.62992626 1086.87402344 218.65722656 C1088.69247956 219.80576913 1090.5068219 220.96082055 1092.3203125 222.1171875 C1125.36201839 242.90844369 1160.33981225 255.98795519 1198.89111328 262.18457031 C1211.73579035 264.33560294 1224.40768703 267.36064515 1237.10791016 270.22338867 C1247.73995081 272.61813791 1258.37437589 274.92993446 1269.0625 277.0625 C1281.40954694 279.5474515 1293.59722441 282.56743066 1305.79931641 285.67285156 C1314.98762354 288.00994367 1324.18755612 290.22944818 1333.4375 292.3125 C1340.67077046 293.94748112 1347.75895539 295.71602796 1354.8125 298.0234375 C1358.79768024 299.24438733 1362.82446998 300.20991159 1366.875 301.1875 C1386.18827074 305.9061471 1405.24703277 311.72070302 1424.1875 317.75 C1425.30189453 318.10223633 1426.41628906 318.45447266 1427.56445312 318.81738281 C1451.45834902 326.5290546 1469.77342094 337.78522865 1486 357 C1486.67417969 357.78503906 1487.34835937 358.57007813 1488.04296875 359.37890625 C1494.20329874 366.76436753 1499.3598828 374.18486953 1500 384 C1498.68 384 1497.36 384 1496 384 C1494.4375 381.98828125 1494.4375 381.98828125 1493 379.3125 C1489.16002454 372.26906676 1485.98711198 368.45444528 1478.3671875 365.56640625 C1477.61968231 365.27149796 1476.87217712 364.97658966 1476.10202026 364.67274475 C1467.87532036 361.47332959 1459.514252 358.67505126 1451.125 355.9375 C1449.52333958 355.41086086 1447.92177807 354.88392083 1446.3203125 354.35668945 C1443.22691883 353.33978631 1440.13217507 352.32716852 1437.03613281 351.31835938 C1433.82927231 350.27295437 1430.62820336 349.21133035 1427.4296875 348.140625 C1414.8354089 343.97553531 1401.97339914 340.88473613 1389.08984375 337.75341797 C1385.3252766 336.83547753 1381.56885987 335.88842724 1377.8125 334.9375 C1375.20902033 334.28870954 1372.60504491 333.64243498 1370 333 C1369.10845215 332.77989258 1368.2169043 332.55978516 1367.29833984 332.33300781 C1354.705418 329.23594708 1342.0962653 326.3418674 1329.38867188 323.75415039 C1323.88603796 322.62625592 1318.4389106 321.40322771 1313 320 C1306.86346947 318.42221319 1300.70802639 317.07817312 1294.5 315.8125 C1283.91383021 313.64670724 1273.36227606 311.33867284 1262.81811523 308.97763062 C1261.03895237 308.57951248 1259.25949719 308.18269822 1257.47973633 307.78726196 C1234.83110468 302.7507701 1213.86914236 297.20688569 1200 277 C1198.20917183 273.78637402 1196.47127275 270.56901158 1194.8359375 267.2734375 C1194.23007813 266.52320313 1193.62421875 265.77296875 1193 265 C1189.85761658 264.55099827 1189.85761658 264.55099827 1187 265 C1186.00190352 273.78324903 1190.15747642 281.89578259 1195.3125 288.8125 C1218.01959125 315.78930071 1257.39727733 318.89862087 1289.76443481 325.46176147 C1317.29633947 331.04515473 1344.78767971 336.75062177 1372 343.75 C1372.69631531 343.92886749 1373.39263062 344.10773499 1374.11004639 344.29202271 C1384.47540411 346.96779913 1394.74497429 349.931742 1405 353 C1401.80212177 354.06595941 1400.4742117 353.95554001 1397.20703125 353.46875 C1396.20542969 353.32123291 1395.20382812 353.17371582 1394.171875 353.02172852 C1393.06328125 352.84955811 1391.9546875 352.6773877 1390.8125 352.5 C1389.63558594 352.32202881 1388.45867187 352.14405762 1387.24609375 351.96069336 C1375.78297626 350.19155809 1364.36967612 348.14696644 1352.95217896 346.10736084 C1338.92747234 343.60747703 1324.877682 341.44001914 1310.76367188 339.51000977 C1310.06526184 339.41413071 1309.36685181 339.31825165 1308.64727783 339.21946716 C1306.77599867 338.96380764 1304.90413334 338.71244873 1303.03222656 338.46142578 C1300.62262556 338.09474737 1298.35269004 337.61189992 1296 337 C1294.58465222 336.93543121 1293.16662311 336.91388961 1291.75 336.9375 C1290.5125 336.958125 1289.275 336.97875 1288 337 C1288.58913002 340.38563328 1289.73567522 342.12765142 1292.0625 344.625 C1295 347.79058824 1295 347.79058824 1295 350 C1295.66 350 1296.32 350 1297 350 C1298.375 351.43359375 1298.375 351.43359375 1300 353.4375 C1303.47774624 357.52474816 1307.25318674 361.04718438 1311.2734375 364.59375 C1314.15105511 367.13330938 1316.98672624 369.71569301 1319.8125 372.3125 C1320.30790283 372.76608887 1320.80330566 373.21967773 1321.3137207 373.68701172 C1324.03811419 376.18433609 1326.74722905 378.69665517 1329.44140625 381.2265625 C1330.30125122 382.03033325 1330.30125122 382.03033325 1331.1784668 382.8503418 C1332.27573904 383.87687322 1333.36987779 384.90676883 1334.46020508 385.94067383 C1336.97574504 388.28944652 1339.48320831 390.38216349 1342.3828125 392.22265625 C1343.24648437 392.80917969 1344.11015625 393.39570312 1345 394 C1345 394.66 1345 395.32 1345 396 C1364.69276892 402.53127009 1385.52371464 405.35640807 1405.98828125 408.3046875 C1423.75861092 410.87395117 1441.43722412 413.68590203 1459.0625 417.125 C1459.91037079 417.28899292 1460.75824158 417.45298584 1461.63180542 417.62194824 C1474.84439694 420.19006526 1488.02310451 422.97889041 1500.6875 427.625 C1502.36392578 428.23214844 1502.36392578 428.23214844 1504.07421875 428.8515625 C1509.13430851 430.83776596 1509.13430851 430.83776596 1511 432 C1512.12826469 435.38479406 1512.1546523 438.01013847 1512.19287109 441.5793457 C1512.20104858 442.2431424 1512.20922607 442.90693909 1512.21765137 443.59085083 C1512.24244682 445.78581857 1512.25900609 447.9807219 1512.2734375 450.17578125 C1512.28142302 451.30229127 1512.28142302 451.30229127 1512.28956985 452.45155907 C1512.31627585 456.42659865 1512.33565896 460.40160709 1512.35009766 464.37670898 C1512.36343723 467.66214844 1512.39129245 470.94696683 1512.43212891 474.23217773 C1512.4814943 478.2038729 1512.50622303 482.17500479 1512.51332474 486.14699364 C1512.52002873 487.65765725 1512.53522889 489.16830872 1512.55921555 490.67879677 C1512.75826241 503.97135137 1512.75826241 503.97135137 1509.7878418 507.86401367 C1507.05589917 509.95717122 1505.17594698 510.92181407 1501.87109375 511.75 C1498.14276732 513.07197355 1498.14276732 513.07197355 1495.77392578 516.08203125 C1494.98870722 518.71845575 1494.48406109 521.28187122 1494.0625 524 C1493.69566418 525.88939123 1493.32847828 527.77871453 1492.9609375 529.66796875 C1492.79948242 530.5811084 1492.63802734 531.49424805 1492.47167969 532.43505859 C1491.85736742 535.77562002 1491.04542722 539.0264026 1490.1875 542.3125 C1489.95417969 543.23675781 1489.72085937 544.16101562 1489.48046875 545.11328125 C1489.32191406 545.73589844 1489.16335938 546.35851563 1489 547 C1489.59296875 547.27457031 1490.1859375 547.54914062 1490.796875 547.83203125 C1492.90839925 548.95143861 1494.46805207 550.10883253 1496.25 551.6875 C1498.19304386 553.40441375 1500.13408898 555.11190514 1502.125 556.7734375 C1502.82625 557.36382813 1503.5275 557.95421875 1504.25 558.5625 C1504.89453125 559.10003906 1505.5390625 559.63757812 1506.203125 560.19140625 C1510.51600034 564.53240904 1511.43116321 568.05435347 1511.4375 574.125 C1511.31776792 583.63963203 1509.10011978 592.26720247 1502.21606445 599.16162109 C1492.54356272 607.18563101 1478.29722052 607.97923463 1466.33056641 609.83129883 C1456.35210929 611.39807645 1448.32546802 612.91133424 1440 619 C1438.00883918 620.12002796 1436.01082589 621.22817383 1434 622.3125 C1433.0925 622.80363281 1432.185 623.29476562 1431.25 623.80078125 C1423.52569037 627.917731 1414.07910214 627.19719996 1405.47265625 627.5 C1404.40309189 627.54060547 1403.33352753 627.58121094 1402.23155212 627.62304688 C1398.84196998 627.75162336 1395.45226294 627.87628779 1392.0625 628 C1387.59491855 628.16330418 1383.12750836 628.33055081 1378.66015625 628.5 C1377.65461197 628.53544922 1376.64906769 628.57089844 1375.61305237 628.60742188 C1369.83784565 628.82662285 1364.10868728 629.21492332 1358.35757446 629.78929138 C1355.33617962 630.05932906 1352.34459616 630.09817172 1349.3125 630.0625 C1347.79076172 630.04896484 1347.79076172 630.04896484 1346.23828125 630.03515625 C1345.13033203 630.01775391 1345.13033203 630.01775391 1344 630 C1344.0721875 629.11828125 1344.144375 628.2365625 1344.21875 627.328125 C1344.96785623 616.99869393 1345.16540071 606.65692134 1345.23217773 596.30383301 C1345.24387452 594.75080451 1345.26079157 593.19780475 1345.28344727 591.64489746 C1345.78989162 554.74424553 1331.69072734 518.16215601 1308 490 C1306.35041254 488.31642738 1304.68344174 486.64972103 1303 485 C1301.73736328 483.65035156 1301.73736328 483.65035156 1300.44921875 482.2734375 C1288.581755 469.69721044 1274.64299562 461.14709315 1259 454 C1257.205625 453.16662109 1257.205625 453.16662109 1255.375 452.31640625 C1224.07900719 438.31005233 1187.18136023 435.70836157 1154 444 C1152.68546742 444.29423209 1151.37038917 444.58604061 1150.0546875 444.875 C1129.49448886 449.76404936 1109.33832889 459.66473156 1093 473 C1092.42862305 473.4645459 1091.85724609 473.9290918 1091.26855469 474.40771484 C1063.010796 497.52839315 1046.58797746 528.53983229 1038.51708984 563.7722168 C1038.00988014 565.9574333 1037.47395578 568.13332606 1036.92578125 570.30859375 C1031.92131394 590.2631153 1032 609.11603202 1032 630 C786.15 630 540.3 630 287 630 C287 614.82 287 599.64 287 584 C285.7093213 574.65235732 284.44250694 566.00255303 282 557 C281.72172363 555.95827637 281.44344727 554.91655273 281.15673828 553.84326172 C278.25403319 543.21627137 275.054071 532.81977158 270 523 C269.47792969 521.88753906 268.95585938 520.77507813 268.41796875 519.62890625 C265.12386758 512.66442381 261.41876775 506.40579406 256.69921875 500.3046875 C255.18850906 498.25567895 254.04903382 496.31106943 253 494 C252.34 494 251.68 494 251 494 C249.67886004 492.43700375 248.41944915 490.82171827 247.1875 489.1875 C241.81792898 482.50973731 235.782792 477.20831405 229 472 C228.4033252 471.54093262 227.80665039 471.08186523 227.19189453 470.60888672 C205.15182394 453.94899751 179.92800359 445.68532426 153 441 C152.07783691 440.8242041 151.15567383 440.6484082 150.20556641 440.46728516 C109.52270611 434.53682098 66.08833144 444.80810263 32.8515625 468.7890625 C28.33072263 472.29426164 24.12644918 476.04183994 20 480 C19.17886719 480.75796875 18.35773438 481.5159375 17.51171875 482.296875 C10.61309236 488.86290821 5.21415561 496.08104058 0 504 C-0.58612061 504.88365234 -0.58612061 504.88365234 -1.18408203 505.78515625 C-11.25384847 521.16658716 -17.96273601 538.09475392 -22 556 C-22.15839355 556.69367676 -22.31678711 557.38735352 -22.47998047 558.10205078 C-26.0278963 574.44385042 -25.73034831 591.3545947 -26 608 C-34.92141387 607.54473503 -43.30841488 606.26077438 -52 604.2421875 C-65.34979223 601.26612699 -78.74495228 598.90382256 -92.24575806 596.73028564 C-98.09539513 595.78716546 -103.94149874 594.82271804 -109.78748512 593.85728073 C-111.75220369 593.53282134 -113.7170059 593.20886854 -115.68180847 592.88491821 C-126.81337154 591.04391253 -137.93042232 589.12918263 -149.03393555 587.12591553 C-150.85317892 586.797945 -152.67282802 586.47221518 -154.49291992 586.14898682 C-190.68413914 579.70989611 -190.68413914 579.70989611 -201 568 C-201.82951172 567.13955078 -201.82951172 567.13955078 -202.67578125 566.26171875 C-213.51863498 554.67588575 -215.37623015 542.31691056 -215.5625 526.9375 C-215.61212891 525.70966797 -215.66175781 524.48183594 -215.71289062 523.21679688 C-215.7801711 517.26728098 -215.8161725 513.11698554 -211.71484375 508.56640625 C-211.11663818 508.03088135 -210.51843262 507.49535645 -209.90209961 506.94360352 C-205.05459733 501.9903285 -203.50018259 497.50179102 -203.51757812 490.6628418 C-203.51366562 489.96587189 -203.50975311 489.26890198 -203.50572205 488.55081177 C-203.49978083 487.04929693 -203.50285567 485.54772401 -203.5141449 484.04623985 C-203.5315301 481.66078621 -203.52383263 479.27653155 -203.5098877 476.8910675 C-203.48035936 470.96686275 -203.49338297 465.04289272 -203.50506592 459.11865234 C-203.51331047 454.10739753 -203.50516268 449.09666976 -203.47593689 444.08548927 C-203.46890632 441.75112048 -203.48543963 439.41771266 -203.50305176 437.0834198 C-203.50097423 429.01924906 -202.85726206 422.25712832 -199 415 C-198.63627289 414.2840416 -198.27254578 413.56808319 -197.89779663 412.83042908 C-196.92688681 410.94769406 -195.91106484 409.09758331 -194.875 407.25 C-186.95636822 393.09066213 -188.92105606 380.83684118 -191.33660889 365.40246582 C-192.04694444 360.84469784 -192.7193371 356.28125663 -193.3984375 351.71875 C-193.67278666 349.88540695 -193.94719975 348.05207347 -194.22167969 346.21875 C-205.55008646 270.33960248 -205.55008646 270.33960248 -192 252 C-188.49938865 247.81766218 -184.80770237 243.90206235 -181 240 C-180.42507812 239.35160156 -179.85015625 238.70320312 -179.2578125 238.03515625 C-170.49476276 228.38672066 -157.60385395 221.87115528 -146.13720703 216.05517578 C-144.78584434 215.36881627 -143.43675044 214.67797336 -142.08984375 213.98291016 C-140.773566 213.30416482 -139.45215509 212.63525006 -138.125 211.97802734 C-130.60726197 208.09346366 -127.80547544 202.05380693 -124.125 194.8125 C-120.66440214 188.0386799 -116.96591169 181.49061546 -113 175 C-111.86519466 173.11499901 -110.73110182 171.22956893 -109.59765625 169.34375 C-108.41962532 167.39561893 -107.24123695 165.44770396 -106.0625 163.5 C-105.48048828 162.53191406 -104.89847656 161.56382812 -104.29882812 160.56640625 C-100.94461647 155.03177129 -97.43025162 149.6813274 -93.6809082 144.40722656 C-91.00009278 140.56803411 -88.53585391 136.59970863 -86.0625 132.625 C-80.02607677 123.01435413 -73.99601606 113.50033898 -67.0625 104.5 C-66.64677734 103.94812012 -66.23105469 103.39624023 -65.80273438 102.82763672 C-63.76821277 100.15358138 -61.76131956 97.76379477 -59.36328125 95.390625 C-52.62951057 88.24458265 -52.37371332 82.71783486 -52.625 73.125 C-52.74189971 70.96092194 -52.8590743 68.7968587 -52.9765625 66.6328125 C-53.19476483 60.82541895 -51.97325899 57.54676776 -48.4140625 52.953125 C-39.59961254 44.56207657 -26.0320746 45.60578989 -14.5 44.875 C-12.55552979 44.74762451 -12.55552979 44.74762451 -10.57177734 44.61767578 C0.29750614 43.95067567 11.11512319 43.78374417 22 44 C19.21968164 36.36641985 15.63247542 29.45646332 11.5625 22.4375 C10.4385434 20.47801294 9.31484196 18.5183795 8.19140625 16.55859375 C7.65531738 15.62515137 7.11922852 14.69170898 6.56689453 13.72998047 C6.04981934 12.82908691 5.53274414 11.92819336 5 11 C4.24565674 9.68926514 4.24565674 9.68926514 3.47607422 8.35205078 C2.78989014 7.14331299 2.78989014 7.14331299 2.08984375 5.91015625 C1.68499756 5.20125244 1.28015137 4.49234863 0.86303711 3.76196289 C0 2 0 2 0 0 Z " fill="#FAFAF9" transform="translate(375,658)"/>
<path d="M0 0 C4.33098616 0.48620743 6.04036383 1.61677267 8.8125 4.9375 C9.48925781 5.741875 10.16601562 6.54625 10.86328125 7.375 C11.56839844 8.24125 12.27351562 9.1075 13 10 C13.75667969 10.9075 14.51335937 11.815 15.29296875 12.75 C21 19.6994469 21 19.6994469 21 22 C21.66 22 22.32 22 23 22 C24.45659977 23.61382948 25.84048951 25.29363216 27.1875 27 C28.0021875 27.99644531 28.816875 28.99289062 29.65625 30.01953125 C32 33 32 33 33.65625 35.51171875 C35.31311459 37.86598808 36.63302489 39.3502727 39 41 C41.98082401 41.43331706 41.98082401 41.43331706 45.30004883 41.25732422 C47.17558945 41.2119754 47.17558945 41.2119754 49.08901978 41.16571045 C55.40130997 40.89825514 61.70583837 40.58773164 68.01171875 40.1953125 C69.42028615 40.11069199 70.8288765 40.02645265 72.23748779 39.94256592 C75.19630421 39.76563215 78.15495441 39.58621299 81.11349487 39.40472412 C85.74798287 39.12058038 90.38286341 38.84323625 95.01782227 38.56689453 C106.40004748 37.88721465 117.78182098 37.20029075 129.16259766 36.49673462 C148.90759873 35.27943994 168.65507854 34.46363484 188.42553711 33.78466797 C198.23199263 33.44160246 208.03316943 33.06653563 217.83105469 32.52954102 C243.77060723 31.11641569 269.69000585 30.44737384 295.66290283 29.99383545 C304.23810025 29.84343913 312.8131333 29.68455431 321.38809586 29.52136421 C324.32451186 29.46679818 327.26097681 29.41658933 330.19747925 29.3669281 C338.33869977 29.22058303 346.45204507 29.00879872 354.578125 28.48364258 C367.14434615 27.69894941 379.73467476 27.81631507 392.3203125 27.796875 C393.68500877 27.79363978 395.04970465 27.79023619 396.4144001 27.78667068 C405.89571442 27.76220683 415.37699329 27.75289641 424.85833693 27.75068569 C427.12705624 27.74999938 429.39577459 27.74873303 431.66449356 27.74732208 C503.63926589 27.706298 503.63926589 27.706298 539.1875 29.375 C539.86664711 29.40673813 540.54579422 29.43847626 541.24552155 29.47117615 C549.25224027 29.84982038 557.25420317 30.2937917 565.25527954 30.77618408 C569.33338887 31.01992612 573.41208046 31.25166184 577.4909668 31.48193359 C594.48608708 32.44659987 611.46772445 33.52839786 628.4375 34.875 C629.51864075 34.96059174 630.59978149 35.04618347 631.71368408 35.1343689 C688.12255423 39.63490682 744.88970855 46.89891819 799 64 C799.91201172 64.28713867 800.82402344 64.57427734 801.76367188 64.87011719 C830.34015958 73.94123974 857.18847055 85.58534023 883.94918823 98.97546387 C886.01371949 100.00685393 888.08086855 101.03282471 890.14868164 102.05761719 C898.48577649 106.19580548 906.74790633 110.44994179 914.9375 114.875 C916.05793701 115.47940918 917.17837402 116.08381836 918.33276367 116.70654297 C925.91464361 120.81791704 933.38652228 125.07586803 940.7890625 129.5 C945.71688845 132.44198564 950.70152905 135.28302758 955.6875 138.125 C956.58041748 138.63458252 957.47333496 139.14416504 958.39331055 139.66918945 C962.27767167 141.88436296 966.16457651 144.09481217 970.05859375 146.29296875 C970.66936768 146.6389209 971.2801416 146.98487305 971.90942383 147.34130859 C973.4721489 148.22597066 975.03675539 149.10730717 976.6015625 149.98828125 C980.46350743 152.27437509 984.23503725 154.68345231 988.01513672 157.10180664 C993.05978163 160.30989712 998.15580673 163.43390811 1003.25 166.5625 C1004.37245117 167.25287354 1005.49490234 167.94324707 1006.65136719 168.65454102 C1014.16828067 173.27524597 1021.70582847 177.86144463 1029.25 182.4375 C1036.46781145 186.81815399 1043.62269339 191.27220097 1050.703125 195.87109375 C1054.34261689 198.22123958 1058.01025157 200.52209441 1061.6875 202.8125 C1066.87967111 206.04648812 1072.06060753 209.29721749 1077.22900391 212.5690918 C1080.44162261 214.60226151 1083.65769864 216.62992626 1086.87402344 218.65722656 C1088.69247956 219.80576913 1090.5068219 220.96082055 1092.3203125 222.1171875 C1125.36201839 242.90844369 1160.33981225 255.98795519 1198.89111328 262.18457031 C1211.73579035 264.33560294 1224.40768703 267.36064515 1237.10791016 270.22338867 C1247.73995081 272.61813791 1258.37437589 274.92993446 1269.0625 277.0625 C1281.40954694 279.5474515 1293.59722441 282.56743066 1305.79931641 285.67285156 C1314.98762354 288.00994367 1324.18755612 290.22944818 1333.4375 292.3125 C1340.67077046 293.94748112 1347.75895539 295.71602796 1354.8125 298.0234375 C1358.79768024 299.24438733 1362.82446998 300.20991159 1366.875 301.1875 C1386.18827074 305.9061471 1405.24703277 311.72070302 1424.1875 317.75 C1425.30189453 318.10223633 1426.41628906 318.45447266 1427.56445312 318.81738281 C1451.45834902 326.5290546 1469.77342094 337.78522865 1486 357 C1486.67417969 357.78503906 1487.34835937 358.57007813 1488.04296875 359.37890625 C1494.20329874 366.76436753 1499.3598828 374.18486953 1500 384 C1498.68 384 1497.36 384 1496 384 C1494.4375 381.98828125 1494.4375 381.98828125 1493 379.3125 C1489.16002454 372.26906676 1485.98711198 368.45444528 1478.3671875 365.56640625 C1477.61968231 365.27149796 1476.87217712 364.97658966 1476.10202026 364.67274475 C1467.87532036 361.47332959 1459.514252 358.67505126 1451.125 355.9375 C1449.52333958 355.41086086 1447.92177807 354.88392083 1446.3203125 354.35668945 C1443.22691883 353.33978631 1440.13217507 352.32716852 1437.03613281 351.31835938 C1433.82927231 350.27295437 1430.62820336 349.21133035 1427.4296875 348.140625 C1414.8354089 343.97553531 1401.97339914 340.88473613 1389.08984375 337.75341797 C1385.3252766 336.83547753 1381.56885987 335.88842724 1377.8125 334.9375 C1375.20902033 334.28870954 1372.60504491 333.64243498 1370 333 C1369.10845215 332.77989258 1368.2169043 332.55978516 1367.29833984 332.33300781 C1354.705418 329.23594708 1342.0962653 326.3418674 1329.38867188 323.75415039 C1323.88603796 322.62625592 1318.4389106 321.40322771 1313 320 C1306.86346947 318.42221319 1300.70802639 317.07817312 1294.5 315.8125 C1283.91383021 313.64670724 1273.36227606 311.33867284 1262.81811523 308.97763062 C1261.03895237 308.57951248 1259.25949719 308.18269822 1257.47973633 307.78726196 C1234.83110468 302.7507701 1213.86914236 297.20688569 1200 277 C1198.20917183 273.78637402 1196.47127275 270.56901158 1194.8359375 267.2734375 C1194.23007813 266.52320313 1193.62421875 265.77296875 1193 265 C1189.85761658 264.55099827 1189.85761658 264.55099827 1187 265 C1186.00190352 273.78324903 1190.15747642 281.89578259 1195.3125 288.8125 C1218.01959125 315.78930071 1257.39727733 318.89862087 1289.76443481 325.46176147 C1317.29633947 331.04515473 1344.78767971 336.75062177 1372 343.75 C1372.69631531 343.92886749 1373.39263062 344.10773499 1374.11004639 344.29202271 C1384.47540411 346.96779913 1394.74497429 349.931742 1405 353 C1401.80212177 354.06595941 1400.4742117 353.95554001 1397.20703125 353.46875 C1396.20542969 353.32123291 1395.20382812 353.17371582 1394.171875 353.02172852 C1393.06328125 352.84955811 1391.9546875 352.6773877 1390.8125 352.5 C1389.63558594 352.32202881 1388.45867187 352.14405762 1387.24609375 351.96069336 C1375.78297626 350.19155809 1364.36967612 348.14696644 1352.95217896 346.10736084 C1338.92747234 343.60747703 1324.877682 341.44001914 1310.76367188 339.51000977 C1310.06526184 339.41413071 1309.36685181 339.31825165 1308.64727783 339.21946716 C1306.77599867 338.96380764 1304.90413334 338.71244873 1303.03222656 338.46142578 C1300.62262556 338.09474737 1298.35269004 337.61189992 1296 337 C1294.58465222 336.93543121 1293.16662311 336.91388961 1291.75 336.9375 C1290.5125 336.958125 1289.275 336.97875 1288 337 C1288.58913002 340.38563328 1289.73567522 342.12765142 1292.0625 344.625 C1295 347.79058824 1295 347.79058824 1295 350 C1295.66 350 1296.32 350 1297 350 C1298.375 351.43359375 1298.375 351.43359375 1300 353.4375 C1303.47774624 357.52474816 1307.25318674 361.04718438 1311.2734375 364.59375 C1314.15105511 367.13330938 1316.98672624 369.71569301 1319.8125 372.3125 C1320.30790283 372.76608887 1320.80330566 373.21967773 1321.3137207 373.68701172 C1324.03811419 376.18433609 1326.74722905 378.69665517 1329.44140625 381.2265625 C1330.30125122 382.03033325 1330.30125122 382.03033325 1331.1784668 382.8503418 C1332.27573904 383.87687322 1333.36987779 384.90676883 1334.46020508 385.94067383 C1336.97574504 388.28944652 1339.48320831 390.38216349 1342.3828125 392.22265625 C1343.24648437 392.80917969 1344.11015625 393.39570312 1345 394 C1345 394.66 1345 395.32 1345 396 C1364.69276892 402.53127009 1385.52371464 405.35640807 1405.98828125 408.3046875 C1423.75861092 410.87395117 1441.43722412 413.68590203 1459.0625 417.125 C1459.91037079 417.28899292 1460.75824158 417.45298584 1461.63180542 417.62194824 C1474.84439694 420.19006526 1488.02310451 422.97889041 1500.6875 427.625 C1502.36392578 428.23214844 1502.36392578 428.23214844 1504.07421875 428.8515625 C1509.13430851 430.83776596 1509.13430851 430.83776596 1511 432 C1512.12826469 435.38479406 1512.1546523 438.01013847 1512.19287109 441.5793457 C1512.20104858 442.2431424 1512.20922607 442.90693909 1512.21765137 443.59085083 C1512.24244682 445.78581857 1512.25900609 447.9807219 1512.2734375 450.17578125 C1512.28142302 451.30229127 1512.28142302 451.30229127 1512.28956985 452.45155907 C1512.31627585 456.42659865 1512.33565896 460.40160709 1512.35009766 464.37670898 C1512.36343723 467.66214844 1512.39129245 470.94696683 1512.43212891 474.23217773 C1512.4814943 478.2038729 1512.50622303 482.17500479 1512.51332474 486.14699364 C1512.52002873 487.65765725 1512.53522889 489.16830872 1512.55921555 490.67879677 C1512.75826241 503.97135137 1512.75826241 503.97135137 1509.7878418 507.86401367 C1507.05589917 509.95717122 1505.17594698 510.92181407 1501.87109375 511.75 C1498.14276732 513.07197355 1498.14276732 513.07197355 1495.77392578 516.08203125 C1494.98870722 518.71845575 1494.48406109 521.28187122 1494.0625 524 C1493.69566418 525.88939123 1493.32847828 527.77871453 1492.9609375 529.66796875 C1492.79948242 530.5811084 1492.63802734 531.49424805 1492.47167969 532.43505859 C1491.85736742 535.77562002 1491.04542722 539.0264026 1490.1875 542.3125 C1489.95417969 543.23675781 1489.72085937 544.16101562 1489.48046875 545.11328125 C1489.32191406 545.73589844 1489.16335938 546.35851563 1489 547 C1489.59296875 547.27457031 1490.1859375 547.54914062 1490.796875 547.83203125 C1492.90839925 548.95143861 1494.46805207 550.10883253 1496.25 551.6875 C1498.19304386 553.40441375 1500.13408898 555.11190514 1502.125 556.7734375 C1502.82625 557.36382813 1503.5275 557.95421875 1504.25 558.5625 C1504.89453125 559.10003906 1505.5390625 559.63757812 1506.203125 560.19140625 C1510.51600034 564.53240904 1511.43116321 568.05435347 1511.4375 574.125 C1511.31776792 583.63963203 1509.10011978 592.26720247 1502.21606445 599.16162109 C1492.54356272 607.18563101 1478.29722052 607.97923463 1466.33056641 609.83129883 C1456.35210929 611.39807645 1448.32546802 612.91133424 1440 619 C1438.00883918 620.12002796 1436.01082589 621.22817383 1434 622.3125 C1433.0925 622.80363281 1432.185 623.29476562 1431.25 623.80078125 C1423.52569037 627.917731 1414.07910214 627.19719996 1405.47265625 627.5 C1404.40309189 627.54060547 1403.33352753 627.58121094 1402.23155212 627.62304688 C1398.84196998 627.75162336 1395.45226294 627.87628779 1392.0625 628 C1387.59491855 628.16330418 1383.12750836 628.33055081 1378.66015625 628.5 C1377.65461197 628.53544922 1376.64906769 628.57089844 1375.61305237 628.60742188 C1369.83784565 628.82662285 1364.10868728 629.21492332 1358.35757446 629.78929138 C1355.33617962 630.05932906 1352.34459616 630.09817172 1349.3125 630.0625 C1347.79076172 630.04896484 1347.79076172 630.04896484 1346.23828125 630.03515625 C1345.13033203 630.01775391 1345.13033203 630.01775391 1344 630 C1344.0721875 629.11828125 1344.144375 628.2365625 1344.21875 627.328125 C1344.96785623 616.99869393 1345.16540071 606.65692134 1345.23217773 596.30383301 C1345.24387452 594.75080451 1345.26079157 593.19780475 1345.28344727 591.64489746 C1345.78989162 554.74424553 1331.69072734 518.16215601 1308 490 C1306.35041254 488.31642738 1304.68344174 486.64972103 1303 485 C1301.73736328 483.65035156 1301.73736328 483.65035156 1300.44921875 482.2734375 C1288.581755 469.69721044 1274.64299562 461.14709315 1259 454 C1257.205625 453.16662109 1257.205625 453.16662109 1255.375 452.31640625 C1224.07900719 438.31005233 1187.18136023 435.70836157 1154 444 C1152.68546742 444.29423209 1151.37038917 444.58604061 1150.0546875 444.875 C1129.49448886 449.76404936 1109.33832889 459.66473156 1093 473 C1092.42862305 473.4645459 1091.85724609 473.9290918 1091.26855469 474.40771484 C1063.010796 497.52839315 1046.58797746 528.53983229 1038.51708984 563.7722168 C1038.00988014 565.9574333 1037.47395578 568.13332606 1036.92578125 570.30859375 C1031.92131394 590.2631153 1032 609.11603202 1032 630 C786.15 630 540.3 630 287 630 C287 614.82 287 599.64 287 584 C285.7093213 574.65235732 284.44250694 566.00255303 282 557 C281.72172363 555.95827637 281.44344727 554.91655273 281.15673828 553.84326172 C278.25403319 543.21627137 275.054071 532.81977158 270 523 C269.47792969 521.88753906 268.95585938 520.77507813 268.41796875 519.62890625 C265.12386758 512.66442381 261.41876775 506.40579406 256.69921875 500.3046875 C255.18850906 498.25567895 254.04903382 496.31106943 253 494 C252.34 494 251.68 494 251 494 C249.67886004 492.43700375 248.41944915 490.82171827 247.1875 489.1875 C241.81792898 482.50973731 235.782792 477.20831405 229 472 C228.4033252 471.54093262 227.80665039 471.08186523 227.19189453 470.60888672 C205.15182394 453.94899751 179.92800359 445.68532426 153 441 C152.07783691 440.8242041 151.15567383 440.6484082 150.20556641 440.46728516 C109.52270611 434.53682098 66.08833144 444.80810263 32.8515625 468.7890625 C28.33072263 472.29426164 24.12644918 476.04183994 20 480 C19.17886719 480.75796875 18.35773438 481.5159375 17.51171875 482.296875 C10.61309236 488.86290821 5.21415561 496.08104058 0 504 C-0.58612061 504.88365234 -0.58612061 504.88365234 -1.18408203 505.78515625 C-11.25384847 521.16658716 -17.96273601 538.09475392 -22 556 C-22.15839355 556.69367676 -22.31678711 557.38735352 -22.47998047 558.10205078 C-26.0278963 574.44385042 -25.73034831 591.3545947 -26 608 C-34.92141387 607.54473503 -43.30841488 606.26077438 -52 604.2421875 C-65.34979223 601.26612699 -78.74495228 598.90382256 -92.24575806 596.73028564 C-98.09539513 595.78716546 -103.94149874 594.82271804 -109.78748512 593.85728073 C-111.75220369 593.53282134 -113.7170059 593.20886854 -115.68180847 592.88491821 C-126.81337154 591.04391253 -137.93042232 589.12918263 -149.03393555 587.12591553 C-150.85317892 586.797945 -152.67282802 586.47221518 -154.49291992 586.14898682 C-190.68413914 579.70989611 -190.68413914 579.70989611 -201 568 C-201.82951172 567.13955078 -201.82951172 567.13955078 -202.67578125 566.26171875 C-213.51863498 554.67588575 -215.37623015 542.31691056 -215.5625 526.9375 C-215.61212891 525.70966797 -215.66175781 524.48183594 -215.71289062 523.21679688 C-215.7801711 517.26728098 -215.8161725 513.11698554 -211.71484375 508.56640625 C-211.11663818 508.03088135 -210.51843262 507.49535645 -209.90209961 506.94360352 C-205.05459733 501.9903285 -203.50018259 497.50179102 -203.51757812 490.6628418 C-203.51366562 489.96587189 -203.50975311 489.26890198 -203.50572205 488.55081177 C-203.49978083 487.04929693 -203.50285567 485.54772401 -203.5141449 484.04623985 C-203.5315301 481.66078621 -203.52383263 479.27653155 -203.5098877 476.8910675 C-203.48035936 470.96686275 -203.49338297 465.04289272 -203.50506592 459.11865234 C-203.51331047 454.10739753 -203.50516268 449.09666976 -203.47593689 444.08548927 C-203.46890632 441.75112048 -203.48543963 439.41771266 -203.50305176 437.0834198 C-203.50097423 429.01924906 -202.85726206 422.25712832 -199 415 C-198.63627289 414.2840416 -198.27254578 413.56808319 -197.89779663 412.83042908 C-196.92688681 410.94769406 -195.91106484 409.09758331 -194.875 407.25 C-186.95636822 393.09066213 -188.92105606 380.83684118 -191.33660889 365.40246582 C-192.04694444 360.84469784 -192.7193371 356.28125663 -193.3984375 351.71875 C-193.67278666 349.88540695 -193.94719975 348.05207347 -194.22167969 346.21875 C-205.55008646 270.33960248 -205.55008646 270.33960248 -192 252 C-188.49938865 247.81766218 -184.80770237 243.90206235 -181 240 C-180.42507812 239.35160156 -179.85015625 238.70320312 -179.2578125 238.03515625 C-170.49476276 228.38672066 -157.60385395 221.87115528 -146.13720703 216.05517578 C-144.78584434 215.36881627 -143.43675044 214.67797336 -142.08984375 213.98291016 C-140.773566 213.30416482 -139.45215509 212.63525006 -138.125 211.97802734 C-130.60726197 208.09346366 -127.80547544 202.05380693 -124.125 194.8125 C-120.66440214 188.0386799 -116.96591169 181.49061546 -113 175 C-111.86519466 173.11499901 -110.73110182 171.22956893 -109.59765625 169.34375 C-108.41962532 167.39561893 -107.24123695 165.44770396 -106.0625 163.5 C-105.48048828 162.53191406 -104.89847656 161.56382812 -104.29882812 160.56640625 C-100.94461647 155.03177129 -97.43025162 149.6813274 -93.6809082 144.40722656 C-91.00009278 140.56803411 -88.53585391 136.59970863 -86.0625 132.625 C-80.02607677 123.01435413 -73.99601606 113.50033898 -67.0625 104.5 C-66.64677734 103.94812012 -66.23105469 103.39624023 -65.80273438 102.82763672 C-63.76821277 100.15358138 -61.76131956 97.76379477 -59.36328125 95.390625 C-52.62951057 88.24458265 -52.37371332 82.71783486 -52.625 73.125 C-52.74189971 70.96092194 -52.8590743 68.7968587 -52.9765625 66.6328125 C-53.19476483 60.82541895 -51.97325899 57.54676776 -48.4140625 52.953125 C-39.59961254 44.56207657 -26.0320746 45.60578989 -14.5 44.875 C-12.55552979 44.74762451 -12.55552979 44.74762451 -10.57177734 44.61767578 C0.29750614 43.95067567 11.11512319 43.78374417 22 44 C19.21968164 36.36641985 15.63247542 29.45646332 11.5625 22.4375 C10.4385434 20.47801294 9.31484196 18.5183795 8.19140625 16.55859375 C7.65531738 15.62515137 7.11922852 14.69170898 6.56689453 13.72998047 C6.04981934 12.82908691 5.53274414 11.92819336 5 11 C4.24565674 9.68926514 4.24565674 9.68926514 3.47607422 8.35205078 C2.78989014 7.14331299 2.78989014 7.14331299 2.08984375 5.91015625 C1.68499756 5.20125244 1.28015137 4.49234863 0.86303711 3.76196289 C0 2 0 2 0 0 Z M427.6875 58.9375 C427.0180838 58.95938133 426.3486676 58.98126266 425.65896606 59.00380707 C421.27614877 59.1472987 416.89385185 59.30184374 412.51171875 59.46484375 C411.44825729 59.50344009 410.38479584 59.54203644 409.28910828 59.58180237 C405.10061364 59.7518834 400.95826396 59.95626293 396.80126953 60.50878906 C392.74322362 61.03318138 388.75288447 61.25044612 384.66796875 61.39453125 C382.99249597 61.4613249 381.31704107 61.52856833 379.64160156 61.59619141 C378.75541138 61.6310968 377.86922119 61.6660022 376.95617676 61.70196533 C356.86331198 62.50413848 336.80918148 63.73760886 316.75 65.125 C316.08161983 65.17118595 315.41323967 65.2173719 314.72460556 65.26495743 C306.48248372 65.83503808 298.24095119 66.41324593 290 67 C287.86761048 71.78504416 285.73953562 76.57103535 283.66796875 81.3828125 C276.19318182 98.69268775 276.19318182 98.69268775 272.5625 106.375 C267.97968776 116.07725355 263.72414761 125.92440202 259.421875 135.75341797 C257.64210852 139.81717736 255.85657224 143.87837857 254.06958008 147.93896484 C253.18080609 149.9585619 252.29263433 151.97842408 251.4050293 153.99853516 C249.0571782 159.33931016 246.70146427 164.6764425 244.33100891 170.00721741 C237.76297115 184.77821241 231.25938492 199.56876263 225.0625 214.5 C224.80107208 215.12708862 224.53964417 215.75417725 224.27029419 216.40026855 C223.54189134 218.15052442 222.81960492 219.90332205 222.09765625 221.65625 C221.48676147 223.13834961 221.48676147 223.13834961 220.86352539 224.65039062 C219.8850135 226.89566153 219.8850135 226.89566153 220 229 C219.20078125 228.9278125 218.4015625 228.855625 217.578125 228.78125 C210.02957873 228.14334468 202.5738692 227.8771805 195 228 C195.44730469 227.14019531 195.89460937 226.28039062 196.35546875 225.39453125 C199.27781467 219.70668389 202.06830451 214.08430158 204.25 208.0625 C206.87143032 200.99825595 210.1346777 194.28828074 213.41772461 187.51074219 C217.85843181 178.33854522 222.14974419 169.10122358 226.40820312 159.84350586 C229.35054896 153.46950542 232.39023527 147.16030776 235.55102539 140.8918457 C237.8668396 136.26997219 240.08946632 131.6045254 242.3125 126.9375 C242.78469971 125.94943359 243.25689941 124.96136719 243.7434082 123.94335938 C245.98814316 119.24175881 248.22211287 114.53557633 250.4296875 109.81640625 C254.49054818 101.14561565 258.69593651 92.61014134 263.2734375 84.19921875 C264.12808594 82.61560547 264.12808594 82.61560547 265 81 C265.85464844 79.46279297 265.85464844 79.46279297 266.7265625 77.89453125 C268.03817471 74.91322865 268.1095554 73.19222935 268 70 C251.404557 71.29025376 234.82090479 72.67426083 218.25 74.25 C217.14081207 74.35538086 216.03162415 74.46076172 214.88882446 74.56933594 C194.51703582 76.52252965 174.26073396 79.06605902 153.99510193 81.89993286 C145.23642345 83.11978726 136.4634978 84.21625899 127.6885376 85.3114624 C112.72545493 87.18727946 97.83055312 89.24349626 83 92 C82.33635437 92.12288391 81.67270874 92.24576782 80.98895264 92.37237549 C53.82087914 97.40678793 53.82087914 97.40678793 27 104 C25.59500244 104.37825928 25.59500244 104.37825928 24.16162109 104.76416016 C-6.77931242 112.1486804 -6.77931242 112.1486804 -30.98828125 130.9375 C-32.71622974 134.46011315 -33.14546382 137.30906101 -32 141 C-29.94281482 144.56685078 -27.53913342 147.76576445 -25 151 C-24.34 151.99 -23.68 152.98 -23 154 C-22.34 154 -21.68 154 -21 154 C-20.74041504 154.58483154 -20.48083008 155.16966309 -20.21337891 155.7722168 C-18.91356092 158.15870354 -17.51043278 159.73302211 -15.5859375 161.64453125 C-14.56693359 162.66063477 -14.56693359 162.66063477 -13.52734375 163.69726562 C-12.81707031 164.39529297 -12.10679687 165.09332031 -11.375 165.8125 C-10.68792969 166.49892578 -10.00085938 167.18535156 -9.29296875 167.89257812 C-5.28992031 171.86182972 -1.17827969 175.64904473 3.08886719 179.33178711 C6.07061888 181.93453485 8.93371585 184.65963665 11.8125 187.375 C17.67006396 192.85402194 23.70383589 198.02680289 30 203 C30.86109375 203.69480469 31.7221875 204.38960937 32.609375 205.10546875 C36.38272416 208.60403353 36.38272416 208.60403353 41 210 C41 210.66 41 211.32 41 212 C57.33293707 226.12521975 77.78581224 230.14154713 98.6328125 231.91796875 C100.08168602 232.04242874 100.08168602 232.04242874 101.55982971 232.16940308 C116.28115668 233.39613933 131.02580006 234.32621862 145.76635742 235.28710938 C150.1135146 235.57052339 154.46035123 235.85856915 158.80712032 236.1478672 C162.19486798 236.37280422 165.58277549 236.59525418 168.97073555 236.81696701 C170.57463266 236.92223674 172.17847915 237.02828093 173.78227043 237.13515091 C176.01476415 237.28355897 178.24745401 237.42857927 180.48022461 237.57275391 C181.74321884 237.65554596 183.00621307 237.73833801 184.30747986 237.82363892 C188.21606123 238.01031945 192.08773883 238.0295944 196 238 C195.56300781 239.13695312 195.56300781 239.13695312 195.1171875 240.296875 C178.74446332 285.81098876 168.57081749 353.70825491 188.4375 399.125 C197.90888022 419.11031423 213.38381723 433.33352036 231.1875 445.91796875 C256.76631596 464.85339779 275.53337726 489.83280718 288 519 C288.45761719 520.03640625 288.91523437 521.0728125 289.38671875 522.140625 C294.84440729 535.29417088 298.18885506 549.60696093 300.5625 563.625 C302.96744361 576.98274394 307.27912706 586.86154352 317.9375 595.5859375 C326.83378877 601.70213603 337.08919575 603.60166062 347.67471695 603.49219131 C349.34924817 603.49911438 349.34924817 603.49911438 351.05760831 603.50617731 C354.78313641 603.51673064 358.5079673 603.49884894 362.23345947 603.48101807 C364.93732849 603.48276317 367.64115326 603.48609857 370.34501338 603.49137473 C376.21560605 603.49964222 382.08603603 603.4931419 387.95660973 603.4768219 C396.68582205 603.45262263 405.4149324 603.45148415 414.14417216 603.45498985 C428.83004525 603.46023861 443.5158462 603.44690588 458.2016983 603.42292023 C472.7389283 603.39923826 487.27612824 603.38385364 501.81337738 603.37950897 C502.71783695 603.37923401 503.62229652 603.37895906 504.55416396 603.37867576 C509.14760576 603.3773224 513.74104758 603.37611688 518.33448943 603.37496826 C550.85533761 603.36657044 583.37614657 603.3396317 615.89697266 603.30175781 C647.48713981 603.26501029 679.07729622 603.23668063 710.66748047 603.21972656 C711.64152067 603.21920046 712.61556086 603.21867435 713.61911743 603.21813231 C723.40098206 603.21285815 733.18284678 603.2077549 742.96471157 603.20277687 C762.89084263 603.19263248 782.81697299 603.18134747 802.74310303 603.16937256 C803.65923981 603.1688234 804.5753766 603.16827424 805.51927511 603.16770844 C866.67953307 603.13091642 927.83976921 603.06753685 989 603 C989.8063529 601.10163395 990.60892067 599.20165986 991.40991211 597.30102539 C991.85725204 596.24315323 992.30459198 595.18528107 992.76548767 594.09535217 C994.42166647 589.94273538 995.5734587 585.79016284 996.5625 581.4375 C996.86764526 580.12942383 996.86764526 580.12942383 997.17895508 578.79492188 C999.58672907 568.02522969 1001.06227891 557.099589 1002.55004883 546.17211914 C1002.97632138 543.16693235 1003.46489419 540.17791406 1003.9609375 537.18359375 C1005.56200319 526.86595844 1006.4280387 516.45088276 1007.4375 506.0625 C1007.65823613 503.81295956 1007.8792668 501.563448 1008.10058594 499.31396484 C1008.4300086 495.96503133 1008.75915251 492.61607326 1009.08682251 489.26696777 C1009.69147404 483.09389884 1010.31093217 476.92277134 1010.95703125 470.75390625 C1012.15712706 459.23979954 1013.29483444 447.76728817 1013.70996094 436.19384766 C1013.82617126 432.97654339 1014.01519792 429.89750526 1014.48828125 426.70703125 C1018.93010961 394.52920592 1017.1511296 359.45837523 1015.1875 327.125 C1015.11748779 325.94768311 1015.04747559 324.77036621 1014.9753418 323.55737305 C1014.26402555 313.60958338 1012.65000312 303.82659783 1011 294 C1011.86180122 294.07516846 1011.86180122 294.07516846 1012.74101257 294.15185547 C1045.85068112 297.23252703 1045.85068112 297.23252703 1079.0625 298.375 C1080.16231201 298.37628906 1081.26212402 298.37757813 1082.39526367 298.37890625 C1091.33647727 298.25406265 1099.81384022 297.78398226 1107 292 C1107.61875 291.566875 1108.2375 291.13375 1108.875 290.6875 C1110.88488494 287.67267259 1110.51980813 285.52314397 1110 282 C1106.87313533 275.75898149 1101.40283045 271.62737799 1096.0234375 267.39453125 C1093.49431717 265.39149409 1091.04223247 263.3292515 1088.60766602 261.21337891 C1081.14322473 254.74789192 1073.27256196 248.86964066 1065.34765625 242.984375 C1059.83955168 238.89316253 1054.38684599 234.7314811 1048.9375 230.5625 C1042.02168033 225.28159037 1035.08552195 220.05191293 1028 215 C1026.90875036 214.218895 1025.81761182 213.43763478 1024.7265625 212.65625 C1022.35743951 210.96076273 1019.98610599 209.26842718 1017.61328125 207.578125 C1015.21025908 205.86567125 1012.81214334 204.14667528 1010.41796875 202.421875 C1004.15736693 197.91716962 997.85001211 193.52044876 991.41015625 189.2734375 C986.17533882 185.80494982 981.01664714 182.22228825 975.84887695 178.6550293 C972.2252585 176.16357834 968.59218193 173.7206328 964.84765625 171.4140625 C961.15696021 169.13543098 957.67602407 166.63598486 954.1875 164.0625 C949.30016231 160.51357095 944.39491985 157.46384781 939.0234375 154.68359375 C934.47908518 152.15308231 930.181164 149.24775608 925.89135742 146.30883789 C919.34204543 141.93915999 912.31066596 138.57881487 905.25857544 135.11773682 C901.34275866 133.17985486 897.45701061 131.1831776 893.56640625 129.1953125 C875.33582673 119.92008342 857.24807476 110.99812178 838 104 C836.9692334 103.6184375 835.9384668 103.236875 834.87646484 102.84375 C807.80306584 92.74456096 807.80306584 92.74456096 780 85 C777.66648086 84.3965514 775.33316812 83.79230438 773 83.1875 C716.54366165 68.9956471 654.36463164 58.24026236 596 60 C595.9729957 61.45823212 595.95360213 62.91660675 595.9375 64.375 C595.92009766 65.59316406 595.92009766 65.59316406 595.90234375 66.8359375 C595.85533666 69.04937142 595.85533666 69.04937142 597 71 C599.80645968 71.47135031 599.80645968 71.47135031 603.30078125 71.640625 C604.71712945 71.73923798 606.13347015 71.83795858 607.54980469 71.93676758 C608.70530823 72.01213242 608.70530823 72.01213242 609.88415527 72.08901978 C614.16581518 72.37286027 618.44413622 72.69997239 622.72265625 73.02734375 C623.67091278 73.09978806 624.61916931 73.17223236 625.59616089 73.24687195 C659.01464221 75.84524808 692.53984173 78.63269276 725.42578125 85.29736328 C729.47627276 86.09362794 733.53776447 86.80227665 737.60546875 87.50390625 C744.6580749 88.73054288 751.65031396 90.13175243 758.625 91.75 C759.72328125 92.00386475 760.8215625 92.25772949 761.953125 92.51928711 C771.32076373 94.73804465 780.49052727 97.45246338 789.66796875 100.34765625 C793.78275591 101.6424367 797.91425637 102.81044147 802.08447266 103.91162109 C811.29037535 106.34272185 820.01108584 109.57259596 828.83154297 113.14013672 C831.59749912 114.23692771 834.3886966 115.2550313 837.18530273 116.27050781 C844.91801946 119.08789076 852.37356878 122.35148176 859.78417969 125.93261719 C862.30169758 127.14533074 864.82628306 128.342597 867.3515625 129.5390625 C884.85914902 137.84774763 902.2777977 146.18911172 919 156 C921.32968957 157.3397365 923.66473849 158.67000495 926 160 C929.61149841 162.06022345 933.21965211 164.12509431 936.81640625 166.2109375 C937.44353516 166.57316406 938.07066406 166.93539062 938.71679688 167.30859375 C940.45958808 168.31553978 942.20055556 169.32564034 943.94140625 170.3359375 C948.98787478 173.08152574 952.24092036 174.09783765 958 174 C958.11593506 174.80219971 958.23187012 175.60439941 958.35131836 176.4309082 C958.87720824 180.05852342 959.40730296 183.68551191 959.9375 187.3125 C960.11990234 188.57513672 960.30230469 189.83777344 960.49023438 191.13867188 C960.66748047 192.34716797 960.84472656 193.55566406 961.02734375 194.80078125 C961.18968506 195.91622314 961.35202637 197.03166504 961.51928711 198.1809082 C961.93786955 201.06737538 961.93786955 201.06737538 963 204 C960.70800823 203.85936865 958.41640814 203.71234057 956.125 203.5625 C954.21074219 203.44068359 954.21074219 203.44068359 952.2578125 203.31640625 C949 203 949 203 947 202 C946.94643415 199.66690951 946.90740945 197.33348027 946.875 195 C946.59275192 191.32469578 946.20881457 188.2201119 943.53710938 185.5234375 C939.66517766 182.78833514 935.37825225 180.86094833 931.05810547 178.94238281 C928.1504635 177.61100701 925.43209485 176.01237984 922.6875 174.375 C921.25083984 173.53582031 921.25083984 173.53582031 919.78515625 172.6796875 C917.02171329 171.01309497 914.32434259 169.26812833 911.625 167.5 C906.56523627 164.24935407 901.32809383 161.57857087 895.92578125 158.9453125 C892.27826248 157.15850541 888.69369471 155.2640331 885.10986328 153.35327148 C843.5700828 131.21853863 798.85031812 114.54071187 753 104 C751.93426758 103.74959961 750.86853516 103.49919922 749.77050781 103.24121094 C731.757369 99.04947423 713.43928316 96.41659511 695.16699219 93.63720703 C691.80939021 93.12584973 688.45478881 92.59800466 685.1015625 92.05859375 C662.67689627 88.48539581 640.07209639 86.64771845 617.42285156 85.22167969 C611.61305116 84.84541016 605.80659359 84.42251721 600 84 C600.42365416 92.50137655 601.35866852 100.45650105 603.14770508 108.78442383 C604.02651807 113.01593683 604.7235195 117.26463681 605.3828125 121.53515625 C605.50990601 122.34962219 605.63699951 123.16408813 605.76794434 124.00323486 C607.23038935 133.41376025 608.64786314 142.83114601 610.05224609 152.25048828 C610.49756947 155.23371787 610.94601568 158.21646766 611.39453125 161.19921875 C613.02985197 172.13054569 614.57610809 183.06663391 615.93566895 194.03607178 C616.75125894 200.50342474 617.82101388 206.90210449 619 213.3125 C621.2579898 225.80802178 622.67669783 238.37527046 624 251 C619.37480894 250.71133164 614.74983546 250.41930528 610.125 250.125 C609.43059814 250.08086975 608.73619629 250.0367395 608.02075195 249.99127197 C597.10224047 249.29448614 586.19347032 248.51036949 575.28955078 247.60986328 C574.29681152 247.52978027 573.30407227 247.44969727 572.28125 247.3671875 C571.42595703 247.29612793 570.57066406 247.22506836 569.68945312 247.15185547 C566.45603153 246.96928573 563.23784835 246.97655902 560 247 C559.97812622 245.1135376 559.97812622 245.1135376 559.95581055 243.18896484 C559.49183788 205.37374036 558.16251214 167.61997847 556.62429237 129.83604813 C555.98985418 114.2268512 555.47174181 98.61490786 555 83 C487.05386298 82.5912861 418.79855435 82.3543412 351.02929688 87.83673096 C347.79108375 88.09726453 344.55175685 88.34264188 341.3125 88.58984375 C339.54165672 88.72643355 337.77081897 88.86309535 336 89 C335.76276485 101.74479967 336.42834345 114.39413364 337.16830444 127.11404419 C338.37190678 147.92252131 339.39146365 168.73451611 340.1875 189.5625 C340.25127838 191.16996597 340.25127838 191.16996597 340.31634521 192.80990601 C340.89666336 207.54688759 341.10097257 222.25196307 341 237 C337.7 237 334.4 237 331 237 C330.96685699 236.29067322 330.93371399 235.58134644 330.89956665 234.8505249 C330.51133968 226.5491023 330.12082202 218.24778888 329.72872162 209.94654846 C329.65968159 208.48446406 329.59069644 207.02237708 329.52176666 205.56028748 C328.68245221 187.75922977 327.80527545 169.96308886 326.75204468 152.17318726 C326.02128798 139.70440806 325.61547353 127.23556541 325.34130859 114.74902344 C325.15249497 106.47110732 324.73604993 98.24853075 324 90 C311.61930915 90.60941224 299.32524361 91.68717674 287 93 C287.28875 92.15695312 287.5775 91.31390625 287.875 90.4453125 C288.24625 89.34960938 288.6175 88.25390625 289 87.125 C289.37125 86.03445313 289.7425 84.94390625 290.125 83.8203125 C291.098772 81.17379146 291.098772 81.17379146 291 79 C295.375 78.70833333 299.75 78.41666667 304.125 78.125 C305.30449219 78.04636719 306.48398437 77.96773437 307.69921875 77.88671875 C309.67079517 77.75528032 311.64238021 77.62396357 313.61407471 77.49430847 C318.14448893 77.19525143 322.67353123 76.881101 327.20214844 76.5559082 C347.85360762 75.09608164 368.51879919 74.10981717 389.20068359 73.19506836 C393.05271781 73.02465018 396.90459227 72.85116853 400.75634766 72.67456055 C439.73372705 70.88746779 478.67950315 69.9030489 517.69421387 69.46777344 C522.26882307 69.41611354 526.84339347 69.36120842 531.41796875 69.30664062 C540.27861238 69.2013927 549.13929001 69.09950447 558 69 C558 65.37 558 61.74 558 58 C492.83485437 57.64907747 492.83485437 57.64907747 427.6875 58.9375 Z " fill="#030403" transform="translate(375,658)"/>
<path d="M0 0 C12.43252738 -0.25247594 24.7875342 0.43442213 37.19482422 1.171875 C40.59700593 1.37334227 43.99960185 1.56606718 47.40234375 1.7578125 C58.34537348 2.38840789 69.24607705 3.16568448 80.151474 4.26939392 C89.89498918 5.23131614 99.66133259 5.73523063 109.43634033 6.26150513 C126.03436055 7.16000497 142.59794835 8.18947501 159.14691162 9.75360107 C170.80691436 10.85432464 182.4609678 11.64692456 194.15478516 12.26586914 C201.38113196 12.66213456 208.56110844 13.22138902 215.76171875 13.9375 C227.4434861 15.09529249 239.14442485 15.89174161 250.85546875 16.68847656 C284.53362776 18.98963695 284.53362776 18.98963695 301.18676758 20.85742188 C312.50186762 22.10916998 323.84159449 23.0145742 335.1875 23.9375 C357.47904861 25.75352827 379.74182874 27.81493331 402 30 C402.48450602 34.04104459 402.96157252 38.08293684 403.4375 42.125 C403.57220703 43.24777344 403.70691406 44.37054687 403.84570312 45.52734375 C404.04389648 47.21923828 404.04389648 47.21923828 404.24609375 48.9453125 C404.36654053 49.96125488 404.4869873 50.97719727 404.61108398 52.02392578 C405.75429567 63.71152501 406.15047851 75.31006091 406.1328125 87.04296875 C406.13348944 88.66221633 406.13446268 90.28146382 406.13571167 91.90071106 C406.13717579 95.28171768 406.13507955 98.66269768 406.13037109 102.04370117 C406.12473321 106.29033813 406.12804045 110.53691174 406.13377953 114.78354645 C406.16929081 145.12562422 405.03872973 175.15967285 402.3248291 205.38250732 C402.05823942 208.37419077 401.79972905 211.36655018 401.54114437 214.3589344 C400.01822437 231.94887925 398.24869821 249.48560608 396 267 C395.82833356 268.37282886 395.65706064 269.74570703 395.48632812 271.11865234 C393.83456871 284.15263499 391.75068432 297.03837636 388.9375 309.875 C388.69217529 311.00405762 388.44685059 312.13311523 388.1940918 313.29638672 C385.38255654 325.61744346 385.38255654 325.61744346 381 330 C378.24449956 330.24839699 378.24449956 330.24839699 374.64751244 330.24609566 C373.65381974 330.24955719 373.65381974 330.24955719 372.64005244 330.25308865 C370.39847591 330.25842364 368.15718109 330.24937588 365.9156189 330.24050903 C364.30109516 330.24138039 362.68657169 330.24313007 361.07204974 330.24568737 C356.61851722 330.25017871 352.16508012 330.24213281 347.71155977 330.23213124 C342.91536738 330.22352466 338.11918073 330.22641492 333.32298279 330.22793579 C325.00762015 330.22898642 316.69228881 330.22269131 308.37693405 330.21146011 C296.3542101 330.19523207 284.33150135 330.18999988 272.30876763 330.18748413 C252.80446931 330.18310278 233.30018769 330.16978178 213.79589844 330.15087891 C194.84505294 330.13253147 175.89421196 330.11836941 156.94335938 330.10986328 C155.77596955 330.10933783 154.60857973 330.10881239 153.40581445 330.10827102 C147.54958389 330.10566101 141.6933533 330.10313358 135.83712268 330.10064721 C87.22473691 330.07990102 38.61236927 330.04466355 -10 330 C-9.84268992 328.55804303 -9.68455754 327.11617575 -9.52607727 325.67434692 C-9.43810536 324.87139757 -9.35013346 324.06844822 -9.25949574 323.24116707 C-8.9706701 320.74668872 -8.59461886 318.27920792 -8.16796875 315.8046875 C-5.00082287 296.76436013 -3.01911036 277.65132686 -1.22784424 258.44073486 C-1.00952443 256.10202856 -0.78787484 253.76365641 -0.56591797 251.42529297 C1.13446662 233.32918462 2.30841367 215.21814944 3.0703125 197.05859375 C3.11374535 196.02373903 3.15717819 194.98888432 3.20192719 193.92267036 C4.23724699 168.50147431 4.30638204 143.08502428 4.26074219 117.64624023 C4.24924533 111.17812785 4.25619334 104.71017825 4.26762962 98.24207115 C4.31698426 65.29717592 3.7016039 32.76313236 0 0 Z " fill="#040403" transform="translate(973,920)"/>
<path d="M0 0 C33.8531204 -0.58890749 67.6852471 1.43128785 101.44839478 3.69793701 C115.7944369 4.65879124 130.13271146 5.3859478 144.5 5.9375 C165.42349456 6.74398166 186.30743219 8.03314502 207.19989681 9.40168858 C224.04770606 10.50525867 240.89308038 11.55035432 257.76000977 12.31640625 C265.35402667 12.68034715 272.89363247 13.2403654 280.4609375 13.9609375 C292.64561546 15.1166877 304.84309602 15.82654763 317.0625 16.5 C319.33375964 16.62840074 321.60499967 16.75714868 323.8762207 16.88623047 C334.43960849 17.4837253 345.0040355 18.05759823 355.5703125 18.6015625 C356.88433296 18.66987274 356.88433296 18.66987274 358.22489929 18.73956299 C362.28190284 18.95045919 366.33900284 19.15698501 370.39672852 19.35351562 C371.81006758 19.42560522 373.22339825 19.49785981 374.63671875 19.5703125 C375.85061279 19.62977051 377.06450684 19.68922852 378.31518555 19.75048828 C381 20 381 20 382 21 C383.28453436 30.22690365 383.4660349 39.6985208 384 49 C384.07054596 50.22807373 384.07054596 50.22807373 384.14251709 51.48095703 C387.68979185 114.35531297 386.23359132 177.15407544 383 240 C382.90945343 241.76981232 382.90945343 241.76981232 382.81707764 243.57537842 C381.14226166 275.88603451 378.14433818 308.07751081 373.40625 340.08984375 C373.28125122 340.93986465 373.15625244 341.78988556 373.02746582 342.66566467 C372.90818726 343.45267258 372.78890869 344.23968048 372.66601562 345.05053711 C372.50921326 346.08868813 372.50921326 346.08868813 372.34924316 347.14781189 C372 349 372 349 371 352 C340.62974856 352.13702547 310.25952921 352.24313518 279.88903908 352.30639198 C276.29939794 352.31389576 272.70975741 352.32166174 269.12011719 352.32958984 C268.40551737 352.33116371 267.69091755 352.33273757 266.95466319 352.33435912 C255.40052511 352.36043094 243.84656708 352.40771829 232.29253563 352.46291678 C220.42735872 352.51912683 208.56227577 352.55237394 196.69697118 352.56453097 C190.03642914 352.57200805 183.37621468 352.59066547 176.71578217 352.63438034 C170.44158306 352.67522504 164.16795805 352.68764469 157.89363861 352.67864609 C155.59591549 352.68029139 153.29817239 352.69215479 151.00056458 352.71523285 C136.86033771 352.85024878 125.78131713 352.81288208 115.0625 342.4375 C108.42081515 333.79047552 106.53804952 323.27865564 104.25 312.875 C96.06410731 275.73853975 81.24927316 244.51812021 55 217 C54.31164062 216.27039062 53.62328125 215.54078125 52.9140625 214.7890625 C48.16373034 209.88361746 42.99998349 205.59770554 37.66894531 201.33935547 C35.7894585 199.83103706 33.9214827 198.309153 32.0546875 196.78515625 C22.35778706 188.86547182 22.35778706 188.86547182 12.40625 181.26953125 C11.9421875 180.85058594 11.478125 180.43164062 11 180 C11 179.34 11 178.68 11 178 C10.34 178 9.68 178 9 178 C-7.77998935 159.78529037 -14.99582284 135.90821486 -15.23828125 111.40234375 C-15.24802979 110.58360275 -15.25777832 109.76486176 -15.26782227 108.92131042 C-15.45989095 88.53958182 -14.50041292 69.11816266 -11 49 C-10.80744629 47.83307617 -10.61489258 46.66615234 -10.41650391 45.46386719 C-7.86427406 30.03108552 -4.44381201 14.99757788 0 0 Z " fill="#040402" transform="translate(581,898)"/>
<path d="M0 0 C22.25802786 17.3397321 36.35122578 41.99087805 43.3125 69.0625 C43.63476562 70.24585938 43.95703125 71.42921875 44.2890625 72.6484375 C52.31816207 107.24110015 44.31329993 143.6596791 26.1003418 173.50561523 C19.31099989 184.26883866 11.2433027 194.06164575 1.3125 202.0625 C0.50554687 202.76761719 -0.30140625 203.47273438 -1.1328125 204.19921875 C-25.04285815 224.72839789 -55.05521545 232.53031014 -86 232.4375 C-87.08175507 232.43618576 -87.08175507 232.43618576 -88.18536377 232.43484497 C-99.4555304 232.38982163 -109.93912588 231.63425172 -120.6875 228.0625 C-121.44595215 227.82112305 -122.2044043 227.57974609 -122.98583984 227.33105469 C-141.25373076 221.42380503 -159.65238441 212.89247934 -173.015625 198.765625 C-174.7921313 196.95591297 -176.67366055 195.36855288 -178.625 193.75 C-198.43558868 176.53002677 -212.50769486 146.02244689 -214.6875 120.0625 C-216.98216164 80.03962106 -208.06668905 45.21342381 -181.1875 14.875 C-179.69181018 13.26681386 -178.19196167 11.66248305 -176.6875 10.0625 C-176.04941406 9.33675781 -175.41132812 8.61101562 -174.75390625 7.86328125 C-160.04136261 -8.11115697 -136.67490886 -20.0687993 -115.6875 -24.9375 C-114.57568359 -25.20385254 -114.57568359 -25.20385254 -113.44140625 -25.47558594 C-72.9223922 -34.96522864 -32.87560498 -24.94141231 0 0 Z " fill="#020303" transform="translate(1649.6875,1156.9375)"/>
<path d="M0 0 C1.09322067 -0.01872414 1.09322067 -0.01872414 2.20852661 -0.03782654 C23.08168115 -0.32581324 43.51297069 0.10604087 62.34765625 10.2734375 C63.58181997 10.86012629 64.81907585 11.44033446 66.05859375 12.015625 C93.59024766 24.94982537 117.92443574 47.98515214 129.57128906 76.38623047 C130.34163182 78.2587932 131.15207502 80.11037807 131.96484375 81.96484375 C144.82965673 112.43829543 143.22789805 149.1272523 131.32421875 179.625 C128.20677074 187.14760571 124.55442465 194.30388364 120.34765625 201.2734375 C119.98897461 201.86785645 119.63029297 202.46227539 119.26074219 203.07470703 C109.27195256 219.15366985 94.90751557 233.15983071 78.34765625 242.2734375 C77.14643932 242.97145972 75.94593231 243.67070489 74.74609375 244.37109375 C45.8905904 260.85886083 9.55232478 265.49026651 -22.65234375 257.2734375 C-23.34005859 257.10714844 -24.02777344 256.94085937 -24.73632812 256.76953125 C-57.35817505 248.76962329 -85.28561216 227.05511963 -102.97607422 198.75585938 C-115.54257186 177.78708541 -120.92450504 155.38288339 -120.96484375 131.1484375 C-120.96833832 130.47642303 -120.97183289 129.80440857 -120.97543335 129.11203003 C-121.0729422 95.25169314 -109.38188101 63.77874809 -85.65234375 39.2734375 C-84.99234375 39.2734375 -84.33234375 39.2734375 -83.65234375 39.2734375 C-83.32234375 38.2834375 -82.99234375 37.2934375 -82.65234375 36.2734375 C-60.72872733 15.74242829 -30.40337347 0.47818133 0 0 Z " fill="#020302" transform="translate(495.65234375,1128.7265625)"/>
<path d="M0 0 C1.6648577 1.28828275 3.31314758 2.59850679 4.9375 3.9375 C5.55625 4.4428125 6.175 4.948125 6.8125 5.46875 C21.0861287 18.42074641 29.57506709 38.66479529 31.25390625 57.484375 C32.03465131 80.95709739 23.12468496 101.90459717 7.3125 119.0625 C-8.062336 133.77280478 -28.91980257 141.58625468 -49.99194336 141.27368164 C-55.86238661 141.09166558 -61.41453994 140.63188802 -67.0625 138.9375 C-67.97515625 138.69257812 -68.8878125 138.44765625 -69.828125 138.1953125 C-90.57096044 132.05934285 -106.87642178 117.58583441 -117.3125 98.8125 C-126.06376217 82.05960255 -128.63758238 60.58764931 -122.96875 42.34765625 C-122.6696875 41.55230469 -122.370625 40.75695313 -122.0625 39.9375 C-121.7840625 39.19371094 -121.505625 38.44992187 -121.21875 37.68359375 C-120.26119268 35.37637589 -119.18838217 33.16747307 -118.0625 30.9375 C-117.33933594 29.44089844 -117.33933594 29.44089844 -116.6015625 27.9140625 C-106.51721501 7.98208929 -91.02940641 -4.9016315 -70.13867188 -12.32519531 C-45.87311604 -20.21207165 -20.43025347 -14.36545866 0 0 Z " fill="#FAFBFA" transform="translate(1613.0625,1197.0625)"/>
<path d="M0 0 C0.9686499 0.00491455 1.9372998 0.0098291 2.93530273 0.01489258 C10.37776874 0.13622699 17.15027023 0.98054089 24.25 3.3125 C25.3225 3.64121094 26.395 3.96992187 27.5 4.30859375 C35.97438411 7.19667984 42.39272066 11.63273327 49.25 17.3125 C49.96800781 17.86679688 50.68601562 18.42109375 51.42578125 18.9921875 C65.40104452 30.25081643 75.03165013 47.57578449 77.25 65.3125 C79.27949414 89.25824193 75.21991524 110.40557089 59.4375 129.125 C52.69994752 136.23318405 44.88832606 142.65518186 36.25 147.3125 C34.85394531 148.06853516 34.85394531 148.06853516 33.4296875 148.83984375 C15.3698182 157.91415154 -5.40639504 159.05885087 -24.55078125 152.859375 C-44.03140774 145.97813668 -60.44508338 131.56846837 -69.33984375 112.9921875 C-74.51933846 101.46812837 -77.31195914 90.64714859 -77.1875 77.9375 C-77.17992676 76.84477783 -77.17235352 75.75205566 -77.16455078 74.6262207 C-76.99389355 66.24221722 -76.02064944 59.10703839 -72.75 51.3125 C-72.32589844 50.29542969 -71.90179688 49.27835938 -71.46484375 48.23046875 C-62.37198434 28.49972369 -46.10387678 12.44625698 -25.9375 4.375 C-17.29926334 1.19129058 -9.18213003 -0.05530921 0 0 Z " fill="#FBFBFA" transform="translate(504.75,1181.6875)"/>
<path d="M0 0 C1.01449219 0.2165625 2.02898437 0.433125 3.07421875 0.65625 C15.19741923 3.56166752 24.60247814 8.7910684 32 19 C33.21791109 22.65373328 33.26104675 26.06745986 33.3125 29.875 C33.35600586 30.93654297 33.35600586 30.93654297 33.40039062 32.01953125 C33.44562147 35.75629469 33.11417977 37.81872491 31.10546875 41.0078125 C29 43 29 43 27 43 C28.34324024 47.35806835 29.94248859 49.05396237 33.75 51.5 C34.63945313 52.098125 35.52890625 52.69625 36.4453125 53.3125 C37.96041032 54.31329856 39.47588654 55.31352525 40.9921875 56.3125 C42.625 57.5 42.625 57.5 45 60 C45.1484375 63.65625 45.1484375 63.65625 45 67 C31.1404655 67.80866004 17.59901808 65.68988263 3.91191101 63.79753113 C-1.49380509 63.05478762 -6.90735667 62.41318649 -12.32885742 61.79833984 C-42.30168654 58.38777387 -42.30168654 58.38777387 -49 53 C-56.67578227 43.02148305 -55.98757466 31.20189128 -54.5390625 19.171875 C-52.9736317 11.39997151 -50.15964716 4.59888989 -44.05859375 -0.6796875 C-32.9335059 -7.81494308 -12.09655635 -2.73597505 0 0 Z " fill="#040504" transform="translate(1333,871)"/>
<path d="M0 0 C1.48342896 0.10501831 1.48342896 0.10501831 2.99682617 0.2121582 C7.87980915 0.64158669 11.49565605 1.09092046 15.5 4.1875 C15.00975611 10.7763779 13.73032414 16.10980542 11.1875 22.1875 C10.84211182 23.02764648 10.49672363 23.86779297 10.14086914 24.73339844 C7.08014333 32.04620223 3.80062442 39.2594487 0.4375 46.4375 C-0.04436768 47.48421875 -0.52623535 48.5309375 -1.02270508 49.609375 C-5.12549872 58.18662468 -9.78519631 66.05793126 -19.046875 69.5546875 C-24.57286817 70.98018255 -29.72473931 71.4419522 -35.0234375 69.046875 C-42.43261546 64.36998526 -47.19896669 58.78381313 -49.5 50.1875 C-51.819193 39.34412082 -52.566795 28.3749892 -52.75 17.3125 C-52.782146 16.24189331 -52.782146 16.24189331 -52.81494141 15.1496582 C-52.84507114 10.39753021 -51.99347271 7.22426286 -49.5 3.1875 C-39.19246129 -6.15370695 -13.09672713 -1.01105793 0 0 Z " fill="#F8F8F8" transform="translate(1826.5,1153.8125)"/>
<path d="M0 0 C1.49153494 0.00502856 2.98307154 0.00958905 4.47460938 0.01367188 C8.08727462 0.02456196 11.69987632 0.04175064 15.3125 0.0625 C15.49312988 0.77567383 15.67375977 1.48884766 15.85986328 2.22363281 C20.08680763 18.85904866 24.5588813 35.36075936 29.796875 51.70703125 C30.03132324 52.44284424 30.26577148 53.17865723 30.50732422 53.93676758 C30.94575968 55.30699642 31.38968642 56.67548627 31.84033203 58.04174805 C32.88022725 61.27645111 33.3125 63.6071229 33.3125 67.0625 C31.01775505 68.20987248 29.69379171 68.20067671 27.14160156 68.22363281 C26.28020569 68.23324036 25.41880981 68.2428479 24.53131104 68.25274658 C23.13135895 68.2591214 23.13135895 68.2591214 21.703125 68.265625 C20.74355896 68.27132507 19.78399292 68.27702515 18.79534912 68.28289795 C16.76103826 68.29235602 14.72671202 68.29888512 12.69238281 68.30273438 C9.58891783 68.31241757 6.48612133 68.3434242 3.3828125 68.375 C1.40625393 68.38153229 -0.57030937 68.38678187 -2.546875 68.390625 C-3.9346817 68.4091452 -3.9346817 68.4091452 -5.3505249 68.42803955 C-10.54833866 68.41019164 -14.20726108 68.00535879 -18.6875 65.0625 C-22.19033679 60.44992828 -22.65237344 55.80396077 -23.40185547 50.1953125 C-23.61019706 48.63969532 -23.82645069 47.0851318 -24.04736328 45.53125 C-26.14660619 30.71428891 -27.30551878 16.02096899 -27.6875 1.0625 C-18.45511312 -0.03626924 -9.27846021 -0.05492666 0 0 Z " fill="#F6F7F7" transform="translate(216.6875,975.9375)"/>
<path d="M0 0 C4.16732448 3.18463661 8.0790931 7.22068619 10.4375 11.9375 C12.36838288 12.45040184 12.36838288 12.45040184 14.69921875 12.68359375 C15.57126953 12.79896484 16.44332031 12.91433594 17.34179688 13.03320312 C19.17755257 13.25864681 21.01348737 13.48263754 22.84960938 13.70507812 C27.90653426 14.376614 32.05396739 15.12789721 36.4375 17.9375 C38.69403289 21.32229933 38.52723148 22.9479722 38.21484375 26.90234375 C37.0401764 29.97772912 35.13354019 31.11302252 32.4375 32.9375 C29.57495117 33.48339844 29.57495117 33.48339844 26.48046875 33.546875 C25.36865234 33.57910156 24.25683594 33.61132812 23.11132812 33.64453125 C21.3855957 33.66580078 21.3855957 33.66580078 19.625 33.6875 C18.45517578 33.71714844 17.28535156 33.74679687 16.08007812 33.77734375 C13.19914991 33.84789709 10.31902422 33.90066729 7.4375 33.9375 C7.15261719 34.69804688 6.86773438 35.45859375 6.57421875 36.2421875 C4.51250558 41.13078573 1.81932241 44.09148628 -2.625 46.8125 C-8.96606187 49.12463391 -16.70511654 49.15985012 -22.875 46.375 C-27.81258986 43.47416596 -32.37981583 39.48453455 -34.80859375 34.25390625 C-36.42623512 31.57424307 -36.42623512 31.57424307 -39.890625 31.3359375 C-41.18484375 31.32820312 -42.4790625 31.32046875 -43.8125 31.3125 C-53.91941642 30.99771418 -53.91941642 30.99771418 -58.5625 27.9375 C-61.0929112 24.4581846 -61.57298573 22.55615829 -61.5 18.25 C-60.43833424 14.49878098 -59.83472791 13.84808654 -56.5625 11.9375 C-54.30761719 11.64794922 -54.30761719 11.64794922 -51.859375 11.7421875 C-50.96500732 11.75338623 -50.07063965 11.76458496 -49.14916992 11.77612305 C-47.74501831 11.79412964 -47.74501831 11.79412964 -46.3125 11.8125 C-39.10985 11.82303508 -39.10985 11.82303508 -32.68359375 9.01953125 C-30.83656065 6.73219531 -29.21170742 4.36880579 -27.5625 1.9375 C-20.6670924 -4.07225892 -7.73580943 -4.50137658 0 0 Z " fill="#FAFAF9" transform="translate(654.5625,945.0625)"/>
<path d="M0 0 C3.61077677 3.2745506 6.05598883 6.15266175 7 11 C8.216875 10.95875 9.43375 10.9175 10.6875 10.875 C27.90738434 10.92957967 27.90738434 10.92957967 34 17 C34.68262444 21.17159379 34.45740064 23.22072483 32.3125 26.875 C27.75723385 31.06092024 21.10107468 30.2935007 15.1875 30.5625 C14.30384766 30.60568359 13.42019531 30.64886719 12.50976562 30.69335938 C10.34000377 30.79891536 8.1700209 30.89991071 6 31 C5.80531128 31.93271729 5.80531128 31.93271729 5.60668945 32.88427734 C4.79683637 35.7084974 3.41713397 36.74697807 1.1875 38.625 C0.50042969 39.21539063 -0.18664063 39.80578125 -0.89453125 40.4140625 C-7.12806069 45.10944832 -13.40121353 44.66227955 -21 44 C-25.13245548 42.95191347 -27.30742204 40.91905388 -29.8515625 37.54296875 C-34.25297137 31.71976486 -34.25297137 31.71976486 -40.921875 29.234375 C-43.70330491 29.05128949 -46.44596546 29.09082543 -49.23046875 29.16015625 C-54.46232833 28.93786999 -57.60943715 27.31737533 -61.375 23.75 C-63.4786591 20.18996152 -63.59226962 18.07185364 -63 14 C-61.13291495 11.63502561 -59.67938569 10.33969285 -57 9 C-55.49810902 8.95371008 -53.99431472 8.96214367 -52.4921875 9 C-42.28327548 9.42236542 -42.28327548 9.42236542 -33.0078125 6.0390625 C-30.97600098 3.70620334 -30.97600098 3.70620334 -29.5 1.2265625 C-27.31161151 -2.02182667 -24.63313671 -3.47218015 -20.9453125 -4.6640625 C-12.85426081 -6.06131239 -6.83779517 -4.63579333 0 0 Z " fill="#FAFAFA" transform="translate(1055,965)"/>
<path d="M0 0 C-0.29068666 2.06263835 -0.58262063 4.12510091 -0.875 6.1875 C-1.1335894 8.01609644 -1.391995 9.84471948 -1.64868164 11.67358398 C-1.91030754 13.40606015 -2.20055121 15.13426187 -2.50561523 16.85961914 C-3.94982999 25.30306902 -4.34627803 33.5039924 -4.3125 42.0625 C-4.31233887 42.74256104 -4.31217773 43.42262207 -4.31201172 44.12329102 C-4.28850943 58.54530164 -2.90881812 72.70417068 -1 87 C-6.82071622 87.02464638 -12.64140234 87.0428343 -18.4621582 87.05493164 C-20.44393441 87.05997267 -22.42570689 87.06680538 -24.4074707 87.07543945 C-27.24952109 87.08751515 -30.09152247 87.09323045 -32.93359375 87.09765625 C-34.27108925 87.10539818 -34.27108925 87.10539818 -35.63560486 87.11329651 C-37.75740601 87.11349177 -39.8791078 87.0621003 -42 87 C-43.90992422 85.09007578 -43.1306086 81.67006939 -43.1328125 79.140625 C-43.13376923 78.44040222 -43.13472595 77.74017944 -43.13571167 77.01873779 C-43.13639442 75.52567455 -43.1345336 74.03260838 -43.13037109 72.53955078 C-43.12511972 70.30103452 -43.13026199 68.06272791 -43.13671875 65.82421875 C-43.15935491 40.02133524 -43.15935491 40.02133524 -37.875 33.1875 C-37.46902588 32.65108887 -37.06305176 32.11467773 -36.64477539 31.56201172 C-35.46054235 30.01731946 -34.23122682 28.5075021 -33 27 C-32.38253906 26.22527344 -31.76507813 25.45054687 -31.12890625 24.65234375 C-24.89785777 17.18371982 -17.33588283 11.4112512 -9.625 5.5625 C-8.91029541 5.01754883 -8.19559082 4.47259766 -7.45922852 3.91113281 C-6.44687134 3.15268066 -6.44687134 3.15268066 -5.4140625 2.37890625 C-4.8051416 1.9207251 -4.1962207 1.46254395 -3.56884766 0.99047852 C-2 0 -2 0 0 0 Z " fill="#FBFBFB" transform="translate(232,881)"/>
<path d="M0 0 C4.23500295 0.54308299 8.23492825 1.23170396 12.3125 2.5 C13.15425781 2.7578125 13.99601562 3.015625 14.86328125 3.28125 C17 4 17 4 19 5 C17.48097088 9.32151601 15.20878529 12.96058207 12.6875 16.75 C10.16140809 20.60023287 7.69733502 24.41463227 5.5625 28.5 C3.42290803 32.48406781 0.84262023 36.09920968 -1.8125 39.75 C-9.26486944 50.01895899 -15.54022016 60.91473089 -21.85424805 71.90307617 C-25.3775458 78.0029955 -29.07736227 83.95079276 -32.94140625 89.83984375 C-34.29367981 91.91572479 -35.61527374 94.01198002 -36.90234375 96.12890625 C-37.49144531 97.09699219 -38.08054688 98.06507813 -38.6875 99.0625 C-39.18636719 99.89910156 -39.68523437 100.73570312 -40.19921875 101.59765625 C-44.1054188 106.80874743 -49.19114401 109.87071541 -54.8125 113 C-55.41980957 113.3403125 -56.02711914 113.680625 -56.65283203 114.03125 C-58.43204928 115.02666903 -60.21558262 116.0139419 -62 117 C-62.96035156 117.53625 -63.92070312 118.0725 -64.91015625 118.625 C-66.93704319 119.75568812 -68.96659585 120.88108978 -71 122 C-68.66477415 113.82670952 -64.94235015 106.53224599 -61.04541016 99.01708984 C-60.10878617 97.2098999 -59.18443527 95.39636148 -58.26171875 93.58203125 C-52.03037205 81.57529004 -45.00297912 70.01461317 -38.04736328 58.41845703 C-36.12568986 55.20986281 -34.21624845 51.9942846 -32.30859375 48.77734375 C-26.4486971 38.95571262 -20.37446679 29.44875638 -13.57080078 20.25219727 C-8.72269461 13.69888993 -4.30493882 6.91904895 0 0 Z " fill="#060606" transform="translate(277,754)"/>
<path d="M0 0 C-1.2739589 2.03833424 -2.61061923 4.03852126 -4 6 C-4.66 6 -5.32 6 -6 6 C-6.77634667 10.03722696 -7.0701475 13.70543895 -6.88671875 17.80859375 C-6.85642578 18.88560547 -6.82613281 19.96261719 -6.79492188 21.07226562 C-6.72340923 23.31256181 -6.6323109 25.5523199 -6.52148438 27.79101562 C-6.31860702 36.9643618 -6.31860702 36.9643618 -9.89453125 41.22265625 C-12.77817474 44.07303871 -14.42019536 44.93896793 -18.5625 45.375 C-31.26162836 45.17116166 -43.38179322 39.40292942 -54.12207031 33.10009766 C-56.07723614 31.95475481 -58.04900399 30.84221646 -60.0234375 29.73046875 C-75.78455456 20.72439006 -75.78455456 20.72439006 -78.9140625 14.05078125 C-79 12 -79 12 -77.31445312 9.97290039 C-68.90883967 2.80773559 -52.71571138 3.80212675 -42.125 2.875 C-40.2746636 2.7052533 -38.42440236 2.53468524 -36.57421875 2.36328125 C-9.99283665 -0.07668739 -9.99283665 -0.07668739 0 0 Z " fill="#050505" transform="translate(319,705)"/>
<path d="M0 0 C1.43666016 0.02126953 1.43666016 0.02126953 2.90234375 0.04296875 C9.88123619 0.1906181 9.88123619 0.1906181 12.25 1.375 C12.68328369 12.12585159 7.65276536 21.80935855 3.3125 31.4375 C3.00119141 32.15147949 2.68988281 32.86545898 2.36914062 33.60107422 C0.09228446 38.48982292 -2.28471607 41.30621748 -6.75 44.375 C-10.375 45 -10.375 45 -13.75 44.375 C-17.79762731 40.87434935 -19.11016255 36.5489942 -19.75 31.375 C-21.10266495 10.3256349 -21.10266495 10.3256349 -14.3046875 2.59375 C-9.99194795 -0.75421181 -5.22336784 -0.20721979 0 0 Z " fill="#050605" transform="translate(1809.75,1165.625)"/>
<path d="M0 0 C5.38759316 0.59957317 9.80236079 2.41407556 14.6875 4.625 C15.48043457 4.98327881 16.27336914 5.34155762 17.09033203 5.71069336 C35.21092065 14.06623661 35.21092065 14.06623661 38.36328125 20.84765625 C40.40229695 27.74027987 41.12928241 34.83559968 41 42 C36.06024739 41.39125 31.48528381 40.37803294 26.6875 39 C20.80945152 37.35798073 15.10257604 36.28718005 9 36 C8.93683594 34.97003906 8.87367187 33.94007812 8.80859375 32.87890625 C8.003267 22.7860352 5.64127864 14.525481 1.4609375 5.31640625 C0 2 0 2 0 0 Z " fill="#060606" transform="translate(1834,1030)"/>
<path d="M0 0 C6.93 0 13.86 0 21 0 C23.52747382 10.54945596 25.17056579 20.17679579 25.0625 31 C25.05798828 31.87011719 25.05347656 32.74023438 25.04882812 33.63671875 C25.0371736 35.75784293 25.01924357 37.8789311 25 40 C10.23290998 39.36462076 10.23290998 39.36462076 6 36 C-1.5168078 26.44686635 -0.233552 11.44404799 0 0 Z " fill="#060606" transform="translate(199,994)"/>
<path d="M0 0 C9.88479036 -1.68730419 20.27569081 0.49950607 30 2.25 C31.15685303 2.45431641 32.31370605 2.65863281 33.50561523 2.86914062 C39.93240243 4.10224928 45.43849696 5.48149808 51 9 C52.0625 12.6875 52.0625 12.6875 52 16 C50.0933289 17.9066711 46.76878567 17.16874992 44.20532227 17.18994141 C42.77337524 17.18873291 42.77337524 17.18873291 41.3125 17.1875 C39.84671509 17.1862915 39.84671509 17.1862915 38.35131836 17.18505859 C31.22453608 17.12695518 24.1607503 16.75688275 17.0625 16.125 C16.15862549 16.04660889 15.25475098 15.96821777 14.32348633 15.88745117 C1.6462665 14.6462665 1.6462665 14.6462665 -2 11 C-2.46376812 3.69565217 -2.46376812 3.69565217 0 0 Z " fill="#F8F8F7" transform="translate(1283,896)"/>
<path d="M0 0 C7.07924144 0.46134382 14.0583777 1.40381163 21.0625 2.5 C22.33057495 2.69589722 22.33057495 2.69589722 23.62426758 2.89575195 C24.41986084 3.02296631 25.2154541 3.15018066 26.03515625 3.28125 C26.7506665 3.39533203 27.46617676 3.50941406 28.20336914 3.62695312 C30 4 30 4 32 5 C32.31241371 7.54941373 32.51303421 10.00361513 32.625 12.5625 C32.68300781 13.62887695 32.68300781 13.62887695 32.7421875 14.71679688 C32.83671783 16.47742425 32.91945817 18.23867728 33 20 C23.08317559 20.38581305 12.11002748 20.67884616 4 14 C0.51549007 9.10285091 -0.50135637 6.14161557 0 0 Z " fill="#F6F7F6" transform="translate(173,1192)"/>
<path d="M0 0 C2.86867231 1.38264837 5.56024032 2.92148553 8.25 4.625 C8.95640625 5.07101562 9.6628125 5.51703125 10.390625 5.9765625 C10.92171875 6.31429687 11.4528125 6.65203125 12 7 C11.01 7.495 11.01 7.495 10 8 C11.0209375 9.11375 11.0209375 9.11375 12.0625 10.25 C14 13 14 13 13.75 15.3125 C13.5025 15.869375 13.255 16.42625 13 17 C13 16.34 13 15.68 13 15 C12.16210938 15.0721875 11.32421875 15.144375 10.4609375 15.21875 C6.26709363 14.95367635 3.2483589 13.45918571 -0.375 11.5 C-1.01566406 11.16613281 -1.65632813 10.83226562 -2.31640625 10.48828125 C-3.88333671 9.66973549 -5.44250241 8.83635487 -7 8 C-3.25 6.875 -3.25 6.875 -1 8 C-1 8.66 -1 9.32 -1 10 C-0.01 9.67 0.98 9.34 2 9 C1.67 8.01 1.34 7.02 1 6 C0.34 5.67 -0.32 5.34 -1 5 C-0.01 4.67 0.98 4.34 2 4 C1.34 2.68 0.68 1.36 0 0 Z " fill="#E5E7E4" transform="translate(1320,817)"/>
<path d="M0 0 C10.06726323 2.45798115 20.05534724 5.07875825 30 8 C26.49867049 9.16710984 24.63972002 8.81838767 21.01171875 8.2578125 C19.23958008 7.98904297 19.23958008 7.98904297 17.43164062 7.71484375 C16.19607422 7.52019531 14.96050781 7.32554687 13.6875 7.125 C12.46353516 6.93808594 11.23957031 6.75117187 9.97851562 6.55859375 C4.64616636 5.74090887 -0.67988231 4.89392759 -6 4 C-6 3.67 -6 3.34 -6 3 C-4.02 3 -2.04 3 0 3 C0 2.01 0 1.02 0 0 Z " fill="#242625" transform="translate(1750,1003)"/>
<path d="M0 0 C5.26630019 3.40554079 10.2703193 6.87668862 15 11 C14.67 11.66 14.34 12.32 14 13 C13.2575 12.505 12.515 12.01 11.75 11.5 C8.93681812 9.68076525 8.93681812 9.68076525 5 10 C2.78682801 7.78682801 2.69080739 6.93593142 2 4 C1.35108962 2.65793535 0.6865235 1.32321869 0 0 Z " fill="#EEEFEE" transform="translate(1417,884)"/>
<path d="M0 0 C0.94875 0.350625 1.8975 0.70125 2.875 1.0625 C-0.50668431 4.74256822 -3.55021756 7.0410845 -8.125 9.0625 C-7.67590939 7.58050098 -7.21543436 6.10194764 -6.75 4.625 C-6.49476563 3.80128906 -6.23953125 2.97757813 -5.9765625 2.12890625 C-4.54188587 -1.35248795 -3.51374397 -1.05412319 0 0 Z " fill="#151514" transform="translate(214.125,866.9375)"/>
<path d="M0 0 C7.48291572 6.15034169 7.48291572 6.15034169 10 10 C6.46322336 10.32152515 4.6037896 10.4131192 1.625 8.375 C-0.4131192 5.3962104 -0.32152515 3.53677664 0 0 Z " fill="#101010" transform="translate(1844,998)"/>
<path d="M0 0 C1.98 0.66 3.96 1.32 6 2 C6.66 1.34 7.32 0.68 8 0 C9.5 1.375 9.5 1.375 11 3 C11 3.66 11 4.32 11 5 C11.99 5.33 12.98 5.66 14 6 C14 6.99 14 7.98 14 9 C10.40241608 7.67726488 7.36262865 6.0805802 4.1875 3.9375 C3.39730469 3.41027344 2.60710937 2.88304687 1.79296875 2.33984375 C1.20128906 1.89769531 0.60960937 1.45554687 0 1 C0 0.67 0 0.34 0 0 Z " fill="#E9EAE9" transform="translate(421,872)"/>
<path d="M0 0 C3.74281699 2.38179263 6.97727468 4.74475735 10 8 C9.01 8.495 9.01 8.495 8 9 C7.01 8.34 6.02 7.68 5 7 C3.34450469 6.61500109 1.6777567 6.27206865 0 6 C0 4.02 0 2.04 0 0 Z " fill="#E8EAE8" transform="translate(601,1085)"/>
<path d="M0 0 C2.90566282 1.96559544 4.31913707 4.47072518 6.125 7.4375 C5.135 7.4375 4.145 7.4375 3.125 7.4375 C3.125 6.7775 3.125 6.1175 3.125 5.4375 C2.135 5.7675 1.145 6.0975 0.125 6.4375 C-1.25062854 5.14784824 -2.58266393 3.81060707 -3.875 2.4375 C-3.875 1.7775 -3.875 1.1175 -3.875 0.4375 C-1.875 -0.5625 -1.875 -0.5625 0 0 Z " fill="#151514" transform="translate(389.875,671.5625)"/>
<path d="M0 0 C1.32 0.33 2.64 0.66 4 1 C4 1.66 4 2.32 4 3 C4.556875 3.185625 5.11375 3.37125 5.6875 3.5625 C9.06754192 5.66360714 10.85140381 8.70665994 13 12 C10 12 10 12 7.51953125 9.62890625 C6.60868353 8.61434157 5.7066273 7.59183057 4.8125 6.5625 C4.34908203 6.04623047 3.88566406 5.52996094 3.40820312 4.99804688 C0 1.15817148 0 1.15817148 0 0 Z " fill="#1F1F1F" transform="translate(402,1340)"/>
<path d="M0 0 C-1.875 3.875 -1.875 3.875 -3 5 C-5.33297433 5.04092937 -7.66705225 5.04241723 -10 5 C-10 4.01 -10 3.02 -10 2 C-6.38026598 0.68373308 -3.90432869 0 0 0 Z " fill="#E7E7E5" transform="translate(417,759)"/>
<path d="M0 0 C3.3 0.33 6.6 0.66 10 1 C9.01 1.495 9.01 1.495 8 2 C7.34227572 5.02934491 7.34227572 5.02934491 7 8 C6.566875 7.360625 6.13375 6.72125 5.6875 6.0625 C4.08760823 3.73253997 4.08760823 3.73253997 1 3 C0.67 2.01 0.34 1.02 0 0 Z " fill="#242423" transform="translate(1564,919)"/>
<path d="M0 0 C3.63 0 7.26 0 11 0 C11 3.63 11 7.26 11 11 C10.67 11 10.34 11 10 11 C9.67 8.69 9.34 6.38 9 4 C8.01 3.67 7.02 3.34 6 3 C6 2.34 6 1.68 6 1 C4.02 1 2.04 1 0 1 C0 0.67 0 0.34 0 0 Z " fill="#DBDDDC" transform="translate(922,716)"/>
<path d="M0 0 C3.24208567 0.35049575 4.61527704 0.56221181 6.8125 3.0625 C7.204375 3.701875 7.59625 4.34125 8 5 C7.67 5.66 7.34 6.32 7 7 C6.01 7 5.02 7 4 7 C0 2.65714286 0 2.65714286 0 0 Z " fill="#F3F3F1" transform="translate(1330,825)"/>
<path d="M0 0 C-0.66 1.65 -1.32 3.3 -2 5 C-3.65 5 -5.3 5 -7 5 C-7 4.34 -7 3.68 -7 3 C-7.66 2.67 -8.32 2.34 -9 2 C-3.375 -1.125 -3.375 -1.125 0 0 Z " fill="#191B1A" transform="translate(546,1328)"/>
<path d="M0 0 C3.96 1.98 3.96 1.98 8 4 C8 4.66 8 5.32 8 6 C6.35 6.33 4.7 6.66 3 7 C0 3.375 0 3.375 0 0 Z " fill="#ECEEEC" transform="translate(1638,1113)"/>
<path d="M0 0 C1.98 0.99 3.96 1.98 6 3 C5.01 3.495 5.01 3.495 4 4 C3.67 4.99 3.34 5.98 3 7 C1.68 6.34 0.36 5.68 -1 5 C-0.67 3.35 -0.34 1.7 0 0 Z " fill="#161715" transform="translate(410,865)"/>
<path d="M0 0 C0.66 0 1.32 0 2 0 C2.99 2.31 3.98 4.62 5 7 C3.68 7 2.36 7 1 7 C0.34 6.34 -0.32 5.68 -1 5 C-0.625 2.375 -0.625 2.375 0 0 Z " fill="#0C0D0D" transform="translate(1562,936)"/>
<path d="M0 0 C0.66 0.99 1.32 1.98 2 3 C0.68 5.64 -0.64 8.28 -2 11 C-2.66 10.67 -3.32 10.34 -4 10 C-3.29445932 6.33118845 -1.72264494 3.29549466 0 0 Z " fill="#E1E1E1" transform="translate(1498,1222)"/>
<path d="M0 0 C0.66 0.33 1.32 0.66 2 1 C-2.27171492 6.79732739 -2.27171492 6.79732739 -6 8 C-6.99 7.67 -7.98 7.34 -9 7 C-6.03 4.69 -3.06 2.38 0 0 Z " fill="#DFE0DF" transform="translate(465,1193)"/>
<path d="M0 0 C1.95803507 -0.05389087 3.91648909 -0.09274217 5.875 -0.125 C7.51082031 -0.15980469 7.51082031 -0.15980469 9.1796875 -0.1953125 C12 0 12 0 14 2 C12.34385343 2.38218767 10.67542976 2.71395102 9 3 C8.67 2.67 8.34 2.34 8 2 C6.65252916 1.76924918 5.29622435 1.58846937 3.9375 1.4375 C2.638125 1.293125 1.33875 1.14875 0 1 C0 0.67 0 0.34 0 0 Z " fill="#0F0F0E" transform="translate(500,1338)"/>
<path d="M0 0 C0.99 0.33 1.98 0.66 3 1 C2 3 1 5 0 7 C-0.66 6.67 -1.32 6.34 -2 6 C-2 6.66 -2 7.32 -2 8 C-2.66 8 -3.32 8 -4 8 C-2.87548273 5.0280615 -1.77706209 2.66559313 0 0 Z " fill="#E2E3E3" transform="translate(1503,1214)"/>
<path d="M0 0 C0 3.94042779 -1.46184088 5.08858219 -4 8 C-4.66 8.66 -5.32 9.32 -6 10 C-6.99 9.67 -7.98 9.34 -9 9 C-6.03 6.03 -3.06 3.06 0 0 Z " fill="#242524" transform="translate(1477,1163)"/>
<path d="M0 0 C3.96 1.98 3.96 1.98 8 4 C6.68 4.99 5.36 5.98 4 7 C2 5.1875 2 5.1875 0 3 C0 2.01 0 1.02 0 0 Z " fill="#191A19" transform="translate(1428,856)"/>
<path d="M0 0 C6.52307692 0.61538462 6.52307692 0.61538462 8.9375 2.5625 C9.288125 3.036875 9.63875 3.51125 10 4 C5.66905042 4 3.72965139 3.03435531 0 1 C0 0.67 0 0.34 0 0 Z " fill="#202221" transform="translate(1267,815)"/>
<path d="M0 0 C3.24208567 0.35049575 4.61527704 0.56221181 6.8125 3.0625 C7.204375 3.701875 7.59625 4.34125 8 5 C7.01 5.33 6.02 5.66 5 6 C3.35 4.02 1.7 2.04 0 0 Z " fill="#DEDEDE" transform="translate(554,1202)"/>
<path d="M0 0 C0.66 0.99 1.32 1.98 2 3 C0.9024777 5.99324263 0.32317108 6.84610901 -2.625 8.25 C-3.40875 8.4975 -4.1925 8.745 -5 9 C-3.35 6.03 -1.7 3.06 0 0 Z " fill="#202120" transform="translate(288,792)"/>
<path d="M0 0 C0.33 0.66 0.66 1.32 1 2 C-0.76227632 5.61730402 -2.64326421 7.80075931 -6 10 C-4.6302836 6.00499382 -2.74277578 3.19990508 0 0 Z " fill="#191B1A" transform="translate(1463,1178)"/>
<path d="M0 0 C0.99 0.66 1.98 1.32 3 2 C3.1875 4.625 3.1875 4.625 3 7 C2.01 6.67 1.02 6.34 0 6 C0 5.34 0 4.68 0 4 C-0.66 3.67 -1.32 3.34 -2 3 C-1.34 2.01 -0.68 1.02 0 0 Z " fill="#EFF3F3" transform="translate(1284,825)"/>
<path d="M0 0 C1.8125 0.1875 1.8125 0.1875 4 1 C5.75 3.5625 5.75 3.5625 7 6 C6.01 6 5.02 6 4 6 C1.8125 3 1.8125 3 0 0 Z " fill="#181818" transform="translate(1682,1146)"/>
<path d="M0 0 C2.31 1.98 4.62 3.96 7 6 C6.01 6.33 5.02 6.66 4 7 C1.23609263 4.59660228 0.95934081 3.83736322 0 0 Z " fill="#323232" transform="translate(1847,1001)"/>
<path d="M0 0 C2.97 1.98 2.97 1.98 6 4 C5.01 5.485 5.01 5.485 4 7 C2.35 5.02 0.7 3.04 -1 1 C-0.67 0.67 -0.34 0.34 0 0 Z " fill="#E0E0E0" transform="translate(595,1161)"/>
<path d="M0 0 C2.64 0 5.28 0 8 0 C8 0.33 8 0.66 8 1 C5 2 2 3 -1 4 C-0.67 2.68 -0.34 1.36 0 0 Z " fill="#BDBDBB" transform="translate(1663,994)"/>
<path d="M0 0 C2 1 2 1 3.125 4.0625 C3.41375 5.031875 3.7025 6.00125 4 7 C2.68 7.33 1.36 7.66 0 8 C-0.33 7.34 -0.66 6.68 -1 6 C-0.34 6 0.32 6 1 6 C0.67 4.02 0.34 2.04 0 0 Z " fill="#C6CACD" transform="translate(1571,928)"/>
<path d="M0 0 C2.31 1.65 4.62 3.3 7 5 C6.67 5.66 6.34 6.32 6 7 C3.5625 5.75 3.5625 5.75 1 4 C0.67 2.68 0.34 1.36 0 0 Z " fill="#E3E3E1" transform="translate(1425,890)"/>
</svg>
