<?xml version="1.0" encoding="UTF-8"?>
<svg version="1.1" xmlns="http://www.w3.org/2000/svg" width="1024" height="1024">
<path d="M0 0 C337.92 0 675.84 0 1024 0 C1024 337.92 1024 675.84 1024 1024 C686.08 1024 348.16 1024 0 1024 C0 686.08 0 348.16 0 0 Z " fill="#FDFDFD" transform="translate(0,0)"/>
<path d="M0 0 C2.95828897 0.01461992 5.91655685 0.02412968 8.8748703 0.03229141 C57.76197596 0.17421794 106.30951012 2.5426603 155.06046867 6.04959869 C156.49986415 6.15285951 157.9393385 6.25502736 159.3788929 6.35604858 C161.36293426 6.49581434 163.34660567 6.64080237 165.3302536 6.78604507 C166.44661697 6.86661652 167.56298035 6.94718796 168.71317291 7.03020096 C171.12067397 7.27891043 173.25793387 7.70060535 175.58440399 8.32681656 C177.61608291 8.49061603 179.65059859 8.62040825 181.68596649 8.72916031 C190.5150847 9.3140293 199.21128975 10.59172777 207.95940399 11.88931656 C209.58173213 12.12610895 211.20412771 12.36243975 212.82659149 12.59830093 C216.74665747 13.16917316 220.6657672 13.74621854 224.58440399 14.32681656 C224.91440399 15.97681656 225.24440399 17.62681656 225.58440399 19.32681656 C221.37184857 22.55679082 217.22149339 25.71845377 212.58440399 28.32681656 C213.17648855 32.16211054 214.92318698 34.26901332 217.39690399 37.20181656 C218.61893524 38.65781265 218.61893524 38.65781265 219.86565399 40.14322281 C220.77105279 41.20514705 221.67733068 42.2663223 222.58440399 43.32681656 C223.04846649 43.87192886 223.51252899 44.41704117 223.99065399 44.97867203 C225.96414822 47.29605298 227.93839907 49.61215227 229.93596649 51.90884781 C232.53518925 54.8999132 235.06534294 57.91513621 237.49065399 61.04947281 C246.27879421 72.21943158 256.13140242 77.8424827 269.63127899 82.34244156 C273.628 84.35678894 275.28845215 88.35775088 276.76799774 92.40494156 C280.05416729 103.58698117 278.88408068 115.54769654 278.64690399 127.07681656 C278.5785823 130.67734572 278.51668072 134.27746632 278.47367096 137.87839127 C278.44667141 140.10579997 278.40533999 142.33309857 278.34711456 144.55990982 C278.26216237 151.1457397 278.30437103 158.6369328 282.93097687 163.8416481 C284.4082883 165.09591821 285.9967751 166.21547634 287.58440399 167.32681656 C292.4934949 171.14499838 292.4934949 171.14499838 293.58440399 173.32681656 C293.68469042 176.12893732 293.726445 178.8999903 293.70940399 181.70181656 C293.70457001 182.51529556 293.69973602 183.32877457 293.69475555 184.16690445 C293.55042251 198.76041879 292.91002215 211.15255741 282.16252899 222.10806656 C272.17032329 230.70741934 259.13243773 232.72107088 246.58440399 235.32681656 C245.71283661 235.51228043 244.84126923 235.69774429 243.94329071 235.88882828 C239.27896884 236.85928124 234.72130744 237.61959074 229.95940399 237.95181656 C228.93588837 238.02658218 227.91237274 238.10134781 226.85784149 238.17837906 C226.10760712 238.22736343 225.35737274 238.27634781 224.58440399 238.32681656 C223.98305634 239.86789078 223.98305634 239.86789078 223.36956024 241.44009781 C216.76025361 257.79610281 206.91810471 270.127258 190.27190399 277.26431656 C188.39253292 277.99561995 186.49547859 278.68289562 184.58440399 279.32681656 C183.53123993 279.69162125 182.47807587 280.05642593 181.39299774 280.43228531 C164.87595653 284.31167242 147.82450229 281.27906597 133.51018524 272.44400406 C124.46065587 265.89547947 116.00129315 257.1987366 112.58440399 246.32681656 C112.58440399 245.33681656 112.58440399 244.34681656 112.58440399 243.32681656 C81.51224559 243.56311484 50.44009787 243.80076798 19.36796281 244.04011577 C15.63379484 244.06887886 11.89962679 244.09763129 8.16545868 244.12637711 C7.42257711 244.13209602 6.67969553 244.13781494 5.91430239 244.14370716 C-4.40995071 244.22316439 -14.73420799 244.30205493 -25.05846909 244.38046618 C-42.91450181 244.51608076 -60.77052515 244.65287166 -78.62653351 244.79166031 C-79.32734932 244.79710497 -80.02816514 244.80254964 -80.7502178 244.80815929 C-134.63959136 245.22706101 -188.52780918 245.73684401 -242.41559601 246.32681656 C-242.82316132 247.0858931 -243.23072662 247.84496964 -243.6506424 248.62704849 C-244.18763763 249.62077469 -244.72463287 250.61450089 -245.2779007 251.63834 C-245.809216 252.62429153 -246.34053131 253.61024307 -246.88794708 254.62607193 C-254.3909887 267.89076843 -267.58700979 275.46335112 -281.52497101 280.43619156 C-296.85864173 283.94630895 -313.4622253 282.48489148 -326.89997101 274.23697281 C-337.36143497 267.4858922 -344.00149772 259.95492665 -350.41559601 249.32681656 C-352.03773778 246.13863245 -352.03773778 246.13863245 -354.63263702 245.85025406 C-356.01213531 245.7767775 -356.01213531 245.7767775 -357.41950226 245.70181656 C-358.97616608 245.60453262 -358.97616608 245.60453262 -360.56427765 245.50528336 C-361.69083771 245.44638931 -362.81739777 245.38749527 -363.97809601 245.32681656 C-366.3637801 245.17069446 -368.74919661 245.01043632 -371.13434601 244.84634781 C-372.95965851 244.72187271 -372.95965851 244.72187271 -374.82184601 244.59488297 C-388.94327051 243.54153214 -402.94475882 241.59614834 -416.85309601 238.95181656 C-417.86509064 238.76707779 -418.87708527 238.58233902 -419.9197464 238.39200211 C-427.43094409 236.88275153 -436.40335174 234.59085285 -441.41559601 228.32681656 C-440.99454338 223.90576393 -440.99454338 223.90576393 -439.41559601 222.32681656 C-438.88309197 216.17206061 -439.52602061 210.16504532 -440.41559601 204.07681656 C-442.40000315 189.71407562 -443.81387472 173.68526249 -437.41559601 160.32681656 C-436.86125777 159.04467601 -436.30794725 157.76209084 -435.75543976 156.47916031 C-428.03253906 139.23591046 -416.21998749 128.43430684 -398.52399445 121.51089859 C-397.47759796 121.12015152 -396.43120148 120.72940445 -395.35309601 120.32681656 C-393.68102081 119.69235611 -393.68102081 119.69235611 -391.97516632 119.04507828 C-381.01350283 114.99242628 -369.84102972 111.9701596 -358.51398468 109.13589859 C-355.27181107 108.28927001 -352.06874672 107.34455679 -348.85700226 106.38931656 C-340.04199916 103.84594354 -331.08645278 102.04156059 -322.10309601 100.20181656 C-319.57901543 99.67969329 -317.05524276 99.15610245 -314.53151703 98.632267 C-312.97791113 98.31034557 -311.42404734 97.98966492 -309.86986542 97.67053604 C-309.15494431 97.52343185 -308.44002319 97.37632767 -307.70343781 97.22476578 C-307.00334595 97.08133743 -306.30325409 96.93790909 -305.58194733 96.79013443 C-304.05941104 96.46450937 -302.54124615 96.11808962 -301.02683258 95.75656509 C-300.2409375 95.56979202 -299.45504242 95.38301895 -298.64533234 95.19058609 C-297.93927353 95.01689499 -297.23321472 94.84320389 -296.50576019 94.66424942 C-294.23072724 94.29697163 -292.32120763 94.41647874 -290.04059601 94.70181656 C-274.0916953 96.60875034 -263.18492926 95.79773654 -249.41559601 87.32681656 C-247.62601622 86.26169479 -245.83559923 85.19797882 -244.04450226 84.13541031 C-236.34340503 79.5277148 -228.73472158 74.77246627 -221.11872101 70.02603531 C-208.0271613 61.87356404 -194.79657499 53.9958228 -181.41559601 46.32681656 C-180.63152374 45.87741714 -179.84745148 45.42801773 -179.03961945 44.96500015 C-165.0600984 36.99225595 -150.72768771 29.67885298 -136.41559601 22.32681656 C-136.41559601 21.66681656 -136.41559601 21.00681656 -136.41559601 20.32681656 C-137.40559601 19.66681656 -138.39559601 19.00681656 -139.41559601 18.32681656 C-139.41559601 17.66681656 -139.41559601 17.00681656 -139.41559601 16.32681656 C-132.14403471 13.15081362 -124.89980921 11.0011733 -117.16559601 9.26431656 C-116.01720245 9.00610123 -114.8688089 8.74788589 -113.68561554 8.48184586 C-76.49693605 0.34151415 -37.91428625 -0.20099958 0 0 Z " fill="#010101" transform="translate(586.4155960083008,373.6731834411621)"/>
<path d="M0 0 C-0.6260345 4.56911208 -1.3596463 9.09322179 -2.234375 13.62109375 C-2.47631592 14.87462646 -2.71825684 16.12815918 -2.9675293 17.41967773 C-3.22821145 18.75897936 -3.48903821 20.09825284 -3.75 21.4375 C-3.88250153 22.12063263 -4.01500305 22.80376526 -4.15151978 23.50759888 C-6.10341828 33.56731581 -8.12377138 43.61067479 -10.26269531 53.63256836 C-11.44352886 59.19429438 -12.53223855 64.76844847 -13.57348633 70.35766602 C-13.71126747 71.094972 -13.84904861 71.83227798 -13.99100494 72.59192657 C-14.32779263 74.39453258 -14.66395992 76.19725448 -15 78 C-96.77462128 83.98859774 -96.77462128 83.98859774 -125.875 85.875 C-126.79652863 85.93611969 -127.71805725 85.99723938 -128.66751099 86.06021118 C-138.46335089 86.70690154 -148.17807562 87.1789017 -158 87 C-157.67547852 86.42636719 -157.35095703 85.85273438 -157.01660156 85.26171875 C-155.94933222 82.88727515 -155.74259852 81.39233483 -155.734375 78.8125 C-155.73179687 78.03132813 -155.72921875 77.25015625 -155.7265625 76.4453125 C-155.73429687 75.63835937 -155.74203125 74.83140625 -155.75 74 C-155.74226563 73.19304687 -155.73453125 72.38609375 -155.7265625 71.5546875 C-155.72914063 70.77351563 -155.73171875 69.99234375 -155.734375 69.1875 C-155.73663086 68.47980469 -155.73888672 67.77210938 -155.74121094 67.04296875 C-156.044912 64.64544941 -156.71477086 63.04088328 -158 61 C-160.18541552 60.3006486 -160.18541552 60.3006486 -162.625 60.25 C-163.85089844 60.16492188 -163.85089844 60.16492188 -165.1015625 60.078125 C-165.72804688 60.05234375 -166.35453125 60.0265625 -167 60 C-166.75838033 57.29385966 -166.43101597 54.67780133 -166 52 C-165.92007812 51.3296875 -165.84015625 50.659375 -165.7578125 49.96875 C-164.93410116 46.32707882 -163.62453362 44.47278743 -160.63671875 42.2109375 C-157.64220259 40.4582319 -154.62195932 38.84615355 -151.52539062 37.28417969 C-148.5655396 35.7790737 -145.63525833 34.2224661 -142.703125 32.6640625 C-115.44760008 18.24769235 -90.69502065 8.18106709 -60 4 C-58.60796909 3.79497456 -57.21602743 3.58934119 -55.82421875 3.3828125 C-45.7597568 2.02416239 -35.6316416 1.47829825 -25.5 0.875 C-24.75307892 0.83034607 -24.00615784 0.78569214 -23.23660278 0.73968506 C-15.48731888 0.28326226 -7.76637338 -0.12244282 0 0 Z " fill="#FCFCFB" transform="translate(571,390)"/>
<path d="M0 0 C40.34919 -0.2378001 40.34919 -0.2378001 58.83331299 0.87359619 C61.31142415 1.01816838 63.79017063 1.14795206 66.26904297 1.27880859 C71.15866021 1.54476196 76.04174135 1.87151706 80.92532349 2.2310791 C82.87955701 2.36783804 84.83498297 2.48857372 86.79122925 2.59265137 C102.30070453 3.44270379 102.30070453 3.44270379 106.20874023 7.02416992 C107.5717577 9.66984378 108.29810553 12.11227063 109 15 C109.72265783 16.73779676 110.46889239 18.46597543 111.23828125 20.18359375 C111.93508114 21.93275684 112.62649103 23.6840767 113.3125 25.4375 C113.67150391 26.30181641 114.03050781 27.16613281 114.40039062 28.05664062 C119.40773716 40.88498555 116.39857988 54.644678 115 68 C106.03472803 68.61858621 97.06937731 69.23601676 88.10393524 69.8521328 C83.93692959 70.13852751 79.76994795 70.425261 75.60302734 70.71289062 C65.1775546 71.43231583 54.75155383 72.14340394 44.32476807 72.84355164 C42.02618629 72.99823776 39.72768819 73.15412243 37.42919922 73.31018066 C33.80658415 73.55554435 30.18363595 73.79530502 26.56037903 74.03099442 C24.61926445 74.15829061 22.67845815 74.29026185 20.7376709 74.42245483 C12.14044711 74.97325654 3.61088439 75.09134481 -5 75 C-5.2612199 62.07479776 -4.36598258 49.37183297 -3.28662109 36.49462891 C-2.99413221 32.92845694 -2.72222643 29.36126895 -2.45703125 25.79296875 C-2.3698584 24.62362793 -2.28268555 23.45428711 -2.19287109 22.24951172 C-2.02669326 20.01294239 -1.86159698 17.77629236 -1.69775391 15.53955078 C-1.62089355 14.52231934 -1.5440332 13.50508789 -1.46484375 12.45703125 C-1.36610962 11.1263562 -1.36610962 11.1263562 -1.26538086 9.76879883 C-0.95153943 6.49439617 -0.48497526 3.25303004 0 0 Z " fill="#FBFBFB" transform="translate(592,390)"/>
<path d="M0 0 C8.04243896 5.62816952 14.6218062 12.92872668 16.79296875 22.6796875 C17.96799135 34.49048172 16.64940555 44.63067599 9.60546875 54.4921875 C3.18256017 62.18042283 -6.16631067 67.69530313 -16.20703125 68.6796875 C-26.43197251 69.58295086 -35.39885254 66.92241965 -43.3671875 60.35546875 C-51.25377622 53.17214272 -56.20879197 45.35186936 -57.6171875 34.52734375 C-57.97129554 22.56465051 -54.22687967 13.54087366 -46.20703125 4.6796875 C-43.06353806 1.94469897 -39.82829629 -0.26689727 -36.20703125 -2.3203125 C-35.58441406 -2.67996094 -34.96179688 -3.03960938 -34.3203125 -3.41015625 C-23.54449805 -8.48250275 -9.84486018 -5.88949158 0 0 Z " fill="#F9F8F7" transform="translate(773.20703125,565.3203125)"/>
<path d="M0 0 C3.84631488 2.73929915 6.21037944 5.42400803 8.6875 9.4375 C9.26886719 10.36433594 9.85023438 11.29117188 10.44921875 12.24609375 C15.26835081 20.80399829 15.30909622 30.75947882 13.3125 40.27734375 C9.81044674 50.68136031 3.36151787 58.08802191 -6.30078125 63.22265625 C-10.49260269 65.18823303 -14.3502594 66.62042934 -19 67 C-19.72703125 67.06316406 -20.4540625 67.12632812 -21.203125 67.19140625 C-31.21604518 67.67945739 -39.41442259 64.25806465 -47.00390625 57.83203125 C-47.99197266 56.92517578 -47.99197266 56.92517578 -49 56 C-49.84884766 55.23236328 -49.84884766 55.23236328 -50.71484375 54.44921875 C-57.04067903 47.96242074 -60.24619993 38.76472062 -60.5 29.8125 C-59.93184005 18.98905287 -56.29570162 11.06107134 -49 3 C-45.85609564 0.26465374 -42.61856405 -1.94146518 -39 -4 C-38.40058594 -4.35964844 -37.80117188 -4.71929688 -37.18359375 -5.08984375 C-24.79062338 -11.10611796 -10.78170126 -7.01666273 0 0 Z " fill="#F8F7F6" transform="translate(312,567)"/>
<path d="M0 0 C1.89628588 0.11793595 3.79201014 0.24489537 5.6875 0.375 C6.74324219 0.44460938 7.79898438 0.51421875 8.88671875 0.5859375 C28.23760815 2.28201128 53.18915869 4.67356923 69.97265625 15.2421875 C71.76461474 18.30827617 70.82328709 20.64877745 70 24 C68.83380909 26.88063934 67.42811231 29.58761879 65.9375 32.3125 C65.5348291 33.05725586 65.1321582 33.80201172 64.71728516 34.56933594 C59.80200076 43.44345864 53.78578119 53.69716331 43.50390625 56.73828125 C36.98675184 58.09717728 30.63136109 58.07271874 24 58 C17.93224325 45.11096061 12.29592919 32.07186965 6.9375 18.875 C6.64855865 18.16569336 6.35961731 17.45638672 6.06192017 16.72558594 C5.23431861 14.69087771 4.41111172 12.65445935 3.58984375 10.6171875 C3.11409912 9.43753418 2.63835449 8.25788086 2.14819336 7.04248047 C1.25840211 4.6847134 0.52383342 2.45766755 0 0 Z " fill="#FBFBFA" transform="translate(709,397)"/>
<path d="M0 0 C1.85044922 0.01353516 1.85044922 0.01353516 3.73828125 0.02734375 C6.74240024 0.05063149 9.74608943 0.08333244 12.75 0.125 C11.46305049 3.02218135 10.23496132 4.84205344 7.765625 6.82421875 C7.16717773 7.30689209 6.56873047 7.78956543 5.95214844 8.28686523 C5.30793945 8.79032471 4.66373047 9.29378418 4 9.8125 C3.33258789 10.33851807 2.66517578 10.86453613 1.97753906 11.40649414 C-17.9710975 26.90407353 -41.33103736 38.01721629 -67.25 36.125 C-67.58 35.795 -67.91 35.465 -68.25 35.125 C-68.25 27.3564991 -63.70580543 21.93568032 -58.65234375 16.36328125 C-49.8292995 8.10387128 -37.82636515 4.51239499 -26.25 2.125 C-25.37891602 1.94404785 -24.50783203 1.7630957 -23.61035156 1.57666016 C-15.6940804 0.08627544 -8.03869381 -0.11346691 0 0 Z " fill="#F9F9F8" transform="translate(225.25,500.875)"/>
<path d="M0 0 C3.96281486 2.348896 5.61746699 4.93443223 7.04296875 9.2109375 C7.12536044 11.05704282 7.15040234 12.90598914 7.140625 14.75390625 C7.13740234 15.82705078 7.13417969 16.90019531 7.13085938 18.00585938 C7.11829102 19.68518555 7.11829102 19.68518555 7.10546875 21.3984375 C7.10095703 22.52958984 7.09644531 23.66074219 7.09179688 24.82617188 C7.08000373 27.62114677 7.06354525 30.4160157 7.04296875 33.2109375 C-10.41232763 33.6889029 -30.92747701 25.89435846 -43.95703125 14.2109375 C-45.95703125 11.2109375 -45.95703125 11.2109375 -46.01171875 8.7890625 C-44.46173746 5.00021934 -41.55367424 3.76258855 -38.08203125 1.9609375 C-37.12490234 1.435 -37.12490234 1.435 -36.1484375 0.8984375 C-25.59931651 -4.82759894 -11.01752008 -4.81696227 0 0 Z " fill="#FAFAF9" transform="translate(851.95703125,465.7890625)"/>
<path d="M0 0 C1.23569026 3.70707079 0.60498612 5.24522534 -0.43359375 8.98046875 C-0.75263672 10.14384766 -1.07167969 11.30722656 -1.40039062 12.50585938 C-1.74263672 13.72080078 -2.08488281 14.93574219 -2.4375 16.1875 C-2.77587891 17.41404297 -3.11425781 18.64058594 -3.46289062 19.90429688 C-4.30109599 22.93836417 -5.14708301 25.97004164 -6 29 C-12.48349807 30.18135474 -18.86214507 30.11322974 -25.4375 30.0625 C-26.55060547 30.05798828 -27.66371094 30.05347656 -28.81054688 30.04882812 C-31.54042101 30.03711193 -34.27018174 30.02070699 -37 30 C-37 28.68 -37 27.36 -37 26 C-34.89453125 23.9140625 -34.89453125 23.9140625 -31.8125 21.625 C-31.25385254 21.20798828 -30.69520508 20.79097656 -30.11962891 20.36132812 C-21.98560145 14.38530795 -13.49976175 8.88703699 -5.06201172 3.35351562 C-3.36995196 2.24283847 -1.68408911 1.12272607 0 0 Z " fill="#F6F6F5" transform="translate(382,451)"/>
<path d="M0 0 C2.01668281 3.19887618 2.8125 5.09141568 2.8125 8.875 C1.05457386 12.97682767 -1.34658785 15.62055156 -5.1875 17.875 C-8.21931598 18.19601581 -11.15186873 18.11308873 -14.1875 17.875 C-14.35026042 15.85677083 -14.51302083 13.83854167 -14.67578125 11.8203125 C-15.06143036 9.47980784 -15.06143036 9.47980784 -18.1875 7.875 C-20.57427076 7.58047416 -22.97376094 7.3821783 -25.375 7.25 C-26.64730469 7.17523437 -27.91960937 7.10046875 -29.23046875 7.0234375 C-30.20628906 6.97445312 -31.18210938 6.92546875 -32.1875 6.875 C-32.1875 5.225 -32.1875 3.575 -32.1875 1.875 C-7.61535759 -5.07690506 -7.61535759 -5.07690506 0 0 Z " fill="#F5F4F3" transform="translate(182.1875,573.125)"/>
<path d="M0 0 C5.77849428 1.52065639 11.51411524 4.00095545 16 8 C16.90251589 11.059749 16.55514072 12.78018383 16 16 C13.921188 17.00936536 11.8367638 18.00717846 9.75 19 C8.58984375 19.556875 7.4296875 20.11375 6.234375 20.6875 C3 22 3 22 -1 22 C-2.17832621 18.46502138 -2.18397309 15.24106929 -2.1875 11.5625 C-2.20167969 10.24378906 -2.21585937 8.92507813 -2.23046875 7.56640625 C-2.02228903 4.3449133 -1.72168766 2.66079001 0 0 Z " fill="#0A0A0A" transform="translate(261,585)"/>
<path d="M0 0 C2.17490115 3.52126852 2.26877787 6.40642467 2.25 10.5 C2.25515625 11.6240625 2.2603125 12.748125 2.265625 13.90625 C2.01284295 16.85041743 1.53364541 18.51695505 0 21 C-6.02770138 20.52412884 -10.76678289 17.80277043 -16 15 C-16.87762831 9.90975578 -16.87762831 9.90975578 -16 7 C-12.95395821 4.41196812 -9.59937845 2.7052793 -6 1 C-4 0 -4 0 0 0 Z " fill="#0B0B0B" transform="translate(318,586)"/>
<path d="M0 0 C4.14298667 0.59834725 7.18194377 2.00664285 10.8125 4.0625 C11.78832031 4.61035156 12.76414062 5.15820312 13.76953125 5.72265625 C14.50558594 6.14417969 15.24164062 6.56570313 16 7 C16 9.64 16 12.28 16 15 C10.72 17.31 5.44 19.62 0 22 C-2.19119091 17.61761817 -2.26890559 15.27260373 -2.25 10.4375 C-2.26160156 9.42913086 -2.26160156 9.42913086 -2.2734375 8.40039062 C-2.25880148 4.71577164 -2.09589902 3.14384852 0 0 Z " fill="#090909" transform="translate(725,586)"/>
<path d="M0 0 C2.64 0 5.28 0 8 0 C9.20284401 2.07573081 10.38705701 4.15883095 11.5625 6.25 C11.90474609 6.83652344 12.24699219 7.42304687 12.59960938 8.02734375 C15.06382218 12.45794859 15.06382218 12.45794859 14.71484375 15.421875 C14.47894531 15.94265625 14.24304688 16.4634375 14 17 C10.4517225 18.09848394 7.13789215 18.13341955 3.4375 18.125 C2.30183594 18.12757813 1.16617188 18.13015625 -0.00390625 18.1328125 C-3 18 -3 18 -6 17 C-5.57664615 10.50857435 -3.08900201 5.66507011 0 0 Z " fill="#0C0D0E" transform="translate(749,609)"/>
<path d="M0 0 C2.60762052 6.19309874 3.04993652 12.71894837 1 19.125 C0.67 19.74375 0.34 20.3625 0 21 C-6.02770138 20.52412884 -10.76678289 17.80277043 -16 15 C-17.04918033 10.01639344 -17.04918033 10.01639344 -16 7 C-11.20675234 3.04261189 -6.28176533 0 0 0 Z " fill="#0D0D0D" transform="translate(782,586)"/>
<path d="M0 0 C2.64 0 5.28 0 8 0 C9.17441535 2.10016623 10.33964012 4.20458755 11.5 6.3125 C11.83386719 6.90740234 12.16773438 7.50230469 12.51171875 8.11523438 C14.06825114 10.95828844 15 12.70660988 15 16 C11.35883 17.66227326 8.49709631 18.2724556 4.5 18.25 C3.5821875 18.25515625 2.664375 18.2603125 1.71875 18.265625 C-1.1778282 17.98262598 -3.36375653 17.20350245 -6 16 C-5.52412884 9.97229862 -2.80277043 5.23321711 0 0 Z " fill="#0B0C0D" transform="translate(285,609)"/>
<path d="M0 0 C0.78052734 0.00064453 1.56105469 0.00128906 2.36523438 0.00195312 C8.15634586 0.04692293 8.15634586 0.04692293 10.4375 1.1875 C9.89855575 5.78558129 8.67178472 9.05534369 6.375 13.0625 C5.82714844 14.02929688 5.27929688 14.99609375 4.71484375 15.9921875 C4.29332031 16.71664062 3.87179687 17.44109375 3.4375 18.1875 C1.1275 18.1875 -1.1825 18.1875 -3.5625 18.1875 C-6.2025 12.9075 -8.8425 7.6275 -11.5625 2.1875 C-7.6933371 -0.39194193 -4.4768521 -0.07058937 0 0 Z " fill="#0B0B0B" transform="translate(753.5625,566.8125)"/>
<path d="M0 0 C0.72445313 -0.00386719 1.44890625 -0.00773438 2.1953125 -0.01171875 C5.39282879 -0.00581927 7.94582607 0.10694202 11 1.125 C10.56688677 6.75547198 8.07551604 13.04948396 4 17.125 C1.32941149 17.26615161 -1.32432238 17.16747107 -4 17.125 C-5.17154293 14.83570947 -6.33738074 12.54381638 -7.5 10.25 C-7.83386719 9.59902344 -8.16773438 8.94804688 -8.51171875 8.27734375 C-11 3.3515625 -11 3.3515625 -11 1.125 C-7.29553447 -0.10982184 -3.8556992 -0.02058202 0 0 Z " fill="#090908" transform="translate(289,566.875)"/>
<path d="M0 0 C1.13501953 0.00064453 2.27003906 0.00128906 3.43945312 0.00195312 C11.7809392 0.0467196 11.7809392 0.0467196 14.0625 1.1875 C14.0625 2.8375 14.0625 4.4875 14.0625 6.1875 C9.93571409 8.16047901 6.59852767 8.43324476 2.046875 8.41796875 C1.39044006 8.41751053 0.73400513 8.41705231 0.05767822 8.4165802 C-1.32061588 8.4135741 -2.69890708 8.40573731 -4.07714844 8.39331055 C-6.19478253 8.37493681 -8.31198163 8.37280188 -10.4296875 8.37304688 C-20.78989326 8.33510674 -20.78989326 8.33510674 -21.9375 7.1875 C-21.97813832 5.52132885 -21.980221 3.85361905 -21.9375 2.1875 C-14.52417857 0.2027695 -7.65238327 -0.08458132 0 0 Z " fill="#EAEAEA" transform="translate(704.9375,489.8125)"/>
<path d="M0 0 C0.12375 0.598125 0.2475 1.19625 0.375 1.8125 C0.95475985 4.26231348 0.95475985 4.26231348 3 7 C3.99 7.33 4.98 7.66 6 8 C5.67 8.66 5.34 9.32 5 10 C4.34 9.67 3.68 9.34 3 9 C2.18565857 11.85160391 1.88118758 14.36626131 1.90234375 17.328125 C1.90556641 18.12734375 1.90878906 18.9265625 1.91210938 19.75 C1.92048828 20.575 1.92886719 21.4 1.9375 22.25 C1.94201172 23.09046875 1.94652344 23.9309375 1.95117188 24.796875 C1.96292039 26.86461401 1.98085478 28.93231624 2 31 C2.99 31.33 3.98 31.66 5 32 C3.68 32 2.36 32 1 32 C1.33 32.598125 1.66 33.19625 2 33.8125 C3 36 3 36 3 39 C3.66 39 4.32 39 5 39 C5.99 41.64 6.98 44.28 8 47 C5 47 5 47 2.125 44.3125 C-3.98303607 36.73853527 -6.81038442 27.51680354 -6.36328125 17.859375 C-5.5386815 11.36897693 -3.7824857 5.403551 0 0 Z " fill="#EFEEEA" transform="translate(258,576)"/>
<path d="M0 0 C0.99676758 -0.00459229 1.99353516 -0.00918457 3.02050781 -0.01391602 C3.95475586 -0.01190186 4.88900391 -0.0098877 5.8515625 -0.0078125 C7.1212085 -0.00612061 7.1212085 -0.00612061 8.41650391 -0.00439453 C10.375 0.125 10.375 0.125 11.375 1.125 C11.41563832 2.79117115 11.417721 4.45888095 11.375 6.125 C6.94067621 7.82092254 3.25375985 8.38149565 -1.484375 8.390625 C-3.40443359 8.39449219 -3.40443359 8.39449219 -5.36328125 8.3984375 C-6.35062256 8.39215332 -6.35062256 8.39215332 -7.35791016 8.38574219 C-9.38343743 8.37495507 -11.40809238 8.38570774 -13.43359375 8.3984375 C-14.70847656 8.39585937 -15.98335937 8.39328125 -17.296875 8.390625 C-19.04629395 8.38724121 -19.04629395 8.38724121 -20.83105469 8.38378906 C-23.625 8.125 -23.625 8.125 -25.625 6.125 C-25.375 4.0625 -25.375 4.0625 -24.625 2.125 C-17.6563574 -1.3593213 -7.6222738 0.02022636 0 0 Z " fill="#EFF0F0" transform="translate(541.625,496.875)"/>
<path d="M0 0 C0.66 0.33 1.32 0.66 2 1 C2.144375 1.804375 2.28875 2.60875 2.4375 3.4375 C2.76502717 6.34440658 2.76502717 6.34440658 6 8 C5.51015625 8.34160156 5.0203125 8.68320312 4.515625 9.03515625 C2.25836437 11.96145031 2.64155685 14.90293103 2.75 18.4375 C2.76546875 19.75621094 2.7809375 21.07492187 2.796875 22.43359375 C2.95262668 25.16823385 3.17943761 27.41258151 4 30 C3.34 30 2.68 30 2 30 C2.350625 30.928125 2.70125 31.85625 3.0625 32.8125 C4 36 4 36 3 39 C3.66 39 4.32 39 5 39 C4.67 39.99 4.34 40.98 4 42 C-1.83057965 36.81726253 -4.40524215 29.4661909 -5.421875 21.83203125 C-5.62335548 14.04481061 -4.36616022 6.54924033 0 0 Z " fill="#F2F1EE" transform="translate(721,578)"/>
<path d="M0 0 C-0.33 0.66 -0.66 1.32 -1 2 C-1.66 1.67 -2.32 1.34 -3 1 C-3 1.66 -3 2.32 -3 3 C-5 4.625 -5 4.625 -7 6 C-7 5.34 -7 4.68 -7 4 C-13.93 4 -20.86 4 -28 4 C-28.33 3.01 -28.66 2.02 -29 1 C-31.64 1.66 -34.28 2.32 -37 3 C-36 0 -36 0 -34.3125 -1.16796875 C-23.35873439 -5.99724717 -10.405311 -6.05399913 0 0 Z " fill="#EEEDEC" transform="translate(307,564)"/>
<path d="M0 0 C0.33 0.66 0.66 1.32 1 2 C2.65 1.67 4.3 1.34 6 1 C6.33 2.32 6.66 3.64 7 5 C-2.79744382 9.50682416 -12.7017771 10.58199057 -23 7 C-22.34 6.67 -21.68 6.34 -21 6 C-21 5.34 -21 4.68 -21 4 C-21.66 3.67 -22.32 3.34 -23 3 C-18.59922799 1.30483858 -15.0775151 0.79983855 -10.375 0.9375 C-6.70348516 1.03592056 -3.52039679 1.10763704 0 0 Z " fill="#E8E8E8" transform="translate(763,625)"/>
<path d="M0 0 C2.50462803 3.75694204 2.34245002 6.77148432 2.3125 11.125 C2.31121094 11.88675537 2.30992187 12.64851074 2.30859375 13.43334961 C2.21119729 19.14139096 1.29951589 23.73027608 -1 29 C-1.66 27.68 -2.32 26.36 -3 25 C-3.33 25.66 -3.66 26.32 -4 27 C-5.32 26.67 -6.64 26.34 -8 26 C-8 25.01 -8 24.02 -8 23 C-7.34 22.67 -6.68 22.34 -6 22 C-4.7937748 18.38132441 -4.89183082 15.07493749 -4.9375 11.3125 C-4.94201172 10.61060547 -4.94652344 9.90871094 -4.95117188 9.18554688 C-4.96293073 7.45699462 -4.98086546 5.72848635 -5 4 C-4.34 4 -3.68 4 -3 4 C-2.67 3.34 -2.34 2.68 -2 2 C-1.34 2.33 -0.68 2.66 0 3 C0 2.01 0 1.02 0 0 Z " fill="#F3F1EF" transform="translate(324,584)"/>
<path d="M0 0 C1.03253906 0.01353516 1.03253906 0.01353516 2.0859375 0.02734375 C3.76577838 0.05067487 5.44543746 0.08653674 7.125 0.125 C7.125 0.455 7.125 0.785 7.125 1.125 C1.185 1.62 1.185 1.62 -4.875 2.125 C-4.545 2.785 -4.215 3.445 -3.875 4.125 C-4.535 4.125 -5.195 4.125 -5.875 4.125 C-5.875 4.785 -5.875 5.445 -5.875 6.125 C-2.575 6.125 0.725 6.125 4.125 6.125 C4.125 6.455 4.125 6.785 4.125 7.125 C3.28195312 7.17398438 2.43890625 7.22296875 1.5703125 7.2734375 C0.47460938 7.34820313 -0.62109375 7.42296875 -1.75 7.5 C-3.38582031 7.60441406 -3.38582031 7.60441406 -5.0546875 7.7109375 C-8.00546474 7.85753491 -8.00546474 7.85753491 -9.875 10.125 C-9.215 12.105 -8.555 14.085 -7.875 16.125 C-9.525 16.125 -11.175 16.125 -12.875 16.125 C-13.56207555 13.63435112 -13.875 11.74613708 -13.875 9.125 C-14.535 8.465 -15.195 7.805 -15.875 7.125 C-15.875 4.125 -15.875 4.125 -13.875 2.125 C-9.22271119 0.15088338 -4.98180427 -0.12551057 0 0 Z " fill="#E6E5E4" transform="translate(752.875,559.875)"/>
<path d="M0 0 C8.91 0 17.82 0 27 0 C25.19034476 3.61931048 24.62288851 4.6340299 21.5625 6.8125 C20.66724609 7.47185547 20.66724609 7.47185547 19.75390625 8.14453125 C18 9 18 9 15 8 C15.66 5.69 16.32 3.38 17 1 C11.39 1 5.78 1 0 1 C0 0.67 0 0.34 0 0 Z " fill="#F5F2EF" transform="translate(211,501)"/>
<path d="M0 0 C0.12375 0.598125 0.2475 1.19625 0.375 1.8125 C0.95475985 4.26231348 0.95475985 4.26231348 3 7 C3.99 7.33 4.98 7.66 6 8 C5.67 8.66 5.34 9.32 5 10 C4.34 9.67 3.68 9.34 3 9 C2.690625 9.9590625 2.690625 9.9590625 2.375 10.9375 C1 13 1 13 -2.125 13.75 C-3.548125 13.87375 -3.548125 13.87375 -5 14 C-4.53411505 8.29290936 -3.06242216 4.84060277 0 0 Z " fill="#E4E3DF" transform="translate(258,576)"/>
<path d="M0 0 C1.98 0.66 3.96 1.32 6 2 C5.01 2.495 5.01 2.495 4 3 C4 4.65 4 6.3 4 8 C8.62 8 13.24 8 18 8 C18 8.33 18 8.66 18 9 C16.41058594 9.05607422 16.41058594 9.05607422 14.7890625 9.11328125 C13.40100576 9.17893258 12.01298651 9.24538021 10.625 9.3125 C9.92632812 9.33505859 9.22765625 9.35761719 8.5078125 9.38085938 C6.22711059 9.46984296 6.22711059 9.46984296 3 10 C2.34 10.99 1.68 11.98 1 13 C-0.10228696 8.59085217 -0.07654536 4.51617599 0 0 Z " fill="#363533" transform="translate(146,572)"/>
<path d="M0 0 C1.03253906 0.01353516 1.03253906 0.01353516 2.0859375 0.02734375 C3.76577838 0.05067487 5.44543746 0.08653674 7.125 0.125 C7.125 0.455 7.125 0.785 7.125 1.125 C5.91263672 1.18107422 5.91263672 1.18107422 4.67578125 1.23828125 C3.60714844 1.30402344 2.53851562 1.36976563 1.4375 1.4375 C0.38175781 1.49550781 -0.67398438 1.55351563 -1.76171875 1.61328125 C-6.50353454 2.39267632 -9.6873597 4.60181861 -12.875 8.125 C-13.865 7.795 -14.855 7.465 -15.875 7.125 C-15.875 4.125 -15.875 4.125 -13.875 2.125 C-9.22271119 0.15088338 -4.98180427 -0.12551057 0 0 Z " fill="#DEDDDC" transform="translate(752.875,559.875)"/>
<path d="M0 0 C2.31 0.66 4.62 1.32 7 2 C5.99806563 5.79303725 5.18975773 8.71536341 3 12 C2.67 12.66 2.34 13.32 2 14 C1.34 13.67 0.68 13.34 0 13 C0.66 11.02 1.32 9.04 2 7 C1.34 7 0.68 7 0 7 C0 4.69 0 2.38 0 0 Z " fill="#EFEDEC" transform="translate(762,561)"/>
<path d="M0 0 C5.42892065 0.43431365 8.70796704 1.62768839 13 5 C13.33 5.66 13.66 6.32 14 7 C10.7 7 7.4 7 4 7 C4.33 6.01 4.66 5.02 5 4 C4.01 3.67 3.02 3.34 2 3 C2 2.34 2 1.68 2 1 C1.34 0.67 0.68 0.34 0 0 Z " fill="#EDEDEB" transform="translate(843,464)"/>
<path d="M0 0 C0.66 0.33 1.32 0.66 2 1 C2.144375 1.804375 2.28875 2.60875 2.4375 3.4375 C2.76502717 6.34440658 2.76502717 6.34440658 6 8 C4.75 9.5 4.75 9.5 3 11 C1.68 11 0.36 11 -1 11 C-0.67 9.35 -0.34 7.7 0 6 C-0.66 6 -1.32 6 -2 6 C-2.33 7.32 -2.66 8.64 -3 10 C-3.33 9.34 -3.66 8.68 -4 8 C-3.22265625 6.0546875 -3.22265625 6.0546875 -2.0625 3.875 C-1.49208984 2.78832031 -1.49208984 2.78832031 -0.91015625 1.6796875 C-0.60980469 1.12539063 -0.30945313 0.57109375 0 0 Z " fill="#DCDBD9" transform="translate(721,578)"/>
<path d="M0 0 C0.66 0.66 1.32 1.32 2 2 C-2.95 3.485 -2.95 3.485 -8 5 C-8 5.66 -8 6.32 -8 7 C-9.32 6.67 -10.64 6.34 -12 6 C-12 5.01 -12 4.02 -12 3 C-11.01 3 -10.02 3 -9 3 C-9 2.34 -9 1.68 -9 1 C-5.75778445 -0.08073852 -3.39597063 -0.21676408 0 0 Z " fill="#F1F0F2" transform="translate(455,385)"/>
<path d="M0 0 C0.33 0 0.66 0 1 0 C1 2.64 1 5.28 1 8 C2.32 8.66 3.64 9.32 5 10 C4.34 10.66 3.68 11.32 3 12 C2.67 12.66 2.34 13.32 2 14 C1.34 13.67 0.68 13.34 0 13 C0 12.34 0 11.68 0 11 C-0.99 11 -1.98 11 -3 11 C-3.33 10.01 -3.66 9.02 -4 8 C-3.34 8 -2.68 8 -2 8 C-2 7.34 -2 6.68 -2 6 C-1.34 6 -0.68 6 0 6 C0 4.02 0 2.04 0 0 Z " fill="#DEDFDE" transform="translate(301,593)"/>
<path d="M0 0 C4.95 1.98 4.95 1.98 10 4 C10 4.99 10 5.98 10 7 C6.7 6.34 3.4 5.68 0 5 C0 3.33333333 0 1.66666667 0 0 Z " fill="#F1F0EF" transform="translate(724,648)"/>
<path d="M0 0 C8.91 0 17.82 0 27 0 C25 4 25 4 23 5 C23 4.01 23 3.02 23 2 C11.615 1.505 11.615 1.505 0 1 C0 0.67 0 0.34 0 0 Z " fill="#BEBCBB" transform="translate(211,501)"/>
<path d="M0 0 C0.66 0.33 1.32 0.66 2 1 C1.360625 1.37125 0.72125 1.7425 0.0625 2.125 C-2.63858072 4.58052793 -2.68407005 6.44578805 -3 10 C-3.33 9.34 -3.66 8.68 -4 8 C-6.32156597 7.59270772 -8.6568787 7.25561323 -11 7 C-7.53252172 4.22601737 -3.93597489 2.04087587 0 0 Z " fill="#E7E7E6" transform="translate(322,645)"/>
<path d="M0 0 C0.4125 0.639375 0.825 1.27875 1.25 1.9375 C3.17810487 4.20990931 4.11424181 4.60196439 7 5 C6.67 6.32 6.34 7.64 6 9 C4.68 8.67 3.36 8.34 2 8 C2 8.66 2 9.32 2 10 C1.34 10 0.68 10 0 10 C0 9.01 0 8.02 0 7 C-0.66 6.34 -1.32 5.68 -2 5 C-1.34 3.35 -0.68 1.7 0 0 Z " fill="#EEEDEB" transform="translate(747,580)"/>
<path d="M0 0 C-1.5625 2.5625 -1.5625 2.5625 -4 5 C-7.75 4.8125 -7.75 4.8125 -11 4 C-11 3.34 -11 2.68 -11 2 C-7.17679443 0.57741188 -4.08718695 -0.24042276 0 0 Z " fill="#F3F1EF" transform="translate(161,573)"/>
<path d="M0 0 C0.66 0.99 1.32 1.98 2 3 C1.67 3.598125 1.34 4.19625 1 4.8125 C-0.20787988 7.05386471 -0.20787988 7.05386471 0 10 C-2.64 10 -5.28 10 -8 10 C-8 9.34 -8 8.68 -8 8 C-6.28340568 6.64196324 -4.46815118 5.50169742 -2.62890625 4.31640625 C-0.70046284 2.99986714 -0.70046284 2.99986714 0 0 Z " fill="#E6E4E3" transform="translate(812,390)"/>
<path d="M0 0 C1.31223496 3.93670488 0.24296256 6.12488144 -1 10 C-3 7 -3 7 -3 5 C-3.66 5 -4.32 5 -5 5 C-5 5.66 -5 6.32 -5 7 C-5.99 6.67 -6.98 6.34 -8 6 C-5.38485683 3.87961365 -2.80362384 1.86908256 0 0 Z " fill="#DDDAD5" transform="translate(382,451)"/>
<path d="M0 0 C0.70125 0.2475 1.4025 0.495 2.125 0.75 C-0.41956151 3.71865509 -3.36494665 5.1119751 -6.875 6.75 C-6.875 6.09 -6.875 5.43 -6.875 4.75 C-7.535 4.42 -8.195 4.09 -8.875 3.75 C-3.58269231 -0.31153846 -3.58269231 -0.31153846 0 0 Z " fill="#EDECEE" transform="translate(376.875,434.25)"/>
<path d="M0 0 C3.96 0 7.92 0 12 0 C12 0.99 12 1.98 12 3 C8.04 3 4.08 3 0 3 C0 2.01 0 1.02 0 0 Z " fill="#FCFBF7" transform="translate(150,577)"/>
<path d="M0 0 C-3.00617269 3.00617269 -5.82381598 2.59585316 -10 3 C-8.5511811 -0.74278215 -8.5511811 -0.74278215 -6.125 -1.875 C-3.52613603 -2.02787435 -2.1980747 -1.33454536 0 0 Z " fill="#EAEAEA" transform="translate(326,467)"/>
<path d="M0 0 C1.32 0.66 2.64 1.32 4 2 C3.67 3.65 3.34 5.3 3 7 C1.68 7.33 0.36 7.66 -1 8 C-1 7.01 -1 6.02 -1 5 C-1.66 4.67 -2.32 4.34 -3 4 C-2.34 4 -1.68 4 -1 4 C0.1490712 2.0745356 0.1490712 2.0745356 0 0 Z " fill="#E7E6E5" transform="translate(298,625)"/>
<path d="M0 0 C0 2.33333333 0 4.66666667 0 7 C0.33 7.99 0.66 8.98 1 10 C0.01 10 -0.98 10 -2 10 C-4 7 -4 7 -3.8125 4.4375 C-3 2 -3 2 0 0 Z " fill="#E4E3E0" transform="translate(810,470)"/>
<path d="M0 0 C0.33 0.99 0.66 1.98 1 3 C-0.32 3.99 -1.64 4.98 -3 6 C-2 4 -1 2 0 0 Z M-4 6 C-3.34 7.32 -2.68 8.64 -2 10 C-3.98 10.99 -3.98 10.99 -6 12 C-6.66 11.34 -7.32 10.68 -8 10 C-6.68 8.68 -5.36 7.36 -4 6 Z " fill="#EFF0EE" transform="translate(339,628)"/>
<path d="M0 0 C2.12038635 2.61514317 4.13091744 5.19637616 6 8 C5.01 8 4.02 8 3 8 C3 7.34 3 6.68 3 6 C1.68 6.33 0.36 6.66 -1 7 C-1.33 5.68 -1.66 4.36 -2 3 C-1.34 3 -0.68 3 0 3 C0 2.01 0 1.02 0 0 Z " fill="#EBEAE8" transform="translate(237,625)"/>
<path d="M0 0 C0.33 0.99 0.66 1.98 1 3 C-0.98 3.66 -2.96 4.32 -5 5 C-5 4.01 -5 3.02 -5 2 C-6.32 2.33 -7.64 2.66 -9 3 C-8 1 -8 1 -5.0625 -0.1875 C-2 -1 -2 -1 0 0 Z " fill="#F0EEED" transform="translate(769,627)"/>
<path d="M0 0 C2.64 0 5.28 0 8 0 C6.68 0.33 5.36 0.66 4 1 C4 1.99 4 2.98 4 4 C2.02 4.66 0.04 5.32 -2 6 C-1.34 4.02 -0.68 2.04 0 0 Z " fill="#2B2D2D" transform="translate(749,609)"/>
<path d="M0 0 C1.32 0.66 2.64 1.32 4 2 C2.9171875 2.5878125 2.9171875 2.5878125 1.8125 3.1875 C-1.22801329 5.1469419 -3.48374365 7.41573672 -6 10 C-6.99 10.495 -6.99 10.495 -8 11 C-6.63629701 8.00779732 -5.05091917 5.70973471 -2.875 3.25 C-2.33617187 2.63640625 -1.79734375 2.0228125 -1.2421875 1.390625 C-0.62730469 0.70226562 -0.62730469 0.70226562 0 0 Z " fill="#EAE9E8" transform="translate(874,588)"/>
<path d="M0 0 C1.32 0.66 2.64 1.32 4 2 C2.25 4.0625 2.25 4.0625 0 6 C-2.25 5.75 -2.25 5.75 -4 5 C-2.68 3.35 -1.36 1.7 0 0 Z " fill="#F7F5F3" transform="translate(298,561)"/>
<path d="M0 0 C0.99 0.33 1.98 0.66 3 1 C1.35 3.64 -0.3 6.28 -2 9 C-2.33 8.01 -2.66 7.02 -3 6 C-2.67 5.34 -2.34 4.68 -2 4 C-2.66 3.67 -3.32 3.34 -4 3 C-2.1875 1.4375 -2.1875 1.4375 0 0 Z " fill="#DFE1E2" transform="translate(771,430)"/>
<path d="M0 0 C1.98 0 3.96 0 6 0 C5.39816251 2.02045442 4.72693904 4.02111039 4 6 C3.01 6.495 3.01 6.495 2 7 C1.34 4.69 0.68 2.38 0 0 Z " fill="#EAE6E3" transform="translate(709,397)"/>
<path d="M0 0 C-2.31 1.65 -4.62 3.3 -7 5 C-7.33 3.68 -7.66 2.36 -8 1 C-4.59449725 -1.06762667 -4.18836538 -1.04709135 0 0 Z " fill="#141515" transform="translate(326,643)"/>
<path d="M0 0 C0.66 0 1.32 0 2 0 C2 0.66 2 1.32 2 2 C3.32 2.33 4.64 2.66 6 3 C6 3.99 6 4.98 6 6 C5.01 6.33 4.02 6.66 3 7 C2.67 5.68 2.34 4.36 2 3 C1.34 3 0.68 3 0 3 C0 2.01 0 1.02 0 0 Z " fill="#F5F5F3" transform="translate(238,631)"/>
<path d="M0 0 C1.32 0.33 2.64 0.66 4 1 C1.03 4.96 1.03 4.96 -2 9 C-2.33 7.68 -2.66 6.36 -3 5 C-2.01 4.67 -1.02 4.34 0 4 C0 2.68 0 1.36 0 0 Z " fill="#E5E3E1" transform="translate(782,614)"/>
<path d="M0 0 C0.33 0.66 0.66 1.32 1 2 C1.99 1.67 2.98 1.34 4 1 C4 2.65 4 4.3 4 6 C2.35 6.33 0.7 6.66 -1 7 C-0.67 4.69 -0.34 2.38 0 0 Z " fill="#EDECEC" transform="translate(175,584)"/>
<path d="M0 0 C2.475 0.99 2.475 0.99 5 2 C5 3.32 5 4.64 5 6 C3.02 5.34 1.04 4.68 -1 4 C-0.67 2.68 -0.34 1.36 0 0 Z " fill="#E2E3E2" transform="translate(820,484)"/>
<path d="M0 0 C0.33 0.66 0.66 1.32 1 2 C-1.125 4.0625 -1.125 4.0625 -4 6 C-7.3125 5.75 -7.3125 5.75 -10 5 C-6.7321794 2.82145293 -3.61941735 1.50239966 0 0 Z " fill="#D9D9D8" transform="translate(781,648)"/>
<path d="M0 0 C-4.95 2.97 -4.95 2.97 -10 6 C-10 5.01 -10 4.02 -10 3 C-6.70209424 0.0432569 -4.39002152 -1.46334051 0 0 Z " fill="#181716" transform="translate(373,458)"/>
<path d="M0 0 C1.98 0.99 3.96 1.98 6 3 C5.34 4.98 4.68 6.96 4 9 C2.24901874 6.37352812 0.61268692 3.71224618 -1 1 C-0.67 0.67 -0.34 0.34 0 0 Z " fill="#F2F0EF" transform="translate(858,455)"/>
<path d="M0 0 C0.33 1.32 0.66 2.64 1 4 C0.01 4.495 0.01 4.495 -1 5 C-0.67 5.99 -0.34 6.98 0 8 C-1.32 7.34 -2.64 6.68 -4 6 C-3.6875 4.125 -3.6875 4.125 -3 2 C-2.01 1.34 -1.02 0.68 0 0 Z " fill="#E6E4DE" transform="translate(802,399)"/>
<path d="M0 0 C-0.33 1.98 -0.66 3.96 -1 6 C-2.65 5.67 -4.3 5.34 -6 5 C-6 4.01 -6 3.02 -6 2 C-2.25 0 -2.25 0 0 0 Z " fill="#ECEAE7" transform="translate(322,605)"/>
<path d="M0 0 C0.66 1.32 1.32 2.64 2 4 C1.01 5.485 1.01 5.485 0 7 C-1.65 6.67 -3.3 6.34 -5 6 C-4.34 5.01 -3.68 4.02 -3 3 C-2.34 3 -1.68 3 -1 3 C-0.67 2.01 -0.34 1.02 0 0 Z " fill="#202121" transform="translate(317,620)"/>
<path d="M0 0 C4.95 0.33 9.9 0.66 15 1 C15 1.33 15 1.66 15 2 C10.05 2.33 5.1 2.66 0 3 C0 2.01 0 1.02 0 0 Z " fill="#CCCBCA" transform="translate(279,565)"/>
<path d="M0 0 C1.32 0.66 2.64 1.32 4 2 C1.94766315 4.2477975 0.99332739 5.0022242 -2 6 C-2.33 4.68 -2.66 3.36 -3 2 C-2.01 1.34 -1.02 0.68 0 0 Z " fill="#E6E5E7" transform="translate(428,403)"/>
<path d="M0 0 C0.33 0 0.66 0 1 0 C1 3.63 1 7.26 1 11 C0.34 11 -0.32 11 -1 11 C-2.26264601 6.70700357 -1.62950412 4.12168689 0 0 Z " fill="#E0DEDE" transform="translate(147,585)"/>
<path d="M0 0 C2.475 0.495 2.475 0.495 5 1 C5 2.98 5 4.96 5 7 C2.5 5.1875 2.5 5.1875 0 3 C0 2.01 0 1.02 0 0 Z " fill="#E8E7E6" transform="translate(810,417)"/>
<path d="M0 0 C1.65 0 3.3 0 5 0 C5 0.66 5 1.32 5 2 C4.01 2 3.02 2 2 2 C2 2.99 2 3.98 2 5 C1.01 4.67 0.02 4.34 -1 4 C-0.67 2.68 -0.34 1.36 0 0 Z " fill="#121212" transform="translate(776,625)"/>
<path d="M0 0 C1.32 0.33 2.64 0.66 4 1 C4 1.99 4 2.98 4 4 C4.66 4 5.32 4 6 4 C5.67 4.99 5.34 5.98 5 7 C2.47411298 4.63707344 1.11179163 3.33537489 0 0 Z " fill="#EAE8E3" transform="translate(720,613)"/>
<path d="M0 0 C2.375 0.3125 2.375 0.3125 5 1 C5.66 1.99 6.32 2.98 7 4 C5.35 4.33 3.7 4.66 2 5 C1.67 4.34 1.34 3.68 1 3 C1.33 2.34 1.66 1.68 2 1 C1.34 0.67 0.68 0.34 0 0 Z " fill="#E8E6E4" transform="translate(176,571)"/>
<path d="M0 0 C0.33 0.66 0.66 1.32 1 2 C1.99 2.33 2.98 2.66 4 3 C3.01 4.32 2.02 5.64 1 7 C0.01 6.01 -0.98 5.02 -2 4 C-1.34 2.68 -0.68 1.36 0 0 Z " fill="#EBEBEA" transform="translate(147,529)"/>
<path d="M0 0 C0.66 0.33 1.32 0.66 2 1 C1 4 1 4 -1.4375 5.75 C-2.7059375 6.36875 -2.7059375 6.36875 -4 7 C-4.66 6.67 -5.32 6.34 -6 6 C-4 4 -2 2 0 0 Z " fill="#131312" transform="translate(331,464)"/>
<path d="M0 0 C0.66 0.33 1.32 0.66 2 1 C0.6875 2.5 0.6875 2.5 -1 4 C-1.99 4 -2.98 4 -4 4 C-4.33 4.66 -4.66 5.32 -5 6 C-5 5.34 -5 4.68 -5 4 C-5.66 3.67 -6.32 3.34 -7 3 C-4.69631264 1.93347808 -2.35981813 0.93578995 0 0 Z " fill="#D3D2CF" transform="translate(861,600)"/>
<path d="M0 0 C-1.32 1.32 -2.64 2.64 -4 4 C-6.475 3.01 -6.475 3.01 -9 2 C-5.86501708 0.14223235 -3.62528568 -0.20140476 0 0 Z " fill="#D9D7D7" transform="translate(161,573)"/>
<path d="M0 0 C0.99 0.33 1.98 0.66 3 1 C2.67 1.66 2.34 2.32 2 3 C-0.64860427 3.59355614 -3.29197322 3.74209269 -6 4 C-4.03617993 2.49440461 -2.21736634 1.10868317 0 0 Z " fill="#D6D6D6" transform="translate(181,508)"/>
<path d="M0 0 C0.66 0.33 1.32 0.66 2 1 C1.67 1.66 1.34 2.32 1 3 C0.34 3 -0.32 3 -1 3 C-1 3.66 -1 4.32 -1 5 C-2.65 4.67 -4.3 4.34 -6 4 C-4.03617993 2.49440461 -2.21736634 1.10868317 0 0 Z " fill="#DFDEDC" transform="translate(819,465)"/>
<path d="M0 0 C-1.75 4.875 -1.75 4.875 -4 6 C-4.66 4.68 -5.32 3.36 -6 2 C-2.25 0 -2.25 0 0 0 Z " fill="#191918" transform="translate(444,400)"/>
<path d="M0 0 C1.98 0 3.96 0 6 0 C6 0.66 6 1.32 6 2 C5.34 2 4.68 2 4 2 C4 2.66 4 3.32 4 4 C2.68 3.67 1.36 3.34 0 3 C0 2.01 0 1.02 0 0 Z " fill="#E7E6E7" transform="translate(443,388)"/>
</svg>
