<?xml version="1.0" encoding="UTF-8"?>
<svg xmlns="http://www.w3.org/2000/svg" xmlns:xlink="http://www.w3.org/1999/xlink" width="3776" height="1476" viewBox="0 0 3776 1476">
<path fill-rule="nonzero" fill="rgb(0%, 0%, 0%)" fill-opacity="1" d="M 2892.398438 69.941406 L 3261.730469 69.941406 C 3275.039062 69.941406 3286.878906 78.371094 3291.25 90.929688 L 3362.171875 294.828125 C 3366.980469 308.660156 3361.53125 323.980469 3349.070312 331.679688 L 3149.898438 454.71875 C 3144.96875 457.769531 3139.28125 459.390625 3133.480469 459.390625 L 2892.398438 459.421875 C 2884.109375 459.421875 2876.160156 456.121094 2870.300781 450.269531 C 2864.441406 444.410156 2861.148438 436.460938 2861.148438 428.171875 L 2861.148438 101.191406 C 2861.148438 92.910156 2864.441406 84.960938 2870.300781 79.101562 C 2876.160156 73.238281 2884.109375 69.941406 2892.398438 69.941406 Z M 2074.53125 69.941406 L 2754.5 69.941406 C 2771.761719 69.941406 2785.75 83.929688 2785.75 101.191406 L 2785.75 428.210938 C 2785.75 445.460938 2771.769531 459.441406 2754.519531 459.449219 L 2157.769531 459.738281 L 2091.570312 459.78125 L 2058.878906 459.800781 L 2058.859375 459.800781 C 2050.578125 459.800781 2042.628906 456.511719 2036.769531 450.648438 C 2030.910156 444.789062 2027.609375 436.839844 2027.609375 428.550781 L 2027.609375 101.191406 C 2027.609375 83.929688 2041.601562 69.941406 2058.859375 69.941406 Z M 1553.25 69.941406 L 1920.96875 69.941406 C 1938.230469 69.941406 1952.21875 83.929688 1952.21875 101.191406 L 1952.21875 428.621094 C 1952.21875 445.871094 1938.230469 459.859375 1920.980469 459.871094 L 1217.429688 460.109375 L 1217.429688 460.121094 C 1220.878906 457.941406 1223.929688 455.601562 1226.570312 453.089844 C 1231.558594 448.480469 1235.480469 443.429688 1238.328125 437.941406 L 1238.328125 437.929688 C 1239.269531 436.558594 1240.089844 435 1240.78125 433.269531 C 1242.601562 428.640625 1244.019531 420.960938 1245.011719 410.238281 C 1245.058594 409.710938 1245.078125 409.191406 1245.070312 408.660156 C 1244.910156 397.640625 1243.671875 386.320312 1241.378906 374.691406 C 1240.25 369.03125 1235.949219 364.640625 1230.511719 363.289062 C 1229.589844 363.058594 1228.628906 362.921875 1227.648438 362.871094 L 1141.121094 358.839844 L 1141.109375 358.851562 C 1208.539062 291.820312 1264.808594 242.339844 1309.160156 209.410156 C 1362.828125 169.558594 1438.789062 123.148438 1539.320312 73.210938 C 1543.640625 71.058594 1548.410156 69.941406 1553.230469 69.941406 Z M 1863.660156 568.25 L 1903.261719 568.25 L 1942.859375 568.257812 C 1942.859375 568.257812 1942.859375 568.257812 1942.871094 568.257812 C 1948.03125 568.257812 1952.21875 572.445312 1952.21875 577.609375 L 1952.21875 599.378906 C 1952.21875 604.546875 1948.03125 608.734375 1942.859375 608.734375 L 1863.660156 608.738281 C 1861.171875 608.734375 1858.789062 607.75 1857.039062 605.996094 C 1855.289062 604.242188 1854.300781 601.859375 1854.300781 599.378906 L 1854.300781 577.609375 C 1854.300781 575.125 1855.289062 572.746094 1857.039062 570.992188 C 1858.789062 569.234375 1861.171875 568.25 1863.660156 568.25 Z M 2697.191406 568.25 L 2736.789062 568.25 L 2776.390625 568.257812 L 2776.398438 568.257812 C 2781.570312 568.257812 2785.75 572.445312 2785.75 577.609375 L 2785.75 599.378906 C 2785.75 604.546875 2781.558594 608.734375 2776.390625 608.734375 L 2697.191406 608.738281 C 2694.710938 608.734375 2692.328125 607.75 2690.570312 605.996094 C 2688.820312 604.242188 2687.828125 601.859375 2687.828125 599.378906 L 2687.828125 577.609375 C 2687.828125 575.125 2688.820312 572.746094 2690.570312 570.992188 C 2692.328125 569.234375 2694.710938 568.25 2697.191406 568.25 Z M 3471.230469 584.824219 L 3536.328125 584.824219 L 3536.53125 763.425781 C 3514.769531 763.425781 3493 763.425781 3471.230469 763.425781 C 3462.589844 763.425781 3455.589844 756.417969 3455.589844 747.773438 L 3455.589844 600.476562 C 3455.589844 591.832031 3462.589844 584.824219 3471.230469 584.824219 Z M 104.121094 620.496094 C 110.046875 620.496094 115.277344 624.433594 116.894531 630.164062 C 128.628906 671.679688 140.632812 714.136719 152.898438 757.535156 C 154.046875 761.597656 153.195312 765.960938 150.609375 769.292969 C 148.089844 772.539062 144.214844 774.425781 140.121094 774.425781 C 140.007812 774.425781 139.894531 774.425781 139.78125 774.421875 C 108.179688 773.617188 82.714844 772.964844 63.394531 772.472656 L 61.136719 621.570312 L 72.402344 621.289062 L 103.785156 620.503906 C 103.898438 620.5 104.007812 620.496094 104.121094 620.496094 Z M 3361.070312 0 C 2125.039062 0 1507.019531 0 1507.019531 0 C 1499.410156 0 1492.230469 1.828125 1485.890625 5.070312 L 1485.871094 5.070312 C 1355.070312 66.628906 1258.089844 121.828125 1194.929688 170.671875 L 1194.921875 170.679688 C 1129.019531 217.941406 1038.960938 303.058594 924.734375 426.011719 L 924.722656 426.019531 C 699.980469 433.058594 541.261719 444.929688 448.574219 461.628906 L 448.570312 461.628906 C 348.203125 476.632812 223.183594 512.480469 73.511719 569.167969 C 55.171875 576.113281 43.148438 593.808594 43.441406 613.417969 L 46.019531 786.035156 L 16.527344 810.941406 C 5.984375 819.84375 -0.0703125 832.964844 0 846.761719 L 0.929688 1029.964844 C 1.019531 1047.160156 10.578125 1062.910156 25.792969 1070.929688 L 164.722656 1144.136719 C 164.378906 1137.207031 164.207031 1130.242188 164.207031 1123.234375 C 164.207031 1008.699219 210.640625 905.03125 285.691406 830.046875 C 360.675781 754.996094 464.34375 708.5625 578.878906 708.5625 C 693.414062 708.5625 797.082031 754.996094 872.066406 830.046875 C 947.117188 905.097656 993.550781 1008.765625 993.550781 1123.234375 C 993.550781 1149.695312 991.074219 1175.578125 986.335938 1200.660156 L 986.335938 1200.664062 C 1529.199219 1200.660156 2072.058594 1200.65625 2614.929688 1200.65625 L 2614.949219 1200.660156 L 2614.949219 1200.667969 C 2610.21875 1175.574219 2607.738281 1149.691406 2607.738281 1123.234375 C 2607.730469 1008.699219 2654.171875 905.03125 2729.21875 830.046875 C 2804.210938 754.996094 2907.878906 708.5625 3022.410156 708.5625 C 3136.949219 708.5625 3240.609375 754.996094 3315.589844 830.046875 C 3390.648438 905.097656 3437.078125 1008.765625 3437.078125 1123.234375 C 3437.078125 1141.125 3435.949219 1158.75 3433.75 1176.042969 L 3433.75 1176.046875 L 3570.46875 1154.691406 C 3592.191406 1151.300781 3608.589844 1133.179688 3609.789062 1111.230469 L 3614.359375 1027.917969 L 3614.328125 1027.921875 C 3658.980469 1027.914062 3703.628906 1027.910156 3748.28125 1027.910156 L 3748.320312 1027.914062 C 3763.148438 1027.910156 3775.171875 1015.890625 3775.171875 1001.0625 L 3775.171875 403.421875 C 3775.171875 388.589844 3763.148438 376.570312 3748.320312 376.570312 L 3565.851562 376.570312 C 3558.730469 376.570312 3551.898438 379.398438 3546.859375 384.429688 C 3541.828125 389.46875 3539 396.300781 3539 403.421875 L 3539 477.476562 L 3405.71875 33.191406 C 3399.808594 13.488281 3381.679688 0 3361.109375 0 Z M 3361.070312 0 "/>
<path fill-rule="nonzero" fill="rgb(0%, 0%, 0%)" fill-opacity="1" d="M 599.5625 939.28125 C 599.472656 939.28125 599.382812 939.3125 599.3125 939.375 C 599.234375 939.445312 599.1875 939.546875 599.1875 939.652344 L 599.1875 1060.664062 L 599.199219 1060.746094 C 599.300781 1061.207031 599.304688 1061.683594 599.25 1062.171875 L 599.492188 1062.5625 C 607.863281 1065.636719 615.4375 1070.480469 621.644531 1076.683594 C 623.753906 1078.792969 625.746094 1081.070312 627.507812 1083.515625 L 627.917969 1083.652344 L 628.488281 1083.480469 L 748.917969 1051.226562 C 749.023438 1051.199219 749.109375 1051.125 749.15625 1051.03125 C 749.203125 1050.929688 749.207031 1050.820312 749.164062 1050.71875 C 739.804688 1028.730469 726.316406 1008.925781 709.664062 992.332031 C 680.785156 963.453125 642.378906 944.046875 599.601562 939.28125 C 599.589844 939.28125 599.574219 939.28125 599.5625 939.28125 Z M 556.992188 939.449219 C 556.976562 939.449219 556.960938 939.453125 556.945312 939.453125 C 514.578125 944.449219 476.566406 963.742188 447.976562 992.390625 L 447.976562 992.394531 C 432.1875 1008.179688 419.214844 1026.832031 409.914062 1047.503906 C 409.867188 1047.601562 409.867188 1047.714844 409.914062 1047.808594 C 409.957031 1047.90625 410.039062 1047.980469 410.140625 1048.015625 L 528.804688 1085.085938 L 529.21875 1084.945312 C 531.269531 1082.039062 533.550781 1079.246094 536.109375 1076.746094 L 536.109375 1076.742188 C 542.089844 1070.820312 549.269531 1066.089844 557.238281 1063.015625 L 557.476562 1062.636719 C 557.417969 1061.996094 557.363281 1061.34375 557.363281 1060.722656 L 557.363281 939.824219 C 557.363281 939.71875 557.316406 939.617188 557.238281 939.546875 C 557.167969 939.484375 557.082031 939.449219 556.992188 939.449219 Z M 578.878906 1086.648438 C 569.78125 1086.648438 561.550781 1090.296875 555.636719 1096.210938 L 555.582031 1096.269531 C 549.667969 1102.179688 546.015625 1110.351562 546.015625 1119.507812 C 546.015625 1128.605469 549.667969 1136.835938 555.582031 1142.75 L 555.636719 1142.804688 C 561.550781 1148.71875 569.722656 1152.367188 578.878906 1152.367188 C 587.976562 1152.367188 596.207031 1148.71875 602.117188 1142.804688 L 602.175781 1142.75 C 608.089844 1136.835938 611.738281 1128.605469 611.738281 1119.507812 L 611.738281 1119.503906 C 611.679688 1110.351562 608.03125 1102.179688 602.121094 1096.210938 L 602.117188 1096.210938 C 596.207031 1090.296875 588.035156 1086.648438 578.878906 1086.648438 Z M 760.910156 1091.460938 C 760.878906 1091.460938 760.847656 1091.464844 760.816406 1091.472656 L 639.515625 1123.960938 L 639.242188 1124.289062 C 638.445312 1134.144531 635.3125 1143.367188 630.300781 1151.398438 L 630.355469 1151.859375 L 630.351562 1151.863281 C 630.601562 1152.164062 630.8125 1152.53125 631.039062 1152.925781 L 631.046875 1152.9375 L 700.203125 1262.546875 C 700.261719 1262.640625 700.359375 1262.703125 700.464844 1262.71875 C 700.484375 1262.722656 700.5 1262.722656 700.519531 1262.722656 C 700.609375 1262.722656 700.695312 1262.691406 700.765625 1262.632812 C 703.863281 1259.933594 706.855469 1257.113281 709.78125 1254.191406 C 743.253906 1220.71875 763.976562 1174.386719 763.976562 1123.289062 C 763.976562 1112.546875 763.058594 1102.050781 761.28125 1091.769531 C 761.261719 1091.667969 761.199219 1091.574219 761.113281 1091.519531 C 761.050781 1091.480469 760.980469 1091.460938 760.910156 1091.460938 Z M 397.417969 1087.851562 C 397.351562 1087.851562 397.285156 1087.867188 397.226562 1087.902344 C 397.136719 1087.957031 397.070312 1088.046875 397.050781 1088.152344 L 397.050781 1088.160156 C 394.871094 1099.519531 393.722656 1111.242188 393.722656 1123.230469 C 393.722656 1174.332031 414.445312 1220.660156 447.917969 1254.132812 L 447.925781 1254.136719 C 451.53125 1257.742188 455.339844 1261.261719 459.289062 1264.582031 C 459.355469 1264.640625 459.441406 1264.671875 459.527344 1264.671875 C 459.546875 1264.671875 459.566406 1264.667969 459.585938 1264.664062 C 459.695312 1264.648438 459.789062 1264.585938 459.847656 1264.492188 L 527.457031 1154.539062 L 527.460938 1154.542969 C 527.8125 1154.121094 528.09375 1153.667969 528.371094 1153.226562 L 528.390625 1152.859375 L 528.386719 1152.859375 L 528.363281 1152.816406 C 523.128906 1144.960938 519.710938 1135.792969 518.6875 1126 C 518.664062 1125.808594 518.503906 1125.667969 518.316406 1125.667969 L 518.296875 1125.671875 L 397.527344 1087.867188 C 397.492188 1087.855469 397.457031 1087.851562 397.417969 1087.851562 Z M 596.699219 1177.367188 C 591.066406 1179.128906 585.085938 1180.042969 578.878906 1180.042969 C 573.292969 1180.042969 567.886719 1179.300781 562.707031 1177.878906 L 562.289062 1178.042969 L 494.792969 1287.765625 C 494.738281 1287.851562 494.722656 1287.960938 494.75 1288.0625 C 494.777344 1288.160156 494.847656 1288.246094 494.941406 1288.292969 C 520.140625 1301.152344 548.683594 1308.386719 578.878906 1308.386719 C 610.222656 1308.386719 639.738281 1300.578125 665.628906 1286.859375 C 665.722656 1286.808594 665.789062 1286.726562 665.816406 1286.625 C 665.839844 1286.523438 665.824219 1286.417969 665.769531 1286.328125 L 597.128906 1177.523438 Z M 578.878906 896.089844 C 641.585938 896.089844 698.398438 921.492188 739.480469 962.628906 C 780.5625 1003.710938 806.023438 1060.527344 806.023438 1123.230469 C 806.023438 1185.941406 780.621094 1242.753906 739.480469 1283.832031 L 739.480469 1283.835938 C 698.398438 1324.914062 641.585938 1350.375 578.878906 1350.375 C 516.167969 1350.375 459.355469 1324.972656 418.273438 1283.835938 C 377.191406 1242.753906 351.734375 1185.941406 351.734375 1123.230469 C 351.734375 1060.523438 377.136719 1003.710938 418.273438 962.628906 L 418.273438 962.632812 C 459.355469 921.550781 516.167969 896.089844 578.878906 896.089844 Z M 578.878906 771.199219 C 481.644531 771.199219 393.636719 810.621094 329.980469 874.335938 C 266.265625 937.992188 226.84375 1026 226.84375 1123.230469 C 226.84375 1220.464844 266.265625 1308.472656 329.980469 1372.128906 C 393.636719 1435.84375 481.644531 1475.265625 578.878906 1475.265625 C 676.054688 1475.261719 764.0625 1435.84375 827.777344 1372.128906 C 891.492188 1308.472656 930.914062 1220.464844 930.914062 1123.230469 C 930.914062 1026.058594 891.492188 938.046875 827.777344 874.335938 C 764.121094 810.621094 676.113281 771.199219 578.878906 771.199219 Z M 578.878906 771.199219 "/>
<path fill-rule="nonzero" fill="rgb(0%, 0%, 0%)" fill-opacity="1" d="M 3043.089844 939.28125 C 3043 939.28125 3042.910156 939.3125 3042.839844 939.375 C 3042.769531 939.445312 3042.71875 939.546875 3042.71875 939.652344 L 3042.71875 1060.664062 L 3042.730469 1060.746094 C 3042.828125 1061.207031 3042.828125 1061.683594 3042.78125 1062.167969 L 3043.019531 1062.5625 C 3051.390625 1065.636719 3058.96875 1070.480469 3065.179688 1076.683594 C 3067.289062 1078.792969 3069.269531 1081.070312 3071.039062 1083.515625 L 3071.449219 1083.652344 L 3072.019531 1083.480469 L 3192.449219 1051.226562 C 3192.558594 1051.199219 3192.640625 1051.125 3192.691406 1051.03125 C 3192.730469 1050.933594 3192.738281 1050.820312 3192.699219 1050.71875 C 3183.339844 1028.730469 3169.851562 1008.925781 3153.199219 992.332031 C 3124.320312 963.453125 3085.910156 944.046875 3043.128906 939.28125 C 3043.121094 939.28125 3043.109375 939.28125 3043.089844 939.28125 Z M 3000.519531 939.453125 C 3000.511719 939.453125 3000.488281 939.453125 3000.480469 939.453125 C 2958.109375 944.449219 2920.101562 963.742188 2891.511719 992.390625 L 2891.511719 992.394531 C 2875.71875 1008.179688 2862.75 1026.832031 2853.441406 1047.503906 C 2853.398438 1047.601562 2853.398438 1047.714844 2853.441406 1047.8125 C 2853.488281 1047.90625 2853.570312 1047.980469 2853.671875 1048.015625 L 2972.339844 1085.085938 L 2972.75 1084.945312 C 2974.800781 1082.039062 2977.078125 1079.246094 2979.640625 1076.746094 L 2979.640625 1076.742188 C 2985.621094 1070.820312 2992.800781 1066.089844 3000.769531 1063.015625 L 3001.011719 1062.636719 C 3000.949219 1061.996094 3000.890625 1061.34375 3000.890625 1060.722656 L 3000.890625 939.824219 C 3000.890625 939.71875 3000.851562 939.617188 3000.769531 939.546875 C 3000.699219 939.484375 3000.609375 939.453125 3000.519531 939.453125 Z M 3022.410156 1086.648438 C 3013.308594 1086.648438 3005.078125 1090.296875 2999.171875 1096.210938 L 2999.109375 1096.269531 C 2993.199219 1102.179688 2989.550781 1110.351562 2989.550781 1119.507812 C 2989.550781 1128.605469 2993.199219 1136.835938 2999.109375 1142.746094 L 2999.171875 1142.804688 C 3005.078125 1148.71875 3013.25 1152.367188 3022.410156 1152.367188 C 3031.5 1152.367188 3039.730469 1148.71875 3045.648438 1142.804688 L 3045.710938 1142.746094 C 3051.621094 1136.835938 3055.269531 1128.605469 3055.269531 1119.507812 L 3055.269531 1119.503906 C 3055.210938 1110.351562 3051.558594 1102.179688 3045.648438 1096.210938 C 3039.730469 1090.296875 3031.558594 1086.648438 3022.410156 1086.648438 Z M 3204.441406 1091.460938 C 3204.410156 1091.460938 3204.378906 1091.464844 3204.339844 1091.472656 L 3083.050781 1123.960938 L 3082.769531 1124.289062 C 3081.96875 1134.144531 3078.839844 1143.367188 3073.828125 1151.398438 L 3073.878906 1151.859375 L 3073.878906 1151.863281 C 3074.128906 1152.164062 3074.339844 1152.53125 3074.570312 1152.925781 L 3074.578125 1152.9375 L 3143.730469 1262.546875 C 3143.789062 1262.640625 3143.890625 1262.703125 3144 1262.71875 C 3144.019531 1262.722656 3144.03125 1262.722656 3144.050781 1262.722656 C 3144.140625 1262.722656 3144.230469 1262.6875 3144.300781 1262.628906 C 3147.390625 1259.933594 3150.390625 1257.113281 3153.308594 1254.191406 C 3186.78125 1220.71875 3207.511719 1174.386719 3207.511719 1123.289062 C 3207.511719 1112.550781 3206.589844 1102.050781 3204.808594 1091.769531 C 3204.789062 1091.667969 3204.730469 1091.574219 3204.640625 1091.519531 C 3204.578125 1091.480469 3204.511719 1091.460938 3204.441406 1091.460938 Z M 2840.949219 1087.851562 C 2840.878906 1087.851562 2840.820312 1087.867188 2840.761719 1087.902344 C 2840.671875 1087.957031 2840.601562 1088.046875 2840.578125 1088.152344 L 2840.578125 1088.160156 C 2838.398438 1099.519531 2837.25 1111.242188 2837.25 1123.230469 C 2837.25 1174.332031 2857.980469 1220.660156 2891.449219 1254.132812 L 2891.460938 1254.136719 C 2895.058594 1257.742188 2898.871094 1261.261719 2902.820312 1264.582031 C 2902.890625 1264.640625 2902.96875 1264.671875 2903.058594 1264.671875 C 2903.078125 1264.671875 2903.101562 1264.667969 2903.121094 1264.664062 C 2903.230469 1264.648438 2903.320312 1264.585938 2903.378906 1264.492188 L 2970.988281 1154.539062 L 2970.988281 1154.542969 C 2971.339844 1154.121094 2971.628906 1153.667969 2971.898438 1153.222656 L 2971.921875 1152.859375 L 2971.921875 1152.855469 L 2971.890625 1152.816406 C 2966.660156 1144.960938 2963.238281 1135.792969 2962.21875 1126 C 2962.199219 1125.808594 2962.039062 1125.667969 2961.839844 1125.667969 L 2961.828125 1125.667969 L 2841.058594 1087.867188 C 2841.019531 1087.855469 2840.980469 1087.851562 2840.949219 1087.851562 Z M 3040.230469 1177.367188 C 3034.601562 1179.128906 3028.621094 1180.042969 3022.410156 1180.042969 C 3016.820312 1180.042969 3011.421875 1179.300781 3006.230469 1177.878906 L 3005.820312 1178.042969 L 2938.320312 1287.765625 C 2938.269531 1287.851562 2938.25 1287.960938 2938.28125 1288.0625 C 2938.308594 1288.160156 2938.378906 1288.246094 2938.46875 1288.292969 C 2963.671875 1301.152344 2992.21875 1308.386719 3022.410156 1308.386719 C 3053.75 1308.386719 3083.269531 1300.578125 3109.160156 1286.859375 C 3109.25 1286.808594 3109.320312 1286.726562 3109.339844 1286.625 C 3109.371094 1286.523438 3109.359375 1286.417969 3109.300781 1286.328125 L 3040.660156 1177.523438 Z M 3022.410156 896.089844 C 3085.121094 896.089844 3141.929688 921.492188 3183.011719 962.628906 L 3183.011719 962.632812 C 3224.089844 1003.710938 3249.550781 1060.527344 3249.550781 1123.230469 C 3249.550781 1185.941406 3224.148438 1242.753906 3183.011719 1283.835938 C 3141.929688 1324.914062 3085.121094 1350.375 3022.410156 1350.375 C 2959.699219 1350.375 2902.890625 1324.972656 2861.808594 1283.835938 C 2820.71875 1242.753906 2795.269531 1185.941406 2795.269531 1123.230469 C 2795.269531 1060.523438 2820.671875 1003.710938 2861.808594 962.632812 C 2902.890625 921.550781 2959.699219 896.089844 3022.410156 896.089844 Z M 3022.410156 771.199219 C 2925.179688 771.199219 2837.171875 810.621094 2773.511719 874.335938 C 2709.800781 937.992188 2670.378906 1026 2670.378906 1123.230469 C 2670.378906 1220.464844 2709.800781 1308.472656 2773.511719 1372.128906 C 2837.171875 1435.84375 2925.179688 1475.261719 3022.410156 1475.261719 C 3119.578125 1475.261719 3207.589844 1435.84375 3271.308594 1372.128906 C 3335.019531 1308.472656 3374.441406 1220.464844 3374.441406 1123.230469 C 3374.441406 1026.058594 3335.019531 938.046875 3271.308594 874.335938 C 3207.648438 810.621094 3119.640625 771.199219 3022.410156 771.199219 Z M 3022.410156 771.199219 "/>
</svg>
