<?xml version="1.0" encoding="UTF-8"?>
<svg version="1.1" xmlns="http://www.w3.org/2000/svg" width="1024" height="1024">
<path d="M0 0 C337.92 0 675.84 0 1024 0 C1024 337.92 1024 675.84 1024 1024 C686.08 1024 348.16 1024 0 1024 C0 686.08 0 348.16 0 0 Z " fill="#FDFDFD" transform="translate(0,0)"/>
<path d="M0 0 C3.72535359 -0.00005057 7.4507067 -0.00065024 11.1760602 -0.00143147 C25.51691304 -0.00425413 39.85773933 -0.00050462 54.19858599 0.0135622 C58.63141303 0.01787707 63.06423411 0.02025001 67.49706316 0.02089787 C72.6786092 0.02192552 77.86012648 0.02798194 83.04166305 0.03782582 C84.91688323 0.04066173 86.79210672 0.04190821 88.66732895 0.04130816 C97.95649792 0.03950887 107.21759971 0.16340371 116.49580431 0.64184093 C117.26663774 0.68156421 118.03747117 0.72128748 118.83166319 0.76221448 C137.81779316 1.84450605 137.81779316 1.84450605 144.16073656 8.18744946 C165.73261523 40.54526746 168.49337353 91.95329509 169.81967211 129.68061352 C169.85101244 130.54396313 169.88235277 131.40731274 169.91464281 132.29682446 C169.93857103 133.04931469 169.96249926 133.80180492 169.98715258 134.57709789 C170.12680499 136.67718738 170.37730656 138.76975074 170.6627202 140.85503674 C171.17950374 144.94460476 171.30575441 148.99742174 171.30258226 153.11640453 C171.30605669 153.8637788 171.30953112 154.61115307 171.31311083 155.38117504 C171.32040779 156.9880027 171.32578506 158.59484003 171.32940149 160.20168018 C171.33662467 162.74460001 171.35232897 165.28733326 171.37074327 167.83019543 C171.42297655 175.05431799 171.47126681 182.27832707 171.4866643 189.502635 C171.49672483 193.93408711 171.52598135 198.36505166 171.5679841 202.79631138 C171.58030807 204.48240193 171.58541281 206.1685612 171.58318567 207.85469532 C171.58084182 210.20548745 171.60292003 212.55486565 171.63070726 214.90546703 C171.62410585 215.60211971 171.61750444 216.29877239 171.61070299 217.01653576 C171.67197652 220.16410456 171.73991372 221.76431798 174.0075841 224.04442883 C176.77049026 225.51114277 179.5329285 226.94765943 182.34823656 228.31244946 C188.06426597 231.09097887 188.06426597 231.09097887 189.16073656 232.18744946 C189.46797363 235.21913775 189.4392485 238.26711913 189.47323656 241.31244946 C189.50224047 242.15549633 189.53124437 242.99854321 189.56112719 243.86713696 C189.6214893 249.84762953 188.67567868 253.31086309 185.16073656 258.18744946 C176.84654682 263.73024262 162.82028895 262.78373946 153.03573656 263.68744946 C151.68080219 263.81508657 150.32590341 263.94310199 148.9710393 264.07148266 C146.28908728 264.3255408 143.60703484 264.57841663 140.92489672 264.83051586 C135.68914276 265.32699221 130.45594939 265.84750907 125.22323656 266.37494946 C124.38969652 266.45873852 123.55615648 266.54252758 122.69735765 266.62885571 C120.8517691 266.81457531 119.00624383 267.00092375 117.16073656 267.18744946 C117.14655687 265.86873852 117.13237719 264.55002758 117.11776781 263.19135571 C116.64534349 241.62942498 111.64012375 222.63822199 96.03183031 206.90619946 C89.36569214 200.59377473 82.44067407 196.05601419 74.09823656 192.31244946 C73.46184252 192.02587475 72.82544847 191.73930004 72.16976976 191.44404125 C57.23757367 185.13190696 37.59298017 184.60981159 22.29354906 189.86323071 C3.47212913 197.81891818 -11.40516929 210.30805408 -19.83926344 229.18744946 C-24.89964663 241.87463929 -25.69246317 254.65513336 -25.83926344 268.18744946 C-38.45099918 269.32868274 -51.06015271 269.48985358 -63.71426344 269.68744946 C-66.14981153 269.72839279 -68.58535836 269.76941098 -71.02090406 269.81049633 C-87.01445641 270.07190542 -103.00860103 270.26404069 -119.00332594 270.43744946 C-119.96241739 270.44792812 -120.92150885 270.45840679 -121.90966368 270.469203 C-131.53074907 270.5742416 -141.15184022 270.67690377 -150.77306509 270.76836777 C-167.71195429 270.93096728 -184.64274663 271.11964179 -201.57363844 271.68354321 C-219.0466556 272.26499368 -236.5192113 272.51839613 -254.00034285 272.7198782 C-256.62885098 272.75040928 -259.25734233 272.78215213 -261.88583326 272.81412792 C-297.53739697 273.24412562 -333.18562081 273.30347968 -368.83926344 273.18744946 C-368.86071928 272.41667065 -368.88217512 271.64589184 -368.90428114 270.8517561 C-369.00681151 267.31756544 -369.12022288 263.78380184 -369.23379469 260.24994946 C-369.2673506 259.03758617 -369.30090651 257.82522289 -369.33547926 256.57612133 C-369.99288788 236.87388533 -376.33265577 220.68614793 -389.83926344 206.18744946 C-405.51019702 191.84565115 -425.04736196 186.19292899 -445.88223219 186.87494946 C-464.2455274 187.84673601 -480.27721369 196.66114268 -493.14785719 209.48823071 C-505.60472765 223.93625785 -510.36761812 240.64476042 -510.02676344 259.31244946 C-510.01168112 260.76035212 -509.99799902 262.20827007 -509.98574781 263.65619946 C-509.95304192 267.1669394 -509.90145855 270.67709344 -509.83926344 274.18744946 C-517.34679388 274.41808334 -524.42868961 273.53400846 -531.83926344 272.37494946 C-533.62360792 272.10146679 -533.62360792 272.10146679 -535.44399977 271.82245922 C-538.91059045 271.2865532 -542.37514188 270.73906446 -545.83926344 270.18744946 C-546.75627028 270.04371899 -547.67327711 269.89998852 -548.61807203 269.75190258 C-550.92299764 269.38746597 -553.22523934 269.0102161 -555.52676344 268.62494946 C-556.76813063 268.41741039 -558.00949781 268.20987133 -559.28848219 267.99604321 C-564.15642946 266.88750076 -569.19379025 265.733197 -572.90176344 262.24994946 C-574.09142253 259.63269947 -573.76183193 258.87827421 -572.83926344 256.18744946 C-571.80076523 250.9693165 -572.00403333 247.04340925 -573.21426344 241.87494946 C-573.49012281 240.66194164 -573.76598219 239.44893383 -574.05020094 238.19916821 C-574.70165931 235.29105302 -574.70165931 235.29105302 -575.83926344 233.18744946 C-576.75942369 226.47961456 -577.11244433 219.8287918 -577.21426344 213.06244946 C-577.25164625 212.11241039 -577.28902906 211.16237133 -577.32754469 210.18354321 C-577.41052766 203.5356851 -576.38626907 200.11678589 -571.83926344 195.18744946 C-571.17926344 195.18744946 -570.51926344 195.18744946 -569.83926344 195.18744946 C-569.83926344 194.52744946 -569.83926344 193.86744946 -569.83926344 193.18744946 C-569.17926344 193.18744946 -568.51926344 193.18744946 -567.83926344 193.18744946 C-566.1267397 189.90753111 -564.96788428 186.58853293 -563.81191969 183.07416821 C-554.64685103 155.87342226 -540.88692909 144.123718 -515.90176344 130.81244946 C-515.12131666 130.3955183 -514.34086988 129.97858715 -513.5367732 129.54902172 C-509.35836676 127.36147944 -505.21332004 125.51922299 -500.77554274 123.92963696 C-497.46430294 122.66041883 -494.35894293 121.00533389 -491.21426344 119.37494946 C-470.64578322 108.9871444 -470.64578322 108.9871444 -462.58926344 108.81244946 C-455.44235741 108.50993491 -451.85528482 104.97407962 -446.83926344 100.18744946 C-445.35328949 98.82398932 -443.8672625 97.46058439 -442.37905836 96.09955883 C-441.34757068 95.15360596 -440.31910619 94.20434653 -439.29360914 93.25190258 C-435.53199206 89.76725491 -431.62248896 86.56294589 -427.58926344 83.40229321 C-424.16156658 80.64163394 -420.84422228 77.76644742 -417.52676344 74.87494946 C-407.11041334 65.79981095 -396.57721803 56.88145022 -385.83926344 48.18744946 C-385.30140211 47.74852367 -384.76354078 47.30959789 -384.20938063 46.85737133 C-361.2592369 28.13796879 -340.5860541 11.95272925 -310.40176344 8.06244946 C-309.14806959 7.89632153 -307.89437574 7.7301936 -306.60269117 7.55903149 C-295.50471752 6.1530347 -284.40224513 5.27084394 -273.23477125 4.65522289 C-269.08116036 4.42546575 -264.92770736 4.19437413 -260.77505445 3.94782543 C-233.86733897 2.35150735 -206.97615916 1.53615452 -180.02676344 1.06244946 C-178.88477114 1.04162178 -177.74277884 1.02079411 -176.56618071 0.99933529 C-117.71649693 -0.07034019 -58.85737407 -0.00212583 0 0 Z " fill="#010101" transform="translate(705.8392634391785,357.81255054473877)"/>
<path d="M0 0 C3.62535662 2.75165571 6.83168287 5.73784769 10 9 C11.07894531 10.06541016 11.07894531 10.06541016 12.1796875 11.15234375 C17.56780537 16.7742856 21.00582085 22.83635642 24 30 C24.34160156 30.804375 24.68320312 31.60875 25.03515625 32.4375 C29.80489708 46.28084082 28.43715862 64.5840524 23 78 C14.33652248 95.28206655 0.03040649 106.6189931 -17.90234375 113.0390625 C-35.31784803 118.15143276 -52.48582025 114.76324397 -68.1640625 106.28515625 C-82.92233446 97.80552691 -91.21502394 84.19603398 -96.125 68.375 C-100.48936852 51.54100715 -97.97347501 36.37847276 -90.1875 21.0625 C-81.27467435 5.96710669 -66.97381832 -3.93327453 -50.3125 -8.8125 C-32.88123431 -12.75877619 -15.12998294 -9.36099664 0 0 Z " fill="#040404" transform="translate(301,563)"/>
<path d="M0 0 C0.82757812 -0.00386719 1.65515625 -0.00773438 2.5078125 -0.01171875 C8.62330665 -0.00169335 8.62330665 -0.00169335 9.75 1.125 C11.09496142 1.26158752 12.443661 1.36196991 13.79296875 1.4453125 C18.84433462 1.96652479 22.64487909 3.57087738 27.0625 6 C27.79452637 6.39711182 28.52655273 6.79422363 29.28076172 7.20336914 C44.83251925 15.99697072 55.68519512 29.67987616 60.8671875 46.8203125 C64.67406028 62.85183325 61.8017468 79.88878766 53.765625 94.01953125 C50.58910815 98.91358338 46.89493046 103.03627199 42.75 107.125 C41.70199219 108.18847656 41.70199219 108.18847656 40.6328125 109.2734375 C28.64488121 120.73442676 14.17863061 125.66323196 -2.22875977 125.47680664 C-20.57715099 124.84000046 -35.47042325 117.58993674 -47.9375 104.3125 C-60.76158663 89.52235131 -64.18368986 73.56546409 -63.42480469 54.43554688 C-62.24196656 38.80093788 -52.63506422 24.39388145 -41.25 14.125 C-29.40124643 4.34043258 -15.23247557 -0.0725356 0 0 Z " fill="#040404" transform="translate(752.25,552.875)"/>
<path d="M0 0 C2.26605047 -0.00992902 4.53127107 -0.04121664 6.79711914 -0.07226562 C8.25740036 -0.07877916 9.71768786 -0.08403606 11.17797852 -0.08789062 C12.47437256 -0.09723633 13.7707666 -0.10658203 15.10644531 -0.11621094 C18.76546565 0.26350117 20.63932995 1.02545297 23.54125977 3.24023438 C27.06217152 10.28205789 24.09737597 21.89335062 23.26391602 29.43164062 C23.06770912 31.27048073 23.06770912 31.27048073 22.86753845 33.14646912 C22.451708 37.03249726 22.02792966 40.91760857 21.60375977 44.80273438 C21.32262086 47.41400442 21.04201706 50.02533214 20.76196289 52.63671875 C20.132906 58.49945986 19.50073692 64.36183896 18.85647583 70.22293091 C18.65024592 72.19699979 18.46237621 74.17309479 18.2951355 76.15084839 C18.21965485 77.03749176 18.14417419 77.92413513 18.06640625 78.83764648 C18.00734604 79.60733261 17.94828583 80.37701874 17.88743591 81.17002869 C17.32129084 84.55569449 15.76465265 86.69921393 13.54125977 89.24023438 C10.23304143 91.36365454 7.42369669 91.53762501 3.53637695 91.65087891 C1.7097049 91.71071457 1.7097049 91.71071457 -0.15386963 91.77175903 C-1.48985998 91.80584382 -2.82585884 91.83959651 -4.16186523 91.87304688 C-5.55924482 91.9143452 -6.95660394 91.95634124 -8.35394287 91.99899292 C-11.30280582 92.08701716 -14.25175371 92.16871987 -17.20092773 92.24560547 C-20.87598898 92.34158182 -24.5505695 92.44931853 -28.22516632 92.56154251 C-48.30697628 93.1709578 -68.36819674 93.35715041 -88.45874023 93.24023438 C-86.41345933 80.61658304 -86.41345933 80.61658304 -85.09155273 74.94335938 C-84.84800049 73.89180664 -84.60444824 72.84025391 -84.35351562 71.75683594 C-84.09948975 70.67885742 -83.84546387 69.60087891 -83.58374023 68.49023438 C-83.3161792 67.34264648 -83.04861816 66.19505859 -82.77294922 65.01269531 C-81.11888191 57.9498927 -79.39120184 50.91084935 -77.60327148 43.88085938 C-74.72685331 32.37518669 -72.1349869 20.79367698 -69.45874023 9.24023438 C-56.75957618 5.02485424 -44.83008702 2.12109383 -31.45874023 1.24023438 C-29.73337036 1.11430908 -29.73337036 1.11430908 -27.97314453 0.98583984 C-18.64545282 0.34223315 -9.34974777 0.02478122 0 0 Z " fill="#FCFCFB" transform="translate(438.458740234375,381.759765625)"/>
<path d="M0 0 C9.46934415 5.88911372 14.99165021 13.43971131 17.53125 24.30859375 C19.30549841 34.49573672 17.11062196 43.69023563 11.3046875 52.26171875 C5.4563255 60.05369806 -3.34774334 66.18080521 -13 68 C-23.87268985 69.12046804 -32.89137246 67.21664832 -41.8125 60.8125 C-50.26182767 53.75375935 -55.1556309 43.96272128 -56.30859375 33.08984375 C-56.7201013 23.02661371 -53.65353065 15.6561951 -47.6875 7.625 C-44.10696466 4.12773292 -40.30609746 1.52965462 -36 -1 C-34.98292969 -1.62648438 -34.98292969 -1.62648438 -33.9453125 -2.265625 C-23.06129823 -8.09781378 -10.33096885 -5.86312169 0 0 Z " fill="#F4F2F0" transform="translate(285,584)"/>
<path d="M0 0 C8.55501025 6.34590399 13.62114331 13.05580611 16.5625 23.38671875 C18.00423767 34.53532817 15.93525527 44.10619092 9.3125 53.19921875 C2.02299601 61.82949832 -6.39620966 66.34882 -17.67578125 67.8046875 C-27.60131204 68.24450144 -36.08910701 65.42388306 -43.8125 59.13671875 C-52.31909178 50.96614619 -56.43329119 41.9000826 -57.0625 30.19921875 C-56.85243333 20.24605974 -52.88557301 11.83948056 -46.25 4.38671875 C-33.32992688 -7.18261945 -14.56193334 -9.63794626 0 0 Z " fill="#F3F1EE" transform="translate(771.4375,584.61328125)"/>
<path d="M0 0 C1.27404615 3.60837233 0.70056341 5.98565372 -0.3125 9.625 C-1.29998307 13.21847499 -2.16979939 16.78989335 -2.86767578 20.44873047 C-4.05592067 26.4420055 -5.51705779 32.35607638 -7.00390625 38.28125 C-7.28725327 39.41655151 -7.57060028 40.55185303 -7.86253357 41.72155762 C-8.45724855 44.10177025 -9.05313653 46.48169008 -9.65014648 48.86132812 C-10.56652501 52.51605265 -11.47782729 56.17201783 -12.38867188 59.828125 C-12.96844791 62.14590892 -13.54851556 64.46361992 -14.12890625 66.78125 C-14.40182999 67.87699341 -14.67475372 68.97273682 -14.95594788 70.10168457 C-15.20968674 71.11033569 -15.4634256 72.11898682 -15.72485352 73.15820312 C-15.9475441 74.04737427 -16.17023468 74.93654541 -16.39967346 75.85266113 C-17 78 -17 78 -18 80 C-32.40787961 82.43900204 -47.50084516 82.11377807 -62.0625 82.25 C-63.28163086 82.2713501 -64.50076172 82.2927002 -65.75683594 82.31469727 C-67.47241699 82.32134399 -67.47241699 82.32134399 -69.22265625 82.328125 C-70.24109619 82.3374707 -71.25953613 82.34681641 -72.30883789 82.35644531 C-75.42833765 81.94326654 -76.77592119 81.19933469 -79 79 C-79.82305433 75.89771828 -79.98077409 74.94232227 -79 72 C-74.10830249 64.97939746 -67.25789194 59.365535 -60.921875 53.66796875 C-58.28549198 51.26068318 -55.75434828 48.79320885 -53.25 46.25 C-50.02821674 42.98787241 -46.70841212 39.93037367 -43.23046875 36.9453125 C-39.45847525 33.65555285 -35.8009165 30.2399772 -32.125 26.84375 C-25.67369137 20.93738622 -19.0105415 15.29772678 -12.25 9.75 C-11.50878906 9.13898438 -10.76757812 8.52796875 -10.00390625 7.8984375 C-6.71595838 5.19488252 -3.41990055 2.53599947 0 0 Z " fill="#F9F9F8" transform="translate(359,396)"/>
<path d="M0 0 C4.88169605 2.26650174 7.59625754 5.19251507 10 10 C10.94742987 15.32263972 10.01777172 19.47334242 7 24 C5.09096724 25.8377622 3.11248314 27.38192781 1 29 C0.34 29.66 -0.32 30.32 -1 31 C-1 31.66 -1 32.32 -1 33 C-1.99 33.66 -2.98 34.32 -4 35 C-0.37 35 3.26 35 7 35 C9.125 40.625 9.125 40.625 8 44 C7.01 44.495 7.01 44.495 6 45 C6.495 46.98 6.495 46.98 7 49 C-1.64808338 52.21789149 -10.68866274 52.25603991 -19.3125 48.9375 C-29.52851152 44.13234043 -36.63949346 36.35541619 -40.875 25.875 C-42.76885854 19.55466737 -42.60197722 12.52011687 -42 6 C-41.34 5.01 -40.68 4.02 -40 3 C-38.68 3 -37.36 3 -36 3 C-35.01 2.34 -34.02 1.68 -33 1 C-29.9375 0.6875 -29.9375 0.6875 -27 1 C-25 4 -25 4 -25 8 C-22.75775342 8.58963678 -22.75775342 8.58963678 -20 8 C-18.24583979 6.3273289 -16.80473715 4.55236118 -15.33203125 2.62890625 C-11.77475823 -1.72119008 -5.08085174 -0.47217339 0 0 Z " fill="#F3F2EF" transform="translate(757,601)"/>
<path d="M0 0 C1.61328125 1.1640625 1.61328125 1.1640625 2.61328125 4.1640625 C-1.43382011 7.03299069 -4.40405811 7.56095449 -9.32421875 7.7265625 C-14.08050514 7.89735407 -17.92702019 8.46869618 -22.38671875 10.1640625 C-22.05671875 12.4740625 -21.72671875 14.7840625 -21.38671875 17.1640625 C-19.73671875 17.1640625 -18.08671875 17.1640625 -16.38671875 17.1640625 C-16.71671875 18.4840625 -17.04671875 19.8040625 -17.38671875 21.1640625 C-18.70671875 21.4940625 -20.02671875 21.8240625 -21.38671875 22.1640625 C-21.51046875 22.9065625 -21.63421875 23.6490625 -21.76171875 24.4140625 C-22.38671875 27.1640625 -22.38671875 27.1640625 -23.44921875 28.9765625 C-25.21133374 33.08816413 -24.97461936 37.11013126 -23.76953125 41.3203125 C-21.71619419 46.19017386 -19.26675005 48.43041624 -14.42578125 50.48828125 C-11.76896677 51.36879639 -9.16956117 51.88577826 -6.38671875 52.1640625 C-6.71671875 53.4840625 -7.04671875 54.8040625 -7.38671875 56.1640625 C-12.33671875 56.4940625 -17.28671875 56.8240625 -22.38671875 57.1640625 C-22.05671875 58.8140625 -21.72671875 60.4640625 -21.38671875 62.1640625 C-17.66627468 64.40846082 -14.15421668 64.40640184 -9.88671875 64.3515625 C-8.78328125 64.34511719 -7.67984375 64.33867188 -6.54296875 64.33203125 C-3.43489881 64.25945138 -3.43489881 64.25945138 -0.66796875 63.52734375 C1.61328125 63.1640625 1.61328125 63.1640625 4.61328125 65.1640625 C4.61328125 65.8240625 4.61328125 66.4840625 4.61328125 67.1640625 C5.60328125 66.5040625 6.59328125 65.8440625 7.61328125 65.1640625 C8.60328125 65.4940625 9.59328125 65.8240625 10.61328125 66.1640625 C1.13544728 71.96681799 -8.31582002 73.9375363 -19.35546875 71.51171875 C-30.72193617 67.79207421 -38.01422768 60.7375744 -43.3828125 50.2109375 C-47.06148126 42.11434598 -48.20225799 32.31824436 -45.22265625 23.859375 C-40.61568812 14.38555848 -35.47694265 8.50419403 -26.38671875 3.1640625 C-25.36964844 2.53757812 -25.36964844 2.53757812 -24.33203125 1.8984375 C-17.40738699 -1.81212659 -7.46138025 -2.61331485 0 0 Z " fill="#F6F5F2" transform="translate(275.38671875,579.8359375)"/>
<path d="M0 0 C2 2 2 2 2 4.5625 C-0.76694566 14.07387571 -8.57946554 22.55874783 -16.82421875 27.79296875 C-29.75757399 34.64003917 -41.69843856 35.42904684 -56 35 C-56.68445554 27.26710868 -51.72120369 19.3443801 -46.953125 13.484375 C-35.09776986 2.1482325 -15.92523996 -1.73198231 0 0 Z " fill="#F6F6F6" transform="translate(205,502)"/>
<path d="M0 0 C1.17433594 0.01417969 2.34867188 0.02835937 3.55859375 0.04296875 C5.32396484 0.05263672 5.32396484 0.05263672 7.125 0.0625 C9.99609375 0.23046875 9.99609375 0.23046875 10.99609375 1.23046875 C11.08936091 2.79593923 11.11354957 4.36559647 11.10961914 5.93383789 C11.10954361 6.93479996 11.10946808 7.93576202 11.10939026 8.96705627 C11.10422897 10.05558395 11.09906769 11.14411163 11.09375 12.265625 C11.09233505 13.3740123 11.0909201 14.4823996 11.08946228 15.62437439 C11.08384408 19.18059944 11.0712885 22.73676258 11.05859375 26.29296875 C11.05358109 28.69726472 11.04901778 31.10156167 11.04492188 33.50585938 C11.03386874 39.41408379 11.01711292 45.32227185 10.99609375 51.23046875 C8.8925588 51.31148935 6.78813423 51.36966782 4.68359375 51.41796875 C3.51183594 51.45277344 2.34007812 51.48757813 1.1328125 51.5234375 C-2.00390625 51.23046875 -2.00390625 51.23046875 -3.67668152 49.99537659 C-5.3669103 47.74775571 -5.37840752 46.49402498 -5.3762207 43.69897461 C-5.38244949 42.784702 -5.38867828 41.87042938 -5.39509583 40.92845154 C-5.3812812 39.45179771 -5.3812812 39.45179771 -5.3671875 37.9453125 C-5.367686 36.93328262 -5.36818451 35.92125275 -5.36869812 34.8785553 C-5.36635737 32.73924801 -5.35662886 30.59993798 -5.34008789 28.46069336 C-5.31647352 25.1773226 -5.31952973 21.89476233 -5.32617188 18.61132812 C-5.320596 16.53515139 -5.3134867 14.45897808 -5.3046875 12.3828125 C-5.30559891 11.39635239 -5.30651031 10.40989227 -5.30744934 9.39353943 C-5.29791733 8.48241898 -5.28838531 7.57129852 -5.27856445 6.63256836 C-5.27395706 5.82887314 -5.26934967 5.02517792 -5.26460266 4.1971283 C-4.79689712 0.66881904 -3.36522043 0.25818986 0 0 Z " fill="#F6F6F5" transform="translate(861.00390625,484.76953125)"/>
<path d="M0 0 C3.50318776 1.53075389 6.07947207 3.54637172 8.16015625 6.83203125 C10.11150013 11.86922126 9.81372728 17.98709569 7.8125 22.9375 C4.71942827 26.45720232 1.43194714 29.71768441 -3.35546875 30.2734375 C-9.07264 30.47846709 -13.16795773 30.3552627 -17.62890625 26.546875 C-20.91131073 22.84364944 -22.14171712 18.78094462 -22.4375 13.9375 C-21.80038959 8.20350635 -19.60133996 5.52127296 -15.5 1.625 C-10.32676092 -0.776861 -5.60552688 -0.87797409 0 0 Z " fill="#050505" transform="translate(272,601)"/>
<path d="M0 0 C4.88169605 2.26650174 7.59625754 5.19251507 10 10 C10.94742987 15.32263972 10.01777172 19.47334242 7 24 C3.05819827 27.88924437 -0.1147065 30.15311236 -5.6875 30.375 C-11.1263724 30.3199825 -14.19103827 28.80896173 -18 25 C-21.39631519 21.16545059 -21.51305351 17.37375056 -21.3515625 12.43359375 C-20.82662771 8.7998785 -19.403726 6.72855384 -17 4 C-16.34 3.21625 -15.68 2.4325 -15 1.625 C-10.16995299 -0.99127547 -5.36459332 -0.71333805 0 0 Z " fill="#060605" transform="translate(757,601)"/>
<path d="M0 0 C0.33 0.66 0.66 1.32 1 2 C1.66 2.33 2.32 2.66 3 3 C1.95125002 5.62187494 1.35068687 6.79371361 -1.125 8.25 C-1.74375 8.4975 -2.3625 8.745 -3 9 C-3 10.65 -3 12.3 -3 14 C-1.68644531 13.97679687 -0.37289062 13.95359375 0.98046875 13.9296875 C2.71614013 13.91092349 4.45181768 13.89272396 6.1875 13.875 C7.05181641 13.85824219 7.91613281 13.84148438 8.80664062 13.82421875 C13.32208103 13.78961767 16.90081483 13.84432084 21 16 C21 17.32 21 18.64 21 20 C16.88125788 20.91527603 13.18268439 20.93728438 9 20.75 C5.06919975 20.71103296 2.52650408 20.71066833 -0.5625 23.25 C-2.50509619 25.44164698 -4.37595056 27.56392585 -6 30 C-6 29.34 -6 28.68 -6 28 C-7.32 28 -8.64 28 -10 28 C-10.66 26.02 -11.32 24.04 -12 22 C-16.79308342 21.53477707 -16.79308342 21.53477707 -20.9375 23.5 C-21.288125 23.995 -21.63875 24.49 -22 25 C-22.99 24.67 -23.98 24.34 -25 24 C-23.71653735 15.59110678 -18.22831063 9.76019156 -11.9296875 4.41015625 C-8.14089141 1.64142065 -5.68165697 0.87346873 -1 1 C-0.67 0.67 -0.34 0.34 0 0 Z " fill="#F6F5F2" transform="translate(742,581)"/>
<path d="M0 0 C1.32 0.66 2.64 1.32 4 2 C3.67 3.32 3.34 4.64 3 6 C3.556875 5.649375 4.11375 5.29875 4.6875 4.9375 C7.55925711 3.77327415 9.07133328 4.1293153 12 5 C12.33 5.33 12.66 5.66 13 6 C12.84805132 9.25929912 12.59771484 12.49608171 12.31640625 15.74609375 C12.04314327 19.33850214 12.0449781 22.29531673 12.59375 25.8984375 C12.7278125 26.92195312 12.861875 27.94546875 13 29 C12.34 29.66 11.68 30.32 11 31 C8.375 30.625 8.375 30.625 6 30 C5.8453125 31.423125 5.8453125 31.423125 5.6875 32.875 C5 36 5 36 2 38 C1.18082358 36.27398621 0.36993984 34.5440353 -0.4375 32.8125 C-0.88996094 31.84957031 -1.34242188 30.88664063 -1.80859375 29.89453125 C-4.78601436 22.66086347 -5.45920165 13.64523145 -3.10546875 6.15234375 C-2.15628598 4.03596803 -1.16148953 2.00668057 0 0 Z " fill="#EFEDE6" transform="translate(233,598)"/>
<path d="M0 0 C12.29216869 4.05294933 21.24680311 11.66325665 30 21 C29.01 21.33 28.02 21.66 27 22 C27.66 23.65 28.32 25.3 29 27 C28.01 27.66 27.02 28.32 26 29 C26.33 29.66 26.66 30.32 27 31 C23.76833219 29.61799087 22.08484623 28.13195092 19.9375 25.375 C13.48830358 17.77958666 5.28762472 12.48572582 -4 9 C-3.34 8.443125 -2.68 7.88625 -2 7.3125 C0.39110511 4.54778471 0.18689358 3.52177581 0 0 Z " fill="#F4F3F1" transform="translate(778,549)"/>
<path d="M0 0 C0.85464844 0.32613281 1.70929688 0.65226563 2.58984375 0.98828125 C6.11386139 2.03378018 8.90037705 2.23506004 12.5625 2.1875 C13.65691406 2.18105469 14.75132812 2.17460938 15.87890625 2.16796875 C18.95690695 2.09397299 18.95690695 2.09397299 21.71484375 1.36328125 C24 1 24 1 27 3 C27 3.66 27 4.32 27 5 C27.99 4.34 28.98 3.68 30 3 C30.99 3.33 31.98 3.66 33 4 C24.23225843 9.36800504 16.30207733 11.02425277 6 10 C2.1873223 8.95729385 -1.39616036 7.61775567 -5 6 C-4.360625 5.566875 -3.72125 5.13375 -3.0625 4.6875 C-0.73253997 3.08760823 -0.73253997 3.08760823 0 0 Z " fill="#EEEEEF" transform="translate(253,642)"/>
<path d="M0 0 C1.28003906 -0.01675781 2.56007813 -0.03351562 3.87890625 -0.05078125 C7.60924959 0.33003316 9.52508785 0.98588612 12.4375 3.3125 C12.8125 5.9375 12.8125 5.9375 12.4375 8.3125 C9.90440278 10.84559722 2.90755092 9.49805171 -0.5 9.5 C-1.62341797 9.51224609 -2.74683594 9.52449219 -3.90429688 9.53710938 C-4.97615234 9.53904297 -6.04800781 9.54097656 -7.15234375 9.54296875 C-8.63528931 9.54913208 -8.63528931 9.54913208 -10.14819336 9.55541992 C-12.5625 9.3125 -12.5625 9.3125 -14.5625 7.3125 C-14.1875 4.6875 -14.1875 4.6875 -13.5625 2.3125 C-8.91850247 0.51088736 -4.97198621 0.01505142 0 0 Z " fill="#121111" transform="translate(266.5625,586.6875)"/>
<path d="M0 0 C1.03543945 -0.0299707 1.03543945 -0.0299707 2.09179688 -0.06054688 C7.4238252 -0.05549282 10.02566108 1.24719694 14.0625 4.4375 C13.1875 8.3125 13.1875 8.3125 12.0625 9.4375 C10.29390807 9.53696453 8.52138549 9.56830217 6.75 9.5703125 C5.67492187 9.57160156 4.59984375 9.57289063 3.4921875 9.57421875 C2.36039063 9.57035156 1.22859375 9.56648437 0.0625 9.5625 C-1.06929687 9.56636719 -2.20109375 9.57023438 -3.3671875 9.57421875 C-4.44226563 9.57292969 -5.51734375 9.57164062 -6.625 9.5703125 C-7.61886719 9.56918457 -8.61273437 9.56805664 -9.63671875 9.56689453 C-11.9375 9.4375 -11.9375 9.4375 -12.9375 8.4375 C-13.3125 6.0625 -13.3125 6.0625 -12.9375 3.4375 C-8.89175298 0.17128034 -5.01005678 -0.0511705 0 0 Z " fill="#0D0D0C" transform="translate(750.9375,586.5625)"/>
<path d="M0 0 C0.96486328 0.21462891 0.96486328 0.21462891 1.94921875 0.43359375 C6.24549875 1.23123857 10.45373232 1.10475502 14.8125 1.0625 C16.13797852 1.05573242 16.13797852 1.05573242 17.49023438 1.04882812 C19.66018559 1.03709866 21.83010172 1.01916495 24 1 C24.33 2.65 24.66 4.3 25 6 C18.37874875 10.11591294 12.55591575 10.98343764 4.859375 9.62109375 C1.92172434 8.83730881 0.17388992 8.17388992 -2 6 C-1.44444444 1.44444444 -1.44444444 1.44444444 0 0 Z " fill="#111010" transform="translate(740,635)"/>
<path d="M0 0 C1.12019531 -0.00128906 2.24039062 -0.00257813 3.39453125 -0.00390625 C4.57402344 -0.00003906 5.75351562 0.00382813 6.96875 0.0078125 C8.73798828 0.00201172 8.73798828 0.00201172 10.54296875 -0.00390625 C12.22326172 -0.00197266 12.22326172 -0.00197266 13.9375 0 C14.97326172 0.00112793 16.00902344 0.00225586 17.07617188 0.00341797 C19.46875 0.1328125 19.46875 0.1328125 20.46875 1.1328125 C20.50938832 2.79898365 20.511471 4.46669345 20.46875 6.1328125 C13.9954395 9.74582301 7.77362415 9.81735141 0.46875 9.1328125 C-3.28125 7.9453125 -3.28125 7.9453125 -5.53125 6.1328125 C-6.46875 3.5078125 -6.46875 3.5078125 -6.53125 1.1328125 C-4.78579395 -0.61264355 -2.37000783 0.0025809 0 0 Z " fill="#0F0F0E" transform="translate(258.53125,635.8671875)"/>
<path d="M0 0 C1.32 0 2.64 0 4 0 C7.80453835 6.61264999 7.67435907 12.53882204 7 20 C6.26139286 22.67851212 5.38567012 24.57507729 4 27 C-0.875 26.125 -0.875 26.125 -2 25 C-2.25208722 21.19411856 -2.18522344 17.37574544 -2.1875 13.5625 C-2.19974609 12.48677734 -2.21199219 11.41105469 -2.22460938 10.30273438 C-2.22654297 9.27599609 -2.22847656 8.24925781 -2.23046875 7.19140625 C-2.23457764 6.24467041 -2.23868652 5.29793457 -2.24291992 4.32250977 C-2 2 -2 2 0 0 Z " fill="#0C0C0C" transform="translate(288,602)"/>
<path d="M0 0 C1.67542976 0.28604898 3.34385343 0.61781233 5 1 C5.05785647 4.95827235 5.09354717 8.9164367 5.125 12.875 C5.14175781 14.00292969 5.15851562 15.13085938 5.17578125 16.29296875 C5.18222656 17.36933594 5.18867187 18.44570313 5.1953125 19.5546875 C5.20578613 20.54968262 5.21625977 21.54467773 5.22705078 22.56982422 C5 25 5 25 3 27 C1.0625 27.0625 1.0625 27.0625 -1 26 C-4.69285664 20.06505183 -4.72965926 13.84174004 -4 7 C-2.08333333 2.08333333 -2.08333333 2.08333333 0 0 Z " fill="#0F0E0D" transform="translate(726,602)"/>
<path d="M0 0 C4.875 0.875 4.875 0.875 6 2 C5.84805132 5.25929912 5.59771484 8.49608171 5.31640625 11.74609375 C5.04314327 15.33850214 5.0449781 18.29531673 5.59375 21.8984375 C5.7278125 22.92195312 5.861875 23.94546875 6 25 C5.34 25.66 4.68 26.32 4 27 C2.0625 26.9375 2.0625 26.9375 0 26 C-3.22737661 21.86173364 -3.45915219 18.06783194 -3.375 13 C-3.38660156 12.30132813 -3.39820313 11.60265625 -3.41015625 10.8828125 C-3.38483046 6.4085888 -2.6592292 3.60191891 0 0 Z " fill="#0F0E0E" transform="translate(240,602)"/>
<path d="M0 0 C2.375 0.0625 2.375 0.0625 5 1 C9.08845974 6.21631071 8.65703206 12.69080751 8 19 C7.24001785 21.60752495 6.30842945 23.60121268 5 26 C3.02 26 1.04 26 -1 26 C-1.02886751 21.85418113 -1.04675327 17.70838784 -1.0625 13.5625 C-1.07087891 12.37849609 -1.07925781 11.19449219 -1.08789062 9.97460938 C-1.09111328 8.84990234 -1.09433594 7.72519531 -1.09765625 6.56640625 C-1.10289307 5.52427979 -1.10812988 4.48215332 -1.11352539 3.40844727 C-1 1 -1 1 0 0 Z " fill="#0F0E0E" transform="translate(773,602)"/>
<path d="M0 0 C-0.33 0.66 -0.66 1.32 -1 2 C-5.75 0.125 -5.75 0.125 -8 -1 C-7.67 -0.01 -7.34 0.98 -7 2 C-7.33 2.99 -7.66 3.98 -8 5 C-13.61 4.67 -19.22 4.34 -25 4 C-25.33 2.68 -25.66 1.36 -26 0 C-27.65 -0.33 -29.3 -0.66 -31 -1 C-21.88096153 -7.07935898 -9.22460021 -4.76108398 0 0 Z " fill="#E9E6E1" transform="translate(769,583)"/>
<path d="M0 0 C0.66 0.66 1.32 1.32 2 2 C1.67257812 2.66386719 1.34515625 3.32773437 1.0078125 4.01171875 C-0.22423374 7.66487912 -0.21959396 11.01055042 -0.125 14.8125 C-0.11146484 15.85180664 -0.11146484 15.85180664 -0.09765625 16.91210938 C-0.07426157 18.60822395 -0.03839641 20.30415871 0 22 C-0.99 22 -1.98 22 -3 22 C-3.33 22.66 -3.66 23.32 -4 24 C-4.33 23.67 -4.66 23.34 -5 23 C-5.33 24.32 -5.66 25.64 -6 27 C-7.6543676 21.93185798 -8.27163961 17.63826379 -8.25 12.25 C-8.25515625 10.95578125 -8.2603125 9.6615625 -8.265625 8.328125 C-8 5 -8 5 -6 2 C-4.68 2 -3.36 2 -2 2 C-1.34 1.34 -0.68 0.68 0 0 Z " fill="#EEEBE5" transform="translate(723,602)"/>
<path d="M0 0 C0.68707555 2.49064888 1 4.37886292 1 7 C-0.13671875 8.4375 -0.13671875 8.4375 -1.6875 10 C-6.71822094 15.60293564 -9.75769226 22.59958617 -11 30 C-8.03 30 -5.06 30 -2 30 C-2 30.33 -2 30.66 -2 31 C-5.3 31 -8.6 31 -12 31 C-12.33 30.34 -12.66 29.68 -13 29 C-13.99 29.66 -14.98 30.32 -16 31 C-13.75616112 19.13970876 -9.35591619 7.98675772 0 0 Z " fill="#1C1C1C" transform="translate(160,507)"/>
<path d="M0 0 C0.66 0.33 1.32 0.66 2 1 C1.44570313 1.53109375 0.89140625 2.0621875 0.3203125 2.609375 C-0.40414062 3.31578125 -1.12859375 4.0221875 -1.875 4.75 C-2.59429688 5.44609375 -3.31359375 6.1421875 -4.0546875 6.859375 C-5.8807333 8.86875873 -6.86502382 10.56644747 -8 13 C-10.46278801 15.46278801 -12.70676982 15.99771255 -16 17 C-16 16.34 -16 15.68 -16 15 C-16.66 14.67 -17.32 14.34 -18 14 C-17.28714844 13.57589844 -16.57429687 13.15179687 -15.83984375 12.71484375 C-9.81611775 9.02602096 -4.70395184 5.2819118 0 0 Z " fill="#E1E2E1" transform="translate(797,657)"/>
<path d="M0 0 C2 3 2 3 2 6 C2.66 6.33 3.32 6.66 4 7 C0.39006828 8.13480527 -2.9842327 8.10015767 -6.75 8.0625 C-7.92046875 8.05347656 -9.0909375 8.04445313 -10.296875 8.03515625 C-11.18890625 8.02355469 -12.0809375 8.01195312 -13 8 C-13 7.67 -13 7.34 -13 7 C-10.36 6.67 -7.72 6.34 -5 6 C-4.67 5.01 -4.34 4.02 -4 3 C-5.98 3 -7.96 3 -10 3 C-10 2.67 -10 2.34 -10 2 C-6.7 1.34 -3.4 0.68 0 0 Z " fill="#DEDCDA" transform="translate(273,629)"/>
<path d="M0 0 C0.66 0.33 1.32 0.66 2 1 C1.48308594 1.45890625 0.96617187 1.9178125 0.43359375 2.390625 C-0.55447266 3.31101562 -0.55447266 3.31101562 -1.5625 4.25 C-2.22378906 4.85328125 -2.88507812 5.4565625 -3.56640625 6.078125 C-5.27505507 7.90452353 -5.27505507 7.90452353 -4.71484375 10.234375 C-4.47894531 10.81703125 -4.24304688 11.3996875 -4 12 C-4.99 12.66 -5.98 13.32 -7 14 C-7.99 15.485 -7.99 15.485 -9 17 C-9.99 17.33 -10.98 17.66 -12 18 C-10.17301482 10.69205928 -5.4604995 5.04046107 0 0 Z " fill="#ECEBE8" transform="translate(729,586)"/>
<path d="M0 0 C1.98 0.66 3.96 1.32 6 2 C5.67 4.31 5.34 6.62 5 9 C3.72125 8.71125 2.4425 8.4225 1.125 8.125 C0.40570313 7.96257813 -0.31359375 7.80015625 -1.0546875 7.6328125 C-3 7 -3 7 -5 5 C-4.360625 4.731875 -3.72125 4.46375 -3.0625 4.1875 C-0.66868314 3.11332248 -0.66868314 3.11332248 0 0 Z " fill="#E7E6E6" transform="translate(253,642)"/>
<path d="M0 0 C1.32 0.66 2.64 1.32 4 2 C3.34 3.98 2.68 5.96 2 8 C1.67 7.34 1.34 6.68 1 6 C0.34 6 -0.32 6 -1 6 C-1.66 11.28 -2.32 16.56 -3 22 C-3.33 22 -3.66 22 -4 22 C-4.46251848 13.68751509 -4.22550835 7.30032023 0 0 Z " fill="#C4C3BF" transform="translate(233,598)"/>
<path d="M0 0 C0 1.65 0 3.3 0 5 C-0.99 5.33 -1.98 5.66 -3 6 C-3.66 5.01 -4.32 4.02 -5 3 C-6.32 3 -7.64 3 -9 3 C-9.33 4.98 -9.66 6.96 -10 9 C-10.33 9 -10.66 9 -11 9 C-11.625 6.125 -11.625 6.125 -12 3 C-8.62803192 -0.37196808 -4.5120049 -1.50400163 0 0 Z " fill="#E6E2DC" transform="translate(782,600)"/>
<path d="M0 0 C1.58971965 2.38457948 2.86741593 4.6304124 4.125 7.1875 C4.47820313 7.90292969 4.83140625 8.61835937 5.1953125 9.35546875 C5.46085938 9.89816406 5.72640625 10.44085937 6 11 C4.68 11.33 3.36 11.66 2 12 C-0.48772258 8.7162062 -1.03180444 7.38801417 -0.6875 3.1875 C-0.460625 2.135625 -0.23375 1.08375 0 0 Z " fill="#EBEBEB" transform="translate(693,639)"/>
<path d="M0 0 C0.70125 0.28875 1.4025 0.5775 2.125 0.875 C5.05452503 2.02133588 8.00921653 3.02625654 11 4 C9.75 5.5625 9.75 5.5625 8 7 C6 6.6875 6 6.6875 4 6 C3.01 6 2.02 6 1 6 C-0.0625 4.125 -0.0625 4.125 -1 2 C-0.67 1.34 -0.34 0.68 0 0 Z " fill="#F1F0EF" transform="translate(132,620)"/>
<path d="M0 0 C0.33 0.99 0.66 1.98 1 3 C-0.5 5 -0.5 5 -2 7 C-2.4640625 8.794375 -2.4640625 8.794375 -2.9375 10.625 C-4 14 -4 14 -6.125 15.4375 C-6.74375 15.623125 -7.3625 15.80875 -8 16 C-6.42986223 10.03347646 -3.24970218 5.17090975 0 0 Z " fill="#DDDDDB" transform="translate(693,573)"/>
<path d="M0 0 C0.2475 0.61875 0.495 1.2375 0.75 1.875 C2.20628639 4.35068687 3.37812506 4.95125002 6 6 C5.67 6.99 5.34 7.98 5 9 C3.68 9 2.36 9 1 9 C-0.32 6.36 -1.64 3.72 -3 1 C-2.01 0.67 -1.02 0.34 0 0 Z " fill="#F2F0EA" transform="translate(807,580)"/>
<path d="M0 0 C0.33 0 0.66 0 1 0 C1.10251672 5.12583611 1.03590199 9.94997778 0 15 C-2 13 -2 13 -2.1953125 10.8359375 C-2.17210937 10.02382813 -2.14890625 9.21171875 -2.125 8.375 C-2.10695313 7.55773437 -2.08890625 6.74046875 -2.0703125 5.8984375 C-2.04710937 5.27195312 -2.02390625 4.64546875 -2 4 C-1.34 4 -0.68 4 0 4 C0 2.68 0 1.36 0 0 Z " fill="#DCDCDC" transform="translate(461,401)"/>
<path d="M0 0 C3.465 1.98 3.465 1.98 7 4 C7 4.66 7 5.32 7 6 C4 7 4 7 1.875 6.25 C0 5 0 5 -1 2 C-0.67 1.34 -0.34 0.68 0 0 Z " fill="#E7E7E6" transform="translate(713,665)"/>
<path d="M0 0 C2.31 0 4.62 0 7 0 C7 0.66 7 1.32 7 2 C3.77208445 4.1519437 2.71599191 4.20086443 -1 4 C-0.67 2.68 -0.34 1.36 0 0 Z " fill="#FBF8F2" transform="translate(749,632)"/>
<path d="M0 0 C0.33 0.66 0.66 1.32 1 2 C0.06553465 4.03144641 -0.93224776 6.03533587 -2 8 C-2.66 8 -3.32 8 -4 8 C-4 10.31 -4 12.62 -4 15 C-4.33 15 -4.66 15 -5 15 C-5.42277492 8.86976372 -4.99795398 5.96715495 -1 1 C-0.67 0.67 -0.34 0.34 0 0 Z " fill="#383635" transform="translate(255,604)"/>
<path d="M0 0 C0.66 0.33 1.32 0.66 2 1 C1.79375 1.78375 1.5875 2.5675 1.375 3.375 C1.25125 4.24125 1.1275 5.1075 1 6 C1.66 6.66 2.32 7.32 3 8 C1.35 7.67 -0.3 7.34 -2 7 C-2.125 4.625 -2.125 4.625 -2 2 C-1.34 1.34 -0.68 0.68 0 0 Z " fill="#1A1917" transform="translate(740,588)"/>
<path d="M0 0 C2.475 0.99 2.475 0.99 5 2 C4.67 2.66 4.34 3.32 4 4 C3.77377919 5.70363822 3.59111527 7.41328701 3.4375 9.125 C3.31181641 10.49011719 3.31181641 10.49011719 3.18359375 11.8828125 C3.12300781 12.58148437 3.06242187 13.28015625 3 14 C2.67 14 2.34 14 2 14 C1.93941406 13.32453125 1.87882812 12.6490625 1.81640625 11.953125 C1.73261719 11.06109375 1.64882813 10.1690625 1.5625 9.25 C1.48128906 8.36828125 1.40007812 7.4865625 1.31640625 6.578125 C1.03761535 4.30649548 0.61209423 2.20148177 0 0 Z " fill="#DCDAD7" transform="translate(293,604)"/>
<path d="M0 0 C1.65 0 3.3 0 5 0 C4.125 3.875 4.125 3.875 3 5 C1.33382885 5.04063832 -0.33388095 5.042721 -2 5 C-1.01 4.67 -0.02 4.34 1 4 C0.67 2.68 0.34 1.36 0 0 Z " fill="#2B2929" transform="translate(760,591)"/>
<path d="M0 0 C1.32 0 2.64 0 4 0 C4.33 0.99 4.66 1.98 5 3 C4.401875 3.12375 3.80375 3.2475 3.1875 3.375 C0.73768652 3.95475985 0.73768652 3.95475985 -2 6 C-1.125 1.125 -1.125 1.125 0 0 Z " fill="#262524" transform="translate(288,602)"/>
<path d="M0 0 C0.99 0.33 1.98 0.66 3 1 C2.2575 1.5775 1.515 2.155 0.75 2.75 C-1.66087643 4.72253526 -3.84042701 6.76044282 -6 9 C-5.52797514 4.75177626 -3.03344482 2.80010291 0 0 Z " fill="#212020" transform="translate(241,586)"/>
<path d="M0 0 C0.66 0.33 1.32 0.66 2 1 C-0.475 5.455 -0.475 5.455 -3 10 C-3.66 8.68 -4.32 7.36 -5 6 C-4.34 5.34 -3.68 4.68 -3 4 C-3 3.34 -3 2.68 -3 2 C-2.01 1.34 -1.02 0.68 0 0 Z " fill="#EBE9E6" transform="translate(213,578)"/>
<path d="M0 0 C0.66 0 1.32 0 2 0 C4.1875 2.3125 4.1875 2.3125 6 5 C5.67 5.99 5.34 6.98 5 8 C3.02 5.69 1.04 3.38 -1 1 C-0.67 0.67 -0.34 0.34 0 0 Z " fill="#DFDFDF" transform="translate(307,566)"/>
<path d="M0 0 C0.33 0.99 0.66 1.98 1 3 C0.34 3 -0.32 3 -1 3 C-1.33 3.66 -1.66 4.32 -2 5 C-3.98 5 -5.96 5 -8 5 C-5.44008376 2.98863724 -2.95409701 1.37154504 0 0 Z " fill="#D5D5D5" transform="translate(301,667)"/>
<path d="M0 0 C2.475 0.495 2.475 0.495 5 1 C4.67 2.32 4.34 3.64 4 5 C2.68 5.33 1.36 5.66 0 6 C0 4.02 0 2.04 0 0 Z " fill="#FDFBF6" transform="translate(761,582)"/>
<path d="M0 0 C1.98 0 3.96 0 6 0 C1.375 4.875 1.375 4.875 -2 6 C-1.34 4.02 -0.68 2.04 0 0 Z " fill="#DFDFE1" transform="translate(344,383)"/>
<path d="M0 0 C0.66 0.33 1.32 0.66 2 1 C1.34 2.32 0.68 3.64 0 5 C-2.31 4.34 -4.62 3.68 -7 3 C-4.66785852 1.79371992 -2.50357861 0.8345262 0 0 Z " fill="#D3D3D2" transform="translate(286,674)"/>
<path d="M0 0 C1.32 0.66 2.64 1.32 4 2 C-1.2734375 5.22265625 -1.2734375 5.22265625 -3 6 C-3.66 5.67 -4.32 5.34 -5 5 C-3.625 3.5 -3.625 3.5 -2 2 C-1.34 2 -0.68 2 0 2 C0 1.34 0 0.68 0 0 Z " fill="#ECE9E6" transform="translate(281,583)"/>
</svg>
